<svg width="90" height="90" viewBox="0 0 90 90" fill="none" xmlns="http://www.w3.org/2000/svg">
<path d="M37.8292 7.17911C37.1869 7.16678 36.5866 7.49771 36.2542 8.04747L27.4194 18.6471C26.838 19.3431 26.8651 20.363 27.4827 21.0272L50.7526 46.069C51.105 46.585 51.6998 46.8814 52.3239 46.852C52.9481 46.8226 53.5124 46.4717 53.8148 45.9248L76.7507 21.2065C77.163 20.8764 77.4097 20.382 77.4252 19.8541C77.4408 19.3261 77.2237 18.818 76.8316 18.4643L68.162 8.06153C67.8215 7.48491 67.189 7.14498 66.5202 7.17911C66.4543 7.18252 66.3885 7.18956 66.3233 7.2002H52.4823C52.4368 7.19376 52.3911 7.18907 52.3452 7.18613C52.2903 7.18126 52.2351 7.17891 52.18 7.1791C52.1788 7.1791 52.1776 7.1791 52.1765 7.1791C52.173 7.17909 52.1694 7.17909 52.1659 7.1791C52.0835 7.18049 52.0013 7.18754 51.9198 7.20019H38.0507C37.9774 7.1886 37.9034 7.18156 37.8292 7.1791V7.17911ZM40.712 10.8002H48.3585L43.5808 16.5342L40.712 10.8002ZM56.0401 10.8002H63.6901L60.8214 16.5342L56.0401 10.8002ZM52.2011 11.8127L57.3585 18.0002H47.0437L52.2011 11.8127ZM37.4214 12.2662L40.2901 18.0002H32.6472L37.4214 12.2662ZM66.9808 12.2662L71.755 18.0002H64.112L66.9808 12.2662ZM32.9319 21.6002H41.9355L47.571 37.3537L32.9319 21.6002ZM45.7534 21.6002H58.6487L52.2151 39.6494L45.7534 21.6002ZM62.4702 21.6002H71.4737L56.8523 37.3572L62.4702 21.6002ZM79.4858 46.7721C79.158 46.777 78.8312 46.8072 78.505 46.86C77.635 47.0007 76.7793 47.3158 75.9913 47.8127L56.012 60.1244C55.5508 59.8723 54.9854 59.5938 54.2402 59.235C53.3838 58.8226 52.4883 58.4019 51.9831 58.1732C49.2639 56.9436 40.5945 53.3653 34.0148 50.4775C31.2 49.2423 28.1916 48.611 25.18 48.5826C22.1684 48.5543 19.151 49.1298 16.3136 50.3123L4.70851 55.1463C4.10057 55.3839 3.6689 55.9321 3.58038 56.5788C3.49185 57.2255 3.76034 57.8695 4.28206 58.2617C4.80377 58.654 5.49697 58.7332 6.09367 58.4686L17.6987 53.6346C22.4675 51.6472 27.835 51.6989 32.5663 53.7752C39.2094 56.6907 48.0204 60.3322 50.4995 61.4533C50.9448 61.6549 51.844 62.0777 52.6792 62.4799C53.5144 62.882 54.3923 63.327 54.4651 63.3693C55.2683 63.8365 55.8011 64.6727 55.8011 65.6791C55.8011 67.1926 54.6145 68.3791 53.1011 68.3791C52.8866 68.3791 52.6831 68.3551 52.4894 68.3088C52.4882 68.3088 52.487 68.3088 52.4859 68.3088C52.4404 68.298 51.0164 67.898 49.2901 67.3912C47.5639 66.8844 45.3675 66.2335 43.2081 65.5912C38.8894 64.3067 34.7179 63.0564 34.7179 63.0564C33.7655 62.771 32.7621 63.3117 32.4767 64.2641C32.1913 65.2164 32.7319 66.2199 33.6843 66.5053C33.6843 66.5053 37.862 67.7542 42.1851 69.04C44.3466 69.683 46.5438 70.3345 48.2776 70.8436C50.0098 71.3521 51.1125 71.6822 51.6526 71.8103C52.1213 71.9224 52.6064 71.9791 53.1011 71.9791C56.5592 71.9791 59.4011 69.1372 59.4011 65.6791C59.4011 64.6133 59.1227 63.6116 58.6487 62.7295L77.8968 50.8678C77.9027 50.8643 77.9085 50.8608 77.9144 50.8572C79.4208 49.9073 81.3593 50.3463 82.3089 51.8521C83.2313 53.3143 82.8457 55.1945 81.423 56.1764C81.4004 56.1911 81.3781 56.2063 81.3562 56.2221L52.964 77.7342C51.0259 79.2036 48.486 79.5988 46.1929 78.7853L25.2257 71.3533C20.3777 69.3524 14.8293 70.0262 10.6007 73.1287L4.32884 77.7307C3.78893 78.1031 3.4943 78.7397 3.55981 79.3923C3.62531 80.0449 4.04058 80.6103 4.64373 80.8679C5.24688 81.1256 5.94246 81.0349 6.4593 80.6311L12.7312 76.0326C15.951 73.6703 20.1599 73.1591 23.8511 74.6826C23.879 74.6939 23.9071 74.7044 23.9355 74.7143L44.9906 82.1779C48.4214 83.3949 52.2398 82.8019 55.1402 80.6029L83.4655 59.14C86.2502 57.2183 87.0683 53.5481 85.5995 50.5725C85.5592 50.3454 85.4757 50.1282 85.3534 49.9326C84.0488 47.8638 81.7806 46.7379 79.4859 46.7721H79.4858Z" fill="#313433"/>
</svg>
