<svg width="90" height="90" viewBox="0 0 90 90" fill="none" xmlns="http://www.w3.org/2000/svg">
<g clip-path="url(#clip0)">
<path d="M23.3996 3.6001C22.4042 3.6001 21.5996 4.4065 21.5996 5.4001V84.6001C21.5996 85.2445 21.9433 85.8406 22.5031 86.161C23.0629 86.4814 23.7504 86.478 24.3066 86.154L44.9996 74.0849L65.6926 86.154C65.9716 86.3178 66.2864 86.4001 66.5996 86.4001C66.9092 86.4001 67.2189 86.3212 67.4961 86.161C68.0559 85.8406 68.3996 85.2445 68.3996 84.6001V59.7024L64.7996 62.0052V81.4677L45.9066 70.4462C45.6276 70.2824 45.3128 70.2001 44.9996 70.2001C44.6864 70.2001 44.3716 70.2824 44.0926 70.4462L25.1996 81.4677V7.2001H64.7996V23.7692L65.4219 22.138L65.9668 21.5931C66.3628 21.1971 67.2277 20.4574 68.4031 20.011V5.4001C68.4031 4.4065 67.5985 3.6001 66.6031 3.6001L23.3996 3.6001ZM70.3121 23.2384C69.5921 23.2384 68.8721 23.7784 68.5121 24.1384L64.1914 35.4798L52.1328 36.2005C51.4128 36.2005 50.6921 36.7391 50.5121 37.4591C50.3321 38.1791 50.5128 39.0784 51.2328 39.4384L60.4121 47.0005L57.35 58.7005C57.17 59.4205 57.5307 60.3198 58.0707 60.6798C58.4307 60.8598 58.79 61.0384 59.15 61.0384C59.5118 61.0384 59.8746 60.8598 60.2328 60.6798L70.3121 54.2005L80.3914 60.8591C80.9314 61.3991 81.8307 61.2191 82.3707 60.8591C83.0907 60.3191 83.2714 59.5998 83.0914 58.8798L80.0328 47.1798L89.3914 39.6212C89.9314 39.0812 90.1128 38.3584 89.9328 37.6384C89.7528 36.9184 89.0321 36.3798 88.3121 36.3798L76.25 35.6591L71.9328 24.3212C71.7528 23.7812 71.0321 23.2384 70.3121 23.2384L70.3121 23.2384ZM70.3121 30.0798L73.1914 38.1798C73.5514 38.7198 74.0921 39.2591 74.8121 39.2591L83.4535 39.8005L76.7914 45.2005C76.2514 45.5605 76.0735 46.2805 76.2535 47.0005L78.4121 55.2798L71.2121 50.6005C71.0321 50.4205 70.6721 50.2384 70.3121 50.2384C69.9503 50.2384 69.5928 50.4212 69.2328 50.4212L62.0328 55.1005L64.1914 46.8212C64.3714 46.2812 64.1935 45.3812 63.6535 45.0212L56.9914 39.6212L65.6328 39.2591C66.3528 39.0791 66.8935 38.7205 67.2535 38.0005L70.3121 30.0798Z" fill="#313433"/>
</g>
<defs>
<clipPath id="clip0">
<rect width="90" height="90" fill="white"/>
</clipPath>
</defs>
</svg>
