<svg width="90" height="90" viewBox="0 0 90 90" fill="none" xmlns="http://www.w3.org/2000/svg">
<path d="M16.875 16.875C10.6897 16.875 5.625 21.9397 5.625 28.125C5.625 34.3103 10.6897 39.375 16.875 39.375C19.5666 39.375 21.9617 38.3313 23.9062 36.7383L38.584 45.0879L24.082 53.3496C22.1155 51.6797 19.6326 50.625 16.875 50.625C10.6897 50.625 5.625 55.6897 5.625 61.875C5.625 68.0603 10.6897 73.125 16.875 73.125C23.0603 73.125 28.125 68.0603 28.125 61.875C28.125 60.4907 27.7954 59.1504 27.334 57.9199L84.375 25.3125H73.125L44.3848 41.748L27.334 32.0801C27.7954 30.8496 28.125 29.5093 28.125 28.125C28.125 21.9397 23.0603 16.875 16.875 16.875V16.875ZM16.875 22.5C20.0171 22.5 22.5 24.9829 22.5 28.125C22.5 31.2671 20.0171 33.75 16.875 33.75C13.7329 33.75 11.25 31.2671 11.25 28.125C11.25 27.7295 11.261 27.356 11.3379 26.9824C11.8543 24.4006 14.1284 22.5 16.875 22.5ZM53.7012 47.2852L48.0762 50.3613L73.125 64.6875H84.375L53.7012 47.2852ZM16.875 56.25C20.0171 56.25 22.5 58.7329 22.5 61.875C22.5 65.0171 20.0171 67.5 16.875 67.5C13.7329 67.5 11.25 65.0171 11.25 61.875C11.25 61.4795 11.261 61.106 11.3379 60.7324C11.8543 58.1506 14.1284 56.25 16.875 56.25Z" fill="#313433"/>
</svg>
