<svg width="90" height="90" viewBox="0 0 90 90" fill="none" xmlns="http://www.w3.org/2000/svg">
<path d="M26.0165 14.2031C25.3134 14.2031 24.6102 13.8516 24.1884 13.1484C23.6259 12.1641 23.9774 10.8281 24.9618 10.2656C31.0087 6.75 37.9696 4.92188 45.0009 4.92188C52.0321 4.92188 58.9931 6.75 65.0399 10.2656C66.0243 10.8281 66.3759 12.1641 65.8134 13.1484C65.2509 14.1328 63.9149 14.4844 62.9306 13.9219C57.5165 10.8281 51.329 9.14062 45.0009 9.14062C38.6728 9.14062 32.4853 10.8281 27.0712 13.9219C26.7196 14.1328 26.3681 14.2031 26.0165 14.2031H26.0165Z" fill="#313433"/>
<path d="M68.2025 28.8281C67.5697 28.8281 66.9369 28.5469 66.515 28.0547C61.3119 21.375 53.4369 17.5781 44.9994 17.5781C42.89 17.5781 40.7103 17.8594 38.6712 18.3516C37.5462 18.6328 36.4212 17.9297 36.14 16.8047C35.8587 15.6797 36.5619 14.5547 37.6869 14.2734C40.0775 13.6406 42.5384 13.3594 44.9994 13.3594C54.7025 13.3594 63.7728 17.7188 69.8197 25.3828C70.5228 26.2969 70.3822 27.6328 69.4681 28.3359C69.1166 28.6875 68.6244 28.8281 68.2025 28.8281ZM21.7962 28.8281C21.3744 28.8281 20.8822 28.6875 20.4603 28.4062C19.5462 27.7031 19.4056 26.3672 20.1087 25.4531C22.5697 22.3594 25.5228 19.7578 28.9681 17.7187C29.9525 17.1562 31.2884 17.4375 31.8509 18.4922C32.4134 19.4766 32.1322 20.8125 31.0775 21.375C28.1244 23.1328 25.5228 25.3828 23.4134 28.0547C23.0619 28.6172 22.429 28.8281 21.7962 28.8281H21.7962ZM66.0931 58.3594C64.8978 58.3594 63.9837 57.4453 63.9837 56.25V45C63.9837 41.9062 63.2103 38.8125 61.7337 36.0703C61.1712 35.0156 61.5931 33.75 62.5775 33.1875C63.6322 32.625 64.8978 33.0469 65.4603 34.0312C67.2884 37.4062 68.2025 41.2031 68.2025 45V56.25C68.2025 57.4453 67.2884 58.3594 66.0931 58.3594Z" fill="#313433"/>
<path d="M57.4453 30.0937C57.0234 30.0937 56.6016 29.9531 56.1797 29.6719C52.9453 27.2812 49.0781 26.0156 45 26.0156C41.5547 26.0156 38.1094 26.9297 35.2266 28.7578C34.2422 29.3906 32.9062 29.0391 32.3437 28.0547C31.7109 27.0703 32.0625 25.7344 33.0469 25.1719C36.6328 22.9219 40.7812 21.7969 45 21.7969C49.9922 21.7969 54.7031 23.3437 58.7109 26.2266C59.625 26.9297 59.8359 28.2656 59.2031 29.1797C58.7109 29.7422 58.0781 30.0937 57.4453 30.0937V30.0937ZM23.9062 47.1094C22.7109 47.1094 21.7969 46.1953 21.7969 45C21.7969 40.9219 22.8516 36.9141 24.8906 33.3984C25.4531 32.4141 26.7891 32.0625 27.7734 32.625C28.7578 33.1875 29.1094 34.5234 28.5469 35.5078C26.8594 38.3906 26.0156 41.6953 26.0156 45C26.0156 46.1953 25.1016 47.1094 23.9062 47.1094L23.9062 47.1094Z" fill="#313433"/>
<path d="M23.9062 55.5466H16.875C15.6797 55.5466 14.7656 54.6326 14.7656 53.4372C14.7656 52.2419 15.6797 51.3279 16.875 51.3279H23.9062C27.4219 51.3279 30.2344 48.5154 30.2344 44.9997C30.2344 39.7966 32.9062 35.0857 37.3359 32.4138C38.3203 31.781 39.6563 32.1326 40.2188 33.1169C40.8516 34.1013 40.5 35.4372 39.5156 35.9997C36.3516 37.8982 34.4531 41.2732 34.4531 44.9997C34.4531 50.8357 29.7422 55.5466 23.9062 55.5466ZM57.0234 43.5232C56.1094 43.5232 55.2656 42.9607 54.9844 42.0466C53.7188 38.1091 50.4141 35.156 46.4062 34.5935C45.2812 34.4529 44.4375 33.3279 44.6484 32.2029C44.7891 31.0779 45.9141 30.2341 47.0391 30.4451C52.5938 31.2185 57.3047 35.2966 58.9922 40.8513C59.3438 41.9763 58.7109 43.1716 57.5859 43.5232C57.4453 43.4529 57.2344 43.5232 57.0234 43.5232V43.5232ZM70.3125 66.7966H66.0938C60.2578 66.7966 55.5469 62.0857 55.5469 56.2497V50.0622C55.5469 48.8669 56.4609 47.9529 57.6562 47.9529C58.8516 47.9529 59.7656 48.8669 59.7656 50.0622V56.2497C59.7656 59.7654 62.5781 62.5779 66.0938 62.5779H70.3125C71.5078 62.5779 72.4219 63.4919 72.4219 64.6872C72.4219 65.8826 71.5078 66.7966 70.3125 66.7966Z" fill="#313433"/>
<path d="M24.1875 72.4221H22.5C21.3047 72.4221 20.3906 71.508 20.3906 70.3127C20.3906 69.1174 21.3047 68.2033 22.5 68.2033H24.1875C36.8438 68.2033 47.1094 57.9377 47.1094 45.2815C47.1094 44.0158 46.1953 42.8908 45.0703 42.8908H45C44.2969 42.8908 43.8047 43.2424 43.5234 43.4533C43.3828 43.594 43.1016 43.9455 42.9609 44.3674C42.8906 44.5783 42.8906 44.7893 42.8906 45.0002C42.8906 46.1955 41.9766 47.1096 40.7812 47.1096C39.5859 47.1096 38.6719 46.1955 38.6719 45.0002C38.6719 44.3674 38.7422 43.8049 38.9531 43.2424C39.375 41.9065 40.0781 40.9924 40.6406 40.5002C41.3437 39.7971 42.8906 38.6721 45.2812 38.7424C48.6562 38.883 51.3281 41.8362 51.3281 45.3518C51.3281 60.258 39.1641 72.4221 24.1875 72.4221L24.1875 72.4221Z" fill="#313433"/>
<path d="M23.9062 63.9844H18.2812C17.0859 63.9844 16.1719 63.0703 16.1719 61.875C16.1719 60.6797 17.0859 59.7657 18.2812 59.7657H23.9062C29.6016 59.7657 34.6641 56.6016 37.1953 51.4688C37.6875 50.4141 38.9531 49.9922 40.0078 50.4844C41.0625 50.9766 41.4844 52.2422 40.9922 53.2969C37.7578 59.9063 31.2187 63.9844 23.9062 63.9844H23.9062ZM29.7422 80.3672C28.7578 80.3672 27.8437 79.6641 27.6328 78.6094C27.4219 77.4844 28.1953 76.3594 29.3203 76.1485C35.9297 75.0235 42.0469 71.7891 46.5469 67.1485C47.7422 65.8828 49.4297 65.1797 51.1875 65.1797C52.875 65.1797 54.4219 65.8125 55.6172 67.0079C58.2187 69.6797 61.7344 71.0157 66.0234 71.0157C67.2188 71.0157 68.1328 71.9297 68.1328 73.125C68.1328 74.3204 67.2188 75.2344 66.0234 75.2344C59.2031 75.2344 54.9844 72.4219 52.5938 70.0313C52.1016 69.5391 51.5391 69.3985 51.1875 69.4688C50.625 69.4688 49.9922 69.75 49.5703 70.1719C44.4375 75.4454 37.4766 79.1016 30.0234 80.3672C30.0234 80.3672 29.8828 80.3672 29.7422 80.3672L29.7422 80.3672Z" fill="#313433"/>
<path d="M15.4687 47.109C14.2734 47.109 13.3594 46.1949 13.3594 44.9996C13.3594 42.0465 13.7812 39.1637 14.5547 36.3512C15.9609 31.4996 18.4922 26.9293 22.0078 23.2731C22.7813 22.4293 24.1172 22.359 24.9609 23.2028C25.8047 23.9762 25.875 25.3121 25.0312 26.1559C22.0078 29.3903 19.7578 33.2574 18.5625 37.5465C17.8594 40.0074 17.5078 42.4684 17.5078 45.0699C17.5781 46.1949 16.6641 47.109 15.4687 47.109V47.109Z" fill="#313433"/>
<path d="M74.5316 49.2186C73.3363 49.2186 72.4222 48.3046 72.4222 47.1093V44.9999C72.4222 35.8593 67.9222 27.3515 60.3285 22.289C59.3441 21.6561 59.1332 20.3202 59.766 19.3358C60.3988 18.3515 61.7348 18.1405 62.7191 18.7733C71.4379 24.6796 76.641 34.453 76.641 44.9999V47.1093C76.641 48.3046 75.7269 49.2186 74.5316 49.2186V49.2186Z" fill="#313433"/>
<path d="M74.5312 57.6565C74.3906 57.6565 74.25 57.6565 74.1094 57.5862C73.9688 57.5862 73.8281 57.5159 73.6875 57.4456C73.5469 57.3753 73.4766 57.305 73.3359 57.2347C73.1953 57.1644 73.125 57.094 72.9844 56.9534C72.5625 56.5315 72.3516 56.0393 72.3516 55.4769C72.3516 54.9143 72.5625 54.3519 72.9844 54.0003C73.0547 53.93 73.1953 53.7894 73.3359 53.719C73.4766 53.6487 73.5469 53.5784 73.6875 53.5081C73.8281 53.4378 73.9688 53.4378 74.1094 53.3675C74.8125 53.2268 75.5156 53.4378 76.0078 53.93C76.4297 54.3519 76.6406 54.844 76.6406 55.4065C76.6406 55.969 76.4297 56.5315 76.0078 56.8831C75.6563 57.4456 75.0938 57.6565 74.5313 57.6565L74.5312 57.6565Z" fill="#313433"/>
</svg>
