<svg width="64" height="64" viewBox="0 0 64 64" fill="none" xmlns="http://www.w3.org/2000/svg">
<circle cx="32" cy="32" r="32" fill="white"/>
<path d="M56.4074 32.8918C56.3974 32.8546 56.3839 32.8194 56.3679 32.7859L57.3787 31.9622L60.0491 32.0062L60.279 31.8544L57.9689 31.4811L59.7829 30.0027L59.5078 29.9862L57.2172 31.3596L55.93 31.1517C55.9271 31.1146 55.9212 31.0773 55.9113 31.0401C55.8241 30.7147 55.4896 30.5216 55.1642 30.6088C54.8389 30.696 54.6458 31.0305 54.7329 31.3559C54.8201 31.6812 55.1546 31.8743 55.48 31.7871C55.6797 31.7336 55.8292 31.5868 55.8951 31.4062L56.4484 31.537C56.5987 31.5726 56.7256 31.6661 56.806 31.7927C56.7997 31.9426 56.7366 32.0869 56.6241 32.1929L56.2103 32.5828C56.0631 32.4594 55.8601 32.407 55.6604 32.4605C55.335 32.5477 55.1419 32.8821 55.2291 33.2075C55.3163 33.5329 55.6507 33.726 55.9761 33.6388C56.3015 33.5516 56.4946 33.2171 56.4074 32.8918V32.8918ZM54.9854 31.2882C54.9356 31.1023 55.046 30.9111 55.2319 30.8613C55.4178 30.8115 55.6089 30.9219 55.6588 31.1078C55.7086 31.2937 55.5982 31.4848 55.4123 31.5346C55.2264 31.5845 55.0353 31.4741 54.9854 31.2882ZM57.276 31.7569L57.1077 31.802L57.0626 31.6337L57.2309 31.5886L57.276 31.7569ZM55.4816 33.1398C55.4318 32.9539 55.5421 32.7628 55.728 32.713C55.914 32.6631 56.1051 32.7735 56.1549 32.9594C56.2047 33.1453 56.0944 33.3365 55.9085 33.3863C55.7225 33.4361 55.5314 33.3258 55.4816 33.1398Z" fill="#131B12"/>
<path fill-rule="evenodd" clip-rule="evenodd" d="M18.1641 27.9964C18.1946 27.7809 18.2099 27.4655 18.2099 27.05C18.2099 26.6345 18.1297 26.2575 17.9695 25.919C17.8092 25.5727 17.5917 25.3034 17.3169 25.1111C16.8361 24.7802 16.111 24.6148 15.1417 24.6148C14.18 24.6148 13.329 24.7918 12.5887 25.1457C11.856 25.4919 11.2416 25.9805 10.7455 26.6114C9.86149 27.7339 9.36828 29.2142 9.26588 31.0524H6.58691C6.69933 30.1671 6.90634 29.3407 7.20793 28.5734C7.68877 27.3501 8.34514 26.3114 9.17706 25.4573C10.009 24.5956 10.9783 23.9339 12.085 23.4722C13.1993 23.0106 14.2793 22.7798 15.3249 22.7798C16.3781 22.7798 17.2215 22.8683 17.855 23.0452C18.4885 23.2222 19.0151 23.4646 19.4349 23.7723C20.2744 24.4032 20.6942 25.2419 20.6942 26.2883C20.6942 27.0885 20.4004 27.654 19.8127 27.9848C19.6142 28.1002 19.4005 28.1579 19.1716 28.1579C18.6984 28.1579 18.3625 28.1041 18.1641 27.9964ZM6.50781 33.416C6.63666 35.5736 7.35469 37.3217 8.66188 38.6603C10.1273 40.176 12.0964 40.9339 14.5693 40.9339C16.2942 40.9339 17.7748 40.5261 19.0113 39.7105C19.5303 39.372 19.9233 39.0219 20.1905 38.6603C20.4652 38.291 20.6026 38.014 20.6026 37.8294C20.6026 37.637 20.5797 37.4831 20.5339 37.3677C20.3889 37.0292 20.2019 36.8253 19.9729 36.756C19.7287 37.0253 19.4578 37.2754 19.1601 37.5062C18.1755 38.2833 16.8017 38.6719 15.0387 38.6719C13.2451 38.6719 11.8217 38.0294 10.7684 36.7445C10.0343 35.8543 9.56571 34.7448 9.36247 33.416H6.50781ZM23.8653 33.416C23.3998 34.1985 23.1671 35.0695 23.1671 36.0289C23.1671 37.5908 23.7967 38.8219 25.0561 39.7221C26.1704 40.5146 27.4755 40.9108 28.9714 40.9108C31.2458 40.9108 33.3333 40.1837 35.2337 38.7296L37.1456 40.0914C37.9394 40.6531 38.6415 40.9339 39.2521 40.9339C39.8856 40.9339 40.4809 40.6608 41.0381 40.1145C41.2747 39.8837 41.4655 39.6336 41.6105 39.3643C41.7555 39.0873 41.828 38.868 41.828 38.7065C41.828 38.5372 41.7555 38.3987 41.6105 38.291C41.5494 38.2525 41.4846 38.2217 41.4159 38.1987C41.3548 38.1756 41.2976 38.1717 41.2442 38.1871C41.1984 38.2025 41.0724 38.2833 40.8664 38.4295C40.6603 38.568 40.4046 38.6372 40.0993 38.6372C39.5269 38.6372 38.8247 38.3372 37.9928 37.737L37.0311 37.033C37.4356 36.5637 37.7905 36.0866 38.0958 35.6019C38.5981 34.805 38.965 34.0764 39.1963 33.416L36.2929 33.416C36.0161 34.2342 35.663 34.9821 35.2337 35.6596C34.5304 35.1157 33.6129 34.3678 32.4809 33.416H28.6451C28.8386 33.6065 29.0466 33.8081 29.2691 34.0208C30.0094 34.721 31.4519 35.8943 33.5966 37.5408C32.4289 38.4949 31.0092 38.9719 29.3378 38.9719C28.4143 38.9719 27.6205 38.6603 26.9565 38.0371C26.2238 37.36 25.8574 36.429 25.8574 35.2442C25.8574 34.5772 26.0386 33.9679 26.401 33.416L23.8653 33.416ZM36.8525 31.0524H39.3501C39.111 30.4769 38.5708 30.1892 37.7295 30.1892C37.4624 30.1892 37.2029 30.2122 36.951 30.2584C36.9239 30.5284 36.8911 30.7931 36.8525 31.0524ZM49.2585 33.416C49.9785 33.7546 50.5774 34.1024 51.0555 34.4594C51.46 34.7671 51.7844 35.1018 52.0286 35.4634C52.2728 35.8251 52.3949 36.2367 52.3949 36.6983C52.3949 37.1523 52.3072 37.5485 52.1316 37.8871C51.6279 38.8565 50.6395 39.3412 49.1665 39.3412C47.8843 39.3412 46.8844 39.0373 46.167 38.4295C45.4572 37.8217 45.0527 36.8522 44.9535 35.5211C44.8771 35.2288 44.5947 35.0826 44.1063 35.0826C43.8544 35.0826 43.656 35.1711 43.5109 35.348C43.0835 36.0943 42.8698 36.8984 42.8698 37.7601C42.8698 38.191 42.9576 38.5564 43.1331 38.8565C43.4766 39.4489 44.0528 39.9067 44.8619 40.2299C45.9609 40.6838 47.2279 40.9108 48.6627 40.9108C50.4716 40.9108 51.9752 40.4876 53.1734 39.6413C54.4557 38.7334 55.0968 37.537 55.0968 36.052C55.0968 35.0585 54.816 34.1799 54.2543 33.416H49.2585ZM51.0218 31.0524L44.9172 31.0524C44.8476 30.9891 44.7796 30.9244 44.713 30.8585C43.7666 29.9199 43.2934 28.7619 43.2934 27.3847C43.2934 25.9767 43.8926 24.8495 45.0908 24.0031C46.2433 23.1876 47.7316 22.7798 49.5557 22.7798C51.8683 22.7798 53.3795 23.2607 54.0893 24.2224C54.3488 24.5687 54.4786 25.0226 54.4786 25.5843C54.4786 26.1459 54.4251 26.6345 54.3183 27.05C54.2191 27.4655 54.1198 27.7348 54.0206 27.8579C53.8527 28.0656 53.5627 28.1695 53.1505 28.1695C52.746 28.1695 52.5438 28.0694 52.5438 27.8694C52.5438 26.1075 51.9217 25.0034 50.6777 24.5571C50.2503 24.4032 49.7503 24.3263 49.1779 24.3263C48.6055 24.3263 48.1132 24.3917 47.7011 24.5225C47.2889 24.6533 46.9455 24.8303 46.6707 25.0534C46.1136 25.5073 45.835 26.1075 45.835 26.8538C45.835 27.9848 46.6593 28.9504 48.3078 29.7506L49.7389 30.4315C50.1772 30.6354 50.6048 30.8424 51.0218 31.0524ZM29.9078 31.0524L26.4199 31.0524C26.4461 31.0376 26.4723 31.023 26.4986 31.0086C25.5522 29.7006 25.079 28.5311 25.079 27.5001C25.079 26.1305 25.5827 25.0072 26.5901 24.1301C27.5366 23.3145 28.6471 22.9067 29.9216 22.9067C31.0512 22.9067 31.9862 23.1337 32.7265 23.5877C33.5584 24.0955 33.9744 24.8072 33.9744 25.7228C33.9744 26.723 33.5203 27.4231 32.612 27.8232C32.4289 27.8848 32.2609 27.9156 32.1083 27.9156C31.9633 27.9156 31.8145 27.8502 31.6618 27.7194C31.7152 27.4885 31.7419 27.2116 31.7419 26.8884V26.623C31.6733 26.0536 31.4405 25.6035 31.0436 25.2727C30.6467 24.9341 30.101 24.7649 29.4065 24.7649C28.483 24.7649 27.8495 25.0957 27.506 25.7574C27.3763 26.0036 27.3114 26.3229 27.3114 26.7153C27.3114 27.1077 27.4221 27.5424 27.6434 28.0194C27.8647 28.4888 28.1662 28.9773 28.5478 29.4852C28.9371 29.993 29.3874 30.5123 29.8987 31.0432C29.9018 31.0463 29.9048 31.0494 29.9078 31.0524Z" fill="#131B12"/>
<path d="M7.78364 31.6388C7.74022 31.6388 7.71766 31.686 7.71595 31.7803V32.3175C7.71595 32.5144 7.66939 32.6649 7.57628 32.7687C7.48489 32.872 7.35436 32.9236 7.18471 32.9236C7.04076 32.9236 6.92281 32.8857 6.83084 32.8099C6.71431 32.715 6.65604 32.5574 6.65604 32.3372V31.7212C6.65547 31.6955 6.65262 31.6776 6.64748 31.6675C6.64291 31.6573 6.63205 31.6504 6.61492 31.6469C6.59778 31.6433 6.58236 31.64 6.56865 31.637C6.55551 31.6334 6.54437 31.6293 6.53523 31.6245C6.51695 31.6149 6.50781 31.5988 6.50781 31.5761C6.50781 31.5552 6.51238 31.5388 6.52152 31.5269C6.53466 31.5317 6.56294 31.5341 6.60635 31.5341H6.9388C7.00392 31.5341 7.03648 31.557 7.03648 31.603C7.03648 31.6233 7.03219 31.6385 7.02363 31.6487C7.00249 31.6427 6.9825 31.6397 6.96365 31.6397C6.94537 31.6397 6.93052 31.6421 6.91909 31.6469C6.90824 31.651 6.89824 31.6588 6.8891 31.6701C6.86854 31.6958 6.85826 31.7355 6.85826 31.7892V32.2745C6.85826 32.4589 6.89367 32.5914 6.9645 32.672C7.01934 32.7335 7.09531 32.7642 7.19242 32.7642C7.43805 32.7642 7.56086 32.6043 7.56086 32.2843V31.7454C7.56086 31.6982 7.54829 31.6687 7.52316 31.6567C7.51516 31.6525 7.50402 31.649 7.48974 31.646C7.47603 31.643 7.46232 31.64 7.44861 31.637C7.43548 31.6334 7.42434 31.6293 7.4152 31.6245C7.39692 31.6149 7.38778 31.5988 7.38778 31.5761C7.38778 31.554 7.39235 31.5376 7.40149 31.5269C7.41463 31.5317 7.4429 31.5341 7.48632 31.5341H7.77078C7.79992 31.5341 7.82334 31.5388 7.84104 31.5484C7.85932 31.5579 7.86846 31.5758 7.86846 31.6021C7.86846 31.6224 7.86418 31.6376 7.85561 31.6478C7.83276 31.6418 7.80877 31.6388 7.78364 31.6388Z" fill="#131B12"/>
<path d="M8.63876 32.9111C8.62733 32.9081 8.60905 32.9066 8.58392 32.9066H8.32687C8.27203 32.9066 8.2369 32.8965 8.22148 32.8762C8.21519 32.8684 8.21205 32.8594 8.21205 32.8493C8.21205 32.8242 8.21662 32.8057 8.22576 32.7938C8.23947 32.7986 8.25518 32.801 8.27289 32.801C8.2906 32.801 8.30373 32.7935 8.3123 32.7786C8.32087 32.7636 8.32487 32.7359 8.3243 32.6953V31.586C8.3243 31.5448 8.3203 31.5182 8.3123 31.5063C8.30031 31.4872 8.27917 31.4776 8.2489 31.4776C8.23976 31.4776 8.23033 31.4788 8.22062 31.4812C8.21148 31.483 8.20434 31.4827 8.1992 31.4803C8.19463 31.4773 8.19092 31.4735 8.18806 31.4687C8.18064 31.4568 8.18121 31.4448 8.18977 31.4329C8.19891 31.4203 8.21177 31.4072 8.22833 31.3935C8.2449 31.3798 8.26318 31.3678 8.28317 31.3577C8.32601 31.3344 8.36285 31.3228 8.3937 31.3228C8.42512 31.3228 8.44825 31.3275 8.4631 31.3371C8.47853 31.3466 8.48995 31.3595 8.49738 31.3756C8.50994 31.4018 8.51623 31.4442 8.51623 31.5027V32.7043C8.51623 32.7538 8.53051 32.7842 8.55907 32.7956C8.56707 32.7992 8.57649 32.8021 8.58735 32.8045C8.59877 32.8069 8.60905 32.8099 8.61819 32.8135C8.62733 32.8165 8.63447 32.8201 8.63961 32.8242C8.64818 32.832 8.65246 32.8445 8.65246 32.8618C8.65246 32.8827 8.64789 32.8991 8.63876 32.9111ZM9.0012 31.8152C9.09031 31.8152 9.13486 31.8438 9.13486 31.9011C9.13486 31.9734 9.06546 32.073 8.92665 32.2002C8.87296 32.2497 8.81898 32.2921 8.76471 32.3273C8.80127 32.3625 8.83868 32.4082 8.87695 32.4643L8.96692 32.5968C9.04232 32.7096 9.09916 32.766 9.13743 32.766C9.16885 32.766 9.18941 32.7628 9.19912 32.7562C9.20941 32.7496 9.21683 32.746 9.2214 32.7454C9.22597 32.7448 9.23197 32.7469 9.23939 32.7517C9.24682 32.7565 9.25053 32.7645 9.25053 32.7759C9.25053 32.7872 9.24596 32.8016 9.23682 32.8189C9.22826 32.8356 9.21597 32.8517 9.19998 32.8672C9.16114 32.9048 9.11915 32.9236 9.07403 32.9236C9.0289 32.9236 8.99091 32.9126 8.96007 32.8905C8.92922 32.8678 8.90037 32.8389 8.87353 32.8036C8.84668 32.7678 8.82126 32.7281 8.79727 32.6846L8.72615 32.5574C8.66846 32.4536 8.61905 32.3861 8.57792 32.3551C8.55393 32.3378 8.54593 32.3267 8.55393 32.3219L8.57878 32.3076L8.71673 32.2047C8.77556 32.1587 8.81612 32.1226 8.8384 32.0963C8.88181 32.0456 8.90352 32.0032 8.90352 31.9692C8.90352 31.9453 8.88067 31.9316 8.83497 31.928C8.82926 31.9185 8.8264 31.9083 8.8264 31.8976C8.8264 31.8868 8.83183 31.8764 8.84268 31.8662C8.85411 31.8555 8.86839 31.8465 8.88552 31.8394C8.92208 31.8232 8.96064 31.8152 9.0012 31.8152Z" fill="#131B12"/>
<path d="M10.026 32.9111C10.014 32.9081 9.99569 32.9066 9.97113 32.9066H9.68066C9.62583 32.9066 9.5907 32.8965 9.57527 32.8762C9.56899 32.8684 9.56585 32.8594 9.56585 32.8493C9.56585 32.8242 9.57042 32.8057 9.57956 32.7938C9.59327 32.7986 9.60583 32.801 9.61726 32.801C9.62925 32.801 9.63925 32.7995 9.64725 32.7965C9.65524 32.7929 9.66153 32.7872 9.6661 32.7795C9.67409 32.7651 9.67809 32.7371 9.67809 32.6953V32.1098C9.67809 32.0536 9.6681 32.0187 9.6481 32.005C9.64011 31.9996 9.62954 31.9969 9.6164 31.9969C9.60326 31.9969 9.5927 31.999 9.5847 32.0032C9.57727 32.0074 9.57099 32.0104 9.56585 32.0122C9.56128 32.014 9.55728 32.014 9.55385 32.0122C9.55042 32.0098 9.547 32.0065 9.54357 32.0023C9.535 31.9916 9.53072 31.9814 9.53072 31.9719C9.53072 31.9617 9.53415 31.951 9.541 31.9396C9.54843 31.9277 9.56014 31.9143 9.57613 31.8994C9.59212 31.8838 9.6104 31.8698 9.63097 31.8573C9.67724 31.8292 9.72351 31.8152 9.76977 31.8152C9.82233 31.8152 9.85346 31.851 9.86317 31.9226C9.86602 31.9435 9.86774 31.9653 9.86831 31.988C9.95171 31.911 10.0377 31.8582 10.1262 31.8295C10.1559 31.82 10.1828 31.8152 10.2068 31.8152C10.2313 31.8152 10.2513 31.8188 10.2667 31.8259C10.2827 31.8331 10.2953 31.8429 10.3044 31.8555C10.3216 31.88 10.3301 31.9113 10.3301 31.9495C10.3301 31.9877 10.3284 32.0181 10.325 32.0408C10.3216 32.0635 10.3173 32.0835 10.3121 32.1008C10.3019 32.136 10.2922 32.1584 10.283 32.168C10.267 32.1853 10.2456 32.1939 10.2188 32.1939C10.1913 32.1939 10.1776 32.1856 10.1776 32.1688C10.1776 32.105 10.1751 32.0641 10.1699 32.0462C10.1602 32.0134 10.1419 31.9969 10.1151 31.9969C10.0882 31.9969 10.064 32.0002 10.0422 32.0068C10.0205 32.0128 9.99941 32.0211 9.97884 32.0319C9.93714 32.0533 9.90058 32.0811 9.86917 32.1151V32.7105C9.87088 32.7577 9.89059 32.7863 9.92829 32.7965C9.93914 32.7995 9.95142 32.8021 9.96513 32.8045C9.97884 32.8069 9.99055 32.8099 10.0003 32.8135C10.0105 32.8165 10.0185 32.8201 10.0243 32.8242C10.034 32.832 10.0388 32.8445 10.0388 32.8618C10.0388 32.8833 10.0345 32.8997 10.026 32.9111Z" fill="#131B12"/>
<path d="M11.2787 32.7929C11.1953 32.88 11.0944 32.9236 10.9762 32.9236C10.8848 32.9236 10.8117 32.8962 10.7568 32.8412C10.7014 32.7857 10.6737 32.7138 10.6737 32.6255C10.6737 32.5156 10.7206 32.4333 10.8143 32.3784C10.8988 32.3282 11.0179 32.3031 11.1716 32.3031H11.2787C11.2792 32.2805 11.2795 32.2584 11.2795 32.2369V32.1697C11.2795 32.0898 11.2684 32.0334 11.2461 32.0005C11.221 31.9635 11.1781 31.945 11.1176 31.945C10.9788 31.945 10.9074 31.9969 10.9034 32.1008C10.9028 32.1169 10.9031 32.1303 10.9042 32.1411C10.8928 32.1506 10.8734 32.1554 10.846 32.1554C10.8191 32.1554 10.7994 32.1521 10.7868 32.1456C10.7748 32.139 10.7643 32.13 10.7551 32.1187C10.7357 32.0954 10.726 32.0659 10.726 32.0301C10.726 31.9937 10.736 31.962 10.756 31.9352C10.7766 31.9077 10.8043 31.8853 10.8391 31.868C10.9071 31.8328 10.9873 31.8152 11.0799 31.8152C11.1724 31.8152 11.2418 31.8247 11.2881 31.8438C11.3349 31.8623 11.3721 31.8871 11.3995 31.9182C11.448 31.9731 11.4723 32.0468 11.4723 32.1393L11.4637 32.5691C11.4637 32.6473 11.4672 32.6968 11.474 32.7177C11.4814 32.7386 11.49 32.7526 11.4997 32.7598C11.51 32.7669 11.5223 32.7705 11.5366 32.7705C11.5514 32.7705 11.5634 32.7681 11.5725 32.7633L11.5965 32.7517C11.6045 32.7487 11.6114 32.7523 11.6171 32.7625C11.6234 32.772 11.6265 32.7807 11.6265 32.7884C11.6265 32.7956 11.6234 32.8051 11.6171 32.8171C11.6114 32.829 11.6003 32.8418 11.5837 32.8556C11.5677 32.8687 11.5494 32.8803 11.5289 32.8905C11.4152 32.9466 11.3378 32.9335 11.2966 32.8511C11.2881 32.835 11.2821 32.8156 11.2787 32.7929ZM11.2761 32.6756C11.2761 32.5897 11.2767 32.5043 11.2778 32.4195C11.159 32.4243 11.0782 32.4324 11.0353 32.4437C10.993 32.4545 10.9625 32.4649 10.9436 32.4751C10.9248 32.4852 10.9099 32.4971 10.8991 32.5109C10.8814 32.5335 10.8725 32.5679 10.8725 32.6138C10.8725 32.6592 10.8879 32.6956 10.9188 32.7231C10.9496 32.7499 10.9939 32.7633 11.0516 32.7633C11.1333 32.7633 11.2081 32.7341 11.2761 32.6756Z" fill="#131B12"/>
<path d="M12.1612 31.6487C12.1418 31.6487 12.1238 31.6457 12.1072 31.6397C12.0912 31.6331 12.0772 31.6239 12.0652 31.6119C12.0401 31.5869 12.0275 31.5532 12.0275 31.5108C12.0275 31.4702 12.0424 31.4359 12.0721 31.4078C12.1006 31.3798 12.1349 31.3657 12.1749 31.3657C12.2149 31.3657 12.2469 31.3783 12.2709 31.4033C12.2949 31.4284 12.3069 31.4624 12.3069 31.5054C12.3069 31.546 12.2926 31.5803 12.264 31.6084C12.236 31.6352 12.2018 31.6487 12.1612 31.6487ZM12.1089 32.9066C12.021 32.9066 11.977 32.8857 11.977 32.8439C11.977 32.8224 11.9815 32.8057 11.9907 32.7938C12.0044 32.7986 12.017 32.801 12.0284 32.801C12.0815 32.801 12.1075 32.7657 12.1064 32.6953V32.0954C12.1064 32.0536 12.1006 32.0247 12.0892 32.0086C12.0784 31.9919 12.0587 31.9835 12.0301 31.9835C12.009 31.9835 11.9898 31.9862 11.9727 31.9916C11.9624 31.9928 11.955 31.9844 11.9504 31.9665C11.9464 31.9504 11.9487 31.9364 11.9573 31.9244C11.9658 31.9119 11.979 31.8991 11.9967 31.8859C12.015 31.8722 12.035 31.8603 12.0567 31.8501C12.1035 31.8268 12.1426 31.8152 12.174 31.8152C12.2055 31.8152 12.2286 31.82 12.2434 31.8295C12.2589 31.8391 12.2706 31.8519 12.2786 31.868C12.2911 31.8943 12.2974 31.9367 12.2974 31.9952V32.7105C12.2991 32.7577 12.3154 32.7863 12.3463 32.7965C12.3548 32.7995 12.3654 32.8021 12.378 32.8045C12.3905 32.8069 12.4017 32.8099 12.4114 32.8135C12.4217 32.8165 12.4297 32.8201 12.4354 32.8242C12.4451 32.832 12.4499 32.8445 12.4499 32.8618C12.4499 32.8833 12.4457 32.8997 12.4371 32.9111C12.4251 32.9081 12.4068 32.9066 12.3823 32.9066H12.1089Z" fill="#131B12"/>
<path d="M13.2571 32.9111C13.2457 32.9081 13.2274 32.9066 13.2022 32.9066H12.9289C12.8741 32.9066 12.8389 32.8965 12.8235 32.8762C12.8172 32.8684 12.8141 32.8594 12.8141 32.8493C12.8141 32.8242 12.8187 32.8057 12.8278 32.7938C12.8415 32.7986 12.8569 32.801 12.8741 32.801C12.8918 32.801 12.9049 32.7935 12.9135 32.7786C12.9226 32.7636 12.9269 32.7359 12.9263 32.6953V32.1098C12.9263 32.0536 12.9163 32.0187 12.8964 32.005C12.8884 31.9996 12.8778 31.9969 12.8647 31.9969C12.8515 31.9969 12.8409 31.999 12.833 32.0032C12.8255 32.0074 12.8192 32.0104 12.8141 32.0122C12.8095 32.014 12.8055 32.014 12.8021 32.0122C12.7987 32.0098 12.7952 32.0065 12.7918 32.0023C12.7833 31.9928 12.779 31.9829 12.779 31.9728C12.779 31.962 12.7824 31.951 12.7893 31.9396C12.7967 31.9277 12.8084 31.9143 12.8244 31.8994C12.8404 31.8838 12.8587 31.8698 12.8792 31.8573C12.9255 31.8292 12.9718 31.8152 13.018 31.8152C13.0711 31.8152 13.1026 31.8519 13.1123 31.9253C13.1151 31.9468 13.1168 31.9689 13.1174 31.9916C13.2025 31.917 13.2951 31.8638 13.395 31.8322C13.431 31.8209 13.4673 31.8152 13.5039 31.8152C13.541 31.8152 13.5761 31.8203 13.6092 31.8304C13.6429 31.8406 13.6721 31.857 13.6966 31.8797C13.7486 31.9274 13.7746 32.002 13.7746 32.1035V32.7105C13.7763 32.7571 13.7929 32.7857 13.8243 32.7965C13.8329 32.7995 13.8434 32.8021 13.856 32.8045C13.8686 32.8069 13.8797 32.8099 13.8894 32.8135C13.8997 32.8165 13.9077 32.8201 13.9134 32.8242C13.9231 32.832 13.928 32.8445 13.928 32.8618C13.928 32.8827 13.9234 32.8991 13.9143 32.9111C13.9028 32.9081 13.8846 32.9066 13.8594 32.9066H13.5861C13.5313 32.9066 13.4961 32.8965 13.4807 32.8762C13.4744 32.8684 13.4713 32.8594 13.4713 32.8493C13.4713 32.8242 13.4759 32.8057 13.485 32.7938C13.4987 32.7986 13.5113 32.801 13.5227 32.801C13.5347 32.801 13.5447 32.7995 13.5527 32.7965C13.5607 32.7929 13.567 32.7872 13.5715 32.7795C13.5795 32.7651 13.5835 32.7371 13.5835 32.6953V32.1671C13.5835 32.0656 13.5547 32.0089 13.497 31.9969C13.4793 31.9934 13.457 31.9916 13.4302 31.9916C13.4039 31.9916 13.3748 31.9957 13.3428 32.0041C13.3108 32.0125 13.2808 32.0232 13.2528 32.0363C13.1991 32.0614 13.154 32.093 13.1174 32.1312V32.7105C13.1191 32.7571 13.1354 32.7857 13.1663 32.7965C13.1754 32.7995 13.186 32.8021 13.198 32.8045C13.2105 32.8069 13.222 32.8099 13.2322 32.8135C13.2425 32.8165 13.2505 32.8201 13.2562 32.8242C13.2659 32.832 13.2708 32.8445 13.2708 32.8618C13.2708 32.8827 13.2662 32.8991 13.2571 32.9111Z" fill="#131B12"/>
<path d="M14.4764 31.6487C14.4569 31.6487 14.4389 31.6457 14.4224 31.6397C14.4064 31.6331 14.3924 31.6239 14.3804 31.6119C14.3553 31.5869 14.3427 31.5532 14.3427 31.5108C14.3427 31.4702 14.3575 31.4359 14.3872 31.4078C14.4158 31.3798 14.4501 31.3657 14.4901 31.3657C14.53 31.3657 14.562 31.3783 14.586 31.4033C14.61 31.4284 14.622 31.4624 14.622 31.5054C14.622 31.546 14.6077 31.5803 14.5792 31.6084C14.5512 31.6352 14.5169 31.6487 14.4764 31.6487ZM14.4241 32.9066C14.3361 32.9066 14.2921 32.8857 14.2921 32.8439C14.2921 32.8224 14.2967 32.8057 14.3058 32.7938C14.3196 32.7986 14.3321 32.801 14.3435 32.801C14.3967 32.801 14.4227 32.7657 14.4215 32.6953V32.0954C14.4215 32.0536 14.4158 32.0247 14.4044 32.0086C14.3935 31.9919 14.3738 31.9835 14.3453 31.9835C14.3241 31.9835 14.305 31.9862 14.2879 31.9916C14.2776 31.9928 14.2701 31.9844 14.2656 31.9665C14.2616 31.9504 14.2639 31.9364 14.2724 31.9244C14.281 31.9119 14.2941 31.8991 14.3118 31.8859C14.3301 31.8722 14.3501 31.8603 14.3718 31.8501C14.4187 31.8268 14.4578 31.8152 14.4892 31.8152C14.5206 31.8152 14.5438 31.82 14.5586 31.8295C14.574 31.8391 14.5857 31.8519 14.5937 31.868C14.6063 31.8943 14.6126 31.9367 14.6126 31.9952V32.7105C14.6143 32.7577 14.6306 32.7863 14.6614 32.7965C14.67 32.7995 14.6806 32.8021 14.6931 32.8045C14.7057 32.8069 14.7168 32.8099 14.7266 32.8135C14.7368 32.8165 14.7448 32.8201 14.7505 32.8242C14.7603 32.832 14.7651 32.8445 14.7651 32.8618C14.7651 32.8833 14.7608 32.8997 14.7523 32.9111C14.7403 32.9081 14.722 32.9066 14.6974 32.9066H14.4241Z" fill="#131B12"/>
<path d="M15.717 32.7929C15.6337 32.88 15.5328 32.9236 15.4146 32.9236C15.3232 32.9236 15.2501 32.8962 15.1952 32.8412C15.1398 32.7857 15.1121 32.7138 15.1121 32.6255C15.1121 32.5156 15.159 32.4333 15.2526 32.3784C15.3372 32.3282 15.4563 32.3031 15.6099 32.3031H15.717C15.7176 32.2805 15.7179 32.2584 15.7179 32.2369V32.1697C15.7179 32.0898 15.7068 32.0334 15.6845 32.0005C15.6594 31.9635 15.6165 31.945 15.556 31.945C15.4172 31.945 15.3458 31.9969 15.3418 32.1008C15.3412 32.1169 15.3415 32.1303 15.3426 32.1411C15.3312 32.1506 15.3118 32.1554 15.2843 32.1554C15.2575 32.1554 15.2378 32.1521 15.2252 32.1456C15.2132 32.139 15.2027 32.13 15.1935 32.1187C15.1741 32.0954 15.1644 32.0659 15.1644 32.0301C15.1644 31.9937 15.1744 31.962 15.1944 31.9352C15.2149 31.9077 15.2426 31.8853 15.2775 31.868C15.3455 31.8328 15.4257 31.8152 15.5183 31.8152C15.6108 31.8152 15.6802 31.8247 15.7265 31.8438C15.7733 31.8623 15.8104 31.8871 15.8379 31.9182C15.8864 31.9731 15.9107 32.0468 15.9107 32.1393L15.9021 32.5691C15.9021 32.6473 15.9056 32.6968 15.9124 32.7177C15.9198 32.7386 15.9284 32.7526 15.9381 32.7598C15.9484 32.7669 15.9607 32.7705 15.975 32.7705C15.9898 32.7705 16.0018 32.7681 16.0109 32.7633L16.0349 32.7517C16.0429 32.7487 16.0498 32.7523 16.0555 32.7625C16.0618 32.772 16.0649 32.7807 16.0649 32.7884C16.0649 32.7956 16.0618 32.8051 16.0555 32.8171C16.0498 32.829 16.0386 32.8418 16.0221 32.8556C16.0061 32.8687 15.9878 32.8803 15.9672 32.8905C15.8536 32.9466 15.7762 32.9335 15.735 32.8511C15.7265 32.835 15.7205 32.8156 15.717 32.7929ZM15.7145 32.6756C15.7145 32.5897 15.715 32.5043 15.7162 32.4195C15.5974 32.4243 15.5165 32.4324 15.4737 32.4437C15.4314 32.4545 15.4009 32.4649 15.382 32.4751C15.3632 32.4852 15.3483 32.4971 15.3375 32.5109C15.3198 32.5335 15.3109 32.5679 15.3109 32.6138C15.3109 32.6592 15.3263 32.6956 15.3572 32.7231C15.388 32.7499 15.4323 32.7633 15.49 32.7633C15.5717 32.7633 15.6465 32.7341 15.7145 32.6756Z" fill="#131B12"/>
<path d="M16.8609 32.9111C16.8495 32.9081 16.8312 32.9066 16.8061 32.9066H16.5328C16.4779 32.9066 16.4428 32.8965 16.4274 32.8762C16.4211 32.8684 16.4179 32.8594 16.4179 32.8493C16.4179 32.8242 16.4225 32.8057 16.4316 32.7938C16.4454 32.7986 16.4608 32.801 16.4779 32.801C16.4956 32.801 16.5088 32.7935 16.5173 32.7786C16.5265 32.7636 16.5308 32.7359 16.5302 32.6953V32.1098C16.5302 32.0536 16.5202 32.0187 16.5002 32.005C16.4922 31.9996 16.4816 31.9969 16.4685 31.9969C16.4554 31.9969 16.4448 31.999 16.4368 32.0032C16.4294 32.0074 16.4231 32.0104 16.4179 32.0122C16.4134 32.014 16.4094 32.014 16.4059 32.0122C16.4025 32.0098 16.3991 32.0065 16.3957 32.0023C16.3871 31.9928 16.3828 31.9829 16.3828 31.9728C16.3828 31.962 16.3862 31.951 16.3931 31.9396C16.4005 31.9277 16.4122 31.9143 16.4282 31.8994C16.4442 31.8838 16.4625 31.8698 16.4831 31.8573C16.5293 31.8292 16.5756 31.8152 16.6219 31.8152C16.675 31.8152 16.7064 31.8519 16.7161 31.9253C16.719 31.9468 16.7207 31.9689 16.7213 31.9916C16.8064 31.917 16.8989 31.8638 16.9989 31.8322C17.0349 31.8209 17.0711 31.8152 17.1077 31.8152C17.1448 31.8152 17.1799 31.8203 17.2131 31.8304C17.2468 31.8406 17.2759 31.857 17.3005 31.8797C17.3525 31.9274 17.3784 32.002 17.3784 32.1035V32.7105C17.3802 32.7571 17.3967 32.7857 17.4281 32.7965C17.4367 32.7995 17.4473 32.8021 17.4598 32.8045C17.4724 32.8069 17.4836 32.8099 17.4933 32.8135C17.5035 32.8165 17.5115 32.8201 17.5173 32.8242C17.527 32.832 17.5318 32.8445 17.5318 32.8618C17.5318 32.8827 17.5273 32.8991 17.5181 32.9111C17.5067 32.9081 17.4884 32.9066 17.4633 32.9066H17.1899C17.1351 32.9066 17.1 32.8965 17.0846 32.8762C17.0783 32.8684 17.0751 32.8594 17.0751 32.8493C17.0751 32.8242 17.0797 32.8057 17.0888 32.7938C17.1025 32.7986 17.1151 32.801 17.1265 32.801C17.1385 32.801 17.1485 32.7995 17.1565 32.7965C17.1645 32.7929 17.1708 32.7872 17.1754 32.7795C17.1834 32.7651 17.1874 32.7371 17.1874 32.6953V32.1671C17.1874 32.0656 17.1585 32.0089 17.1008 31.9969C17.0831 31.9934 17.0608 31.9916 17.034 31.9916C17.0077 31.9916 16.9786 31.9957 16.9466 32.0041C16.9146 32.0125 16.8846 32.0232 16.8566 32.0363C16.8029 32.0614 16.7578 32.093 16.7213 32.1312V32.7105C16.723 32.7571 16.7392 32.7857 16.7701 32.7965C16.7792 32.7995 16.7898 32.8021 16.8018 32.8045C16.8144 32.8069 16.8258 32.8099 16.8361 32.8135C16.8464 32.8165 16.8544 32.8201 16.8601 32.8242C16.8698 32.832 16.8746 32.8445 16.8746 32.8618C16.8746 32.8827 16.8701 32.8991 16.8609 32.9111Z" fill="#131B12"/>
<path d="M19.1821 32.9111C19.1707 32.9081 19.1524 32.9066 19.1272 32.9066H18.8539C18.7991 32.9066 18.7639 32.8965 18.7485 32.8762C18.7422 32.8684 18.7391 32.8594 18.7391 32.8493C18.7391 32.8242 18.7437 32.8057 18.7528 32.7938C18.7665 32.7986 18.7822 32.801 18.7999 32.801C18.8176 32.801 18.8308 32.7935 18.8393 32.7786C18.8479 32.7636 18.8519 32.7359 18.8513 32.6953V31.586C18.8513 31.5448 18.8473 31.5182 18.8393 31.5063C18.8274 31.4872 18.8062 31.4776 18.7759 31.4776H18.7588C18.7537 31.4776 18.7477 31.4785 18.7408 31.4803C18.7345 31.4815 18.7291 31.4809 18.7245 31.4785C18.72 31.4756 18.716 31.4717 18.7125 31.4669C18.7005 31.4484 18.7142 31.4233 18.7537 31.3917C18.8114 31.3457 18.8702 31.3228 18.9302 31.3228C18.9953 31.3228 19.0318 31.3595 19.0398 31.4329C19.0421 31.455 19.0433 31.4782 19.0433 31.5027V31.9907C19.1295 31.9149 19.2218 31.862 19.32 31.8322C19.356 31.8209 19.3923 31.8152 19.4288 31.8152C19.466 31.8152 19.5011 31.8203 19.5342 31.8304C19.5679 31.8406 19.5968 31.857 19.6208 31.8797C19.6733 31.9286 19.6996 32.0032 19.6996 32.1035V32.7043C19.6996 32.7538 19.7156 32.7842 19.7476 32.7956C19.7567 32.7992 19.7676 32.8021 19.7801 32.8045C19.7927 32.8069 19.8039 32.8099 19.8136 32.8135C19.8238 32.8165 19.8318 32.8201 19.8376 32.8242C19.8473 32.832 19.8521 32.8445 19.8521 32.8618C19.8521 32.8833 19.8478 32.8997 19.8393 32.9111C19.8273 32.9081 19.809 32.9066 19.7844 32.9066H19.5111C19.4563 32.9066 19.4211 32.8965 19.4057 32.8762C19.3994 32.8684 19.3963 32.8594 19.3963 32.8493C19.3963 32.8236 19.4006 32.8051 19.4091 32.7938C19.4234 32.7986 19.4388 32.801 19.4554 32.801C19.472 32.801 19.4845 32.7947 19.4931 32.7822C19.5022 32.7696 19.5074 32.7466 19.5085 32.7132V32.1671C19.5085 32.0656 19.4797 32.0089 19.422 31.9969C19.4043 31.9934 19.382 31.9916 19.3552 31.9916C19.3289 31.9916 19.2998 31.9957 19.2678 32.0041C19.2363 32.0125 19.2066 32.0232 19.1787 32.0363C19.1232 32.0626 19.0781 32.0939 19.0433 32.1303V32.7043C19.0433 32.7538 19.0593 32.7842 19.0913 32.7956C19.1004 32.7992 19.1112 32.8021 19.1238 32.8045C19.1364 32.8069 19.1475 32.8099 19.1572 32.8135C19.1675 32.8165 19.1755 32.8201 19.1812 32.8242C19.1909 32.832 19.1958 32.8445 19.1958 32.8618C19.1958 32.8827 19.1912 32.8991 19.1821 32.9111Z" fill="#131B12"/>
<path d="M20.7946 32.7929C20.7112 32.88 20.6104 32.9236 20.4922 32.9236C20.4008 32.9236 20.3277 32.8962 20.2728 32.8412C20.2174 32.7857 20.1897 32.7138 20.1897 32.6255C20.1897 32.5156 20.2366 32.4333 20.3302 32.3784C20.4148 32.3282 20.5339 32.3031 20.6875 32.3031H20.7946C20.7952 32.2805 20.7955 32.2584 20.7955 32.2369V32.1697C20.7955 32.0898 20.7844 32.0334 20.7621 32.0005C20.7369 31.9635 20.6941 31.945 20.6336 31.945C20.4947 31.945 20.4233 31.9969 20.4193 32.1008C20.4188 32.1169 20.4191 32.1303 20.4202 32.1411C20.4088 32.1506 20.3894 32.1554 20.3619 32.1554C20.3351 32.1554 20.3154 32.1521 20.3028 32.1456C20.2908 32.139 20.2803 32.13 20.2711 32.1187C20.2517 32.0954 20.242 32.0659 20.242 32.0301C20.242 31.9937 20.252 31.962 20.272 31.9352C20.2925 31.9077 20.3202 31.8853 20.3551 31.868C20.4231 31.8328 20.5033 31.8152 20.5959 31.8152C20.6884 31.8152 20.7578 31.8247 20.8041 31.8438C20.8509 31.8623 20.888 31.8871 20.9155 31.9182C20.964 31.9731 20.9883 32.0468 20.9883 32.1393L20.9797 32.5691C20.9797 32.6473 20.9831 32.6968 20.99 32.7177C20.9974 32.7386 21.006 32.7526 21.0157 32.7598C21.026 32.7669 21.0383 32.7705 21.0525 32.7705C21.0674 32.7705 21.0794 32.7681 21.0885 32.7633L21.1125 32.7517C21.1205 32.7487 21.1274 32.7523 21.1331 32.7625C21.1394 32.772 21.1425 32.7807 21.1425 32.7884C21.1425 32.7956 21.1394 32.8051 21.1331 32.8171C21.1274 32.829 21.1162 32.8418 21.0997 32.8556C21.0837 32.8687 21.0654 32.8803 21.0448 32.8905C20.9312 32.9466 20.8538 32.9335 20.8126 32.8511C20.8041 32.835 20.7981 32.8156 20.7946 32.7929ZM20.7921 32.6756C20.7921 32.5897 20.7926 32.5043 20.7938 32.4195C20.675 32.4243 20.5941 32.4324 20.5513 32.4437C20.509 32.4545 20.4785 32.4649 20.4596 32.4751C20.4408 32.4852 20.4259 32.4971 20.4151 32.5109C20.3974 32.5335 20.3885 32.5679 20.3885 32.6138C20.3885 32.6592 20.4039 32.6956 20.4348 32.7231C20.4656 32.7499 20.5099 32.7633 20.5676 32.7633C20.6493 32.7633 20.7241 32.7341 20.7921 32.6756Z" fill="#131B12"/>
<path d="M21.9385 32.9111C21.9271 32.9081 21.9088 32.9066 21.8837 32.9066H21.6103C21.5555 32.9066 21.5204 32.8965 21.505 32.8762C21.4987 32.8684 21.4955 32.8594 21.4955 32.8493C21.4955 32.8242 21.5001 32.8057 21.5092 32.7938C21.5229 32.7986 21.5384 32.801 21.5555 32.801C21.5732 32.801 21.5864 32.7935 21.5949 32.7786C21.6041 32.7636 21.6083 32.7359 21.6078 32.6953V32.1098C21.6078 32.0536 21.5978 32.0187 21.5778 32.005C21.5698 31.9996 21.5592 31.9969 21.5461 31.9969C21.5329 31.9969 21.5224 31.999 21.5144 32.0032C21.507 32.0074 21.5007 32.0104 21.4955 32.0122C21.491 32.014 21.487 32.014 21.4835 32.0122C21.4801 32.0098 21.4767 32.0065 21.4732 32.0023C21.4647 31.9928 21.4604 31.9829 21.4604 31.9728C21.4604 31.962 21.4638 31.951 21.4707 31.9396C21.4781 31.9277 21.4898 31.9143 21.5058 31.8994C21.5218 31.8838 21.5401 31.8698 21.5606 31.8573C21.6069 31.8292 21.6532 31.8152 21.6995 31.8152C21.7526 31.8152 21.784 31.8519 21.7937 31.9253C21.7966 31.9468 21.7983 31.9689 21.7988 31.9916C21.884 31.917 21.9765 31.8638 22.0765 31.8322C22.1124 31.8209 22.1487 31.8152 22.1853 31.8152C22.2224 31.8152 22.2575 31.8203 22.2907 31.8304C22.3244 31.8406 22.3535 31.857 22.3781 31.8797C22.43 31.9274 22.456 32.002 22.456 32.1035V32.7105C22.4578 32.7571 22.4743 32.7857 22.5057 32.7965C22.5143 32.7995 22.5249 32.8021 22.5374 32.8045C22.55 32.8069 22.5611 32.8099 22.5709 32.8135C22.5811 32.8165 22.5891 32.8201 22.5948 32.8242C22.6046 32.832 22.6094 32.8445 22.6094 32.8618C22.6094 32.8827 22.6048 32.8991 22.5957 32.9111C22.5843 32.9081 22.566 32.9066 22.5409 32.9066H22.2675C22.2127 32.9066 22.1776 32.8965 22.1621 32.8762C22.1559 32.8684 22.1527 32.8594 22.1527 32.8493C22.1527 32.8242 22.1573 32.8057 22.1664 32.7938C22.1801 32.7986 22.1927 32.801 22.2041 32.801C22.2161 32.801 22.2261 32.7995 22.2341 32.7965C22.2421 32.7929 22.2484 32.7872 22.253 32.7795C22.261 32.7651 22.265 32.7371 22.265 32.6953V32.1671C22.265 32.0656 22.2361 32.0089 22.1784 31.9969C22.1607 31.9934 22.1384 31.9916 22.1116 31.9916C22.0853 31.9916 22.0562 31.9957 22.0242 32.0041C21.9922 32.0125 21.9622 32.0232 21.9342 32.0363C21.8805 32.0614 21.8354 32.093 21.7988 32.1312V32.7105C21.8006 32.7571 21.8168 32.7857 21.8477 32.7965C21.8568 32.7995 21.8674 32.8021 21.8794 32.8045C21.892 32.8069 21.9034 32.8099 21.9137 32.8135C21.9239 32.8165 21.9319 32.8201 21.9377 32.8242C21.9474 32.832 21.9522 32.8445 21.9522 32.8618C21.9522 32.8827 21.9476 32.8991 21.9385 32.9111Z" fill="#131B12"/>
<path d="M23.653 32.7947C23.5645 32.8812 23.4671 32.9245 23.3609 32.9245C23.2438 32.9245 23.1484 32.8827 23.0747 32.7992C22.9947 32.7072 22.9547 32.5804 22.9547 32.4186C22.9547 32.2366 23.0101 32.0886 23.1209 31.9746C23.2243 31.8683 23.3466 31.8152 23.4877 31.8152C23.5442 31.8152 23.5985 31.825 23.6505 31.8447V31.586C23.6505 31.5442 23.6465 31.5176 23.6385 31.5063C23.6253 31.4872 23.6039 31.4776 23.5742 31.4776C23.5616 31.4776 23.5491 31.4791 23.5365 31.4821C23.5245 31.4845 23.5159 31.4845 23.5108 31.4821C23.5062 31.4791 23.5025 31.4753 23.4997 31.4705C23.4882 31.4508 23.5025 31.4257 23.5425 31.3953C23.6053 31.3469 23.6673 31.3228 23.7284 31.3228C23.793 31.3228 23.8298 31.3595 23.839 31.4329C23.8412 31.455 23.8424 31.4782 23.8424 31.5027V32.5422C23.8424 32.6341 23.8458 32.6914 23.8527 32.7141C23.8595 32.7368 23.8675 32.7517 23.8767 32.7589C23.8864 32.7654 23.8984 32.7687 23.9127 32.7687C23.9269 32.7687 23.9386 32.7663 23.9478 32.7616L23.9735 32.7499C23.9809 32.7481 23.9875 32.7517 23.9932 32.7607C24.0052 32.7792 24.0069 32.7959 23.9983 32.8108C23.9898 32.8257 23.9769 32.8401 23.9598 32.8538C23.9426 32.8675 23.9235 32.8794 23.9024 32.8896C23.8098 32.9332 23.7407 32.9341 23.695 32.8923C23.6727 32.872 23.6587 32.8395 23.653 32.7947ZM23.6505 32.0265C23.5945 31.9817 23.5294 31.9593 23.4551 31.9593C23.366 31.9593 23.2937 31.9937 23.2383 32.0623C23.1789 32.1357 23.1492 32.2357 23.1492 32.3622C23.1492 32.5634 23.2041 32.6875 23.3137 32.7347C23.348 32.749 23.3811 32.7562 23.4131 32.7562C23.4457 32.7562 23.4728 32.7535 23.4945 32.7481C23.5162 32.7428 23.5365 32.7356 23.5554 32.7266C23.5931 32.7087 23.6248 32.6869 23.6505 32.6613V32.0265Z" fill="#131B12"/>
<path d="M24.8192 32.9111C24.8078 32.9081 24.7895 32.9066 24.7643 32.9066H24.491C24.4362 32.9066 24.401 32.8965 24.3856 32.8762C24.3793 32.8684 24.3762 32.8594 24.3762 32.8493C24.3762 32.8242 24.3808 32.8057 24.3899 32.7938C24.4036 32.7986 24.419 32.801 24.4362 32.801C24.4539 32.801 24.467 32.7935 24.4756 32.7786C24.4847 32.7636 24.489 32.7359 24.4884 32.6953V32.1098C24.4884 32.0536 24.4784 32.0187 24.4585 32.005C24.4505 31.9996 24.4399 31.9969 24.4268 31.9969C24.4136 31.9969 24.403 31.999 24.395 32.0032C24.3876 32.0074 24.3813 32.0104 24.3762 32.0122C24.3716 32.014 24.3676 32.014 24.3642 32.0122C24.3608 32.0098 24.3573 32.0065 24.3539 32.0023C24.3454 31.9928 24.3411 31.9829 24.3411 31.9728C24.3411 31.962 24.3445 31.951 24.3514 31.9396C24.3588 31.9277 24.3705 31.9143 24.3865 31.8994C24.4025 31.8838 24.4208 31.8698 24.4413 31.8573C24.4876 31.8292 24.5339 31.8152 24.5801 31.8152C24.631 31.8152 24.6615 31.8489 24.6718 31.9164C24.6752 31.9367 24.6775 31.9575 24.6787 31.979C24.7643 31.908 24.854 31.8585 24.9477 31.8304C24.982 31.8203 25.0151 31.8152 25.0471 31.8152C25.183 31.8152 25.269 31.8713 25.305 31.9835C25.3941 31.9095 25.4847 31.8585 25.5766 31.8304C25.6115 31.8203 25.6469 31.8152 25.6829 31.8152C25.7189 31.8152 25.7534 31.8203 25.7865 31.8304C25.8202 31.8406 25.8491 31.857 25.8731 31.8797C25.9256 31.9286 25.9519 32.0032 25.9519 32.1035V32.7043C25.9519 32.7532 25.9679 32.7836 25.9999 32.7956C26.009 32.7992 26.0199 32.8021 26.0325 32.8045C26.045 32.8069 26.0564 32.8099 26.0667 32.8135C26.077 32.8165 26.085 32.8201 26.0907 32.8242C26.1004 32.832 26.1053 32.8445 26.1053 32.8618C26.1053 32.8827 26.1007 32.8991 26.0916 32.9111C26.0802 32.9081 26.0619 32.9066 26.0367 32.9066H25.7634C25.7086 32.9066 25.6734 32.8965 25.658 32.8762C25.6517 32.8684 25.6486 32.8594 25.6486 32.8493C25.6486 32.8242 25.6532 32.8057 25.6623 32.7938C25.676 32.7986 25.6912 32.801 25.7077 32.801C25.7243 32.801 25.7368 32.7953 25.7454 32.7839C25.7546 32.772 25.7597 32.7502 25.7608 32.7186V32.1671C25.7608 32.0656 25.732 32.0089 25.6743 31.9969C25.6566 31.9934 25.6355 31.9916 25.6109 31.9916C25.5869 31.9916 25.5606 31.9949 25.5321 32.0014C25.5041 32.0074 25.4772 32.0157 25.4515 32.0265C25.4018 32.0474 25.3584 32.0739 25.3213 32.1062V32.7043C25.3213 32.7538 25.3373 32.7842 25.3693 32.7956C25.3784 32.7992 25.3893 32.8021 25.4018 32.8045C25.4144 32.8069 25.4255 32.8099 25.4352 32.8135C25.4455 32.8165 25.4535 32.8201 25.4592 32.8242C25.4689 32.832 25.4738 32.8445 25.4738 32.8618C25.4738 32.8833 25.4695 32.8997 25.4609 32.9111C25.4495 32.9081 25.4312 32.9066 25.4061 32.9066H25.1328C25.0779 32.9066 25.0428 32.8965 25.0274 32.8762C25.0211 32.8684 25.018 32.8594 25.018 32.8493C25.018 32.8236 25.0223 32.8051 25.0308 32.7938C25.0451 32.7986 25.0605 32.801 25.0771 32.801C25.0937 32.801 25.1062 32.7947 25.1148 32.7822C25.1239 32.7696 25.1291 32.7466 25.1302 32.7132V32.1671C25.1302 32.0656 25.1014 32.0089 25.0437 31.9969C25.026 31.9934 25.0045 31.9916 24.9794 31.9916C24.9543 31.9916 24.9269 31.9952 24.8972 32.0023C24.8674 32.0095 24.8392 32.019 24.8123 32.031C24.7609 32.053 24.7166 32.0811 24.6795 32.1151V32.7043C24.6795 32.7532 24.6958 32.7836 24.7284 32.7956C24.7369 32.7992 24.7475 32.8021 24.7601 32.8045C24.7726 32.8069 24.7841 32.8099 24.7943 32.8135C24.8046 32.8165 24.8126 32.8201 24.8183 32.8242C24.828 32.832 24.8329 32.8445 24.8329 32.8618C24.8329 32.8827 24.8283 32.8991 24.8192 32.9111Z" fill="#131B12"/>
<path d="M27.0598 32.7929C26.9764 32.88 26.8756 32.9236 26.7573 32.9236C26.6659 32.9236 26.5928 32.8962 26.538 32.8412C26.4826 32.7857 26.4549 32.7138 26.4549 32.6255C26.4549 32.5156 26.5017 32.4333 26.5954 32.3784C26.6799 32.3282 26.799 32.3031 26.9527 32.3031H27.0598C27.0604 32.2805 27.0607 32.2584 27.0607 32.2369V32.1697C27.0607 32.0898 27.0495 32.0334 27.0272 32.0005C27.0021 31.9635 26.9593 31.945 26.8987 31.945C26.7599 31.945 26.6885 31.9969 26.6845 32.1008C26.6839 32.1169 26.6842 32.1303 26.6854 32.1411C26.6739 32.1506 26.6545 32.1554 26.6271 32.1554C26.6003 32.1554 26.5805 32.1521 26.568 32.1456C26.556 32.139 26.5454 32.13 26.5363 32.1187C26.5169 32.0954 26.5071 32.0659 26.5071 32.0301C26.5071 31.9937 26.5171 31.962 26.5371 31.9352C26.5577 31.9077 26.5854 31.8853 26.6202 31.868C26.6882 31.8328 26.7685 31.8152 26.861 31.8152C26.9536 31.8152 27.023 31.8247 27.0692 31.8438C27.1161 31.8623 27.1532 31.8871 27.1806 31.9182C27.2292 31.9731 27.2534 32.0468 27.2534 32.1393L27.2449 32.5691C27.2449 32.6473 27.2483 32.6968 27.2552 32.7177C27.2626 32.7386 27.2711 32.7526 27.2809 32.7598C27.2911 32.7669 27.3034 32.7705 27.3177 32.7705C27.3326 32.7705 27.3446 32.7681 27.3537 32.7633L27.3777 32.7517C27.3857 32.7487 27.3925 32.7523 27.3982 32.7625C27.4045 32.772 27.4077 32.7807 27.4077 32.7884C27.4077 32.7956 27.4045 32.8051 27.3982 32.8171C27.3925 32.829 27.3814 32.8418 27.3648 32.8556C27.3488 32.8687 27.3306 32.8803 27.31 32.8905C27.1963 32.9466 27.1189 32.9335 27.0778 32.8511C27.0692 32.835 27.0632 32.8156 27.0598 32.7929ZM27.0572 32.6756C27.0572 32.5897 27.0578 32.5043 27.0589 32.4195C26.9401 32.4243 26.8593 32.4324 26.8165 32.4437C26.7742 32.4545 26.7436 32.4649 26.7248 32.4751C26.7059 32.4852 26.6911 32.4971 26.6802 32.5109C26.6625 32.5335 26.6537 32.5679 26.6537 32.6138C26.6537 32.6592 26.6691 32.6956 26.6999 32.7231C26.7308 32.7499 26.775 32.7633 26.8327 32.7633C26.9144 32.7633 26.9893 32.7341 27.0572 32.6756Z" fill="#131B12"/>
<path d="M28.4376 32.7947C28.349 32.8812 28.2517 32.9245 28.1454 32.9245C28.0283 32.9245 27.9329 32.8827 27.8592 32.7992C27.7793 32.7072 27.7393 32.5804 27.7393 32.4186C27.7393 32.2366 27.7947 32.0886 27.9055 31.9746C28.0089 31.8683 28.1311 31.8152 28.2722 31.8152C28.3288 31.8152 28.383 31.825 28.435 31.8447V31.586C28.435 31.5442 28.431 31.5176 28.423 31.5063C28.4099 31.4872 28.3885 31.4776 28.3588 31.4776C28.3462 31.4776 28.3336 31.4791 28.3211 31.4821C28.3091 31.4845 28.3005 31.4845 28.2954 31.4821C28.2908 31.4791 28.2871 31.4753 28.2842 31.4705C28.2728 31.4508 28.2871 31.4257 28.3271 31.3953C28.3899 31.3469 28.4519 31.3228 28.513 31.3228C28.5775 31.3228 28.6144 31.3595 28.6235 31.4329C28.6258 31.455 28.6269 31.4782 28.6269 31.5027V32.5422C28.6269 32.6341 28.6304 32.6914 28.6372 32.7141C28.6441 32.7368 28.6521 32.7517 28.6612 32.7589C28.6709 32.7654 28.6829 32.7687 28.6972 32.7687C28.7115 32.7687 28.7232 32.7663 28.7323 32.7616L28.758 32.7499C28.7655 32.7481 28.772 32.7517 28.7777 32.7607C28.7897 32.7792 28.7915 32.7959 28.7829 32.8108C28.7743 32.8257 28.7615 32.8401 28.7443 32.8538C28.7272 32.8675 28.7081 32.8794 28.6869 32.8896C28.5944 32.9332 28.5253 32.9341 28.4796 32.8923C28.4573 32.872 28.4433 32.8395 28.4376 32.7947ZM28.435 32.0265C28.379 31.9817 28.3139 31.9593 28.2397 31.9593C28.1505 31.9593 28.0783 31.9937 28.0229 32.0623C27.9635 32.1357 27.9338 32.2357 27.9338 32.3622C27.9338 32.5634 27.9886 32.6875 28.0983 32.7347C28.1326 32.749 28.1657 32.7562 28.1977 32.7562C28.2302 32.7562 28.2574 32.7535 28.2791 32.7481C28.3008 32.7428 28.3211 32.7356 28.3399 32.7266C28.3776 32.7087 28.4093 32.6869 28.435 32.6613V32.0265Z" fill="#131B12"/>
<path d="M29.1428 32.4249C29.1428 32.3527 29.1499 32.2885 29.1642 32.2324C29.1785 32.1763 29.1976 32.1262 29.2216 32.082C29.2461 32.0372 29.2747 31.9981 29.3073 31.9647C29.3404 31.9313 29.3758 31.9035 29.4135 31.8814C29.4878 31.8373 29.5609 31.8152 29.6329 31.8152C29.7048 31.8152 29.7625 31.8286 29.8059 31.8555C29.8494 31.8817 29.8848 31.917 29.9122 31.9611C29.963 32.0453 29.9885 32.1572 29.9885 32.2969C29.9885 32.3488 29.9676 32.3754 29.9259 32.3766L29.3278 32.39C29.3313 32.5195 29.3632 32.6153 29.4238 32.6774C29.4752 32.7299 29.5418 32.7562 29.6234 32.7562C29.7451 32.7562 29.8439 32.7296 29.9199 32.6765C29.925 32.6765 29.9313 32.681 29.9388 32.6899C29.953 32.7078 29.9602 32.7234 29.9602 32.7365C29.9602 32.7651 29.9259 32.8018 29.8574 32.8466C29.7785 32.8979 29.6866 32.9236 29.5815 32.9236C29.4444 32.9236 29.3367 32.878 29.2584 32.7866C29.1813 32.6971 29.1428 32.5765 29.1428 32.4249ZM29.333 32.2745C29.4975 32.2661 29.648 32.2551 29.7845 32.2414C29.7908 32.0516 29.728 31.9567 29.596 31.9567C29.5223 31.9567 29.4621 31.9865 29.4152 32.0462C29.3724 32.1011 29.345 32.1772 29.333 32.2745Z" fill="#131B12"/>
<path d="M31.8229 32.133C31.8229 32.0411 31.7864 31.9802 31.7133 31.9504C31.6898 31.9408 31.6644 31.9361 31.637 31.9361C31.6101 31.9361 31.585 31.9384 31.5616 31.9432C31.5387 31.948 31.5185 31.9555 31.5008 31.9656C31.4608 31.9883 31.4408 32.0208 31.4408 32.0632C31.4408 32.1038 31.4573 32.139 31.4905 32.1688C31.527 32.2005 31.595 32.2396 31.6944 32.2861C31.7938 32.3321 31.8703 32.3825 31.924 32.4374C31.9783 32.4918 32.0054 32.5544 32.0054 32.6255C32.0054 32.7055 31.974 32.7729 31.9112 32.8278C31.8375 32.8917 31.7355 32.9236 31.6053 32.9236C31.4459 32.9236 31.3357 32.8881 31.2746 32.8171C31.2534 32.792 31.2429 32.7601 31.2429 32.7213C31.2429 32.6276 31.2648 32.5729 31.3088 32.5574C31.3197 32.5538 31.33 32.5521 31.3397 32.5521C31.3665 32.5521 31.3811 32.5607 31.3834 32.578C31.3959 32.7272 31.4759 32.8018 31.6233 32.8018C31.7118 32.8018 31.7709 32.7759 31.8007 32.724C31.8104 32.7072 31.8152 32.6869 31.8152 32.6631C31.8152 32.6392 31.8078 32.6174 31.7929 32.5977C31.7787 32.578 31.7587 32.5598 31.733 32.5431C31.7073 32.5258 31.6767 32.5091 31.6413 32.493L31.5273 32.4392C31.3525 32.3557 31.2651 32.2447 31.2651 32.1062C31.2651 32.0166 31.3031 31.945 31.3791 31.8913C31.4511 31.8406 31.5439 31.8152 31.6576 31.8152C31.8118 31.8152 31.9078 31.8501 31.9455 31.9199C31.9552 31.9378 31.96 31.9575 31.96 31.979C31.96 32.0005 31.9589 32.0199 31.9566 32.0372C31.9543 32.0539 31.9515 32.0692 31.948 32.0829C31.9423 32.1092 31.9357 32.1277 31.9283 32.1384C31.9135 32.1497 31.892 32.1554 31.8641 32.1554C31.8366 32.1554 31.8229 32.148 31.8229 32.133Z" fill="#131B12"/>
<path d="M33.0242 32.142L33.0251 32.1098C33.0251 32.0984 33.0225 32.0793 33.0174 32.0525C33.0122 32.025 32.9956 32.0026 32.9677 31.9853C32.9402 31.968 32.9051 31.9593 32.8623 31.9593C32.82 31.9593 32.7823 31.9707 32.7492 31.9934C32.7166 32.0154 32.69 32.0453 32.6695 32.0829C32.6306 32.1545 32.6112 32.2503 32.6112 32.3703C32.6112 32.4837 32.6375 32.5759 32.69 32.647C32.7437 32.7198 32.8146 32.7562 32.9025 32.7562C32.9825 32.7562 33.0591 32.7332 33.1322 32.6872C33.1499 32.6759 33.1636 32.6661 33.1733 32.6577C33.179 32.6577 33.1856 32.6625 33.193 32.672C33.2073 32.6893 33.2144 32.7034 33.2144 32.7141C33.2144 32.7243 33.2104 32.7362 33.2024 32.7499C33.1944 32.7631 33.1827 32.7774 33.1673 32.7929C33.1524 32.8078 33.1345 32.823 33.1133 32.8386C33.0922 32.8541 33.0685 32.8681 33.0422 32.8806C32.9822 32.9093 32.9208 32.9236 32.858 32.9236C32.7951 32.9236 32.7363 32.9126 32.6815 32.8905C32.6272 32.8678 32.5804 32.8347 32.541 32.7911C32.4564 32.6986 32.4141 32.5714 32.4141 32.4097C32.4141 32.2258 32.4678 32.0781 32.5752 31.9665C32.6729 31.8656 32.7857 31.8152 32.9137 31.8152C32.9976 31.8152 33.0676 31.834 33.1236 31.8716C33.1824 31.911 33.2119 31.9629 33.2119 32.0274C33.2119 32.0626 33.2044 32.0892 33.1896 32.1071C33.1639 32.1387 33.1339 32.1545 33.0996 32.1545C33.0659 32.1545 33.0408 32.1503 33.0242 32.142Z" fill="#131B12"/>
<path d="M33.7996 31.6487C33.7802 31.6487 33.7622 31.6457 33.7457 31.6397C33.7297 31.6331 33.7157 31.6239 33.7037 31.6119C33.6785 31.5869 33.666 31.5532 33.666 31.5108C33.666 31.4702 33.6808 31.4359 33.7105 31.4078C33.7391 31.3798 33.7734 31.3657 33.8134 31.3657C33.8533 31.3657 33.8853 31.3783 33.9093 31.4033C33.9333 31.4284 33.9453 31.4624 33.9453 31.5054C33.9453 31.546 33.931 31.5803 33.9025 31.6084C33.8745 31.6352 33.8402 31.6487 33.7996 31.6487ZM33.7474 32.9066C33.6594 32.9066 33.6154 32.8857 33.6154 32.8439C33.6154 32.8224 33.62 32.8057 33.6291 32.7938C33.6428 32.7986 33.6554 32.801 33.6668 32.801C33.72 32.801 33.7459 32.7657 33.7448 32.6953V32.0954C33.7448 32.0536 33.7391 32.0247 33.7277 32.0086C33.7168 31.9919 33.6971 31.9835 33.6685 31.9835C33.6474 31.9835 33.6283 31.9862 33.6111 31.9916C33.6009 31.9928 33.5934 31.9844 33.5889 31.9665C33.5849 31.9504 33.5871 31.9364 33.5957 31.9244C33.6043 31.9119 33.6174 31.8991 33.6351 31.8859C33.6534 31.8722 33.6734 31.8603 33.6951 31.8501C33.7419 31.8268 33.7811 31.8152 33.8125 31.8152C33.8439 31.8152 33.867 31.82 33.8819 31.8295C33.8973 31.8391 33.909 31.8519 33.917 31.868C33.9296 31.8943 33.9359 31.9367 33.9359 31.9952V32.7105C33.9376 32.7577 33.9539 32.7863 33.9847 32.7965C33.9933 32.7995 34.0039 32.8021 34.0164 32.8045C34.029 32.8069 34.0401 32.8099 34.0498 32.8135C34.0601 32.8165 34.0681 32.8201 34.0738 32.8242C34.0835 32.832 34.0884 32.8445 34.0884 32.8618C34.0884 32.8833 34.0841 32.8997 34.0755 32.9111C34.0635 32.9081 34.0453 32.9066 34.0207 32.9066H33.7474Z" fill="#131B12"/>
<path d="M35.0223 32.133C35.0223 32.0411 34.9858 31.9802 34.9127 31.9504C34.8892 31.9408 34.8638 31.9361 34.8364 31.9361C34.8096 31.9361 34.7844 31.9384 34.761 31.9432C34.7382 31.948 34.7179 31.9555 34.7002 31.9656C34.6602 31.9883 34.6402 32.0208 34.6402 32.0632C34.6402 32.1038 34.6568 32.139 34.6899 32.1688C34.7264 32.2005 34.7944 32.2396 34.8938 32.2861C34.9932 32.3321 35.0698 32.3825 35.1234 32.4374C35.1777 32.4918 35.2048 32.5544 35.2048 32.6255C35.2048 32.7055 35.1734 32.7729 35.1106 32.8278C35.0369 32.8917 34.9349 32.9236 34.8047 32.9236C34.6453 32.9236 34.5351 32.8881 34.474 32.8171C34.4528 32.792 34.4423 32.7601 34.4423 32.7213C34.4423 32.6276 34.4643 32.5729 34.5082 32.5574C34.5191 32.5538 34.5294 32.5521 34.5391 32.5521C34.5659 32.5521 34.5805 32.5607 34.5828 32.578C34.5954 32.7272 34.6753 32.8018 34.8227 32.8018C34.9112 32.8018 34.9704 32.7759 35.0001 32.724C35.0098 32.7072 35.0146 32.6869 35.0146 32.6631C35.0146 32.6392 35.0072 32.6174 34.9924 32.5977C34.9781 32.578 34.9581 32.5598 34.9324 32.5431C34.9067 32.5258 34.8761 32.5091 34.8407 32.493L34.7267 32.4392C34.5519 32.3557 34.4645 32.2447 34.4645 32.1062C34.4645 32.0166 34.5025 31.945 34.5785 31.8913C34.6505 31.8406 34.7433 31.8152 34.857 31.8152C35.0112 31.8152 35.1072 31.8501 35.1449 31.9199C35.1546 31.9378 35.1594 31.9575 35.1594 31.979C35.1594 32.0005 35.1583 32.0199 35.156 32.0372C35.1537 32.0539 35.1509 32.0692 35.1474 32.0829C35.1417 32.1092 35.1352 32.1277 35.1277 32.1384C35.1129 32.1497 35.0915 32.1554 35.0635 32.1554C35.0361 32.1554 35.0223 32.148 35.0223 32.133Z" fill="#131B12"/>
<path d="M36.1962 32.133C36.1962 32.0411 36.1596 31.9802 36.0865 31.9504C36.0631 31.9408 36.0377 31.9361 36.0103 31.9361C35.9834 31.9361 35.9583 31.9384 35.9349 31.9432C35.912 31.948 35.8917 31.9555 35.874 31.9656C35.834 31.9883 35.8141 32.0208 35.8141 32.0632C35.8141 32.1038 35.8306 32.139 35.8638 32.1688C35.9003 32.2005 35.9683 32.2396 36.0677 32.2861C36.1671 32.3321 36.2436 32.3825 36.2973 32.4374C36.3516 32.4918 36.3787 32.5544 36.3787 32.6255C36.3787 32.7055 36.3473 32.7729 36.2845 32.8278C36.2108 32.8917 36.1088 32.9236 35.9786 32.9236C35.8192 32.9236 35.709 32.8881 35.6478 32.8171C35.6267 32.792 35.6161 32.7601 35.6161 32.7213C35.6161 32.6276 35.6381 32.5729 35.6821 32.5574C35.693 32.5538 35.7032 32.5521 35.7129 32.5521C35.7398 32.5521 35.7544 32.5607 35.7566 32.578C35.7692 32.7272 35.8492 32.8018 35.9966 32.8018C36.0851 32.8018 36.1442 32.7759 36.1739 32.724C36.1836 32.7072 36.1885 32.6869 36.1885 32.6631C36.1885 32.6392 36.1811 32.6174 36.1662 32.5977C36.1519 32.578 36.1319 32.5598 36.1062 32.5431C36.0805 32.5258 36.05 32.5091 36.0146 32.493L35.9006 32.4392C35.7258 32.3557 35.6384 32.2447 35.6384 32.1062C35.6384 32.0166 35.6764 31.945 35.7524 31.8913C35.8243 31.8406 35.9172 31.8152 36.0308 31.8152C36.1851 31.8152 36.281 31.8501 36.3187 31.9199C36.3284 31.9378 36.3333 31.9575 36.3333 31.979C36.3333 32.0005 36.3322 32.0199 36.3299 32.0372C36.3276 32.0539 36.3247 32.0692 36.3213 32.0829C36.3156 32.1092 36.309 32.1277 36.3016 32.1384C36.2867 32.1497 36.2653 32.1554 36.2373 32.1554C36.2099 32.1554 36.1962 32.148 36.1962 32.133Z" fill="#131B12"/>
<path d="M36.7746 32.4124C36.7746 32.3396 36.7814 32.2742 36.7951 32.2163C36.8088 32.1584 36.8277 32.1074 36.8517 32.0632C36.8757 32.019 36.9039 31.9814 36.9365 31.9504C36.9691 31.9187 37.0039 31.8931 37.041 31.8734C37.1136 31.8346 37.1933 31.8152 37.2801 31.8152C37.3915 31.8152 37.486 31.8576 37.5637 31.9423C37.65 32.0354 37.6931 32.1584 37.6931 32.3112C37.6931 32.5118 37.6408 32.6678 37.5363 32.7795C37.4455 32.8756 37.3366 32.9236 37.2098 32.9236C37.0773 32.9236 36.9711 32.875 36.8911 32.7777C36.8134 32.684 36.7746 32.5622 36.7746 32.4124ZM37.2604 32.7777C37.2987 32.7777 37.3329 32.7684 37.3632 32.7499C37.3935 32.7308 37.4192 32.7049 37.4403 32.672C37.4826 32.604 37.5037 32.5156 37.5037 32.407C37.5037 32.2876 37.4815 32.1862 37.4369 32.1026C37.3866 32.0065 37.3144 31.9584 37.2201 31.9584C37.1441 31.9584 37.0833 31.9889 37.0376 32.0498C36.9891 32.1142 36.9648 32.2044 36.9648 32.3202C36.9648 32.4652 36.9953 32.5798 37.0565 32.664C37.1113 32.7398 37.1793 32.7777 37.2604 32.7777Z" fill="#131B12"/>
<path d="M38.5636 32.9111C38.5516 32.9081 38.5334 32.9066 38.5088 32.9066H38.2183C38.1635 32.9066 38.1284 32.8965 38.1129 32.8762C38.1067 32.8684 38.1035 32.8594 38.1035 32.8493C38.1035 32.8242 38.1081 32.8057 38.1172 32.7938C38.1309 32.7986 38.1435 32.801 38.1549 32.801C38.1669 32.801 38.1769 32.7995 38.1849 32.7965C38.1929 32.7929 38.1992 32.7872 38.2038 32.7795C38.2118 32.7651 38.2158 32.7371 38.2158 32.6953V32.1098C38.2158 32.0536 38.2058 32.0187 38.1858 32.005C38.1778 31.9996 38.1672 31.9969 38.1541 31.9969C38.1409 31.9969 38.1304 31.999 38.1224 32.0032C38.1149 32.0074 38.1087 32.0104 38.1035 32.0122C38.0989 32.014 38.0949 32.014 38.0915 32.0122C38.0881 32.0098 38.0847 32.0065 38.0812 32.0023C38.0727 31.9916 38.0684 31.9814 38.0684 31.9719C38.0684 31.9617 38.0718 31.951 38.0787 31.9396C38.0861 31.9277 38.0978 31.9143 38.1138 31.8994C38.1298 31.8838 38.1481 31.8698 38.1686 31.8573C38.2149 31.8292 38.2612 31.8152 38.3074 31.8152C38.36 31.8152 38.3911 31.851 38.4008 31.9226C38.4037 31.9435 38.4054 31.9653 38.406 31.988C38.4894 31.911 38.5753 31.8582 38.6639 31.8295C38.6936 31.82 38.7204 31.8152 38.7444 31.8152C38.769 31.8152 38.789 31.8188 38.8044 31.8259C38.8204 31.8331 38.833 31.8429 38.8421 31.8555C38.8592 31.88 38.8678 31.9113 38.8678 31.9495C38.8678 31.9877 38.8661 32.0181 38.8627 32.0408C38.8592 32.0635 38.855 32.0835 38.8498 32.1008C38.8395 32.136 38.8298 32.1584 38.8207 32.168C38.8047 32.1853 38.7833 32.1939 38.7564 32.1939C38.729 32.1939 38.7153 32.1856 38.7153 32.1688C38.7153 32.105 38.7127 32.0641 38.7076 32.0462C38.6979 32.0134 38.6796 31.9969 38.6527 31.9969C38.6259 31.9969 38.6016 32.0002 38.5799 32.0068C38.5582 32.0128 38.5371 32.0211 38.5165 32.0319C38.4748 32.0533 38.4382 32.0811 38.4068 32.1151V32.7105C38.4085 32.7577 38.4283 32.7863 38.466 32.7965C38.4768 32.7995 38.4891 32.8021 38.5028 32.8045C38.5165 32.8069 38.5282 32.8099 38.5379 32.8135C38.5482 32.8165 38.5562 32.8201 38.5619 32.8242C38.5716 32.832 38.5765 32.8445 38.5765 32.8618C38.5765 32.8833 38.5722 32.8997 38.5636 32.9111Z" fill="#131B12"/>
<path d="M39.7983 32.133C39.7983 32.0411 39.7618 31.9802 39.6887 31.9504C39.6652 31.9408 39.6398 31.9361 39.6124 31.9361C39.5855 31.9361 39.5604 31.9384 39.537 31.9432C39.5141 31.948 39.4939 31.9555 39.4762 31.9656C39.4362 31.9883 39.4162 32.0208 39.4162 32.0632C39.4162 32.1038 39.4327 32.139 39.4659 32.1688C39.5024 32.2005 39.5704 32.2396 39.6698 32.2861C39.7692 32.3321 39.8457 32.3825 39.8994 32.4374C39.9537 32.4918 39.9808 32.5544 39.9808 32.6255C39.9808 32.7055 39.9494 32.7729 39.8866 32.8278C39.8129 32.8917 39.7109 32.9236 39.5807 32.9236C39.4213 32.9236 39.3111 32.8881 39.25 32.8171C39.2288 32.792 39.2183 32.7601 39.2183 32.7213C39.2183 32.6276 39.2402 32.5729 39.2842 32.5574C39.2951 32.5538 39.3054 32.5521 39.3151 32.5521C39.3419 32.5521 39.3565 32.5607 39.3588 32.578C39.3713 32.7272 39.4513 32.8018 39.5987 32.8018C39.6872 32.8018 39.7463 32.7759 39.776 32.724C39.7858 32.7072 39.7906 32.6869 39.7906 32.6631C39.7906 32.6392 39.7832 32.6174 39.7683 32.5977C39.7541 32.578 39.7341 32.5598 39.7084 32.5431C39.6827 32.5258 39.6521 32.5091 39.6167 32.493L39.5027 32.4392C39.3279 32.3557 39.2405 32.2447 39.2405 32.1062C39.2405 32.0166 39.2785 31.945 39.3545 31.8913C39.4265 31.8406 39.5193 31.8152 39.633 31.8152C39.7872 31.8152 39.8832 31.8501 39.9209 31.9199C39.9306 31.9378 39.9354 31.9575 39.9354 31.979C39.9354 32.0005 39.9343 32.0199 39.932 32.0372C39.9297 32.0539 39.9269 32.0692 39.9234 32.0829C39.9177 32.1092 39.9111 32.1277 39.9037 32.1384C39.8889 32.1497 39.8674 32.1554 39.8395 32.1554C39.812 32.1554 39.7983 32.148 39.7983 32.133Z" fill="#131B12"/>
<path d="M40.4332 32.775C40.4332 32.732 40.4467 32.6965 40.4735 32.6684C40.5009 32.6398 40.5346 32.6255 40.5746 32.6255C40.6397 32.6255 40.6846 32.6553 40.7091 32.715C40.7166 32.7335 40.7203 32.7535 40.7203 32.775C40.7203 32.8168 40.7066 32.8523 40.6792 32.8815C40.6517 32.9096 40.6169 32.9236 40.5746 32.9236C40.5346 32.9236 40.5009 32.9096 40.4735 32.8815C40.4467 32.8529 40.4332 32.8174 40.4332 32.775Z" fill="#131B12"/>
<path d="M42.2986 32.8627L42.0235 32.0507C42.003 31.9898 41.985 31.9593 41.9695 31.9593C41.9627 31.9593 41.9547 31.9602 41.9455 31.962C41.9364 31.9638 41.929 31.9605 41.9233 31.9522C41.9176 31.9438 41.9147 31.9334 41.9147 31.9208C41.9147 31.9083 41.9196 31.8955 41.9293 31.8823C41.939 31.8692 41.9513 31.8579 41.9661 31.8483C41.9992 31.8262 42.0281 31.8152 42.0527 31.8152C42.0778 31.8152 42.0964 31.8158 42.1083 31.817C42.1203 31.8182 42.1318 31.8224 42.1426 31.8295C42.1643 31.8444 42.1826 31.8782 42.1975 31.9307L42.4177 32.7096C42.4719 32.5425 42.5071 32.4321 42.5231 32.3784C42.5796 32.179 42.6173 32.0316 42.6362 31.9361C42.6402 31.9146 42.659 31.8964 42.6927 31.8814C42.719 31.8701 42.7413 31.8644 42.7595 31.8644C42.7778 31.8644 42.7898 31.8659 42.7955 31.8689C42.8018 31.8713 42.8064 31.8761 42.8092 31.8832C42.8161 31.8976 42.8212 31.9149 42.8247 31.9352L43.0526 32.7159C43.0954 32.6067 43.1246 32.53 43.14 32.4858L43.1845 32.3551C43.2319 32.2124 43.2556 32.1011 43.2556 32.0211C43.2556 31.9644 43.2294 31.9328 43.1768 31.9262C43.1711 31.9167 43.1682 31.9068 43.1682 31.8967C43.1682 31.8859 43.1731 31.8755 43.1828 31.8653C43.1925 31.8546 43.2051 31.8453 43.2205 31.8376C43.2514 31.8226 43.2825 31.8152 43.3139 31.8152C43.3459 31.8152 43.3705 31.817 43.3876 31.8206C43.4047 31.8241 43.4184 31.8304 43.4287 31.8394C43.4481 31.8573 43.4579 31.8841 43.4579 31.9199C43.4579 31.9552 43.4541 31.991 43.4467 32.0274C43.4393 32.0632 43.4293 32.1026 43.4167 32.1456C43.4042 32.1885 43.3896 32.2336 43.373 32.2808C43.3108 32.4539 43.2654 32.5726 43.2368 32.6371L43.1742 32.7732C43.1617 32.7995 43.152 32.8186 43.1451 32.8305L43.1237 32.8654C43.0997 32.9042 43.0714 32.9236 43.0389 32.9236C43.0035 32.9236 42.9743 32.9138 42.9515 32.8941C42.9423 32.8857 42.9358 32.8753 42.9318 32.8627L42.7193 32.2217C42.6621 32.4085 42.6259 32.5255 42.6105 32.5726C42.5636 32.7099 42.5353 32.789 42.5256 32.8099C42.5159 32.8302 42.5073 32.8469 42.4999 32.86C42.4925 32.8726 42.4842 32.8833 42.4751 32.8923C42.4545 32.9132 42.4319 32.9236 42.4074 32.9236C42.3731 32.9236 42.3437 32.9132 42.3191 32.8923C42.31 32.8845 42.3031 32.8747 42.2986 32.8627Z" fill="#131B12"/>
<path d="M44.0302 31.6487C44.0108 31.6487 43.9928 31.6457 43.9762 31.6397C43.9602 31.6331 43.9463 31.6239 43.9343 31.6119C43.9091 31.5869 43.8966 31.5532 43.8966 31.5108C43.8966 31.4702 43.9114 31.4359 43.9411 31.4078C43.9697 31.3798 44.0039 31.3657 44.0439 31.3657C44.0839 31.3657 44.1159 31.3783 44.1399 31.4033C44.1639 31.4284 44.1759 31.4624 44.1759 31.5054C44.1759 31.546 44.1616 31.5803 44.133 31.6084C44.1051 31.6352 44.0708 31.6487 44.0302 31.6487ZM43.978 32.9066C43.89 32.9066 43.846 32.8857 43.846 32.8439C43.846 32.8224 43.8506 32.8057 43.8597 32.7938C43.8734 32.7986 43.886 32.801 43.8974 32.801C43.9505 32.801 43.9765 32.7657 43.9754 32.6953V32.0954C43.9754 32.0536 43.9697 32.0247 43.9582 32.0086C43.9474 31.9919 43.9277 31.9835 43.8991 31.9835C43.878 31.9835 43.8589 31.9862 43.8417 31.9916C43.8314 31.9928 43.824 31.9844 43.8194 31.9665C43.8154 31.9504 43.8177 31.9364 43.8263 31.9244C43.8349 31.9119 43.848 31.8991 43.8657 31.8859C43.884 31.8722 43.904 31.8603 43.9257 31.8501C43.9725 31.8268 44.0117 31.8152 44.0431 31.8152C44.0745 31.8152 44.0976 31.82 44.1125 31.8295C44.1279 31.8391 44.1396 31.8519 44.1476 31.868C44.1602 31.8943 44.1665 31.9367 44.1665 31.9952V32.7105C44.1682 32.7577 44.1845 32.7863 44.2153 32.7965C44.2239 32.7995 44.2344 32.8021 44.247 32.8045C44.2596 32.8069 44.2707 32.8099 44.2804 32.8135C44.2907 32.8165 44.2987 32.8201 44.3044 32.8242C44.3141 32.832 44.319 32.8445 44.319 32.8618C44.319 32.8833 44.3147 32.8997 44.3061 32.9111C44.2941 32.9081 44.2758 32.9066 44.2513 32.9066H43.978Z" fill="#131B12"/>
<path d="M44.9599 32.296L44.959 32.5315C44.959 32.6299 44.9639 32.6893 44.9736 32.7096C44.9833 32.7293 44.9947 32.7413 45.0079 32.7454C45.021 32.749 45.0379 32.7508 45.0584 32.7508C45.079 32.7508 45.0976 32.7493 45.1141 32.7463C45.1313 32.7428 45.1472 32.7383 45.1621 32.7329C45.177 32.7275 45.1912 32.7216 45.2049 32.715L45.2469 32.6962C45.2566 32.6926 45.2675 32.7031 45.2795 32.7275C45.2829 32.7341 45.2846 32.7419 45.2846 32.7508C45.2846 32.7592 45.2812 32.7702 45.2743 32.7839C45.2675 32.7977 45.2541 32.8135 45.2341 32.8314C45.2147 32.8487 45.1918 32.8642 45.1655 32.878C45.1084 32.9084 45.057 32.9236 45.0113 32.9236C44.9662 32.9236 44.9293 32.9209 44.9008 32.9156C44.8722 32.9102 44.8479 32.8994 44.8279 32.8833C44.7868 32.8499 44.7662 32.7887 44.7662 32.6998V31.9952H44.6814C44.6637 31.9952 44.6509 31.9892 44.6429 31.9772C44.6291 31.9587 44.6223 31.9432 44.6223 31.9307C44.6223 31.9098 44.6271 31.8982 44.6369 31.8958C44.7277 31.8797 44.7919 31.8092 44.8296 31.6845C44.8405 31.6469 44.8491 31.6024 44.8554 31.5511C44.8828 31.5463 44.9033 31.5439 44.917 31.5439C44.9313 31.5439 44.9436 31.5514 44.9539 31.5663C44.9642 31.5812 44.969 31.5985 44.9685 31.6182C44.9685 31.6379 44.9682 31.6564 44.9676 31.6737C44.967 31.691 44.9665 31.7098 44.9659 31.7301L44.9625 31.8555H45.2589C45.2663 31.8692 45.2701 31.8838 45.2701 31.8994V31.9271C45.2701 31.9522 45.2572 31.9728 45.2315 31.9889C45.2058 32.0044 45.1772 32.0122 45.1458 32.0122C45.115 32.0122 45.0927 32.0119 45.079 32.0113C45.0658 32.0101 45.053 32.0089 45.0404 32.0077L45.0027 32.0023C44.9896 32.0011 44.9756 31.9999 44.9607 31.9987V32.0086L44.9599 32.296Z" fill="#131B12"/>
<path d="M46.1106 32.9111C46.0992 32.9081 46.0809 32.9066 46.0558 32.9066H45.7824C45.7276 32.9066 45.6925 32.8965 45.6771 32.8762C45.6708 32.8684 45.6676 32.8594 45.6676 32.8493C45.6676 32.8242 45.6722 32.8057 45.6813 32.7938C45.695 32.7986 45.7108 32.801 45.7285 32.801C45.7462 32.801 45.7593 32.7935 45.7679 32.7786C45.7764 32.7636 45.7804 32.7359 45.7799 32.6953V31.586C45.7799 31.5448 45.7759 31.5182 45.7679 31.5063C45.7559 31.4872 45.7347 31.4776 45.7045 31.4776H45.6873C45.6822 31.4776 45.6762 31.4785 45.6693 31.4803C45.6631 31.4815 45.6576 31.4809 45.6531 31.4785C45.6485 31.4756 45.6445 31.4717 45.6411 31.4669C45.6291 31.4484 45.6428 31.4233 45.6822 31.3917C45.7399 31.3457 45.7987 31.3228 45.8587 31.3228C45.9238 31.3228 45.9604 31.3595 45.9684 31.4329C45.9707 31.455 45.9718 31.4782 45.9718 31.5027V31.9907C46.0581 31.9149 46.1503 31.862 46.2486 31.8322C46.2845 31.8209 46.3208 31.8152 46.3574 31.8152C46.3945 31.8152 46.4296 31.8203 46.4628 31.8304C46.4965 31.8406 46.5253 31.857 46.5493 31.8797C46.6019 31.9286 46.6281 32.0032 46.6281 32.1035V32.7043C46.6281 32.7538 46.6441 32.7842 46.6761 32.7956C46.6853 32.7992 46.6961 32.8021 46.7087 32.8045C46.7212 32.8069 46.7324 32.8099 46.7421 32.8135C46.7524 32.8165 46.7604 32.8201 46.7661 32.8242C46.7758 32.832 46.7807 32.8445 46.7807 32.8618C46.7807 32.8833 46.7764 32.8997 46.7678 32.9111C46.7558 32.9081 46.7375 32.9066 46.713 32.9066H46.4396C46.3848 32.9066 46.3497 32.8965 46.3342 32.8762C46.328 32.8684 46.3248 32.8594 46.3248 32.8493C46.3248 32.8236 46.3291 32.8051 46.3377 32.7938C46.352 32.7986 46.3674 32.801 46.3839 32.801C46.4005 32.801 46.4131 32.7947 46.4216 32.7822C46.4308 32.7696 46.4359 32.7466 46.4371 32.7132V32.1671C46.4371 32.0656 46.4082 32.0089 46.3505 31.9969C46.3328 31.9934 46.3105 31.9916 46.2837 31.9916C46.2574 31.9916 46.2283 31.9957 46.1963 32.0041C46.1649 32.0125 46.1352 32.0232 46.1072 32.0363C46.0518 32.0626 46.0067 32.0939 45.9718 32.1303V32.7043C45.9718 32.7538 45.9878 32.7842 46.0198 32.7956C46.0289 32.7992 46.0398 32.8021 46.0523 32.8045C46.0649 32.8069 46.0761 32.8099 46.0858 32.8135C46.096 32.8165 46.104 32.8201 46.1098 32.8242C46.1195 32.832 46.1243 32.8445 46.1243 32.8618C46.1243 32.8827 46.1198 32.8991 46.1106 32.9111Z" fill="#131B12"/>
<path d="M48.1036 32.9066C48.0162 32.9066 47.9725 32.8857 47.9725 32.8439C47.9725 32.8218 47.9768 32.8051 47.9854 32.7938C47.9991 32.7986 48.0119 32.801 48.0239 32.801C48.0736 32.801 48.0993 32.7696 48.101 32.7069V31.586C48.101 31.5442 48.097 31.5176 48.089 31.5063C48.0759 31.4872 48.0548 31.4776 48.0256 31.4776C48.0125 31.4776 47.9996 31.4791 47.9871 31.4821C47.9751 31.4845 47.9665 31.4845 47.9614 31.4821C47.9568 31.4791 47.9531 31.4753 47.9502 31.4705C47.9388 31.4508 47.9531 31.4257 47.9931 31.3953C48.0559 31.3469 48.1179 31.3228 48.179 31.3228C48.2441 31.3228 48.2807 31.3595 48.2887 31.4329C48.291 31.455 48.2921 31.4782 48.2921 31.5027V32.7105C48.2938 32.7571 48.3101 32.7857 48.3409 32.7965C48.3501 32.7995 48.3607 32.8021 48.3727 32.8045C48.3852 32.8069 48.3966 32.8099 48.4069 32.8135C48.4172 32.8165 48.4252 32.8201 48.4309 32.8242C48.4406 32.832 48.4455 32.8445 48.4455 32.8618C48.4455 32.8827 48.4409 32.8991 48.4318 32.9111C48.4203 32.9081 48.4021 32.9066 48.3769 32.9066H48.1036Z" fill="#131B12"/>
<path d="M48.7788 32.4124C48.7788 32.3396 48.7856 32.2742 48.7994 32.2163C48.8131 32.1584 48.8319 32.1074 48.8559 32.0632C48.8799 32.019 48.9082 31.9814 48.9407 31.9504C48.9733 31.9187 49.0081 31.8931 49.0453 31.8734C49.1178 31.8346 49.1975 31.8152 49.2843 31.8152C49.3957 31.8152 49.4902 31.8576 49.5679 31.9423C49.6542 32.0354 49.6973 32.1584 49.6973 32.3112C49.6973 32.5118 49.645 32.6678 49.5405 32.7795C49.4497 32.8756 49.3409 32.9236 49.2141 32.9236C49.0815 32.9236 48.9753 32.875 48.8953 32.7777C48.8176 32.684 48.7788 32.5622 48.7788 32.4124ZM49.2646 32.7777C49.3029 32.7777 49.3372 32.7684 49.3674 32.7499C49.3977 32.7308 49.4234 32.7049 49.4445 32.672C49.4868 32.604 49.508 32.5156 49.508 32.407C49.508 32.2876 49.4857 32.1862 49.4411 32.1026C49.3909 32.0065 49.3186 31.9584 49.2243 31.9584C49.1484 31.9584 49.0875 31.9889 49.0418 32.0498C48.9933 32.1142 48.969 32.2044 48.969 32.3202C48.969 32.4652 48.9996 32.5798 49.0607 32.664C49.1155 32.7398 49.1835 32.7777 49.2646 32.7777Z" fill="#131B12"/>
<path d="M50.4102 32.8627C50.2194 32.3422 50.1212 32.0736 50.1154 32.0569C50.1097 32.0396 50.1037 32.0238 50.0975 32.0095C50.0832 31.9761 50.0703 31.9593 50.0589 31.9593C50.0515 31.9593 50.0432 31.9602 50.034 31.962C50.0249 31.9638 50.0175 31.9605 50.0118 31.9522C50.0061 31.9438 50.0032 31.9334 50.0032 31.9208C50.0032 31.9083 50.0086 31.8955 50.0195 31.8823C50.0309 31.8692 50.0449 31.8579 50.0615 31.8483C50.0975 31.8262 50.126 31.8152 50.1472 31.8152C50.1683 31.8152 50.1851 31.8158 50.1977 31.817C50.2103 31.8182 50.222 31.8226 50.2328 31.8304C50.2557 31.8459 50.2748 31.8794 50.2902 31.9307L50.5413 32.7132C50.5813 32.629 50.611 32.5646 50.6304 32.5198L50.6835 32.3891C50.7475 32.2244 50.7795 32.1086 50.7795 32.0417V32.0301C50.7795 32.0002 50.7729 31.9766 50.7598 31.9593C50.7472 31.942 50.7247 31.9316 50.6921 31.928C50.6864 31.9185 50.6835 31.9086 50.6835 31.8985C50.6835 31.8877 50.689 31.8773 50.6998 31.8671C50.7112 31.8564 50.7255 31.8471 50.7426 31.8394C50.7781 31.8232 50.8166 31.8152 50.8583 31.8152C50.9006 31.8152 50.9332 31.8221 50.956 31.8358C50.9794 31.8489 50.9911 31.8752 50.9911 31.9146C50.9911 31.9981 50.9369 32.1644 50.8283 32.4133L50.7504 32.5843C50.6967 32.6977 50.6561 32.7747 50.6287 32.8153C50.5796 32.8875 50.5364 32.9236 50.4993 32.9236C50.4725 32.9236 50.4485 32.9126 50.4273 32.8905C50.4199 32.8827 50.4142 32.8735 50.4102 32.8627Z" fill="#131B12"/>
<path d="M51.369 32.4249C51.369 32.3527 51.3761 32.2885 51.3904 32.2324C51.4047 32.1763 51.4238 32.1262 51.4478 32.082C51.4724 32.0372 51.5009 31.9981 51.5335 31.9647C51.5666 31.9313 51.6021 31.9035 51.6398 31.8814C51.714 31.8373 51.7871 31.8152 51.8591 31.8152C51.9311 31.8152 51.9888 31.8286 52.0322 31.8555C52.0756 31.8817 52.111 31.917 52.1384 31.9611C52.1893 32.0453 52.2147 32.1572 52.2147 32.2969C52.2147 32.3488 52.1938 32.3754 52.1521 32.3766L51.5541 32.39C51.5575 32.5195 51.5895 32.6153 51.65 32.6774C51.7014 32.7299 51.768 32.7562 51.8497 32.7562C51.9713 32.7562 52.0702 32.7296 52.1461 32.6765C52.1513 32.6765 52.1576 32.681 52.165 32.6899C52.1793 32.7078 52.1864 32.7234 52.1864 32.7365C52.1864 32.7651 52.1521 32.8018 52.0836 32.8466C52.0048 32.8979 51.9128 32.9236 51.8077 32.9236C51.6706 32.9236 51.5629 32.878 51.4847 32.7866C51.4076 32.6971 51.369 32.5765 51.369 32.4249ZM51.5592 32.2745C51.7237 32.2661 51.8742 32.2551 52.0108 32.2414C52.017 32.0516 51.9542 31.9567 51.8223 31.9567C51.7486 31.9567 51.6883 31.9865 51.6415 32.0462C51.5986 32.1011 51.5712 32.1772 51.5592 32.2745Z" fill="#131B12"/>
<path d="M52.6739 32.775C52.6739 32.732 52.6874 32.6965 52.7142 32.6684C52.7416 32.6398 52.7753 32.6255 52.8153 32.6255C52.8804 32.6255 52.9253 32.6553 52.9498 32.715C52.9573 32.7335 52.961 32.7535 52.961 32.775C52.961 32.8168 52.9473 32.8523 52.9199 32.8815C52.8924 32.9096 52.8576 32.9236 52.8153 32.9236C52.7753 32.9236 52.7416 32.9096 52.7142 32.8815C52.6874 32.8529 52.6739 32.8174 52.6739 32.775Z" fill="#131B12"/>
</svg>
