<svg width="40" height="40" viewBox="0 0 40 40" fill="none" xmlns="http://www.w3.org/2000/svg">
<rect opacity="0.64" width="40" height="40" rx="6" fill="white"/>
<path d="M25.0955 8.88867H14.904C11.5871 8.88867 8.88867 11.5871 8.88867 14.904V25.0957C8.88867 28.4125 11.5871 31.1109 14.904 31.1109H25.0957C28.4125 31.1109 31.1109 28.4125 31.1109 25.0957V14.904C31.1109 11.5871 28.4125 8.88867 25.0955 8.88867V8.88867ZM29.8081 25.0957C29.8081 27.6941 27.6941 29.8081 25.0955 29.8081H14.904C12.3055 29.8081 10.1914 27.6941 10.1914 25.0957V14.904C10.1914 12.3055 12.3055 10.1914 14.904 10.1914H25.0957C27.6941 10.1914 29.8081 12.3055 29.8081 14.904V25.0957Z" fill="#4F524F"/>
<path d="M20 13.9238C16.6496 13.9238 13.9238 16.6496 13.9238 20C13.9238 23.3505 16.6496 26.0763 20 26.0763C23.3505 26.0763 26.0763 23.3505 26.0763 20C26.0763 16.6496 23.3505 13.9238 20 13.9238ZM20 24.7735C17.3681 24.7735 15.2266 22.6322 15.2266 20C15.2266 17.3681 17.3681 15.2266 20 15.2266C22.6322 15.2266 24.7735 17.3681 24.7735 20C24.7735 22.6322 22.6322 24.7735 20 24.7735Z" fill="#4F524F"/>
<path d="M26.2232 11.7666C25.2331 11.7666 24.4277 12.5721 24.4277 13.5621C24.4277 14.5522 25.2331 15.3577 26.2232 15.3577C27.2133 15.3577 28.0188 14.5522 28.0188 13.5621C28.0188 12.5719 27.2133 11.7666 26.2232 11.7666ZM26.2232 14.0547C25.9516 14.0547 25.7305 13.8337 25.7305 13.5621C25.7305 13.2903 25.9516 13.0694 26.2232 13.0694C26.495 13.0694 26.716 13.2903 26.716 13.5621C26.716 13.8337 26.495 14.0547 26.2232 14.0547Z" fill="#4F524F"/>
</svg>
