<svg width="40" height="40" viewBox="0 0 40 40" fill="none" xmlns="http://www.w3.org/2000/svg">
<rect opacity="0.64" width="40" height="40" rx="6" fill="white"/>
<path d="M29.6564 9.47044C29.385 9.09524 28.9784 8.88867 28.5115 8.88867C28.2577 8.88867 27.9888 8.94903 27.7124 9.06842L8.90178 17.1843C7.90352 17.6149 7.76907 18.261 7.77772 18.6079C7.78636 18.9547 7.95302 19.5913 8.97129 19.9575C8.97739 19.9596 8.9835 19.9617 8.9896 19.9636L12.8914 21.2256L15.0016 28.0456C15.2893 28.9753 15.935 29.5529 16.6871 29.5529C17.1613 29.5529 17.6278 29.3283 18.036 28.9037L20.4494 26.392L23.95 29.5778C23.9503 29.5782 23.9508 29.5784 23.9511 29.5787L23.9844 29.609C23.9874 29.6117 23.9907 29.6146 23.9937 29.6173C24.3828 29.9584 24.8075 30.1385 25.2224 30.1387H25.2225C26.0331 30.1387 26.6786 29.4605 26.8666 28.4112L29.9487 11.2102C30.0724 10.5198 29.9687 9.90198 29.6564 9.47044ZM14.1967 20.9859L21.7246 16.6393L17.0372 22.2687C16.9604 22.3608 16.906 22.4737 16.8792 22.5965L15.9754 26.7345L14.1967 20.9859ZM17.1539 27.821C17.1227 27.8534 17.0913 27.8823 17.06 27.9089L17.8985 24.0703L19.4239 25.4586L17.1539 27.821ZM28.6725 10.918L25.5904 28.1191C25.5608 28.2837 25.466 28.6668 25.2224 28.6668C25.102 28.6668 24.9508 28.5926 24.796 28.4579L20.8294 24.8481C20.8289 24.8475 20.8282 24.847 20.8275 24.8466L18.4673 22.6985L25.2458 14.5577C25.4628 14.2971 25.4824 13.8979 25.2924 13.6116C25.1022 13.3254 24.7575 13.2353 24.4755 13.3982L13.3268 19.8356L9.37192 18.5567L28.1768 10.4433C28.3357 10.3747 28.4465 10.3603 28.5115 10.3603C28.5513 10.3603 28.6222 10.3657 28.6485 10.4023C28.6831 10.45 28.7271 10.6127 28.6725 10.918Z" fill="#4F524F"/>
</svg>
