<svg width="40" height="40" viewBox="0 0 40 40" fill="none" xmlns="http://www.w3.org/2000/svg">
<rect opacity="0.64" width="40" height="40" rx="6" fill="white"/>
<path d="M22.273 8.88867H18.0402C13.6069 8.88867 10 12.4947 10 16.9272V20.7402C10 24.0411 12.0284 27.0076 15.0783 28.2158V30.6877C15.0783 30.8553 15.1769 31.0068 15.3301 31.0745C15.3851 31.099 15.4435 31.1109 15.5015 31.1109C15.6043 31.1109 15.7063 31.0732 15.7855 31.0013L18.2395 28.7787H22.273C26.7063 28.7787 30.3132 25.1727 30.3132 20.7402V16.9272C30.3132 12.4947 26.7063 8.88867 22.273 8.88867ZM29.4668 20.7402C29.4668 24.7059 26.24 27.9323 22.273 27.9323H18.0762C17.9712 27.9323 17.8701 27.9712 17.7922 28.0419L15.9247 29.7334V27.9226C15.9247 27.7431 15.8117 27.5832 15.6424 27.5239C12.774 26.5095 10.8464 23.7833 10.8464 20.7402V16.9272C10.8464 12.9615 14.0736 9.73506 18.0402 9.73506H22.273C26.24 9.73506 29.4668 12.9615 29.4668 16.9272V20.7402Z" fill="#4F524F" stroke="#4F524F" stroke-width="0.4"/>
<path d="M25.8037 21.7091L25.8037 21.7091C26.046 21.8666 26.1148 22.1903 25.9581 22.4333L25.9579 22.4335L25.0362 23.8529L25.0362 23.853C24.6115 24.5055 23.8996 24.8612 23.1741 24.8612C22.7623 24.8612 22.346 24.7464 21.9758 24.5074C21.8883 24.4631 21.101 24.0506 20.1212 23.4359C19.1159 22.8053 17.9014 21.9576 17.0329 21.0729C15.3101 19.3182 14.244 17.4157 14.1981 17.3334L14.1979 17.3331C14.1845 17.3089 14.1729 17.2837 14.1634 17.2573C14.1634 17.2573 14.1634 17.2572 14.1634 17.2572L14.163 17.2561C14.0766 17.0186 13.8978 16.5271 13.8851 15.969C13.8723 15.4065 14.0283 14.7707 14.6167 14.2591L14.6167 14.2591L15.8943 13.1487L15.8945 13.1485C16.1124 12.9599 16.4429 12.9821 16.6325 13.2004L25.8037 21.7091ZM25.8037 21.7091L23.2028 20.0197C22.8961 19.8203 22.5307 19.7528 22.1737 19.8266L22.1734 19.8267C21.8155 19.902 21.5075 20.1136 21.3081 20.4216L21.228 20.5446C20.6891 20.3648 20.1395 20.1575 19.6336 19.7537C19.1173 19.3415 18.6402 18.719 18.2765 17.6965L18.533 17.4736L18.533 17.4736C19.1029 16.9781 19.1625 16.1117 18.6673 15.5412L18.6672 15.5411L16.6326 13.2005L25.8037 21.7091ZM14.2854 17.2847C14.2744 17.2648 14.2651 17.2445 14.2574 17.2233L14.2854 17.2847ZM14.2854 17.2847C14.3298 17.3642 15.3908 19.2576 17.1043 21.0028L14.2854 17.2847ZM22.5051 23.6061L22.5053 23.6057L22.497 23.6014C22.4828 23.594 21.7062 23.1896 20.7307 22.5807C19.7537 21.9708 18.5841 21.16 17.7795 20.3403L17.7795 20.3403C16.2837 18.8166 15.2845 17.1242 15.1324 16.8597C14.9692 16.3998 14.9065 16.0394 14.9361 15.7493C14.9653 15.4623 15.0855 15.2383 15.3031 15.0491C15.3031 15.0491 15.3032 15.0491 15.3032 15.0491L16.1862 14.2818L17.8777 16.2276L17.8777 16.2276C17.9978 16.3655 17.9837 16.5647 17.8469 16.6836L17.3277 17.1347L17.3277 17.1347C17.1715 17.2706 17.1095 17.4856 17.1708 17.6835C17.6186 19.1389 18.2809 20.0174 18.9968 20.5838C19.7088 21.1472 20.4675 21.3963 21.0943 21.6021L21.0987 21.6035L21.0989 21.6036L21.2814 21.6638C21.2815 21.6639 21.2816 21.6639 21.2817 21.6639C21.5084 21.7402 21.7564 21.6526 21.886 21.453L22.186 20.9909L22.1861 20.9907C22.2334 20.9175 22.3054 20.8683 22.3895 20.8506L22.3897 20.8505C22.4733 20.8326 22.5588 20.8489 22.6329 20.8971L22.633 20.8971L24.7954 22.3014L24.1584 23.2827L24.2422 23.3372L24.1584 23.2827C23.8083 23.8219 23.0828 23.9786 22.5051 23.6061Z" fill="#4F524F" stroke="#4F524F" stroke-width="0.2"/>
<path d="M22.7913 17.7267L22.7913 17.7267C22.623 17.1292 22.1468 16.6522 21.5496 16.4822L22.7913 17.7267ZM22.7913 17.7267C22.8562 17.9571 23.066 18.1081 23.2947 18.1081C23.3417 18.1081 23.3891 18.1018 23.4363 18.0889L23.4363 18.0889M22.7913 17.7267L23.4363 18.0889M23.4363 18.0889L23.437 18.0887L23.4363 18.0889ZM21.8365 15.4761C21.5579 15.396 21.2686 15.5579 21.1896 15.836L23.7022 17.4703L23.7984 17.4431C23.7984 17.4431 23.7984 17.4431 23.7984 17.4431C23.5321 16.4981 22.7803 15.7445 21.8362 15.4761L21.8088 15.5722L21.8365 15.4761ZM21.1896 15.8361C21.1106 16.1139 21.2717 16.4032 21.5496 16.4822L21.1896 15.8361Z" fill="#4F524F" stroke="#4F524F" stroke-width="0.2"/>
<path d="M25.2196 17.6542L25.2202 17.654C25.4986 17.5756 25.6602 17.2863 25.5818 17.0084C25.073 15.2049 23.6382 13.767 21.8359 13.2539C21.5575 13.1737 21.2684 13.3369 21.1896 13.6142C21.1106 13.892 21.2717 14.1814 21.5496 14.2604L21.5496 14.2604C23.0045 14.6741 24.1638 15.8367 24.5746 17.2925L24.5747 17.2927C24.6401 17.5229 24.8494 17.6735 25.078 17.6735C25.125 17.6735 25.1725 17.6672 25.2196 17.6542Z" fill="#4F524F" stroke="#4F524F" stroke-width="0.2"/>
<path d="M27.3688 17.5856L27.3681 17.5857C27.321 17.5987 27.2736 17.605 27.2265 17.605C26.9979 17.605 26.7881 17.454 26.7232 17.2236M27.3688 17.5856L21.5496 12.0383C24.038 12.7461 26.0208 14.7335 26.7232 17.2236M27.3688 17.5856C27.6466 17.5071 27.8088 17.2179 27.7303 16.94C26.93 14.1021 24.672 11.839 21.8363 11.0318M27.3688 17.5856L21.5496 12.0383C21.2717 11.9593 21.1106 11.6699 21.1896 11.3921L21.2858 11.4195L21.1896 11.3922C21.2685 11.1137 21.5577 10.9517 21.8363 11.0318M26.7232 17.2236L26.8194 17.1965L26.7232 17.2236C26.7232 17.2236 26.7232 17.2236 26.7232 17.2236ZM21.8363 11.0318C21.8364 11.0318 21.8364 11.0318 21.8365 11.0318L21.8088 11.1279L21.8362 11.0317C21.8363 11.0317 21.8363 11.0317 21.8363 11.0318Z" fill="#4F524F" stroke="#4F524F" stroke-width="0.2"/>
</svg>
