<svg width="40" height="40" viewBox="0 0 40 40" fill="none" xmlns="http://www.w3.org/2000/svg">
<rect opacity="0.64" width="40" height="40" rx="6" fill="white"/>
<path d="M21.273 8.88867H17.0402C12.6069 8.88867 9 12.4947 9 16.9272V20.7402C9 24.0411 11.0284 27.0076 14.0783 28.2158V30.6877C14.0783 30.8553 14.1769 31.0068 14.3301 31.0745C14.3851 31.099 14.4435 31.1109 14.5015 31.1109C14.6043 31.1109 14.7063 31.0732 14.7855 31.0013L17.2395 28.7787H21.273C25.7063 28.7787 29.3132 25.1727 29.3132 20.7402V16.9272C29.3132 12.4947 25.7063 8.88867 21.273 8.88867ZM28.4668 20.7402C28.4668 24.7059 25.24 27.9323 21.273 27.9323H17.0762C16.9712 27.9323 16.8701 27.9712 16.7922 28.0419L14.9247 29.7334V27.9226C14.9247 27.7431 14.8117 27.5832 14.6424 27.5239C11.774 26.5095 9.84638 23.7833 9.84638 20.7402V16.9272C9.84638 12.9615 13.0736 9.73506 17.0402 9.73506H21.273C25.24 9.73506 28.4668 12.9615 28.4668 16.9272V20.7402Z" fill="#4F524F" stroke="#4F524F" stroke-width="0.4"/>
<path d="M24.7492 21.7929L22.1483 20.1036C21.8639 19.9186 21.5253 19.856 21.194 19.9245C20.8622 19.9944 20.577 20.1903 20.392 20.476L20.2697 20.6639C19.144 20.2919 17.9028 19.8166 17.1597 17.6655L17.4674 17.3981C17.9955 16.9389 18.0509 16.1357 17.5918 15.6067L15.5571 13.266C15.4039 13.0896 15.1364 13.0714 14.9599 13.2242L13.6823 14.3346C12.5617 15.3088 13.0852 16.7498 13.2574 17.2233C13.2651 17.2445 13.2744 17.2648 13.2854 17.2847C13.3298 17.3642 14.3908 19.2576 16.1043 21.0028C17.8245 22.7553 20.9303 24.3736 21.0256 24.4205C21.3802 24.6507 21.7793 24.7612 22.1741 24.7612C22.8673 24.7612 23.5469 24.4214 23.9523 23.7984L24.8741 22.3791C25.001 22.1823 24.9452 21.9203 24.7492 21.7929ZM23.2422 23.3372C22.8609 23.9246 22.073 24.0913 21.4509 23.6901C21.42 23.674 18.3345 22.0672 16.7081 20.4104C15.188 18.8619 14.1787 17.1416 14.0412 16.9017C13.706 15.9618 13.7653 15.3841 14.2376 14.9736L15.1961 14.1408L16.9532 16.1619C17.1093 16.3414 17.0911 16.6038 16.9126 16.7591L16.3933 17.2102C16.2668 17.3202 16.2168 17.4942 16.2663 17.6541C17.1517 20.531 18.8732 21.0959 20.1301 21.5086L20.3133 21.5691C20.4966 21.6309 20.6972 21.5602 20.8021 21.3985L21.1021 20.9364C21.1639 20.8408 21.2587 20.776 21.3688 20.7527C21.4792 20.729 21.5918 20.751 21.6874 20.8132L23.9337 22.272L23.2422 23.3372Z" fill="#4F524F" stroke="#4F524F" stroke-width="0.2"/>
<path d="M21.7913 17.7267L21.7913 17.7267C21.623 17.1292 21.1468 16.6522 20.5496 16.4822L21.7913 17.7267ZM21.7913 17.7267C21.8562 17.9571 22.066 18.1081 22.2947 18.1081C22.3417 18.1081 22.3891 18.1018 22.4363 18.0889L22.4363 18.0889M21.7913 17.7267L22.4363 18.0889M22.4363 18.0889L22.437 18.0887L22.4363 18.0889ZM20.8365 15.4761C20.5579 15.396 20.2686 15.5579 20.1896 15.836L22.7022 17.4703L22.7984 17.4431C22.7984 17.4431 22.7984 17.4431 22.7984 17.4431C22.5321 16.4981 21.7803 15.7445 20.8362 15.4761L20.8088 15.5722L20.8365 15.4761ZM20.1896 15.8361C20.1106 16.1139 20.2717 16.4032 20.5496 16.4822L20.1896 15.8361Z" fill="#4F524F" stroke="#4F524F" stroke-width="0.2"/>
<path d="M24.2196 17.6542L24.2202 17.654C24.4986 17.5756 24.6602 17.2863 24.5818 17.0084C24.073 15.2049 22.6382 13.767 20.8359 13.2539C20.5575 13.1737 20.2684 13.3369 20.1896 13.6142C20.1106 13.892 20.2717 14.1814 20.5496 14.2604L20.5496 14.2604C22.0045 14.6741 23.1638 15.8367 23.5746 17.2925L23.5747 17.2927C23.6401 17.5229 23.8494 17.6735 24.078 17.6735C24.125 17.6735 24.1725 17.6672 24.2196 17.6542Z" fill="#4F524F" stroke="#4F524F" stroke-width="0.2"/>
<path d="M20.8088 11.1279C20.5837 11.0632 20.3497 11.1939 20.2858 11.4195C20.2219 11.6442 20.3522 11.8782 20.5769 11.9421C23.0987 12.6594 25.1076 14.673 25.8194 17.1965C25.8719 17.3827 26.0416 17.505 26.2265 17.505C26.2646 17.505 26.3031 17.4999 26.3417 17.4893C26.5664 17.4258 26.6976 17.1918 26.6341 16.9671C25.8431 14.1626 23.6112 11.9256 20.8088 11.1279Z" fill="#4F524F" stroke="#4F524F" stroke-width="0.2"/>
</svg>
