<svg width="139" height="47" viewBox="0 0 139 47" fill="none" xmlns="http://www.w3.org/2000/svg">
<path d="M128.613 26.0651C128.587 25.9692 128.552 25.8786 128.511 25.7922L131.116 23.6691L137.999 23.7825L138.592 23.3912L132.638 22.4291L137.313 18.6186L136.604 18.5761L130.7 22.116L127.382 21.58C127.375 21.4844 127.36 21.3884 127.334 21.2925C127.109 20.4538 126.247 19.9561 125.409 20.1809C124.57 20.4056 124.072 21.2676 124.297 22.1063C124.522 22.945 125.384 23.4427 126.222 23.218C126.737 23.08 127.123 22.7014 127.292 22.2361L128.718 22.5733C129.106 22.665 129.433 22.9059 129.64 23.2322C129.624 23.6186 129.461 23.9907 129.171 24.2637L128.105 25.2688C127.725 24.9506 127.202 24.8155 126.687 24.9534C125.849 25.1782 125.351 26.0402 125.576 26.8789C125.801 27.7176 126.663 28.2153 127.501 27.9905C128.34 27.7658 128.838 26.9038 128.613 26.0651ZM124.948 21.9319C124.819 21.4527 125.104 20.9601 125.583 20.8317C126.062 20.7033 126.555 20.9877 126.683 21.4669C126.812 21.9461 126.527 22.4387 126.048 22.5672C125.569 22.6956 125.076 22.4111 124.948 21.9319ZM130.852 23.1401L130.418 23.2563L130.302 22.8225L130.736 22.7062L130.852 23.1401ZM126.227 26.7045C126.098 26.2253 126.383 25.7327 126.862 25.6042C127.341 25.4758 127.834 25.7603 127.962 26.2395C128.091 26.7187 127.806 27.2113 127.327 27.3397C126.848 27.4681 126.355 27.1837 126.227 26.7045Z" fill="#131B12"/>
<path fill-rule="evenodd" clip-rule="evenodd" d="M30.044 13.4457C30.1226 12.8904 30.162 12.0773 30.162 11.0064C30.162 9.93551 29.9554 8.96377 29.5423 8.09119C29.1292 7.19878 28.5685 6.50468 27.8603 6.0089C26.621 5.15615 24.7521 4.72978 22.2538 4.72978C19.7751 4.72978 17.5816 5.1859 15.6734 6.09814C13.7849 6.99055 12.2013 8.24984 10.9226 9.87601C8.64407 12.7691 7.37283 16.5847 7.10889 21.3227H0.203861C0.493638 19.0406 1.0272 16.9108 1.80455 14.933C3.0439 11.7798 4.7357 9.10259 6.87997 6.90131C9.02424 4.6802 11.5226 2.9747 14.3751 1.78482C17.2472 0.594941 20.0308 0 22.7259 0C25.4407 0 27.6144 0.228061 29.2472 0.684182C30.88 1.1403 32.2374 1.76499 33.3194 2.55824C35.4833 4.18442 36.5653 6.34603 36.5653 9.0431C36.5653 11.1056 35.8079 12.5632 34.2931 13.4159C33.7817 13.7134 33.2309 13.8621 32.6407 13.8621C31.421 13.8621 30.5554 13.7233 30.044 13.4457ZM0 27.4149C0.332108 32.976 2.18281 37.4817 5.5521 40.9319C9.32915 44.8387 14.4046 46.7921 20.7784 46.7921C25.2243 46.7921 29.0407 45.741 32.2276 43.6389C33.5653 42.7663 34.5784 41.864 35.2669 40.9319C35.9751 39.98 36.3292 39.2661 36.3292 38.7901C36.3292 38.2943 36.2702 37.8977 36.1522 37.6002C35.7784 36.7277 35.2964 36.2021 34.7063 36.0237C34.0768 36.7178 33.3784 37.3623 32.6112 37.9572C30.0735 39.9602 26.5325 40.9617 21.9882 40.9617C17.3652 40.9617 13.6964 39.3057 10.9816 35.9939C9.08962 33.6994 7.8817 30.8397 7.35786 27.4149H0ZM44.7388 27.4149C43.539 29.4317 42.9391 31.6767 42.9391 34.1496C42.9391 38.1754 44.562 41.3484 47.8079 43.6686C50.6801 45.7113 54.044 46.7326 57.8998 46.7326C63.7621 46.7326 69.1424 44.8585 74.0408 41.1104L78.9687 44.6205C81.0146 46.0682 82.8244 46.7921 84.3982 46.7921C86.031 46.7921 87.5654 46.0881 89.0015 44.68C89.6113 44.0851 90.1031 43.4406 90.4769 42.7465C90.8507 42.0326 91.0375 41.4674 91.0375 41.0509C91.0375 40.6146 90.8507 40.2576 90.4769 39.98C90.3195 39.8809 90.1523 39.8015 89.9752 39.742C89.8179 39.6825 89.6703 39.6726 89.5326 39.7123C89.4146 39.7519 89.09 39.9602 88.5588 40.337C88.0277 40.6939 87.3687 40.8724 86.5818 40.8724C85.1064 40.8724 83.2965 40.099 81.1523 38.5522L78.6736 36.7376C79.7162 35.5279 80.631 34.2983 81.4178 33.049C82.7125 30.9949 83.658 29.1169 84.2543 27.4149L76.7707 27.4149C76.0573 29.5237 75.1473 31.4513 74.0408 33.1977C72.2281 31.7957 69.863 29.868 66.9455 27.4149H57.0587C57.5575 27.9058 58.0936 28.4254 58.667 28.9736C60.5752 30.7783 64.2932 33.8025 69.8211 38.0465C66.8112 40.5055 63.1522 41.7351 58.844 41.7351C56.4637 41.7351 54.4178 40.9319 52.7063 39.3256C50.8178 37.5804 49.8735 35.1808 49.8735 32.1268C49.8735 30.4078 50.3405 28.8372 51.2745 27.4149L44.7388 27.4149ZM78.2132 21.3227H84.6507C84.0344 19.8393 82.642 19.0976 80.4736 19.0976C79.7851 19.0976 79.1162 19.1571 78.467 19.2761C78.3972 19.972 78.3126 20.6542 78.2132 21.3227ZM110.19 27.4149C112.045 28.2875 113.589 29.1839 114.821 30.104C115.864 30.8972 116.7 31.7599 117.329 32.692C117.959 33.6241 118.274 34.685 118.274 35.8749C118.274 37.045 118.047 38.0663 117.595 38.9389C116.297 41.4376 113.749 42.687 109.952 42.687C106.647 42.687 104.07 41.9036 102.221 40.337C100.392 38.7703 99.349 36.2715 99.0933 32.8407C98.8966 32.0871 98.1687 31.7103 96.9097 31.7103C96.2605 31.7103 95.749 31.9384 95.3753 32.3945C94.2736 34.3182 93.7228 36.3905 93.7228 38.6116C93.7228 39.7222 93.949 40.6642 94.4015 41.4376C95.2867 42.9646 96.772 44.1446 98.8572 44.9775C101.69 46.1476 104.956 46.7326 108.654 46.7326C113.316 46.7326 117.192 45.6419 120.28 43.4604C123.585 41.1203 125.238 38.0365 125.238 34.2091C125.238 31.6484 124.514 29.3837 123.066 27.4149H110.19ZM114.734 21.3227L98.9998 21.3227C98.8205 21.1593 98.6451 20.9928 98.4736 20.8229C96.0343 18.4035 94.8146 15.4189 94.8146 11.8691C94.8146 8.23993 96.3589 5.33463 99.4474 3.15319C102.418 1.05106 106.254 0 110.956 0C116.916 0 120.811 1.23946 122.641 3.71838C123.31 4.61079 123.644 5.78084 123.644 7.22853C123.644 8.67622 123.506 9.93551 123.231 11.0064C122.975 12.0773 122.72 12.7714 122.464 13.0887C122.031 13.6241 121.284 13.8919 120.221 13.8919C119.179 13.8919 118.657 13.6341 118.657 13.1184C118.657 8.57706 117.054 5.73126 113.847 4.58104C112.746 4.18442 111.457 3.9861 109.982 3.9861C108.506 3.9861 107.238 4.15467 106.175 4.4918C105.113 4.82893 104.228 5.28506 103.52 5.86016C102.083 7.03021 101.365 8.57706 101.365 10.5007C101.365 13.4159 103.49 15.9047 107.739 17.9672L111.428 19.7223C112.557 20.2479 113.66 20.7813 114.734 21.3227ZM60.3132 21.3227L51.3232 21.3227C51.3907 21.2845 51.4583 21.2468 51.526 21.2096C49.0866 17.8383 47.8669 14.8239 47.8669 12.1665C47.8669 8.63655 49.1653 5.74118 51.762 3.4804C54.2014 1.37828 57.0637 0.327217 60.3489 0.327217C63.2604 0.327217 65.6703 0.912242 67.5785 2.08229C69.7227 3.39116 70.7949 5.22556 70.7949 7.58549C70.7949 10.1636 69.6244 11.9682 67.2834 12.9995C66.8112 13.1581 66.3785 13.2374 65.985 13.2374C65.6113 13.2374 65.2276 13.0689 64.8342 12.7317C64.9719 12.1368 65.0408 11.4229 65.0408 10.5899V9.90576C64.8637 8.43824 64.2637 7.27811 63.2408 6.42536C62.2178 5.55278 60.8112 5.11649 59.0211 5.11649C56.6407 5.11649 55.0079 5.96924 54.1227 7.67473C53.7883 8.30934 53.6211 9.13234 53.6211 10.1437C53.6211 11.1551 53.9063 12.2756 54.4768 13.5052C55.0473 14.7149 55.8243 15.9742 56.8079 17.283C57.8112 18.5919 58.9719 19.9305 60.2899 21.2989C60.2977 21.3068 60.3054 21.3147 60.3132 21.3227Z" fill="#131B12"/>
<path d="M3.28842 22.8346C3.17653 22.8346 3.11837 22.9562 3.11396 23.1993V24.5839C3.11396 25.0916 2.99396 25.4793 2.75397 25.747C2.5184 26.0131 2.18198 26.1462 1.7447 26.1462C1.37367 26.1462 1.06964 26.0485 0.832596 25.8531C0.532243 25.6085 0.382067 25.2024 0.382067 24.6347V23.047C0.380594 22.9808 0.373233 22.9346 0.359982 22.9085C0.348203 22.8823 0.320229 22.8646 0.27606 22.8554C0.23189 22.8462 0.192138 22.8377 0.156802 22.83C0.122939 22.8208 0.0942284 22.81 0.0706713 22.7977C0.0235571 22.7731 0 22.7316 0 22.6731C0 22.6193 0.0117786 22.5769 0.0353357 22.5462C0.069199 22.5585 0.142079 22.5646 0.253975 22.5646H1.11086C1.27871 22.5646 1.36263 22.6239 1.36263 22.7423C1.36263 22.7946 1.35159 22.8339 1.3295 22.86C1.27503 22.8446 1.2235 22.837 1.17491 22.837C1.1278 22.837 1.08952 22.8431 1.06007 22.8554C1.0321 22.8662 1.00633 22.8862 0.982773 22.9154C0.92977 22.9816 0.903268 23.0839 0.903268 23.2223V24.4731C0.903268 24.9485 0.994552 25.2901 1.17712 25.4978C1.31846 25.6562 1.51428 25.7355 1.76457 25.7355C2.39767 25.7355 2.71422 25.3231 2.71422 24.4985V23.1093C2.71422 22.9877 2.68183 22.9116 2.61705 22.8808C2.59643 22.87 2.56772 22.8608 2.53092 22.8531C2.49558 22.8454 2.46025 22.8377 2.42491 22.83C2.39105 22.8208 2.36234 22.81 2.33878 22.7977C2.29166 22.7731 2.26811 22.7316 2.26811 22.6731C2.26811 22.6162 2.27989 22.5739 2.30344 22.5462C2.33731 22.5585 2.41019 22.5646 2.52208 22.5646H3.2553C3.33039 22.5646 3.39075 22.5769 3.43639 22.6016C3.48351 22.6262 3.50706 22.6723 3.50706 22.74C3.50706 22.7923 3.49602 22.8316 3.47394 22.8577C3.41504 22.8423 3.35321 22.8346 3.28842 22.8346Z" fill="#131B12"/>
<path d="M5.49249 26.1139C5.46304 26.1062 5.41593 26.1024 5.35114 26.1024H4.6886C4.54726 26.1024 4.45671 26.0762 4.41696 26.0239C4.40076 26.0039 4.39266 25.9808 4.39266 25.9547C4.39266 25.8901 4.40444 25.8424 4.428 25.8116C4.46334 25.8239 4.50382 25.8301 4.54947 25.8301C4.59511 25.8301 4.62897 25.8108 4.65106 25.7724C4.67314 25.7339 4.68345 25.6624 4.68197 25.5578V22.6985C4.68197 22.5923 4.67167 22.5239 4.65106 22.4931C4.62014 22.4439 4.56566 22.4193 4.48763 22.4193C4.46407 22.4193 4.43978 22.4223 4.41475 22.4285C4.39119 22.4331 4.37279 22.4323 4.35954 22.4262C4.34776 22.4185 4.33819 22.4085 4.33083 22.3962C4.31169 22.3654 4.31316 22.3346 4.33524 22.3039C4.3588 22.2716 4.39193 22.2377 4.43463 22.2023C4.47732 22.1669 4.52444 22.1362 4.57597 22.11C4.68639 22.05 4.78136 22.02 4.86086 22.02C4.94184 22.02 5.00147 22.0323 5.03975 22.0569C5.0795 22.0816 5.10895 22.1146 5.12809 22.1562C5.16048 22.2239 5.17667 22.3331 5.17667 22.4839V25.5808C5.17667 25.7085 5.21348 25.787 5.2871 25.8162C5.30771 25.8255 5.332 25.8331 5.35998 25.8393C5.38942 25.8455 5.41593 25.8531 5.43948 25.8624C5.46304 25.8701 5.48144 25.8793 5.4947 25.8901C5.51678 25.9101 5.52782 25.9424 5.52782 25.987C5.52782 26.0408 5.51604 26.0831 5.49249 26.1139ZM6.42667 23.2893C6.65635 23.2893 6.7712 23.3631 6.7712 23.5108C6.7712 23.697 6.59231 23.9539 6.23454 24.2816C6.09614 24.4093 5.957 24.5185 5.81713 24.6093C5.91136 24.7001 6.0078 24.8177 6.10644 24.9624L6.33833 25.3039C6.53268 25.5947 6.67918 25.7401 6.77782 25.7401C6.8588 25.7401 6.9118 25.7316 6.93683 25.7147C6.96333 25.6978 6.98247 25.6885 6.99425 25.687C7.00603 25.6855 7.02149 25.6908 7.04063 25.7031C7.05977 25.7155 7.06934 25.7362 7.06934 25.7655C7.06934 25.7947 7.05756 25.8316 7.034 25.8762C7.01192 25.9193 6.98027 25.9608 6.93904 26.0008C6.83892 26.0978 6.73071 26.1462 6.61439 26.1462C6.49808 26.1462 6.40017 26.1178 6.32067 26.0608C6.24116 26.0024 6.16681 25.9278 6.09761 25.837C6.02841 25.7447 5.96289 25.6424 5.90105 25.5301L5.71775 25.2024C5.56905 24.9347 5.44169 24.7608 5.33568 24.6808C5.27385 24.6362 5.25323 24.6077 5.27385 24.5954L5.33789 24.5585L5.69346 24.2931C5.84511 24.1747 5.94964 24.0816 6.00706 24.0139C6.11896 23.8831 6.17491 23.7739 6.17491 23.6862C6.17491 23.6247 6.11601 23.5893 5.99823 23.58C5.9835 23.5554 5.97614 23.5293 5.97614 23.5016C5.97614 23.4739 5.99013 23.447 6.0181 23.4208C6.04755 23.3931 6.08436 23.37 6.12853 23.3516C6.22276 23.31 6.32214 23.2893 6.42667 23.2893Z" fill="#131B12"/>
<path d="M9.06801 26.1139C9.0371 26.1062 8.98998 26.1024 8.92667 26.1024H8.178C8.03665 26.1024 7.94611 26.0762 7.90635 26.0239C7.89016 26.0039 7.88206 25.9808 7.88206 25.9547C7.88206 25.8901 7.89384 25.8424 7.9174 25.8116C7.95273 25.8239 7.98512 25.8301 8.01457 25.8301C8.04549 25.8301 8.07125 25.8262 8.09187 25.8185C8.11248 25.8093 8.12867 25.7947 8.14045 25.7747C8.16107 25.7378 8.17137 25.6655 8.17137 25.5578V24.0485C8.17137 23.9039 8.14561 23.8139 8.09407 23.7785C8.07346 23.7647 8.04622 23.7577 8.01236 23.7577C7.9785 23.7577 7.95126 23.7631 7.93065 23.7739C7.91151 23.7847 7.89531 23.7923 7.88206 23.797C7.87028 23.8016 7.85998 23.8016 7.85114 23.797C7.84231 23.7908 7.83347 23.7823 7.82464 23.7716C7.80256 23.7439 7.79151 23.7177 7.79151 23.6931C7.79151 23.667 7.80035 23.6393 7.81801 23.61C7.83715 23.5793 7.86734 23.5447 7.90856 23.5062C7.94979 23.4662 7.9969 23.43 8.0499 23.3977C8.16916 23.3254 8.28842 23.2893 8.40768 23.2893C8.54313 23.2893 8.62337 23.3816 8.6484 23.5662C8.65576 23.62 8.66018 23.6762 8.66165 23.7347C8.87661 23.5362 9.0982 23.4 9.32641 23.3262C9.40297 23.3016 9.47217 23.2893 9.534 23.2893C9.59731 23.2893 9.64884 23.2985 9.6886 23.317C9.72982 23.3354 9.76221 23.3608 9.78577 23.3931C9.82994 23.4562 9.85202 23.537 9.85202 23.6354C9.85202 23.7339 9.84761 23.8123 9.83877 23.8708C9.82994 23.9293 9.8189 23.9808 9.80564 24.0254C9.77914 24.1162 9.75411 24.1739 9.73056 24.1985C9.68933 24.2431 9.63412 24.2654 9.56492 24.2654C9.49425 24.2654 9.45891 24.2439 9.45891 24.2008C9.45891 24.0362 9.45229 23.9308 9.43904 23.8847C9.41401 23.8 9.36689 23.7577 9.2977 23.7577C9.2285 23.7577 9.16592 23.7662 9.10997 23.7831C9.05403 23.7985 8.99955 23.82 8.94655 23.8477C8.83907 23.9031 8.74484 23.9747 8.66386 24.0624V25.597C8.66828 25.7185 8.71907 25.7924 8.81625 25.8185C8.84422 25.8262 8.87588 25.8331 8.91121 25.8393C8.94655 25.8455 8.97673 25.8531 9.00176 25.8624C9.02826 25.8701 9.04887 25.8793 9.0636 25.8901C9.08863 25.9101 9.10114 25.9424 9.10114 25.987C9.10114 26.0424 9.0901 26.0847 9.06801 26.1139Z" fill="#131B12"/>
<path d="M12.2968 25.8093C12.0819 26.0339 11.822 26.1462 11.5172 26.1462C11.2816 26.1462 11.0932 26.0755 10.9518 25.9339C10.809 25.7908 10.7376 25.6054 10.7376 25.3778C10.7376 25.0947 10.8584 24.8824 11.0998 24.7408C11.3177 24.6116 11.6247 24.547 12.0207 24.547H12.2968C12.2983 24.4885 12.299 24.4316 12.299 24.3762V24.2031C12.299 23.997 12.2703 23.8516 12.2129 23.767C12.1481 23.6716 12.0377 23.6239 11.8816 23.6239C11.5238 23.6239 11.3398 23.7577 11.3295 24.0254C11.328 24.067 11.3288 24.1016 11.3317 24.1293C11.3023 24.1539 11.2522 24.1662 11.1815 24.1662C11.1123 24.1662 11.0615 24.1577 11.0291 24.1408C10.9982 24.1239 10.971 24.1008 10.9474 24.0716C10.8974 24.0116 10.8723 23.9354 10.8723 23.8431C10.8723 23.7493 10.8981 23.6677 10.9496 23.5985C11.0026 23.5277 11.074 23.47 11.1639 23.4254C11.3391 23.3347 11.5459 23.2893 11.7844 23.2893C12.023 23.2893 12.2018 23.3139 12.3211 23.3631C12.4418 23.4108 12.5375 23.4747 12.6082 23.5547C12.7334 23.6962 12.7959 23.8862 12.7959 24.1247L12.7738 25.2324C12.7738 25.4339 12.7827 25.5616 12.8003 25.6154C12.8195 25.6693 12.8416 25.7055 12.8666 25.7239C12.8931 25.7424 12.9248 25.7516 12.9616 25.7516C12.9998 25.7516 13.0308 25.7455 13.0543 25.7331L13.1162 25.7031C13.1368 25.6955 13.1544 25.7047 13.1692 25.7308C13.1854 25.7555 13.1935 25.7778 13.1935 25.7978C13.1935 25.8162 13.1854 25.8408 13.1692 25.8716C13.1544 25.9024 13.1257 25.9355 13.083 25.9708C13.0418 26.0047 12.9947 26.0347 12.9417 26.0608C12.6487 26.2055 12.4492 26.1716 12.3432 25.9593C12.3211 25.9178 12.3056 25.8678 12.2968 25.8093ZM12.2902 25.507C12.2902 25.2854 12.2917 25.0654 12.2946 24.847C11.9884 24.8593 11.78 24.8801 11.6696 24.9093C11.5606 24.937 11.4819 24.9639 11.4333 24.9901C11.3847 25.0162 11.3464 25.047 11.3185 25.0824C11.2728 25.1408 11.25 25.2293 11.25 25.3478C11.25 25.4647 11.2897 25.5585 11.3692 25.6293C11.4488 25.6985 11.5629 25.7331 11.7116 25.7331C11.9221 25.7331 12.115 25.6578 12.2902 25.507Z" fill="#131B12"/>
<path d="M14.5715 22.86C14.5215 22.86 14.4751 22.8523 14.4324 22.837C14.3912 22.82 14.3551 22.7962 14.3242 22.7654C14.2594 22.7008 14.227 22.6139 14.227 22.5046C14.227 22.4 14.2653 22.3116 14.3419 22.2393C14.4155 22.1669 14.5038 22.1308 14.6069 22.1308C14.7099 22.1308 14.7924 22.1631 14.8542 22.2277C14.9161 22.2923 14.947 22.38 14.947 22.4908C14.947 22.5954 14.9102 22.6839 14.8366 22.7562C14.7644 22.8254 14.6761 22.86 14.5715 22.86ZM14.4368 26.1024C14.2101 26.1024 14.0967 26.0485 14.0967 25.9408C14.0967 25.8855 14.1085 25.8424 14.1321 25.8116C14.1674 25.8239 14.1998 25.8301 14.2292 25.8301C14.3662 25.8301 14.4331 25.7393 14.4302 25.5578V24.0116C14.4302 23.9039 14.4155 23.8293 14.386 23.7877C14.3581 23.7447 14.3073 23.7231 14.2336 23.7231C14.1792 23.7231 14.1298 23.73 14.0857 23.7439C14.0592 23.747 14.04 23.7254 14.0283 23.6793C14.018 23.6377 14.0238 23.6016 14.0459 23.5708C14.068 23.5385 14.1019 23.5054 14.1475 23.4716C14.1946 23.4362 14.2462 23.4054 14.3021 23.3793C14.4228 23.3193 14.5237 23.2893 14.6047 23.2893C14.6856 23.2893 14.7453 23.3016 14.7836 23.3262C14.8233 23.3508 14.8535 23.3839 14.8741 23.4254C14.9065 23.4931 14.9227 23.6023 14.9227 23.7531V25.597C14.9271 25.7185 14.9691 25.7924 15.0486 25.8185C15.0707 25.8262 15.0979 25.8331 15.1303 25.8393C15.1627 25.8455 15.1914 25.8531 15.2164 25.8624C15.2429 25.8701 15.2635 25.8793 15.2783 25.8901C15.3033 25.9101 15.3158 25.9424 15.3158 25.987C15.3158 26.0424 15.3048 26.0847 15.2827 26.1139C15.2518 26.1062 15.2046 26.1024 15.1413 26.1024H14.4368Z" fill="#131B12"/>
<path d="M17.3962 26.1139C17.3667 26.1062 17.3196 26.1024 17.2548 26.1024H16.5503C16.409 26.1024 16.3184 26.0762 16.2787 26.0239C16.2625 26.0039 16.2544 25.9808 16.2544 25.9547C16.2544 25.8901 16.2662 25.8424 16.2897 25.8116C16.3251 25.8239 16.3648 25.8301 16.409 25.8301C16.4546 25.8301 16.4885 25.8108 16.5106 25.7724C16.5341 25.7339 16.5452 25.6624 16.5437 25.5578V24.0485C16.5437 23.9039 16.5179 23.8139 16.4664 23.7785C16.4458 23.7647 16.4186 23.7577 16.3847 23.7577C16.3508 23.7577 16.3236 23.7631 16.303 23.7739C16.2838 23.7847 16.2677 23.7923 16.2544 23.797C16.2426 23.8016 16.2323 23.8016 16.2235 23.797C16.2147 23.7908 16.2058 23.7823 16.197 23.7716C16.1749 23.747 16.1639 23.7216 16.1639 23.6954C16.1639 23.6677 16.1727 23.6393 16.1904 23.61C16.2095 23.5793 16.2397 23.5447 16.2809 23.5062C16.3221 23.4662 16.3692 23.43 16.4222 23.3977C16.5415 23.3254 16.6608 23.2893 16.78 23.2893C16.9169 23.2893 16.9979 23.3839 17.023 23.5731C17.0303 23.6285 17.0347 23.6854 17.0362 23.7439C17.2556 23.5516 17.4941 23.4147 17.7518 23.3331C17.8445 23.3039 17.938 23.2893 18.0322 23.2893C18.1279 23.2893 18.2185 23.3023 18.3039 23.3285C18.3907 23.3547 18.4658 23.397 18.5291 23.4554C18.6631 23.5785 18.7301 23.7708 18.7301 24.0324V25.597C18.7345 25.717 18.7772 25.7908 18.8582 25.8185C18.8803 25.8262 18.9075 25.8331 18.9399 25.8393C18.9723 25.8455 19.001 25.8531 19.026 25.8624C19.0525 25.8701 19.0732 25.8793 19.0879 25.8901C19.1129 25.9101 19.1254 25.9424 19.1254 25.987C19.1254 26.0408 19.1136 26.0831 19.0901 26.1139C19.0606 26.1062 19.0135 26.1024 18.9487 26.1024H18.2442C18.1029 26.1024 18.0124 26.0762 17.9726 26.0239C17.9564 26.0039 17.9483 25.9808 17.9483 25.9547C17.9483 25.8901 17.9601 25.8424 17.9836 25.8116C18.019 25.8239 18.0514 25.8301 18.0808 25.8301C18.1117 25.8301 18.1375 25.8262 18.1581 25.8185C18.1787 25.8093 18.1949 25.7947 18.2067 25.7747C18.2273 25.7378 18.2376 25.6655 18.2376 25.5578V24.1962C18.2376 23.9347 18.1633 23.7885 18.0146 23.7577C17.9689 23.7485 17.9115 23.7439 17.8423 23.7439C17.7746 23.7439 17.6995 23.7547 17.617 23.7762C17.5346 23.7977 17.4573 23.8254 17.3851 23.8593C17.2467 23.9239 17.1304 24.0054 17.0362 24.1039V25.597C17.0406 25.717 17.0826 25.7908 17.1621 25.8185C17.1856 25.8262 17.2129 25.8331 17.2438 25.8393C17.2762 25.8455 17.3056 25.8531 17.3321 25.8624C17.3586 25.8701 17.3793 25.8793 17.394 25.8901C17.419 25.9101 17.4315 25.9424 17.4315 25.987C17.4315 26.0408 17.4197 26.0831 17.3962 26.1139Z" fill="#131B12"/>
<path d="M20.5389 22.86C20.4888 22.86 20.4424 22.8523 20.3997 22.837C20.3585 22.82 20.3224 22.7962 20.2915 22.7654C20.2267 22.7008 20.1943 22.6139 20.1943 22.5046C20.1943 22.4 20.2326 22.3116 20.3092 22.2393C20.3828 22.1669 20.4711 22.1308 20.5742 22.1308C20.6772 22.1308 20.7597 22.1631 20.8215 22.2277C20.8834 22.2923 20.9143 22.38 20.9143 22.4908C20.9143 22.5954 20.8775 22.6839 20.8039 22.7562C20.7317 22.8254 20.6434 22.86 20.5389 22.86ZM20.4041 26.1024C20.1774 26.1024 20.064 26.0485 20.064 25.9408C20.064 25.8855 20.0758 25.8424 20.0994 25.8116C20.1347 25.8239 20.1671 25.8301 20.1965 25.8301C20.3335 25.8301 20.4005 25.7393 20.3975 25.5578V24.0116C20.3975 23.9039 20.3828 23.8293 20.3533 23.7877C20.3254 23.7447 20.2746 23.7231 20.201 23.7231C20.1465 23.7231 20.0972 23.73 20.053 23.7439C20.0265 23.747 20.0073 23.7254 19.9956 23.6793C19.9853 23.6377 19.9911 23.6016 20.0132 23.5708C20.0353 23.5385 20.0692 23.5054 20.1148 23.4716C20.1619 23.4362 20.2135 23.4054 20.2694 23.3793C20.3901 23.3193 20.491 23.2893 20.572 23.2893C20.653 23.2893 20.7126 23.3016 20.7509 23.3262C20.7906 23.3508 20.8208 23.3839 20.8414 23.4254C20.8738 23.4931 20.89 23.6023 20.89 23.7531V25.597C20.8944 25.7185 20.9364 25.7924 21.0159 25.8185C21.038 25.8262 21.0652 25.8331 21.0976 25.8393C21.13 25.8455 21.1587 25.8531 21.1837 25.8624C21.2102 25.8701 21.2308 25.8793 21.2456 25.8901C21.2706 25.9101 21.2831 25.9424 21.2831 25.987C21.2831 26.0424 21.2721 26.0847 21.25 26.1139C21.2191 26.1062 21.1719 26.1024 21.1086 26.1024H20.4041Z" fill="#131B12"/>
<path d="M23.7367 25.8093C23.5218 26.0339 23.2619 26.1462 22.9571 26.1462C22.7216 26.1462 22.5331 26.0755 22.3918 25.9339C22.249 25.7908 22.1775 25.6054 22.1775 25.3778C22.1775 25.0947 22.2983 24.8824 22.5397 24.7408C22.7576 24.6116 23.0646 24.547 23.4607 24.547H23.7367C23.7382 24.4885 23.7389 24.4316 23.7389 24.3762V24.2031C23.7389 23.997 23.7102 23.8516 23.6528 23.767C23.588 23.6716 23.4776 23.6239 23.3215 23.6239C22.9638 23.6239 22.7797 23.7577 22.7694 24.0254C22.7679 24.067 22.7687 24.1016 22.7716 24.1293C22.7422 24.1539 22.6921 24.1662 22.6214 24.1662C22.5522 24.1662 22.5015 24.1577 22.4691 24.1408C22.4381 24.1239 22.4109 24.1008 22.3873 24.0716C22.3373 24.0116 22.3123 23.9354 22.3123 23.8431C22.3123 23.7493 22.338 23.6677 22.3896 23.5985C22.4426 23.5277 22.514 23.47 22.6038 23.4254C22.779 23.3347 22.9858 23.2893 23.2244 23.2893C23.4629 23.2893 23.6418 23.3139 23.761 23.3631C23.8818 23.4108 23.9775 23.4747 24.0481 23.5547C24.1733 23.6962 24.2358 23.8862 24.2358 24.1247L24.2138 25.2324C24.2138 25.4339 24.2226 25.5616 24.2403 25.6154C24.2594 25.6693 24.2815 25.7055 24.3065 25.7239C24.333 25.7424 24.3647 25.7516 24.4015 25.7516C24.4398 25.7516 24.4707 25.7455 24.4942 25.7331L24.5561 25.7031C24.5767 25.6955 24.5944 25.7047 24.6091 25.7308C24.6253 25.7555 24.6334 25.7778 24.6334 25.7978C24.6334 25.8162 24.6253 25.8408 24.6091 25.8716C24.5944 25.9024 24.5656 25.9355 24.5229 25.9708C24.4817 26.0047 24.4346 26.0347 24.3816 26.0608C24.0886 26.2055 23.8891 26.1716 23.7831 25.9593C23.761 25.9178 23.7456 25.8678 23.7367 25.8093ZM23.7301 25.507C23.7301 25.2854 23.7316 25.0654 23.7345 24.847C23.4283 24.8593 23.2199 24.8801 23.1095 24.9093C23.0006 24.937 22.9218 24.9639 22.8732 24.9901C22.8246 25.0162 22.7863 25.047 22.7584 25.0824C22.7127 25.1408 22.6899 25.2293 22.6899 25.3478C22.6899 25.4647 22.7297 25.5585 22.8092 25.6293C22.8887 25.6985 23.0028 25.7331 23.1515 25.7331C23.362 25.7331 23.5549 25.6578 23.7301 25.507Z" fill="#131B12"/>
<path d="M26.685 26.1139C26.6556 26.1062 26.6085 26.1024 26.5437 26.1024H25.8392C25.6979 26.1024 25.6073 26.0762 25.5676 26.0239C25.5514 26.0039 25.5433 25.9808 25.5433 25.9547C25.5433 25.8901 25.555 25.8424 25.5786 25.8116C25.6139 25.8239 25.6537 25.8301 25.6979 25.8301C25.7435 25.8301 25.7774 25.8108 25.7994 25.7724C25.823 25.7339 25.834 25.6624 25.8326 25.5578V24.0485C25.8326 23.9039 25.8068 23.8139 25.7553 23.7785C25.7347 23.7647 25.7074 23.7577 25.6736 23.7577C25.6397 23.7577 25.6125 23.7631 25.5919 23.7739C25.5727 23.7847 25.5565 23.7923 25.5433 23.797C25.5315 23.8016 25.5212 23.8016 25.5123 23.797C25.5035 23.7908 25.4947 23.7823 25.4858 23.7716C25.4638 23.747 25.4527 23.7216 25.4527 23.6954C25.4527 23.6677 25.4616 23.6393 25.4792 23.61C25.4984 23.5793 25.5285 23.5447 25.5698 23.5062C25.611 23.4662 25.6581 23.43 25.7111 23.3977C25.8304 23.3254 25.9496 23.2893 26.0689 23.2893C26.2058 23.2893 26.2868 23.3839 26.3118 23.5731C26.3192 23.6285 26.3236 23.6854 26.3251 23.7439C26.5444 23.5516 26.783 23.4147 27.0406 23.3331C27.1334 23.3039 27.2269 23.2893 27.3211 23.2893C27.4168 23.2893 27.5073 23.3023 27.5927 23.3285C27.6796 23.3547 27.7547 23.397 27.818 23.4554C27.952 23.5785 28.019 23.7708 28.019 24.0324V25.597C28.0234 25.717 28.0661 25.7908 28.1471 25.8185C28.1691 25.8262 28.1964 25.8331 28.2288 25.8393C28.2612 25.8455 28.2899 25.8531 28.3149 25.8624C28.3414 25.8701 28.362 25.8793 28.3767 25.8901C28.4018 25.9101 28.4143 25.9424 28.4143 25.987C28.4143 26.0408 28.4025 26.0831 28.379 26.1139C28.3495 26.1062 28.3024 26.1024 28.2376 26.1024H27.5331C27.3918 26.1024 27.3012 26.0762 27.2615 26.0239C27.2453 26.0039 27.2372 25.9808 27.2372 25.9547C27.2372 25.8901 27.2489 25.8424 27.2725 25.8116C27.3078 25.8239 27.3402 25.8301 27.3697 25.8301C27.4006 25.8301 27.4264 25.8262 27.447 25.8185C27.4676 25.8093 27.4838 25.7947 27.4956 25.7747C27.5162 25.7378 27.5265 25.6655 27.5265 25.5578V24.1962C27.5265 23.9347 27.4521 23.7885 27.3034 23.7577C27.2578 23.7485 27.2004 23.7439 27.1312 23.7439C27.0634 23.7439 26.9883 23.7547 26.9059 23.7762C26.8234 23.7977 26.7461 23.8254 26.674 23.8593C26.5356 23.9239 26.4193 24.0054 26.3251 24.1039V25.597C26.3295 25.717 26.3714 25.7908 26.4509 25.8185C26.4745 25.8262 26.5017 25.8331 26.5327 25.8393C26.5651 25.8455 26.5945 25.8531 26.621 25.8624C26.6475 25.8701 26.6681 25.8793 26.6828 25.8901C26.7079 25.9101 26.7204 25.9424 26.7204 25.987C26.7204 26.0408 26.7086 26.0831 26.685 26.1139Z" fill="#131B12"/>
<path d="M32.6678 26.1139C32.6384 26.1062 32.5913 26.1024 32.5265 26.1024H31.822C31.6806 26.1024 31.5901 26.0762 31.5503 26.0239C31.5341 26.0039 31.526 25.9808 31.526 25.9547C31.526 25.8901 31.5378 25.8424 31.5614 25.8116C31.5967 25.8239 31.6372 25.8301 31.6828 25.8301C31.7285 25.8301 31.7623 25.8108 31.7844 25.7724C31.8065 25.7339 31.8168 25.6624 31.8153 25.5578V22.6985C31.8153 22.5923 31.805 22.5239 31.7844 22.4931C31.7535 22.4439 31.699 22.4193 31.621 22.4193H31.5768C31.5636 22.4193 31.5481 22.4216 31.5305 22.4262C31.5143 22.4293 31.5003 22.4277 31.4885 22.4216C31.4767 22.4139 31.4664 22.4039 31.4576 22.3916C31.4267 22.3439 31.462 22.2793 31.5636 22.1977C31.7123 22.0793 31.8639 22.02 32.0185 22.02C32.1864 22.02 32.2806 22.1146 32.3012 22.3039C32.3071 22.3608 32.31 22.4208 32.31 22.4839V23.7416C32.5324 23.5462 32.7701 23.41 33.0234 23.3331C33.1161 23.3039 33.2096 23.2893 33.3039 23.2893C33.3996 23.2893 33.4901 23.3023 33.5755 23.3285C33.6624 23.3547 33.7367 23.397 33.7986 23.4554C33.934 23.5816 34.0017 23.7739 34.0017 24.0324V25.5808C34.0017 25.7085 34.043 25.787 34.1254 25.8162C34.149 25.8255 34.1769 25.8331 34.2093 25.8393C34.2417 25.8455 34.2704 25.8531 34.2955 25.8624C34.322 25.8701 34.3426 25.8793 34.3573 25.8901C34.3823 25.9101 34.3948 25.9424 34.3948 25.987C34.3948 26.0424 34.3838 26.0847 34.3617 26.1139C34.3308 26.1062 34.2837 26.1024 34.2204 26.1024H33.5159C33.3745 26.1024 33.284 26.0762 33.2442 26.0239C33.228 26.0039 33.2199 25.9808 33.2199 25.9547C33.2199 25.8885 33.231 25.8408 33.2531 25.8116C33.2899 25.8239 33.3296 25.8301 33.3723 25.8301C33.415 25.8301 33.4474 25.8139 33.4695 25.7816C33.4931 25.7493 33.5063 25.6901 33.5092 25.6039V24.1962C33.5092 23.9347 33.4349 23.7885 33.2862 23.7577C33.2405 23.7485 33.1831 23.7439 33.1139 23.7439C33.0462 23.7439 32.9711 23.7547 32.8887 23.7762C32.8077 23.7977 32.7311 23.8254 32.659 23.8593C32.5162 23.927 32.3999 24.0077 32.31 24.1016V25.5808C32.31 25.7085 32.3513 25.787 32.4337 25.8162C32.4573 25.8255 32.4852 25.8331 32.5176 25.8393C32.55 25.8455 32.5787 25.8531 32.6038 25.8624C32.6303 25.8701 32.6509 25.8793 32.6656 25.8901C32.6906 25.9101 32.7032 25.9424 32.7032 25.987C32.7032 26.0408 32.6914 26.0831 32.6678 26.1139Z" fill="#131B12"/>
<path d="M36.8242 25.8093C36.6092 26.0339 36.3493 26.1462 36.0446 26.1462C35.809 26.1462 35.6206 26.0755 35.4792 25.9339C35.3364 25.7908 35.265 25.6054 35.265 25.3778C35.265 25.0947 35.3857 24.8824 35.6272 24.7408C35.8451 24.6116 36.1521 24.547 36.5481 24.547H36.8242C36.8256 24.4885 36.8264 24.4316 36.8264 24.3762V24.2031C36.8264 23.997 36.7977 23.8516 36.7402 23.767C36.6755 23.6716 36.565 23.6239 36.409 23.6239C36.0512 23.6239 35.8672 23.7577 35.8569 24.0254C35.8554 24.067 35.8561 24.1016 35.8591 24.1293C35.8296 24.1539 35.7796 24.1662 35.7089 24.1662C35.6397 24.1662 35.5889 24.1577 35.5565 24.1408C35.5256 24.1239 35.4984 24.1008 35.4748 24.0716C35.4247 24.0116 35.3997 23.9354 35.3997 23.8431C35.3997 23.7493 35.4255 23.6677 35.477 23.5985C35.53 23.5277 35.6014 23.47 35.6912 23.4254C35.8664 23.3347 36.0733 23.2893 36.3118 23.2893C36.5503 23.2893 36.7292 23.3139 36.8485 23.3631C36.9692 23.4108 37.0649 23.4747 37.1356 23.5547C37.2607 23.6962 37.3233 23.8862 37.3233 24.1247L37.3012 25.2324C37.3012 25.4339 37.31 25.5616 37.3277 25.6154C37.3468 25.6693 37.3689 25.7055 37.394 25.7239C37.4205 25.7424 37.4521 25.7516 37.4889 25.7516C37.5272 25.7516 37.5581 25.7455 37.5817 25.7331L37.6435 25.7031C37.6641 25.6955 37.6818 25.7047 37.6965 25.7308C37.7127 25.7555 37.7208 25.7778 37.7208 25.7978C37.7208 25.8162 37.7127 25.8408 37.6965 25.8716C37.6818 25.9024 37.6531 25.9355 37.6104 25.9708C37.5692 26.0047 37.5221 26.0347 37.4691 26.0608C37.1761 26.2055 36.9766 26.1716 36.8706 25.9593C36.8485 25.9178 36.833 25.8678 36.8242 25.8093ZM36.8175 25.507C36.8175 25.2854 36.819 25.0654 36.822 24.847C36.5157 24.8593 36.3074 24.8801 36.197 24.9093C36.088 24.937 36.0092 24.9639 35.9607 24.9901C35.9121 25.0162 35.8738 25.047 35.8458 25.0824C35.8002 25.1408 35.7774 25.2293 35.7774 25.3478C35.7774 25.4647 35.8171 25.5585 35.8966 25.6293C35.9761 25.6985 36.0902 25.7331 36.2389 25.7331C36.4495 25.7331 36.6423 25.6578 36.8175 25.507Z" fill="#131B12"/>
<path d="M39.7725 26.1139C39.743 26.1062 39.6959 26.1024 39.6311 26.1024H38.9266C38.7853 26.1024 38.6948 26.0762 38.655 26.0239C38.6388 26.0039 38.6307 25.9808 38.6307 25.9547C38.6307 25.8901 38.6425 25.8424 38.666 25.8116C38.7014 25.8239 38.7411 25.8301 38.7853 25.8301C38.8309 25.8301 38.8648 25.8108 38.8869 25.7724C38.9104 25.7339 38.9215 25.6624 38.92 25.5578V24.0485C38.92 23.9039 38.8943 23.8139 38.8427 23.7785C38.8221 23.7647 38.7949 23.7577 38.761 23.7577C38.7271 23.7577 38.6999 23.7631 38.6793 23.7739C38.6602 23.7847 38.644 23.7923 38.6307 23.797C38.6189 23.8016 38.6086 23.8016 38.5998 23.797C38.591 23.7908 38.5821 23.7823 38.5733 23.7716C38.5512 23.747 38.5402 23.7216 38.5402 23.6954C38.5402 23.6677 38.549 23.6393 38.5667 23.61C38.5858 23.5793 38.616 23.5447 38.6572 23.5062C38.6984 23.4662 38.7455 23.43 38.7986 23.3977C38.9178 23.3254 39.0371 23.2893 39.1563 23.2893C39.2933 23.2893 39.3742 23.3839 39.3993 23.5731C39.4066 23.6285 39.411 23.6854 39.4125 23.7439C39.6319 23.5516 39.8704 23.4147 40.1281 23.3331C40.2208 23.3039 40.3143 23.2893 40.4085 23.2893C40.5042 23.2893 40.5948 23.3023 40.6802 23.3285C40.767 23.3547 40.8421 23.397 40.9054 23.4554C41.0394 23.5785 41.1064 23.7708 41.1064 24.0324V25.597C41.1108 25.717 41.1535 25.7908 41.2345 25.8185C41.2566 25.8262 41.2838 25.8331 41.3162 25.8393C41.3486 25.8455 41.3773 25.8531 41.4024 25.8624C41.4289 25.8701 41.4495 25.8793 41.4642 25.8901C41.4892 25.9101 41.5017 25.9424 41.5017 25.987C41.5017 26.0408 41.49 26.0831 41.4664 26.1139C41.437 26.1062 41.3898 26.1024 41.3251 26.1024H40.6205C40.4792 26.1024 40.3887 26.0762 40.3489 26.0239C40.3327 26.0039 40.3246 25.9808 40.3246 25.9547C40.3246 25.8901 40.3364 25.8424 40.3599 25.8116C40.3953 25.8239 40.4277 25.8301 40.4571 25.8301C40.488 25.8301 40.5138 25.8262 40.5344 25.8185C40.555 25.8093 40.5712 25.7947 40.583 25.7747C40.6036 25.7378 40.6139 25.6655 40.6139 25.5578V24.1962C40.6139 23.9347 40.5396 23.7885 40.3909 23.7577C40.3452 23.7485 40.2878 23.7439 40.2186 23.7439C40.1509 23.7439 40.0758 23.7547 39.9933 23.7762C39.9109 23.7977 39.8336 23.8254 39.7615 23.8593C39.6231 23.9239 39.5067 24.0054 39.4125 24.1039V25.597C39.4169 25.717 39.4589 25.7908 39.5384 25.8185C39.562 25.8262 39.5892 25.8331 39.6201 25.8393C39.6525 25.8455 39.6819 25.8531 39.7084 25.8624C39.7349 25.8701 39.7556 25.8793 39.7703 25.8901C39.7953 25.9101 39.8078 25.9424 39.8078 25.987C39.8078 26.0408 39.7961 26.0831 39.7725 26.1139Z" fill="#131B12"/>
<path d="M44.1917 25.8139C43.9634 26.037 43.7124 26.1485 43.4386 26.1485C43.1367 26.1485 42.8909 26.0408 42.7009 25.8255C42.4948 25.5885 42.3918 25.2616 42.3918 24.8447C42.3918 24.3754 42.5346 23.9939 42.8202 23.7C43.0867 23.4262 43.4018 23.2893 43.7654 23.2893C43.9112 23.2893 44.0511 23.3147 44.185 23.3654V22.6985C44.185 22.5908 44.1747 22.5223 44.1541 22.4931C44.1203 22.4439 44.065 22.4193 43.9885 22.4193C43.9561 22.4193 43.9237 22.4231 43.8913 22.4308C43.8604 22.4369 43.8383 22.4369 43.8251 22.4308C43.8133 22.4231 43.8037 22.4131 43.7963 22.4008C43.7669 22.35 43.8037 22.2854 43.9068 22.2069C44.0687 22.0823 44.2285 22.02 44.386 22.02C44.5524 22.02 44.6473 22.1146 44.6709 22.3039C44.6768 22.3608 44.6797 22.4208 44.6797 22.4839V25.1631C44.6797 25.4001 44.6886 25.5478 44.7062 25.6062C44.7239 25.6647 44.7445 25.7031 44.7681 25.7216C44.7931 25.7385 44.824 25.747 44.8608 25.747C44.8976 25.747 44.9278 25.7408 44.9514 25.7285L45.0176 25.6985C45.0368 25.6939 45.0537 25.7031 45.0684 25.7262C45.0993 25.7739 45.1038 25.817 45.0817 25.8555C45.0596 25.8939 45.0265 25.9308 44.9823 25.9662C44.9381 26.0016 44.8888 26.0324 44.8343 26.0585C44.5958 26.1708 44.4177 26.1731 44.2999 26.0655C44.2425 26.0131 44.2064 25.9293 44.1917 25.8139ZM44.185 23.8339C44.0407 23.7185 43.8729 23.6608 43.6815 23.6608C43.4518 23.6608 43.2656 23.7493 43.1228 23.9262C42.9696 24.1154 42.8931 24.3731 42.8931 24.6993C42.8931 25.2178 43.0344 25.5378 43.3171 25.6593C43.4054 25.6962 43.4908 25.7147 43.5733 25.7147C43.6572 25.7147 43.7271 25.7078 43.7831 25.6939C43.839 25.6801 43.8913 25.6616 43.9399 25.6385C44.0371 25.5924 44.1188 25.5362 44.185 25.4701V23.8339Z" fill="#131B12"/>
<path d="M47.1974 26.1139C47.168 26.1062 47.1208 26.1024 47.0561 26.1024H46.3516C46.2102 26.1024 46.1197 26.0762 46.0799 26.0239C46.0637 26.0039 46.0556 25.9808 46.0556 25.9547C46.0556 25.8901 46.0674 25.8424 46.091 25.8116C46.1263 25.8239 46.166 25.8301 46.2102 25.8301C46.2559 25.8301 46.2897 25.8108 46.3118 25.7724C46.3354 25.7339 46.3464 25.6624 46.3449 25.5578V24.0485C46.3449 23.9039 46.3192 23.8139 46.2676 23.7785C46.247 23.7647 46.2198 23.7577 46.1859 23.7577C46.1521 23.7577 46.1248 23.7631 46.1042 23.7739C46.0851 23.7847 46.0689 23.7923 46.0556 23.797C46.0438 23.8016 46.0335 23.8016 46.0247 23.797C46.0159 23.7908 46.007 23.7823 45.9982 23.7716C45.9761 23.747 45.9651 23.7216 45.9651 23.6954C45.9651 23.6677 45.9739 23.6393 45.9916 23.61C46.0107 23.5793 46.0409 23.5447 46.0821 23.5062C46.1233 23.4662 46.1705 23.43 46.2235 23.3977C46.3427 23.3254 46.462 23.2893 46.5812 23.2893C46.7123 23.2893 46.791 23.3762 46.8175 23.55C46.8264 23.6023 46.8323 23.6562 46.8352 23.7116C47.0561 23.5285 47.2872 23.4008 47.5287 23.3285C47.617 23.3023 47.7024 23.2893 47.7849 23.2893C48.1353 23.2893 48.3568 23.4339 48.4496 23.7231C48.6793 23.5323 48.9127 23.4008 49.1497 23.3285C49.2395 23.3023 49.3308 23.2893 49.4235 23.2893C49.5163 23.2893 49.6054 23.3023 49.6908 23.3285C49.7776 23.3547 49.852 23.397 49.9138 23.4554C50.0493 23.5816 50.117 23.7739 50.117 24.0324V25.5808C50.117 25.707 50.1582 25.7855 50.2407 25.8162C50.2642 25.8255 50.2922 25.8331 50.3246 25.8393C50.357 25.8455 50.3864 25.8531 50.4129 25.8624C50.4394 25.8701 50.4601 25.8793 50.4748 25.8901C50.4998 25.9101 50.5123 25.9424 50.5123 25.987C50.5123 26.0408 50.5005 26.0831 50.477 26.1139C50.4475 26.1062 50.4004 26.1024 50.3356 26.1024H49.6311C49.4898 26.1024 49.3993 26.0762 49.3595 26.0239C49.3433 26.0039 49.3352 25.9808 49.3352 25.9547C49.3352 25.8901 49.347 25.8424 49.3705 25.8116C49.4059 25.8239 49.4449 25.8301 49.4876 25.8301C49.5303 25.8301 49.5627 25.8155 49.5848 25.7862C49.6083 25.7555 49.6216 25.6993 49.6245 25.6178V24.1962C49.6245 23.9347 49.5502 23.7885 49.4015 23.7577C49.3558 23.7485 49.3013 23.7439 49.238 23.7439C49.1762 23.7439 49.1085 23.7523 49.0349 23.7693C48.9627 23.7847 48.8935 23.8062 48.8273 23.8339C48.6992 23.8877 48.5873 23.9562 48.4916 24.0393V25.5808C48.4916 25.7085 48.5328 25.787 48.6152 25.8162C48.6388 25.8255 48.6668 25.8331 48.6992 25.8393C48.7316 25.8455 48.7603 25.8531 48.7853 25.8624C48.8118 25.8701 48.8324 25.8793 48.8471 25.8901C48.8722 25.9101 48.8847 25.9424 48.8847 25.987C48.8847 26.0424 48.8736 26.0847 48.8515 26.1139C48.8221 26.1062 48.775 26.1024 48.7102 26.1024H48.0057C47.8644 26.1024 47.7738 26.0762 47.7341 26.0239C47.7179 26.0039 47.7098 25.9808 47.7098 25.9547C47.7098 25.8885 47.7208 25.8408 47.7429 25.8116C47.7797 25.8239 47.8195 25.8301 47.8621 25.8301C47.9048 25.8301 47.9372 25.8139 47.9593 25.7816C47.9829 25.7493 47.9961 25.6901 47.9991 25.6039V24.1962C47.9991 23.9347 47.9247 23.7885 47.776 23.7577C47.7304 23.7485 47.6752 23.7439 47.6104 23.7439C47.5456 23.7439 47.4749 23.7531 47.3984 23.7716C47.3218 23.79 47.2489 23.8147 47.1797 23.8454C47.0472 23.9024 46.9331 23.9747 46.8374 24.0624V25.5808C46.8374 25.707 46.8794 25.7855 46.9633 25.8162C46.9854 25.8255 47.0126 25.8331 47.045 25.8393C47.0774 25.8455 47.1068 25.8531 47.1334 25.8624C47.1599 25.8701 47.1805 25.8793 47.1952 25.8901C47.2202 25.9101 47.2327 25.9424 47.2327 25.987C47.2327 26.0408 47.221 26.0831 47.1974 26.1139Z" fill="#131B12"/>
<path d="M52.9726 25.8093C52.7576 26.0339 52.4977 26.1462 52.193 26.1462C51.9574 26.1462 51.7689 26.0755 51.6276 25.9339C51.4848 25.7908 51.4134 25.6054 51.4134 25.3778C51.4134 25.0947 51.5341 24.8824 51.7756 24.7408C51.9935 24.6116 52.3005 24.547 52.6965 24.547H52.9726C52.974 24.4885 52.9748 24.4316 52.9748 24.3762V24.2031C52.9748 23.997 52.9461 23.8516 52.8886 23.767C52.8239 23.6716 52.7134 23.6239 52.5574 23.6239C52.1996 23.6239 52.0156 23.7577 52.0053 24.0254C52.0038 24.067 52.0045 24.1016 52.0075 24.1293C51.978 24.1539 51.928 24.1662 51.8573 24.1662C51.7881 24.1662 51.7373 24.1577 51.7049 24.1408C51.674 24.1239 51.6467 24.1008 51.6232 24.0716C51.5731 24.0116 51.5481 23.9354 51.5481 23.8431C51.5481 23.7493 51.5739 23.6677 51.6254 23.5985C51.6784 23.5277 51.7498 23.47 51.8396 23.4254C52.0148 23.3347 52.2217 23.2893 52.4602 23.2893C52.6987 23.2893 52.8776 23.3139 52.9969 23.3631C53.1176 23.4108 53.2133 23.4747 53.284 23.5547C53.4091 23.6962 53.4717 23.8862 53.4717 24.1247L53.4496 25.2324C53.4496 25.4339 53.4584 25.5616 53.4761 25.6154C53.4952 25.6693 53.5173 25.7055 53.5424 25.7239C53.5689 25.7424 53.6005 25.7516 53.6373 25.7516C53.6756 25.7516 53.7065 25.7455 53.7301 25.7331L53.7919 25.7031C53.8125 25.6955 53.8302 25.7047 53.8449 25.7308C53.8611 25.7555 53.8692 25.7778 53.8692 25.7978C53.8692 25.8162 53.8611 25.8408 53.8449 25.8716C53.8302 25.9024 53.8015 25.9355 53.7588 25.9708C53.7176 26.0047 53.6704 26.0347 53.6174 26.0608C53.3245 26.2055 53.125 26.1716 53.0189 25.9593C52.9969 25.9178 52.9814 25.8678 52.9726 25.8093ZM52.9659 25.507C52.9659 25.2854 52.9674 25.0654 52.9704 24.847C52.6641 24.8593 52.4558 24.8801 52.3454 24.9093C52.2364 24.937 52.1576 24.9639 52.1091 24.9901C52.0605 25.0162 52.0222 25.047 51.9942 25.0824C51.9486 25.1408 51.9258 25.2293 51.9258 25.3478C51.9258 25.4647 51.9655 25.5585 52.045 25.6293C52.1245 25.6985 52.2386 25.7331 52.3873 25.7331C52.5979 25.7331 52.7907 25.6578 52.9659 25.507Z" fill="#131B12"/>
<path d="M56.5238 25.8139C56.2956 26.037 56.0446 26.1485 55.7707 26.1485C55.4689 26.1485 55.223 26.0408 55.0331 25.8255C54.827 25.5885 54.7239 25.2616 54.7239 24.8447C54.7239 24.3754 54.8667 23.9939 55.1523 23.7C55.4188 23.4262 55.7339 23.2893 56.0976 23.2893C56.2433 23.2893 56.3832 23.3147 56.5172 23.3654V22.6985C56.5172 22.5908 56.5069 22.5223 56.4863 22.4931C56.4524 22.4439 56.3972 22.4193 56.3206 22.4193C56.2882 22.4193 56.2558 22.4231 56.2234 22.4308C56.1925 22.4369 56.1704 22.4369 56.1572 22.4308C56.1454 22.4231 56.1358 22.4131 56.1285 22.4008C56.099 22.35 56.1358 22.2854 56.2389 22.2069C56.4009 22.0823 56.5606 22.02 56.7182 22.02C56.8845 22.02 56.9795 22.1146 57.003 22.3039C57.0089 22.3608 57.0119 22.4208 57.0119 22.4839V25.1631C57.0119 25.4001 57.0207 25.5478 57.0384 25.6062C57.056 25.6647 57.0767 25.7031 57.1002 25.7216C57.1252 25.7385 57.1562 25.747 57.193 25.747C57.2298 25.747 57.26 25.7408 57.2835 25.7285L57.3498 25.6985C57.3689 25.6939 57.3858 25.7031 57.4006 25.7262C57.4315 25.7739 57.4359 25.817 57.4138 25.8555C57.3917 25.8939 57.3586 25.9308 57.3144 25.9662C57.2703 26.0016 57.2209 26.0324 57.1665 26.0585C56.928 26.1708 56.7498 26.1731 56.632 26.0655C56.5746 26.0131 56.5385 25.9293 56.5238 25.8139ZM56.5172 23.8339C56.3729 23.7185 56.205 23.6608 56.0136 23.6608C55.784 23.6608 55.5977 23.7493 55.4549 23.9262C55.3018 24.1154 55.2252 24.3731 55.2252 24.6993C55.2252 25.2178 55.3666 25.5378 55.6492 25.6593C55.7376 25.6962 55.823 25.7147 55.9054 25.7147C55.9894 25.7147 56.0593 25.7078 56.1152 25.6939C56.1712 25.6801 56.2234 25.6616 56.272 25.6385C56.3692 25.5924 56.4509 25.5362 56.5172 25.4701V23.8339Z" fill="#131B12"/>
<path d="M58.3414 24.8608C58.3414 24.6747 58.3598 24.5093 58.3966 24.3647C58.4334 24.22 58.4827 24.0908 58.5446 23.977C58.6079 23.8616 58.6815 23.7608 58.7654 23.6747C58.8508 23.5885 58.9421 23.517 59.0393 23.46C59.2307 23.3462 59.4191 23.2893 59.6046 23.2893C59.7901 23.2893 59.9388 23.3239 60.0507 23.3931C60.1626 23.4608 60.2539 23.5516 60.3246 23.6654C60.4556 23.8824 60.5211 24.1708 60.5211 24.5308C60.5211 24.6647 60.4674 24.7331 60.3599 24.7362L58.8184 24.7708C58.8272 25.1047 58.9097 25.3516 59.0658 25.5116C59.1983 25.647 59.3698 25.7147 59.5803 25.7147C59.8939 25.7147 60.1487 25.6462 60.3445 25.5093C60.3577 25.5093 60.3739 25.5208 60.3931 25.5439C60.4299 25.5901 60.4483 25.6301 60.4483 25.6639C60.4483 25.7378 60.3599 25.8324 60.1833 25.9478C59.9801 26.0801 59.743 26.1462 59.4721 26.1462C59.1188 26.1462 58.8412 26.0285 58.6395 25.7931C58.4408 25.5624 58.3414 25.2516 58.3414 24.8608ZM58.8317 24.4731C59.2557 24.4516 59.6436 24.4231 59.9955 24.3877C60.0117 23.8985 59.8498 23.6539 59.5097 23.6539C59.3197 23.6539 59.1644 23.7308 59.0437 23.8847C58.9333 24.0262 58.8626 24.2224 58.8317 24.4731Z" fill="#131B12"/>
<path d="M65.2495 24.1085C65.2495 23.8716 65.1553 23.7147 64.9668 23.6377C64.9065 23.6131 64.8409 23.6008 64.7703 23.6008C64.7011 23.6008 64.6363 23.607 64.5759 23.6193C64.517 23.6316 64.4648 23.6508 64.4191 23.677C64.3161 23.7354 64.2645 23.8193 64.2645 23.9285C64.2645 24.0331 64.3072 24.1239 64.3926 24.2008C64.4868 24.2824 64.662 24.3831 64.9182 24.5031C65.1744 24.6216 65.3717 24.7516 65.5101 24.8931C65.65 25.0331 65.7199 25.1947 65.7199 25.3778C65.7199 25.5839 65.6389 25.7578 65.477 25.8993C65.287 26.0639 65.0242 26.1462 64.6886 26.1462C64.2778 26.1462 63.9936 26.0547 63.8361 25.8716C63.7816 25.807 63.7544 25.7247 63.7544 25.6247C63.7544 25.3831 63.811 25.2424 63.9244 25.2024C63.9524 25.1931 63.9789 25.1885 64.0039 25.1885C64.0731 25.1885 64.1107 25.2108 64.1166 25.2554C64.1489 25.6401 64.3551 25.8324 64.7349 25.8324C64.9631 25.8324 65.1155 25.7655 65.1921 25.6316C65.2171 25.5885 65.2296 25.5362 65.2296 25.4747C65.2296 25.4131 65.2105 25.357 65.1722 25.3062C65.1354 25.2554 65.0839 25.2085 65.0176 25.1654C64.9514 25.1208 64.8726 25.0778 64.7813 25.0362L64.4876 24.8977C64.037 24.6824 63.8118 24.3962 63.8118 24.0393C63.8118 23.8085 63.9097 23.6239 64.1055 23.4854C64.291 23.3547 64.5303 23.2893 64.8233 23.2893C65.2208 23.2893 65.4681 23.3793 65.5653 23.5593C65.5903 23.6054 65.6029 23.6562 65.6029 23.7116C65.6029 23.767 65.5999 23.817 65.594 23.8616C65.5881 23.9047 65.5808 23.9439 65.5719 23.9793C65.5572 24.047 65.5403 24.0947 65.5211 24.1224C65.4829 24.1516 65.4277 24.1662 65.3555 24.1662C65.2848 24.1662 65.2495 24.147 65.2495 24.1085Z" fill="#131B12"/>
<path d="M68.3458 24.1316L68.348 24.0485C68.348 24.0193 68.3414 23.97 68.3281 23.9008C68.3149 23.83 68.2722 23.7723 68.2 23.7277C68.1294 23.6831 68.0388 23.6608 67.9284 23.6608C67.8194 23.6608 67.7223 23.69 67.6369 23.7485C67.5529 23.8054 67.4845 23.8824 67.4315 23.9793C67.3314 24.1639 67.2813 24.4108 67.2813 24.7201C67.2813 25.0124 67.349 25.2501 67.4845 25.4331C67.6229 25.6208 67.8055 25.7147 68.0322 25.7147C68.2383 25.7147 68.4356 25.6555 68.6241 25.537C68.6697 25.5078 68.705 25.4824 68.7301 25.4608C68.7448 25.4608 68.7617 25.4731 68.7809 25.4978C68.8177 25.5424 68.8361 25.5785 68.8361 25.6062C68.8361 25.6324 68.8258 25.6631 68.8052 25.6985C68.7845 25.7324 68.7544 25.7693 68.7146 25.8093C68.6763 25.8478 68.6299 25.887 68.5755 25.927C68.521 25.967 68.4599 26.0031 68.3922 26.0355C68.2376 26.1093 68.0793 26.1462 67.9173 26.1462C67.7554 26.1462 67.6037 26.1178 67.4624 26.0608C67.3225 26.0024 67.2018 25.917 67.1002 25.8047C66.8823 25.5662 66.7734 25.2385 66.7734 24.8216C66.7734 24.3477 66.9118 23.967 67.1885 23.6793C67.4403 23.4193 67.7311 23.2893 68.0609 23.2893C68.2773 23.2893 68.4577 23.3377 68.602 23.4347C68.7536 23.5362 68.8294 23.67 68.8294 23.8362C68.8294 23.927 68.8103 23.9954 68.772 24.0416C68.7058 24.1231 68.6285 24.1639 68.5401 24.1639C68.4533 24.1639 68.3885 24.1531 68.3458 24.1316Z" fill="#131B12"/>
<path d="M70.3445 22.86C70.2944 22.86 70.248 22.8523 70.2053 22.837C70.1641 22.82 70.128 22.7962 70.0971 22.7654C70.0323 22.7008 69.9999 22.6139 69.9999 22.5046C69.9999 22.4 70.0382 22.3116 70.1148 22.2393C70.1884 22.1669 70.2767 22.1308 70.3798 22.1308C70.4829 22.1308 70.5653 22.1631 70.6272 22.2277C70.689 22.2923 70.7199 22.38 70.7199 22.4908C70.7199 22.5954 70.6831 22.6839 70.6095 22.7562C70.5373 22.8254 70.449 22.86 70.3445 22.86ZM70.2097 26.1024C69.983 26.1024 69.8696 26.0485 69.8696 25.9408C69.8696 25.8855 69.8814 25.8424 69.905 25.8116C69.9403 25.8239 69.9727 25.8301 70.0022 25.8301C70.1391 25.8301 70.2061 25.7393 70.2031 25.5578V24.0116C70.2031 23.9039 70.1884 23.8293 70.159 23.7877C70.131 23.7447 70.0802 23.7231 70.0066 23.7231C69.9521 23.7231 69.9028 23.73 69.8586 23.7439C69.8321 23.747 69.813 23.7254 69.8012 23.6793C69.7909 23.6377 69.7968 23.6016 69.8188 23.5708C69.8409 23.5385 69.8748 23.5054 69.9204 23.4716C69.9676 23.4362 70.0191 23.4054 70.075 23.3793C70.1958 23.3193 70.2966 23.2893 70.3776 23.2893C70.4586 23.2893 70.5182 23.3016 70.5565 23.3262C70.5962 23.3508 70.6264 23.3839 70.647 23.4254C70.6794 23.4931 70.6956 23.6023 70.6956 23.7531V25.597C70.7 25.7185 70.742 25.7924 70.8215 25.8185C70.8436 25.8262 70.8708 25.8331 70.9032 25.8393C70.9356 25.8455 70.9643 25.8531 70.9893 25.8624C71.0158 25.8701 71.0365 25.8793 71.0512 25.8901C71.0762 25.9101 71.0887 25.9424 71.0887 25.987C71.0887 26.0424 71.0777 26.0847 71.0556 26.1139C71.0247 26.1062 70.9776 26.1024 70.9143 26.1024H70.2097Z" fill="#131B12"/>
<path d="M73.496 24.1085C73.496 23.8716 73.4017 23.7147 73.2133 23.6377C73.1529 23.6131 73.0874 23.6008 73.0167 23.6008C72.9475 23.6008 72.8827 23.607 72.8224 23.6193C72.7635 23.6316 72.7112 23.6508 72.6656 23.677C72.5625 23.7354 72.511 23.8193 72.511 23.9285C72.511 24.0331 72.5537 24.1239 72.6391 24.2008C72.7333 24.2824 72.9085 24.3831 73.1647 24.5031C73.4209 24.6216 73.6182 24.7516 73.7566 24.8931C73.8964 25.0331 73.9664 25.1947 73.9664 25.3778C73.9664 25.5839 73.8854 25.7578 73.7234 25.8993C73.5335 26.0639 73.2707 26.1462 72.935 26.1462C72.5242 26.1462 72.2401 26.0547 72.0825 25.8716C72.0281 25.807 72.0008 25.7247 72.0008 25.6247C72.0008 25.3831 72.0575 25.2424 72.1709 25.2024C72.1989 25.1931 72.2253 25.1885 72.2504 25.1885C72.3196 25.1885 72.3571 25.2108 72.363 25.2554C72.3954 25.6401 72.6015 25.8324 72.9814 25.8324C73.2096 25.8324 73.362 25.7655 73.4385 25.6316C73.4636 25.5885 73.4761 25.5362 73.4761 25.4747C73.4761 25.4131 73.4569 25.357 73.4187 25.3062C73.3819 25.2554 73.3303 25.2085 73.2641 25.1654C73.1978 25.1208 73.119 25.0778 73.0278 25.0362L72.734 24.8977C72.2835 24.6824 72.0582 24.3962 72.0582 24.0393C72.0582 23.8085 72.1562 23.6239 72.352 23.4854C72.5375 23.3547 72.7767 23.2893 73.0697 23.2893C73.4673 23.2893 73.7146 23.3793 73.8118 23.5593C73.8368 23.6054 73.8493 23.6562 73.8493 23.7116C73.8493 23.767 73.8464 23.817 73.8405 23.8616C73.8346 23.9047 73.8272 23.9439 73.8184 23.9793C73.8037 24.047 73.7867 24.0947 73.7676 24.1224C73.7293 24.1516 73.6741 24.1662 73.602 24.1662C73.5313 24.1662 73.496 24.147 73.496 24.1085Z" fill="#131B12"/>
<path d="M76.5216 24.1085C76.5216 23.8716 76.4274 23.7147 76.2389 23.6377C76.1785 23.6131 76.113 23.6008 76.0423 23.6008C75.9731 23.6008 75.9084 23.607 75.848 23.6193C75.7891 23.6316 75.7368 23.6508 75.6912 23.677C75.5881 23.7354 75.5366 23.8193 75.5366 23.9285C75.5366 24.0331 75.5793 24.1239 75.6647 24.2008C75.7589 24.2824 75.9341 24.3831 76.1903 24.5031C76.4465 24.6216 76.6438 24.7516 76.7822 24.8931C76.9221 25.0331 76.992 25.1947 76.992 25.3778C76.992 25.5839 76.911 25.7578 76.7491 25.8993C76.5591 26.0639 76.2963 26.1462 75.9606 26.1462C75.5499 26.1462 75.2657 26.0547 75.1082 25.8716C75.0537 25.807 75.0264 25.7247 75.0264 25.6247C75.0264 25.3831 75.0831 25.2424 75.1965 25.2024C75.2245 25.1931 75.251 25.1885 75.276 25.1885C75.3452 25.1885 75.3827 25.2108 75.3886 25.2554C75.421 25.6401 75.6271 25.8324 76.007 25.8324C76.2352 25.8324 76.3876 25.7655 76.4642 25.6316C76.4892 25.5885 76.5017 25.5362 76.5017 25.4747C76.5017 25.4131 76.4826 25.357 76.4443 25.3062C76.4075 25.2554 76.3559 25.2085 76.2897 25.1654C76.2234 25.1208 76.1447 25.0778 76.0534 25.0362L75.7597 24.8977C75.3091 24.6824 75.0839 24.3962 75.0839 24.0393C75.0839 23.8085 75.1818 23.6239 75.3776 23.4854C75.5631 23.3547 75.8024 23.2893 76.0953 23.2893C76.4929 23.2893 76.7402 23.3793 76.8374 23.5593C76.8624 23.6054 76.8749 23.6562 76.8749 23.7116C76.8749 23.767 76.872 23.817 76.8661 23.8616C76.8602 23.9047 76.8529 23.9439 76.844 23.9793C76.8293 24.047 76.8124 24.0947 76.7932 24.1224C76.7549 24.1516 76.6997 24.1662 76.6276 24.1662C76.5569 24.1662 76.5216 24.147 76.5216 24.1085Z" fill="#131B12"/>
<path d="M78.0123 24.8285C78.0123 24.6408 78.03 24.4724 78.0653 24.3231C78.1006 24.1739 78.1492 24.0424 78.2111 23.9285C78.2729 23.8147 78.3458 23.7177 78.4297 23.6377C78.5136 23.5562 78.6034 23.49 78.6991 23.4393C78.8861 23.3393 79.0915 23.2893 79.3153 23.2893C79.6024 23.2893 79.8461 23.3985 80.0463 23.617C80.2686 23.857 80.3798 24.1739 80.3798 24.5677C80.3798 25.0847 80.2451 25.487 79.9756 25.7747C79.7415 26.0224 79.4611 26.1462 79.1342 26.1462C78.7926 26.1462 78.5188 26.0208 78.3127 25.7701C78.1124 25.5285 78.0123 25.2147 78.0123 24.8285ZM79.2645 25.7701C79.3632 25.7701 79.4515 25.7462 79.5295 25.6985C79.6076 25.6493 79.6738 25.5824 79.7283 25.4978C79.8372 25.3224 79.8917 25.0947 79.8917 24.8147C79.8917 24.507 79.8343 24.2454 79.7195 24.03C79.5899 23.7823 79.4036 23.6585 79.1607 23.6585C78.9649 23.6585 78.8081 23.737 78.6903 23.8939C78.5652 24.06 78.5026 24.2924 78.5026 24.5908C78.5026 24.9647 78.5814 25.2601 78.7389 25.477C78.8802 25.6724 79.0554 25.7701 79.2645 25.7701Z" fill="#131B12"/>
<path d="M82.6236 26.1139C82.5927 26.1062 82.5456 26.1024 82.4823 26.1024H81.7336C81.5922 26.1024 81.5017 26.0762 81.4619 26.0239C81.4457 26.0039 81.4377 25.9808 81.4377 25.9547C81.4377 25.8901 81.4494 25.8424 81.473 25.8116C81.5083 25.8239 81.5407 25.8301 81.5702 25.8301C81.6011 25.8301 81.6268 25.8262 81.6475 25.8185C81.6681 25.8093 81.6843 25.7947 81.696 25.7747C81.7167 25.7378 81.727 25.6655 81.727 25.5578V24.0485C81.727 23.9039 81.7012 23.8139 81.6497 23.7785C81.6291 23.7647 81.6018 23.7577 81.568 23.7577C81.5341 23.7577 81.5069 23.7631 81.4862 23.7739C81.4671 23.7847 81.4509 23.7923 81.4377 23.797C81.4259 23.8016 81.4156 23.8016 81.4067 23.797C81.3979 23.7908 81.3891 23.7823 81.3802 23.7716C81.3581 23.7439 81.3471 23.7177 81.3471 23.6931C81.3471 23.667 81.3559 23.6393 81.3736 23.61C81.3927 23.5793 81.4229 23.5447 81.4642 23.5062C81.5054 23.4662 81.5525 23.43 81.6055 23.3977C81.7248 23.3254 81.844 23.2893 81.9633 23.2893C82.0987 23.2893 82.179 23.3816 82.204 23.5662C82.2114 23.62 82.2158 23.6762 82.2172 23.7347C82.4322 23.5362 82.6538 23.4 82.882 23.3262C82.9586 23.3016 83.0278 23.2893 83.0896 23.2893C83.1529 23.2893 83.2044 23.2985 83.2442 23.317C83.2854 23.3354 83.3178 23.3608 83.3414 23.3931C83.3855 23.4562 83.4076 23.537 83.4076 23.6354C83.4076 23.7339 83.4032 23.8123 83.3944 23.8708C83.3855 23.9293 83.3745 23.9808 83.3612 24.0254C83.3347 24.1162 83.3097 24.1739 83.2861 24.1985C83.2449 24.2431 83.1897 24.2654 83.1205 24.2654C83.0498 24.2654 83.0145 24.2439 83.0145 24.2008C83.0145 24.0362 83.0079 23.9308 82.9946 23.8847C82.9696 23.8 82.9225 23.7577 82.8533 23.7577C82.7841 23.7577 82.7215 23.7662 82.6656 23.7831C82.6096 23.7985 82.5551 23.82 82.5021 23.8477C82.3947 23.9031 82.3004 23.9747 82.2195 24.0624V25.597C82.2239 25.7185 82.2747 25.7924 82.3718 25.8185C82.3998 25.8262 82.4315 25.8331 82.4668 25.8393C82.5021 25.8455 82.5323 25.8531 82.5574 25.8624C82.5839 25.8701 82.6045 25.8793 82.6192 25.8901C82.6442 25.9101 82.6567 25.9424 82.6567 25.987C82.6567 26.0424 82.6457 26.0847 82.6236 26.1139Z" fill="#131B12"/>
<path d="M85.806 24.1085C85.806 23.8716 85.7118 23.7147 85.5233 23.6377C85.463 23.6131 85.3975 23.6008 85.3268 23.6008C85.2576 23.6008 85.1928 23.607 85.1324 23.6193C85.0735 23.6316 85.0213 23.6508 84.9756 23.677C84.8726 23.7354 84.821 23.8193 84.821 23.9285C84.821 24.0331 84.8637 24.1239 84.9491 24.2008C85.0434 24.2824 85.2186 24.3831 85.4748 24.5031C85.7309 24.6216 85.9282 24.7516 86.0666 24.8931C86.2065 25.0331 86.2764 25.1947 86.2764 25.3778C86.2764 25.5839 86.1954 25.7578 86.0335 25.8993C85.8436 26.0639 85.5808 26.1462 85.2451 26.1462C84.8343 26.1462 84.5501 26.0547 84.3926 25.8716C84.3381 25.807 84.3109 25.7247 84.3109 25.6247C84.3109 25.3831 84.3676 25.2424 84.4809 25.2024C84.5089 25.1931 84.5354 25.1885 84.5604 25.1885C84.6296 25.1885 84.6672 25.2108 84.6731 25.2554C84.7055 25.6401 84.9116 25.8324 85.2915 25.8324C85.5197 25.8324 85.672 25.7655 85.7486 25.6316C85.7736 25.5885 85.7861 25.5362 85.7861 25.4747C85.7861 25.4131 85.767 25.357 85.7287 25.3062C85.6919 25.2554 85.6404 25.2085 85.5741 25.1654C85.5079 25.1208 85.4291 25.0778 85.3378 25.0362L85.0441 24.8977C84.5936 24.6824 84.3683 24.3962 84.3683 24.0393C84.3683 23.8085 84.4662 23.6239 84.662 23.4854C84.8475 23.3547 85.0868 23.2893 85.3798 23.2893C85.7773 23.2893 86.0247 23.3793 86.1218 23.5593C86.1469 23.6054 86.1594 23.6562 86.1594 23.7116C86.1594 23.767 86.1564 23.817 86.1505 23.8616C86.1447 23.9047 86.1373 23.9439 86.1285 23.9793C86.1137 24.047 86.0968 24.0947 86.0777 24.1224C86.0394 24.1516 85.9842 24.1662 85.912 24.1662C85.8414 24.1662 85.806 24.147 85.806 24.1085Z" fill="#131B12"/>
<path d="M87.4425 25.7631C87.4425 25.6524 87.4771 25.5608 87.5463 25.4885C87.617 25.4147 87.7038 25.3778 87.8069 25.3778C87.9747 25.3778 88.0903 25.4547 88.1536 25.6085C88.1728 25.6562 88.1823 25.7078 88.1823 25.7631C88.1823 25.8708 88.147 25.9624 88.0763 26.0378C88.0057 26.1101 87.9159 26.1462 87.8069 26.1462C87.7038 26.1462 87.617 26.1101 87.5463 26.0378C87.4771 25.9639 87.4425 25.8724 87.4425 25.7631Z" fill="#131B12"/>
<path d="M92.2504 25.9893L91.5414 23.8962C91.4884 23.7393 91.4421 23.6608 91.4023 23.6608C91.3846 23.6608 91.364 23.6631 91.3405 23.6677C91.3169 23.6723 91.2978 23.6639 91.2831 23.6423C91.2683 23.6208 91.261 23.5939 91.261 23.5616C91.261 23.5293 91.2735 23.4962 91.2985 23.4623C91.3235 23.4285 91.3552 23.3993 91.3935 23.3747C91.4789 23.3177 91.5532 23.2893 91.6165 23.2893C91.6813 23.2893 91.7292 23.2908 91.7601 23.2939C91.791 23.297 91.8204 23.3077 91.8484 23.3262C91.9044 23.3647 91.9515 23.4516 91.9898 23.587L92.5573 25.5947C92.6972 25.1639 92.7878 24.8793 92.829 24.7408C92.9747 24.227 93.0719 23.847 93.1205 23.6008C93.1308 23.5454 93.1794 23.4985 93.2663 23.46C93.334 23.4308 93.3914 23.4162 93.4385 23.4162C93.4856 23.4162 93.5166 23.42 93.5313 23.4277C93.5475 23.4339 93.5593 23.4462 93.5666 23.4647C93.5843 23.5016 93.5975 23.5462 93.6064 23.5985L94.1938 25.6108C94.3042 25.3293 94.3793 25.1316 94.4191 25.0177L94.5339 24.6808C94.6561 24.3131 94.7172 24.0262 94.7172 23.82C94.7172 23.6739 94.6495 23.5923 94.5141 23.5754C94.4993 23.5508 94.492 23.5254 94.492 23.4993C94.492 23.4716 94.5045 23.4447 94.5295 23.4185C94.5545 23.3908 94.5869 23.367 94.6267 23.347C94.7062 23.3085 94.7864 23.2893 94.8674 23.2893C94.9499 23.2893 95.0132 23.2939 95.0573 23.3031C95.1015 23.3123 95.1368 23.3285 95.1633 23.3516C95.2134 23.3977 95.2384 23.467 95.2384 23.5593C95.2384 23.65 95.2289 23.7423 95.2097 23.8362C95.1906 23.9285 95.1648 24.03 95.1324 24.1408C95.1 24.2516 95.0625 24.3677 95.0198 24.4893C94.8593 24.9354 94.7423 25.2416 94.6686 25.4078L94.5074 25.7585C94.475 25.8262 94.45 25.8755 94.4323 25.9062L94.3771 25.9962C94.3153 26.0962 94.2424 26.1462 94.1585 26.1462C94.0672 26.1462 93.9921 26.1208 93.9332 26.0701C93.9097 26.0485 93.8927 26.0216 93.8824 25.9893L93.3347 24.337C93.1875 24.8185 93.094 25.1201 93.0543 25.2416C92.9335 25.5954 92.8606 25.7993 92.8356 25.8531C92.8106 25.9055 92.7885 25.9485 92.7694 25.9824C92.7502 26.0147 92.7289 26.0424 92.7053 26.0655C92.6523 26.1193 92.5941 26.1462 92.5308 26.1462C92.4425 26.1462 92.3667 26.1193 92.3034 26.0655C92.2798 26.0455 92.2621 26.0201 92.2504 25.9893Z" fill="#131B12"/>
<path d="M96.7137 22.86C96.6636 22.86 96.6173 22.8523 96.5746 22.837C96.5333 22.82 96.4973 22.7962 96.4663 22.7654C96.4016 22.7008 96.3692 22.6139 96.3692 22.5046C96.3692 22.4 96.4075 22.3116 96.484 22.2393C96.5576 22.1669 96.646 22.1308 96.749 22.1308C96.8521 22.1308 96.9345 22.1631 96.9964 22.2277C97.0582 22.2923 97.0891 22.38 97.0891 22.4908C97.0891 22.5954 97.0523 22.6839 96.9787 22.7562C96.9066 22.8254 96.8182 22.86 96.7137 22.86ZM96.579 26.1024C96.3522 26.1024 96.2389 26.0485 96.2389 25.9408C96.2389 25.8855 96.2507 25.8424 96.2742 25.8116C96.3095 25.8239 96.3419 25.8301 96.3714 25.8301C96.5083 25.8301 96.5753 25.7393 96.5724 25.5578V24.0116C96.5724 23.9039 96.5576 23.8293 96.5282 23.7877C96.5002 23.7447 96.4494 23.7231 96.3758 23.7231C96.3213 23.7231 96.272 23.73 96.2278 23.7439C96.2013 23.747 96.1822 23.7254 96.1704 23.6793C96.1601 23.6377 96.166 23.6016 96.1881 23.5708C96.2102 23.5385 96.244 23.5054 96.2897 23.4716C96.3368 23.4362 96.3883 23.4054 96.4443 23.3793C96.565 23.3193 96.6658 23.2893 96.7468 23.2893C96.8278 23.2893 96.8874 23.3016 96.9257 23.3262C96.9655 23.3508 96.9957 23.3839 97.0163 23.4254C97.0487 23.4931 97.0648 23.6023 97.0648 23.7531V25.597C97.0693 25.7185 97.1112 25.7924 97.1907 25.8185C97.2128 25.8262 97.2401 25.8331 97.2724 25.8393C97.3048 25.8455 97.3335 25.8531 97.3586 25.8624C97.3851 25.8701 97.4057 25.8793 97.4204 25.8901C97.4454 25.9101 97.458 25.9424 97.458 25.987C97.458 26.0424 97.4469 26.0847 97.4248 26.1139C97.3939 26.1062 97.3468 26.1024 97.2835 26.1024H96.579Z" fill="#131B12"/>
<path d="M99.1099 24.5285L99.1077 25.1354C99.1077 25.3893 99.1202 25.5424 99.1452 25.5947C99.1703 25.6454 99.1997 25.6762 99.2336 25.687C99.2674 25.6962 99.3109 25.7008 99.3639 25.7008C99.4169 25.7008 99.4647 25.697 99.5074 25.6893C99.5516 25.6801 99.5928 25.6685 99.6311 25.6547C99.6694 25.6408 99.7062 25.6254 99.7415 25.6085L99.8497 25.5601C99.8748 25.5508 99.9027 25.5778 99.9337 25.6408C99.9425 25.6578 99.9469 25.6778 99.9469 25.7008C99.9469 25.7224 99.9381 25.7508 99.9204 25.7862C99.9027 25.8216 99.8681 25.8624 99.8166 25.9085C99.7666 25.9531 99.7077 25.9931 99.6399 26.0285C99.4927 26.107 99.3602 26.1462 99.2424 26.1462C99.1261 26.1462 99.0311 26.1393 98.9575 26.1255C98.8839 26.1116 98.8213 26.0839 98.7698 26.0424C98.6638 25.9562 98.6108 25.7985 98.6108 25.5693V23.7531H98.3921C98.3465 23.7531 98.3134 23.7377 98.2928 23.707C98.2574 23.6593 98.2398 23.6193 98.2398 23.587C98.2398 23.5331 98.2523 23.5031 98.2773 23.497C98.5114 23.4554 98.677 23.2739 98.7742 22.9523C98.8022 22.8554 98.8243 22.7408 98.8405 22.6085C98.9111 22.5962 98.9641 22.59 98.9995 22.59C99.0363 22.59 99.0679 22.6093 99.0944 22.6477C99.1209 22.6862 99.1335 22.7308 99.132 22.7816C99.132 22.8323 99.1312 22.88 99.1298 22.9246C99.1283 22.9693 99.1268 23.0177 99.1254 23.07L99.1165 23.3931H99.8807C99.8998 23.4285 99.9094 23.4662 99.9094 23.5062V23.5777C99.9094 23.6423 99.8762 23.6954 99.81 23.737C99.7437 23.777 99.6701 23.797 99.5891 23.797C99.5096 23.797 99.4522 23.7962 99.4169 23.7947C99.383 23.7916 99.3499 23.7885 99.3175 23.7854L99.2203 23.7716C99.1865 23.7685 99.1504 23.7654 99.1121 23.7623V23.7877L99.1099 24.5285Z" fill="#131B12"/>
<path d="M102.076 26.1139C102.046 26.1062 101.999 26.1024 101.935 26.1024H101.23C101.089 26.1024 100.998 26.0762 100.958 26.0239C100.942 26.0039 100.934 25.9808 100.934 25.9547C100.934 25.8901 100.946 25.8424 100.969 25.8116C101.005 25.8239 101.045 25.8301 101.091 25.8301C101.137 25.8301 101.17 25.8108 101.192 25.7724C101.215 25.7339 101.225 25.6624 101.223 25.5578V22.6985C101.223 22.5923 101.213 22.5239 101.192 22.4931C101.162 22.4439 101.107 22.4193 101.029 22.4193H100.985C100.972 22.4193 100.956 22.4216 100.939 22.4262C100.922 22.4293 100.908 22.4277 100.897 22.4216C100.885 22.4139 100.874 22.4039 100.866 22.3916C100.835 22.3439 100.87 22.2793 100.972 22.1977C101.12 22.0793 101.272 22.02 101.427 22.02C101.594 22.02 101.689 22.1146 101.709 22.3039C101.715 22.3608 101.718 22.4208 101.718 22.4839V23.7416C101.94 23.5462 102.178 23.41 102.431 23.3331C102.524 23.3039 102.618 23.2893 102.712 23.2893C102.808 23.2893 102.898 23.3023 102.984 23.3285C103.07 23.3547 103.145 23.397 103.207 23.4554C103.342 23.5816 103.41 23.7739 103.41 24.0324V25.5808C103.41 25.7085 103.451 25.787 103.533 25.8162C103.557 25.8255 103.585 25.8331 103.617 25.8393C103.65 25.8455 103.679 25.8531 103.704 25.8624C103.73 25.8701 103.751 25.8793 103.765 25.8901C103.79 25.9101 103.803 25.9424 103.803 25.987C103.803 26.0424 103.792 26.0847 103.77 26.1139C103.739 26.1062 103.692 26.1024 103.628 26.1024H102.924C102.783 26.1024 102.692 26.0762 102.652 26.0239C102.636 26.0039 102.628 25.9808 102.628 25.9547C102.628 25.8885 102.639 25.8408 102.661 25.8116C102.698 25.8239 102.738 25.8301 102.78 25.8301C102.823 25.8301 102.855 25.8139 102.878 25.7816C102.901 25.7493 102.914 25.6901 102.917 25.6039V24.1962C102.917 23.9347 102.843 23.7885 102.694 23.7577C102.649 23.7485 102.591 23.7439 102.522 23.7439C102.454 23.7439 102.379 23.7547 102.297 23.7762C102.216 23.7977 102.139 23.8254 102.067 23.8593C101.924 23.927 101.808 24.0077 101.718 24.1016V25.5808C101.718 25.7085 101.759 25.787 101.842 25.8162C101.865 25.8255 101.893 25.8331 101.926 25.8393C101.958 25.8455 101.987 25.8531 102.012 25.8624C102.038 25.8701 102.059 25.8793 102.074 25.8901C102.099 25.9101 102.111 25.9424 102.111 25.987C102.111 26.0408 102.099 26.0831 102.076 26.1139Z" fill="#131B12"/>
<path d="M107.213 26.1024C106.988 26.1024 106.875 26.0485 106.875 25.9408C106.875 25.8839 106.886 25.8408 106.908 25.8116C106.943 25.8239 106.977 25.8301 107.007 25.8301C107.136 25.8301 107.202 25.7493 107.206 25.5878V22.6985C107.206 22.5908 107.196 22.5223 107.175 22.4931C107.141 22.4439 107.087 22.4193 107.012 22.4193C106.978 22.4193 106.945 22.4231 106.912 22.4308C106.882 22.4369 106.859 22.4369 106.846 22.4308C106.834 22.4231 106.825 22.4131 106.817 22.4008C106.788 22.35 106.825 22.2854 106.928 22.2069C107.09 22.0823 107.25 22.02 107.407 22.02C107.575 22.02 107.669 22.1146 107.69 22.3039C107.696 22.3608 107.699 22.4208 107.699 22.4839V25.597C107.703 25.717 107.745 25.7908 107.825 25.8185C107.848 25.8262 107.875 25.8331 107.906 25.8393C107.939 25.8455 107.968 25.8531 107.995 25.8624C108.021 25.8701 108.042 25.8793 108.056 25.8901C108.081 25.9101 108.094 25.9424 108.094 25.987C108.094 26.0408 108.082 26.0831 108.059 26.1139C108.029 26.1062 107.982 26.1024 107.917 26.1024H107.213Z" fill="#131B12"/>
<path d="M108.953 24.8285C108.953 24.6408 108.971 24.4724 109.006 24.3231C109.041 24.1739 109.09 24.0424 109.152 23.9285C109.214 23.8147 109.287 23.7177 109.37 23.6377C109.454 23.5562 109.544 23.49 109.64 23.4393C109.827 23.3393 110.032 23.2893 110.256 23.2893C110.543 23.2893 110.787 23.3985 110.987 23.617C111.209 23.857 111.321 24.1739 111.321 24.5677C111.321 25.0847 111.186 25.487 110.916 25.7747C110.682 26.0224 110.402 26.1462 110.075 26.1462C109.733 26.1462 109.46 26.0208 109.253 25.7701C109.053 25.5285 108.953 25.2147 108.953 24.8285ZM110.205 25.7701C110.304 25.7701 110.392 25.7462 110.47 25.6985C110.548 25.6493 110.615 25.5824 110.669 25.4978C110.778 25.3224 110.833 25.0947 110.833 24.8147C110.833 24.507 110.775 24.2454 110.66 24.03C110.531 23.7823 110.344 23.6585 110.101 23.6585C109.906 23.6585 109.749 23.737 109.631 23.8939C109.506 24.06 109.443 24.2924 109.443 24.5908C109.443 24.9647 109.522 25.2601 109.68 25.477C109.821 25.6724 109.996 25.7701 110.205 25.7701Z" fill="#131B12"/>
<path d="M113.158 25.9893C112.666 24.6477 112.413 23.9554 112.398 23.9124C112.384 23.8677 112.368 23.827 112.352 23.79C112.315 23.7039 112.282 23.6608 112.253 23.6608C112.233 23.6608 112.212 23.6631 112.189 23.6677C112.165 23.6723 112.146 23.6639 112.131 23.6423C112.116 23.6208 112.109 23.5939 112.109 23.5616C112.109 23.5293 112.123 23.4962 112.151 23.4623C112.18 23.4285 112.216 23.3993 112.259 23.3747C112.352 23.3177 112.426 23.2893 112.48 23.2893C112.535 23.2893 112.578 23.2908 112.61 23.2939C112.643 23.297 112.673 23.3085 112.701 23.3285C112.76 23.3685 112.809 23.4547 112.849 23.587L113.496 25.6039C113.599 25.387 113.676 25.2208 113.726 25.1054L113.863 24.7685C114.027 24.3439 114.11 24.0454 114.11 23.8731V23.8431C114.11 23.7662 114.093 23.7054 114.059 23.6608C114.027 23.6162 113.969 23.5893 113.885 23.58C113.87 23.5554 113.863 23.53 113.863 23.5039C113.863 23.4762 113.877 23.4493 113.904 23.4231C113.934 23.3954 113.971 23.3716 114.015 23.3516C114.106 23.31 114.206 23.2893 114.313 23.2893C114.422 23.2893 114.506 23.307 114.565 23.3423C114.625 23.3762 114.655 23.4439 114.655 23.5454C114.655 23.7608 114.516 24.1893 114.236 24.8308L114.035 25.2716C113.896 25.5639 113.792 25.7624 113.721 25.867C113.595 26.0531 113.483 26.1462 113.388 26.1462C113.319 26.1462 113.257 26.1178 113.202 26.0608C113.183 26.0408 113.168 26.017 113.158 25.9893Z" fill="#131B12"/>
<path d="M115.629 24.8608C115.629 24.6747 115.648 24.5093 115.685 24.3647C115.721 24.22 115.771 24.0908 115.832 23.977C115.896 23.8616 115.969 23.7608 116.053 23.6747C116.139 23.5885 116.23 23.517 116.327 23.46C116.519 23.3462 116.707 23.2893 116.893 23.2893C117.078 23.2893 117.227 23.3239 117.339 23.3931C117.451 23.4608 117.542 23.5516 117.613 23.6654C117.744 23.8824 117.809 24.1708 117.809 24.5308C117.809 24.6647 117.755 24.7331 117.648 24.7362L116.106 24.7708C116.115 25.1047 116.198 25.3516 116.354 25.5116C116.486 25.647 116.658 25.7147 116.868 25.7147C117.182 25.7147 117.437 25.6462 117.632 25.5093C117.646 25.5093 117.662 25.5208 117.681 25.5439C117.718 25.5901 117.736 25.6301 117.736 25.6639C117.736 25.7378 117.648 25.8324 117.471 25.9478C117.268 26.0801 117.031 26.1462 116.76 26.1462C116.407 26.1462 116.129 26.0285 115.927 25.7931C115.729 25.5624 115.629 25.2516 115.629 24.8608ZM116.12 24.4731C116.544 24.4516 116.932 24.4231 117.283 24.3877C117.3 23.8985 117.138 23.6539 116.798 23.6539C116.608 23.6539 116.452 23.7308 116.332 23.8847C116.221 24.0262 116.151 24.2224 116.12 24.4731Z" fill="#131B12"/>
<path d="M118.993 25.7631C118.993 25.6524 119.027 25.5608 119.097 25.4885C119.167 25.4147 119.254 25.3778 119.357 25.3778C119.525 25.3778 119.641 25.4547 119.704 25.6085C119.723 25.6562 119.733 25.7078 119.733 25.7631C119.733 25.8708 119.697 25.9624 119.627 26.0378C119.556 26.1101 119.466 26.1462 119.357 26.1462C119.254 26.1462 119.167 26.1101 119.097 26.0378C119.027 25.9639 118.993 25.8724 118.993 25.7631Z" fill="#131B12"/>
</svg>
