<svg width="139" height="47" viewBox="0 0 139 47" fill="none" xmlns="http://www.w3.org/2000/svg">
<path d="M128.613 26.1809C128.587 26.0845 128.552 25.9935 128.511 25.9068L131.116 23.7742L137.999 23.8882L138.592 23.4951L132.638 22.5287L137.313 18.7013L136.604 18.6586L130.7 22.2143L127.382 21.6758C127.375 21.5798 127.36 21.4834 127.334 21.3871C127.109 20.5447 126.247 20.0448 125.409 20.2705C124.57 20.4962 124.072 21.3621 124.297 22.2045C124.522 23.0469 125.384 23.5468 126.222 23.3211C126.737 23.1825 127.123 22.8023 127.292 22.3348L128.718 22.6736C129.106 22.7657 129.433 23.0077 129.64 23.3354C129.624 23.7235 129.461 24.0972 129.171 24.3714L128.105 25.3811C127.725 25.0614 127.202 24.9257 126.687 25.0643C125.849 25.29 125.351 26.1559 125.576 26.9983C125.801 27.8407 126.663 28.3406 127.501 28.1149C128.34 27.8891 128.838 27.0233 128.613 26.1809ZM124.948 22.0293C124.819 21.548 125.104 21.0532 125.583 20.9242C126.062 20.7952 126.555 21.0809 126.683 21.5622C126.812 22.0436 126.527 22.5384 126.048 22.6674C125.569 22.7963 125.076 22.5107 124.948 22.0293ZM130.852 23.2428L130.418 23.3596L130.302 22.9238L130.736 22.807L130.852 23.2428ZM126.227 26.8231C126.098 26.3418 126.383 25.8469 126.862 25.718C127.341 25.589 127.834 25.8747 127.962 26.356C128.091 26.8374 127.806 27.3322 127.327 27.4612C126.848 27.5901 126.355 27.3044 126.227 26.8231Z" fill="#4F524F"/>
<path fill-rule="evenodd" clip-rule="evenodd" d="M30.044 13.5054C30.1226 12.9477 30.162 12.131 30.162 11.0553C30.162 9.97966 29.9554 9.0036 29.5423 8.12715C29.1292 7.23077 28.5685 6.53359 27.8603 6.0356C26.621 5.17906 24.7521 4.75079 22.2538 4.75079C19.7751 4.75079 17.5816 5.20894 15.6734 6.12524C13.7849 7.02162 12.2013 8.2865 10.9226 9.9199C8.64407 12.8259 7.37283 16.6584 7.10889 21.4174H0.203861C0.493638 19.1253 1.0272 16.9859 1.80455 14.9994C3.0439 11.8322 4.7357 9.14304 6.87997 6.93198C9.02424 4.701 11.5226 2.98792 14.3751 1.79275C17.2472 0.597584 20.0308 0 22.7259 0C25.4407 0 27.6144 0.229074 29.2472 0.687222C30.88 1.14537 32.2374 1.77283 33.3194 2.56961C35.4833 4.20301 36.5653 6.37423 36.5653 9.08328C36.5653 11.1549 35.8079 12.619 34.2931 13.4755C33.7817 13.7743 33.2309 13.9237 32.6407 13.9237C31.421 13.9237 30.5554 13.7843 30.044 13.5054ZM0 27.5367C0.332108 33.1226 2.18281 37.6483 5.5521 41.1138C9.32915 45.0379 14.4046 47 20.7784 47C25.2243 47 29.0407 45.9443 32.2276 43.8328C33.5653 42.9563 34.5784 42.05 35.2669 41.1138C35.9751 40.1577 36.3292 39.4406 36.3292 38.9625C36.3292 38.4645 36.2702 38.0661 36.1522 37.7673C35.7784 36.8909 35.2964 36.363 34.7063 36.1837C34.0768 36.8809 33.3784 37.5283 32.6112 38.1259C30.0735 40.1377 26.5325 41.1437 21.9882 41.1437C17.3652 41.1437 13.6964 39.4804 10.9816 36.1538C9.08962 33.8491 7.8817 30.9768 7.35786 27.5367H0ZM44.7388 27.5367C43.539 29.5625 42.9391 31.8174 42.9391 34.3013C42.9391 38.345 44.562 41.5321 47.8079 43.8627C50.6801 45.9144 54.044 46.9402 57.8998 46.9402C63.7621 46.9402 69.1424 45.0579 74.0408 41.2931L78.9687 44.8188C81.0146 46.2729 82.8244 47 84.3982 47C86.031 47 87.5654 46.2929 89.0015 44.8786C89.6113 44.281 90.1031 43.6336 90.4769 42.9364C90.8507 42.2193 91.0375 41.6516 91.0375 41.2333C91.0375 40.7951 90.8507 40.4365 90.4769 40.1577C90.3195 40.0581 90.1523 39.9784 89.9752 39.9186C89.8179 39.8589 89.6703 39.8489 89.5326 39.8887C89.4146 39.9286 89.09 40.1377 88.5588 40.5162C88.0277 40.8748 87.3687 41.054 86.5818 41.054C85.1064 41.054 83.2965 40.2772 81.1523 38.7235L78.6736 36.9008C79.7162 35.6857 80.631 34.4507 81.4178 33.1958C82.7125 31.1326 83.658 29.2463 84.2543 27.5367L76.7707 27.5367C76.0573 29.6549 75.1473 31.5911 74.0408 33.3452C72.2281 31.9369 69.863 30.0008 66.9455 27.5367H57.0587C57.5575 28.0298 58.0936 28.5517 58.667 29.1024C60.5752 30.915 64.2932 33.9527 69.8211 38.2155C66.8112 40.6855 63.1522 41.9205 58.844 41.9205C56.4637 41.9205 54.4178 41.1138 52.7063 39.5003C50.8178 37.7474 49.8735 35.3372 49.8735 32.2696C49.8735 30.5429 50.3405 28.9653 51.2745 27.5367L44.7388 27.5367ZM78.2132 21.4174H84.6507C84.0344 19.9274 82.642 19.1825 80.4736 19.1825C79.7851 19.1825 79.1162 19.2422 78.467 19.3617C78.3972 20.0607 78.3126 20.7459 78.2132 21.4174ZM110.19 27.5367C112.045 28.4132 113.589 29.3136 114.821 30.2378C115.864 31.0345 116.7 31.901 117.329 32.8373C117.959 33.7735 118.274 34.8392 118.274 36.0343C118.274 37.2096 118.047 38.2354 117.595 39.1119C116.297 41.6217 113.749 42.8767 109.952 42.8767C106.647 42.8767 104.07 42.0899 102.221 40.5162C100.392 38.9426 99.349 36.4327 99.0933 32.9866C98.8966 32.2297 98.1687 31.8512 96.9097 31.8512C96.2605 31.8512 95.749 32.0803 95.3753 32.5385C94.2736 34.4707 93.7228 36.5522 93.7228 38.7832C93.7228 39.8987 93.949 40.8449 94.4015 41.6217C95.2867 43.1555 96.772 44.3408 98.8572 45.1774C101.69 46.3526 104.956 46.9402 108.654 46.9402C113.316 46.9402 117.192 45.8447 120.28 43.6535C123.585 41.303 125.238 38.2056 125.238 34.3611C125.238 31.789 124.514 29.5142 123.066 27.5367H110.19ZM114.734 21.4174H98.9998C98.8205 21.2534 98.6451 21.086 98.4736 20.9154C96.0343 18.4853 94.8146 15.4874 94.8146 11.9218C94.8146 8.27654 96.3589 5.35834 99.4474 3.1672C102.418 1.05573 106.254 0 110.956 0C116.916 0 120.811 1.24497 122.641 3.7349C123.31 4.63128 123.644 5.80653 123.644 7.26065C123.644 8.71477 123.506 9.97966 123.231 11.0553C122.975 12.131 122.72 12.8281 122.464 13.1469C122.031 13.6847 121.284 13.9536 120.221 13.9536C119.179 13.9536 118.657 13.6946 118.657 13.1767C118.657 8.61517 117.054 5.75673 113.847 4.6014C112.746 4.20301 111.457 4.00381 109.982 4.00381C108.506 4.00381 107.238 4.17313 106.175 4.51176C105.113 4.85039 104.228 5.30854 103.52 5.8862C102.083 7.06145 101.365 8.61517 101.365 10.5474C101.365 13.4755 103.49 15.9754 107.739 18.047L111.428 19.8099C112.557 20.3378 113.66 20.8737 114.734 21.4174ZM60.3132 21.4174L51.3232 21.4174C51.3907 21.3791 51.4583 21.3413 51.526 21.3039C49.0866 17.9176 47.8669 14.8898 47.8669 12.2206C47.8669 8.67493 49.1653 5.76669 51.762 3.49587C54.2014 1.3844 57.0637 0.328671 60.3489 0.328671C63.2604 0.328671 65.6703 0.916296 67.5785 2.09154C69.7227 3.40623 70.7949 5.24878 70.7949 7.6192C70.7949 10.2087 69.6244 12.0214 67.2834 13.0572C66.8112 13.2166 66.3785 13.2962 65.985 13.2962C65.6113 13.2962 65.2276 13.1269 64.8342 12.7883C64.9719 12.1907 65.0408 11.4736 65.0408 10.637V9.94978C64.8637 8.47574 64.2637 7.31045 63.2408 6.45391C62.2178 5.57745 60.8112 5.13922 59.0211 5.13922C56.6407 5.13922 55.0079 5.99576 54.1227 7.70884C53.7883 8.34626 53.6211 9.17292 53.6211 10.1888C53.6211 11.2047 53.9063 12.3302 54.4768 13.5652C55.0473 14.7802 55.8243 16.0451 56.8079 17.3598C57.8112 18.6745 58.9719 20.0191 60.2899 21.3935C60.2977 21.4015 60.3054 21.4095 60.3132 21.4174Z" fill="#4F524F"/>
<path d="M3.28842 22.9361C3.17653 22.9361 3.11837 23.0582 3.11396 23.3023V24.6931C3.11396 25.2031 2.99396 25.5925 2.75397 25.8614C2.5184 26.1287 2.18198 26.2624 1.7447 26.2624C1.37367 26.2624 1.06964 26.1643 0.832596 25.968C0.532243 25.7223 0.382067 25.3143 0.382067 24.7441V23.1494C0.380594 23.0829 0.373233 23.0366 0.359982 23.0103C0.348203 22.984 0.320229 22.9662 0.27606 22.957C0.23189 22.9477 0.192138 22.9392 0.156802 22.9315C0.122939 22.9222 0.0942284 22.9114 0.0706713 22.899C0.0235571 22.8743 0 22.8326 0 22.7738C0 22.7198 0.0117786 22.6773 0.0353357 22.6464C0.069199 22.6587 0.142079 22.6649 0.253975 22.6649H1.11086C1.27871 22.6649 1.36263 22.7244 1.36263 22.8434C1.36263 22.8959 1.35159 22.9353 1.3295 22.9616C1.27503 22.9461 1.2235 22.9384 1.17491 22.9384C1.1278 22.9384 1.08952 22.9446 1.06007 22.957C1.0321 22.9678 1.00633 22.9879 0.982773 23.0172C0.92977 23.0837 0.903268 23.1864 0.903268 23.3255V24.5819C0.903268 25.0594 0.994552 25.4024 1.17712 25.611C1.31846 25.7702 1.51428 25.8498 1.76457 25.8498C2.39767 25.8498 2.71422 25.4357 2.71422 24.6074V23.2119C2.71422 23.0899 2.68183 23.0134 2.61705 22.9825C2.59643 22.9716 2.56772 22.9624 2.53092 22.9546C2.49558 22.9469 2.46025 22.9392 2.42491 22.9315C2.39105 22.9222 2.36234 22.9114 2.33878 22.899C2.29166 22.8743 2.26811 22.8326 2.26811 22.7738C2.26811 22.7167 2.27989 22.6742 2.30344 22.6464C2.33731 22.6587 2.41019 22.6649 2.52208 22.6649H3.2553C3.33039 22.6649 3.39075 22.6773 3.43639 22.702C3.48351 22.7267 3.50706 22.7731 3.50706 22.8411C3.50706 22.8936 3.49602 22.933 3.47394 22.9593C3.41504 22.9438 3.35321 22.9361 3.28842 22.9361Z" fill="#4F524F"/>
<path d="M5.49249 26.2299C5.46304 26.2222 5.41593 26.2184 5.35114 26.2184H4.6886C4.54726 26.2184 4.45671 26.1921 4.41696 26.1395C4.40076 26.1195 4.39266 26.0963 4.39266 26.07C4.39266 26.0051 4.40444 25.9572 4.428 25.9263C4.46334 25.9387 4.50382 25.9448 4.54947 25.9448C4.59511 25.9448 4.62897 25.9255 4.65106 25.8869C4.67314 25.8483 4.68345 25.7764 4.68197 25.6713V22.7993C4.68197 22.6927 4.67167 22.624 4.65106 22.593C4.62014 22.5436 4.56566 22.5189 4.48763 22.5189C4.46407 22.5189 4.43978 22.522 4.41475 22.5281C4.39119 22.5328 4.37279 22.532 4.35954 22.5258C4.34776 22.5181 4.33819 22.5081 4.33083 22.4957C4.31169 22.4648 4.31316 22.4339 4.33524 22.403C4.3588 22.3705 4.39193 22.3365 4.43463 22.301C4.47732 22.2654 4.52444 22.2345 4.57597 22.2083C4.68639 22.148 4.78136 22.1179 4.86086 22.1179C4.94184 22.1179 5.00147 22.1302 5.03975 22.1549C5.0795 22.1797 5.10895 22.2129 5.12809 22.2546C5.16048 22.3226 5.17667 22.4323 5.17667 22.5838V25.6945C5.17667 25.8228 5.21348 25.9016 5.2871 25.9309C5.30771 25.9402 5.332 25.9479 5.35998 25.9541C5.38942 25.9603 5.41593 25.968 5.43948 25.9773C5.46304 25.985 5.48144 25.9943 5.4947 26.0051C5.51678 26.0252 5.52782 26.0576 5.52782 26.1025C5.52782 26.1565 5.51604 26.199 5.49249 26.2299ZM6.42667 23.3927C6.65635 23.3927 6.7712 23.4669 6.7712 23.6153C6.7712 23.8023 6.59231 24.0603 6.23454 24.3895C6.09614 24.5177 5.957 24.6275 5.81713 24.7186C5.91136 24.8098 6.0078 24.928 6.10644 25.0733L6.33833 25.4163C6.53268 25.7084 6.67918 25.8544 6.77782 25.8544C6.8588 25.8544 6.9118 25.8459 6.93683 25.8289C6.96333 25.8119 6.98247 25.8027 6.99425 25.8011C7.00603 25.7996 7.02149 25.805 7.04063 25.8173C7.05977 25.8297 7.06934 25.8506 7.06934 25.8799C7.06934 25.9093 7.05756 25.9464 7.034 25.9912C7.01192 26.0345 6.98027 26.0762 6.93904 26.1164C6.83892 26.2137 6.73071 26.2624 6.61439 26.2624C6.49808 26.2624 6.40017 26.2338 6.32067 26.1766C6.24116 26.1179 6.16681 26.043 6.09761 25.9518C6.02841 25.8591 5.96289 25.7563 5.90105 25.6435L5.71775 25.3143C5.56905 25.0455 5.44169 24.8708 5.33568 24.7905C5.27385 24.7457 5.25323 24.7171 5.27385 24.7047L5.33789 24.6676L5.69346 24.4011C5.84511 24.2821 5.94964 24.1886 6.00706 24.1206C6.11896 23.9892 6.17491 23.8795 6.17491 23.7914C6.17491 23.7296 6.11601 23.6941 5.99823 23.6848C5.9835 23.6601 5.97614 23.6338 5.97614 23.606C5.97614 23.5782 5.99013 23.5511 6.0181 23.5249C6.04755 23.4971 6.08436 23.4739 6.12853 23.4553C6.22276 23.4136 6.32214 23.3927 6.42667 23.3927Z" fill="#4F524F"/>
<path d="M9.06801 26.2299C9.0371 26.2222 8.98998 26.2184 8.92667 26.2184H8.178C8.03665 26.2184 7.94611 26.1921 7.90635 26.1395C7.89016 26.1195 7.88206 26.0963 7.88206 26.07C7.88206 26.0051 7.89384 25.9572 7.9174 25.9263C7.95273 25.9387 7.98512 25.9448 8.01457 25.9448C8.04549 25.9448 8.07125 25.941 8.09187 25.9332C8.11248 25.924 8.12867 25.9093 8.14045 25.8892C8.16107 25.8521 8.17137 25.7795 8.17137 25.6713V24.1554C8.17137 24.0101 8.14561 23.9197 8.09407 23.8842C8.07346 23.8702 8.04622 23.8633 8.01236 23.8633C7.9785 23.8633 7.95126 23.8687 7.93065 23.8795C7.91151 23.8903 7.89531 23.8981 7.88206 23.9027C7.87028 23.9073 7.85998 23.9073 7.85114 23.9027C7.84231 23.8965 7.83347 23.888 7.82464 23.8772C7.80256 23.8494 7.79151 23.8231 7.79151 23.7984C7.79151 23.7721 7.80035 23.7443 7.81801 23.7149C7.83715 23.684 7.86734 23.6493 7.90856 23.6106C7.94979 23.5705 7.9969 23.5341 8.0499 23.5017C8.16916 23.4291 8.28842 23.3927 8.40768 23.3927C8.54313 23.3927 8.62337 23.4855 8.6484 23.6709C8.65576 23.725 8.66018 23.7814 8.66165 23.8401C8.87661 23.6408 9.0982 23.504 9.32641 23.4298C9.40297 23.4051 9.47217 23.3927 9.534 23.3927C9.59731 23.3927 9.64884 23.402 9.6886 23.4206C9.72982 23.4391 9.76221 23.4646 9.78577 23.4971C9.82994 23.5604 9.85202 23.6415 9.85202 23.7404C9.85202 23.8393 9.84761 23.9182 9.83877 23.9769C9.82994 24.0356 9.8189 24.0874 9.80564 24.1322C9.77914 24.2234 9.75411 24.2813 9.73056 24.306C9.68933 24.3508 9.63412 24.3732 9.56492 24.3732C9.49425 24.3732 9.45891 24.3516 9.45891 24.3083C9.45891 24.143 9.45229 24.0371 9.43904 23.9908C9.41401 23.9058 9.36689 23.8633 9.2977 23.8633C9.2285 23.8633 9.16592 23.8718 9.10997 23.8888C9.05403 23.9042 8.99955 23.9259 8.94655 23.9537C8.83907 24.0093 8.74484 24.0812 8.66386 24.1693V25.7107C8.66828 25.8328 8.71907 25.907 8.81625 25.9332C8.84422 25.941 8.87588 25.9479 8.91121 25.9541C8.94655 25.9603 8.97673 25.968 9.00176 25.9773C9.02826 25.985 9.04887 25.9943 9.0636 26.0051C9.08863 26.0252 9.10114 26.0576 9.10114 26.1025C9.10114 26.1581 9.0901 26.2006 9.06801 26.2299Z" fill="#4F524F"/>
<path d="M12.2968 25.924C12.0819 26.1496 11.822 26.2624 11.5172 26.2624C11.2816 26.2624 11.0932 26.1913 10.9518 26.0491C10.809 25.9054 10.7376 25.7192 10.7376 25.4905C10.7376 25.2062 10.8584 24.9929 11.0998 24.8508C11.3177 24.7209 11.6247 24.656 12.0207 24.656H12.2968C12.2983 24.5973 12.299 24.5401 12.299 24.4845V24.3107C12.299 24.1036 12.2703 23.9576 12.2129 23.8726C12.1481 23.7768 12.0377 23.7289 11.8816 23.7289C11.5238 23.7289 11.3398 23.8633 11.3295 24.1322C11.328 24.1739 11.3288 24.2087 11.3317 24.2365C11.3023 24.2612 11.2522 24.2736 11.1815 24.2736C11.1123 24.2736 11.0615 24.2651 11.0291 24.2481C10.9982 24.2311 10.971 24.2079 10.9474 24.1785C10.8974 24.1183 10.8723 24.0418 10.8723 23.9491C10.8723 23.8548 10.8981 23.7729 10.9496 23.7034C11.0026 23.6323 11.074 23.5743 11.1639 23.5295C11.3391 23.4383 11.5459 23.3927 11.7844 23.3927C12.023 23.3927 12.2018 23.4175 12.3211 23.4669C12.4418 23.5148 12.5375 23.579 12.6082 23.6593C12.7334 23.8015 12.7959 23.9923 12.7959 24.2319L12.7738 25.3445C12.7738 25.5469 12.7827 25.6752 12.8003 25.7293C12.8195 25.7834 12.8416 25.8197 12.8666 25.8382C12.8931 25.8568 12.9248 25.866 12.9616 25.866C12.9998 25.866 13.0308 25.8598 13.0543 25.8475L13.1162 25.8173C13.1368 25.8096 13.1544 25.8189 13.1692 25.8452C13.1854 25.8699 13.1935 25.8923 13.1935 25.9124C13.1935 25.9309 13.1854 25.9557 13.1692 25.9866C13.1544 26.0175 13.1257 26.0507 13.083 26.0862C13.0418 26.1202 12.9947 26.1504 12.9417 26.1766C12.6487 26.3219 12.4492 26.2879 12.3432 26.0746C12.3211 26.0329 12.3056 25.9827 12.2968 25.924ZM12.2902 25.6203C12.2902 25.3978 12.2917 25.1768 12.2946 24.9574C11.9884 24.9697 11.78 24.9906 11.6696 25.02C11.5606 25.0478 11.4819 25.0748 11.4333 25.1011C11.3847 25.1274 11.3464 25.1583 11.3185 25.1938C11.2728 25.2525 11.25 25.3414 11.25 25.4604C11.25 25.5778 11.2897 25.6721 11.3692 25.7432C11.4488 25.8127 11.5629 25.8475 11.7116 25.8475C11.9221 25.8475 12.115 25.7718 12.2902 25.6203Z" fill="#4F524F"/>
<path d="M14.5715 22.9616C14.5215 22.9616 14.4751 22.9539 14.4324 22.9384C14.3912 22.9214 14.3551 22.8975 14.3242 22.8666C14.2594 22.8017 14.227 22.7144 14.227 22.6046C14.227 22.4996 14.2653 22.4107 14.3419 22.3381C14.4155 22.2654 14.5038 22.2291 14.6069 22.2291C14.7099 22.2291 14.7924 22.2616 14.8542 22.3265C14.9161 22.3914 14.947 22.4795 14.947 22.5907C14.947 22.6958 14.9102 22.7847 14.8366 22.8573C14.7644 22.9268 14.6761 22.9616 14.5715 22.9616ZM14.4368 26.2184C14.2101 26.2184 14.0967 26.1643 14.0967 26.0561C14.0967 26.0005 14.1085 25.9572 14.1321 25.9263C14.1674 25.9387 14.1998 25.9448 14.2292 25.9448C14.3662 25.9448 14.4331 25.8537 14.4302 25.6713V24.1183C14.4302 24.0101 14.4155 23.9352 14.386 23.8934C14.3581 23.8502 14.3073 23.8285 14.2336 23.8285C14.1792 23.8285 14.1298 23.8355 14.0857 23.8494C14.0592 23.8525 14.04 23.8308 14.0283 23.7845C14.018 23.7428 14.0238 23.7064 14.0459 23.6755C14.068 23.6431 14.1019 23.6099 14.1475 23.5759C14.1946 23.5403 14.2462 23.5094 14.3021 23.4831C14.4228 23.4229 14.5237 23.3927 14.6047 23.3927C14.6856 23.3927 14.7453 23.4051 14.7836 23.4298C14.8233 23.4546 14.8535 23.4878 14.8741 23.5295C14.9065 23.5975 14.9227 23.7072 14.9227 23.8587V25.7107C14.9271 25.8328 14.9691 25.907 15.0486 25.9332C15.0707 25.941 15.0979 25.9479 15.1303 25.9541C15.1627 25.9603 15.1914 25.968 15.2164 25.9773C15.2429 25.985 15.2635 25.9943 15.2783 26.0051C15.3033 26.0252 15.3158 26.0576 15.3158 26.1025C15.3158 26.1581 15.3048 26.2006 15.2827 26.2299C15.2518 26.2222 15.2046 26.2184 15.1413 26.2184H14.4368Z" fill="#4F524F"/>
<path d="M17.3962 26.2299C17.3667 26.2222 17.3196 26.2184 17.2548 26.2184H16.5503C16.409 26.2184 16.3184 26.1921 16.2787 26.1395C16.2625 26.1195 16.2544 26.0963 16.2544 26.07C16.2544 26.0051 16.2662 25.9572 16.2897 25.9263C16.3251 25.9387 16.3648 25.9448 16.409 25.9448C16.4546 25.9448 16.4885 25.9255 16.5106 25.8869C16.5341 25.8483 16.5452 25.7764 16.5437 25.6713V24.1554C16.5437 24.0101 16.5179 23.9197 16.4664 23.8842C16.4458 23.8702 16.4186 23.8633 16.3847 23.8633C16.3508 23.8633 16.3236 23.8687 16.303 23.8795C16.2838 23.8903 16.2677 23.8981 16.2544 23.9027C16.2426 23.9073 16.2323 23.9073 16.2235 23.9027C16.2147 23.8965 16.2058 23.888 16.197 23.8772C16.1749 23.8525 16.1639 23.827 16.1639 23.8007C16.1639 23.7729 16.1727 23.7443 16.1904 23.7149C16.2095 23.684 16.2397 23.6493 16.2809 23.6106C16.3221 23.5705 16.3692 23.5341 16.4222 23.5017C16.5415 23.4291 16.6608 23.3927 16.78 23.3927C16.9169 23.3927 16.9979 23.4878 17.023 23.6779C17.0303 23.7335 17.0347 23.7907 17.0362 23.8494C17.2556 23.6562 17.4941 23.5187 17.7518 23.4368C17.8445 23.4074 17.938 23.3927 18.0322 23.3927C18.1279 23.3927 18.2185 23.4059 18.3039 23.4322C18.3907 23.4584 18.4658 23.5009 18.5291 23.5596C18.6631 23.6833 18.7301 23.8764 18.7301 24.1391V25.7107C18.7345 25.8313 18.7772 25.9054 18.8582 25.9332C18.8803 25.941 18.9075 25.9479 18.9399 25.9541C18.9723 25.9603 19.001 25.968 19.026 25.9773C19.0525 25.985 19.0732 25.9943 19.0879 26.0051C19.1129 26.0252 19.1254 26.0576 19.1254 26.1025C19.1254 26.1565 19.1136 26.199 19.0901 26.2299C19.0606 26.2222 19.0135 26.2184 18.9487 26.2184H18.2442C18.1029 26.2184 18.0124 26.1921 17.9726 26.1395C17.9564 26.1195 17.9483 26.0963 17.9483 26.07C17.9483 26.0051 17.9601 25.9572 17.9836 25.9263C18.019 25.9387 18.0514 25.9448 18.0808 25.9448C18.1117 25.9448 18.1375 25.941 18.1581 25.9332C18.1787 25.924 18.1949 25.9093 18.2067 25.8892C18.2273 25.8521 18.2376 25.7795 18.2376 25.6713V24.3037C18.2376 24.041 18.1633 23.8942 18.0146 23.8633C17.9689 23.854 17.9115 23.8494 17.8423 23.8494C17.7746 23.8494 17.6995 23.8602 17.617 23.8818C17.5346 23.9035 17.4573 23.9313 17.3851 23.9653C17.2467 24.0302 17.1304 24.1121 17.0362 24.211V25.7107C17.0406 25.8313 17.0826 25.9054 17.1621 25.9332C17.1856 25.941 17.2129 25.9479 17.2438 25.9541C17.2762 25.9603 17.3056 25.968 17.3321 25.9773C17.3586 25.985 17.3793 25.9943 17.394 26.0051C17.419 26.0252 17.4315 26.0576 17.4315 26.1025C17.4315 26.1565 17.4197 26.199 17.3962 26.2299Z" fill="#4F524F"/>
<path d="M20.5389 22.9616C20.4888 22.9616 20.4424 22.9539 20.3997 22.9384C20.3585 22.9214 20.3224 22.8975 20.2915 22.8666C20.2267 22.8017 20.1943 22.7144 20.1943 22.6046C20.1943 22.4996 20.2326 22.4107 20.3092 22.3381C20.3828 22.2654 20.4711 22.2291 20.5742 22.2291C20.6772 22.2291 20.7597 22.2616 20.8215 22.3265C20.8834 22.3914 20.9143 22.4795 20.9143 22.5907C20.9143 22.6958 20.8775 22.7847 20.8039 22.8573C20.7317 22.9268 20.6434 22.9616 20.5389 22.9616ZM20.4041 26.2184C20.1774 26.2184 20.064 26.1643 20.064 26.0561C20.064 26.0005 20.0758 25.9572 20.0994 25.9263C20.1347 25.9387 20.1671 25.9448 20.1965 25.9448C20.3335 25.9448 20.4005 25.8537 20.3975 25.6713V24.1183C20.3975 24.0101 20.3828 23.9352 20.3533 23.8934C20.3254 23.8502 20.2746 23.8285 20.201 23.8285C20.1465 23.8285 20.0972 23.8355 20.053 23.8494C20.0265 23.8525 20.0073 23.8308 19.9956 23.7845C19.9853 23.7428 19.9911 23.7064 20.0132 23.6755C20.0353 23.6431 20.0692 23.6099 20.1148 23.5759C20.1619 23.5403 20.2135 23.5094 20.2694 23.4831C20.3901 23.4229 20.491 23.3927 20.572 23.3927C20.653 23.3927 20.7126 23.4051 20.7509 23.4298C20.7906 23.4546 20.8208 23.4878 20.8414 23.5295C20.8738 23.5975 20.89 23.7072 20.89 23.8587V25.7107C20.8944 25.8328 20.9364 25.907 21.0159 25.9332C21.038 25.941 21.0652 25.9479 21.0976 25.9541C21.13 25.9603 21.1587 25.968 21.1837 25.9773C21.2102 25.985 21.2308 25.9943 21.2456 26.0051C21.2706 26.0252 21.2831 26.0576 21.2831 26.1025C21.2831 26.1581 21.2721 26.2006 21.25 26.2299C21.2191 26.2222 21.1719 26.2184 21.1086 26.2184H20.4041Z" fill="#4F524F"/>
<path d="M23.7367 25.924C23.5218 26.1496 23.2619 26.2624 22.9571 26.2624C22.7216 26.2624 22.5331 26.1913 22.3918 26.0491C22.249 25.9054 22.1775 25.7192 22.1775 25.4905C22.1775 25.2062 22.2983 24.9929 22.5397 24.8508C22.7576 24.7209 23.0646 24.656 23.4607 24.656H23.7367C23.7382 24.5973 23.7389 24.5401 23.7389 24.4845V24.3107C23.7389 24.1036 23.7102 23.9576 23.6528 23.8726C23.588 23.7768 23.4776 23.7289 23.3215 23.7289C22.9638 23.7289 22.7797 23.8633 22.7694 24.1322C22.7679 24.1739 22.7687 24.2087 22.7716 24.2365C22.7422 24.2612 22.6921 24.2736 22.6214 24.2736C22.5522 24.2736 22.5015 24.2651 22.4691 24.2481C22.4381 24.2311 22.4109 24.2079 22.3873 24.1785C22.3373 24.1183 22.3123 24.0418 22.3123 23.9491C22.3123 23.8548 22.338 23.7729 22.3896 23.7034C22.4426 23.6323 22.514 23.5743 22.6038 23.5295C22.779 23.4383 22.9858 23.3927 23.2244 23.3927C23.4629 23.3927 23.6418 23.4175 23.761 23.4669C23.8818 23.5148 23.9775 23.579 24.0481 23.6593C24.1733 23.8015 24.2358 23.9923 24.2358 24.2319L24.2138 25.3445C24.2138 25.5469 24.2226 25.6752 24.2403 25.7293C24.2594 25.7834 24.2815 25.8197 24.3065 25.8382C24.333 25.8568 24.3647 25.866 24.4015 25.866C24.4398 25.866 24.4707 25.8598 24.4942 25.8475L24.5561 25.8173C24.5767 25.8096 24.5944 25.8189 24.6091 25.8452C24.6253 25.8699 24.6334 25.8923 24.6334 25.9124C24.6334 25.9309 24.6253 25.9557 24.6091 25.9866C24.5944 26.0175 24.5656 26.0507 24.5229 26.0862C24.4817 26.1202 24.4346 26.1504 24.3816 26.1766C24.0886 26.3219 23.8891 26.2879 23.7831 26.0746C23.761 26.0329 23.7456 25.9827 23.7367 25.924ZM23.7301 25.6203C23.7301 25.3978 23.7316 25.1768 23.7345 24.9574C23.4283 24.9697 23.2199 24.9906 23.1095 25.02C23.0006 25.0478 22.9218 25.0748 22.8732 25.1011C22.8246 25.1274 22.7863 25.1583 22.7584 25.1938C22.7127 25.2525 22.6899 25.3414 22.6899 25.4604C22.6899 25.5778 22.7297 25.6721 22.8092 25.7432C22.8887 25.8127 23.0028 25.8475 23.1515 25.8475C23.362 25.8475 23.5549 25.7718 23.7301 25.6203Z" fill="#4F524F"/>
<path d="M26.685 26.2299C26.6556 26.2222 26.6085 26.2184 26.5437 26.2184H25.8392C25.6979 26.2184 25.6073 26.1921 25.5676 26.1395C25.5514 26.1195 25.5433 26.0963 25.5433 26.07C25.5433 26.0051 25.555 25.9572 25.5786 25.9263C25.6139 25.9387 25.6537 25.9448 25.6979 25.9448C25.7435 25.9448 25.7774 25.9255 25.7994 25.8869C25.823 25.8483 25.834 25.7764 25.8326 25.6713V24.1554C25.8326 24.0101 25.8068 23.9197 25.7553 23.8842C25.7347 23.8702 25.7074 23.8633 25.6736 23.8633C25.6397 23.8633 25.6125 23.8687 25.5919 23.8795C25.5727 23.8903 25.5565 23.8981 25.5433 23.9027C25.5315 23.9073 25.5212 23.9073 25.5123 23.9027C25.5035 23.8965 25.4947 23.888 25.4858 23.8772C25.4638 23.8525 25.4527 23.827 25.4527 23.8007C25.4527 23.7729 25.4616 23.7443 25.4792 23.7149C25.4984 23.684 25.5285 23.6493 25.5698 23.6106C25.611 23.5705 25.6581 23.5341 25.7111 23.5017C25.8304 23.4291 25.9496 23.3927 26.0689 23.3927C26.2058 23.3927 26.2868 23.4878 26.3118 23.6779C26.3192 23.7335 26.3236 23.7907 26.3251 23.8494C26.5444 23.6562 26.783 23.5187 27.0406 23.4368C27.1334 23.4074 27.2269 23.3927 27.3211 23.3927C27.4168 23.3927 27.5073 23.4059 27.5927 23.4322C27.6796 23.4584 27.7547 23.5009 27.818 23.5596C27.952 23.6833 28.019 23.8764 28.019 24.1391V25.7107C28.0234 25.8313 28.0661 25.9054 28.1471 25.9332C28.1691 25.941 28.1964 25.9479 28.2288 25.9541C28.2612 25.9603 28.2899 25.968 28.3149 25.9773C28.3414 25.985 28.362 25.9943 28.3767 26.0051C28.4018 26.0252 28.4143 26.0576 28.4143 26.1025C28.4143 26.1565 28.4025 26.199 28.379 26.2299C28.3495 26.2222 28.3024 26.2184 28.2376 26.2184H27.5331C27.3918 26.2184 27.3012 26.1921 27.2615 26.1395C27.2453 26.1195 27.2372 26.0963 27.2372 26.07C27.2372 26.0051 27.2489 25.9572 27.2725 25.9263C27.3078 25.9387 27.3402 25.9448 27.3697 25.9448C27.4006 25.9448 27.4264 25.941 27.447 25.9332C27.4676 25.924 27.4838 25.9093 27.4956 25.8892C27.5162 25.8521 27.5265 25.7795 27.5265 25.6713V24.3037C27.5265 24.041 27.4521 23.8942 27.3034 23.8633C27.2578 23.854 27.2004 23.8494 27.1312 23.8494C27.0634 23.8494 26.9883 23.8602 26.9059 23.8818C26.8234 23.9035 26.7461 23.9313 26.674 23.9653C26.5356 24.0302 26.4193 24.1121 26.3251 24.211V25.7107C26.3295 25.8313 26.3714 25.9054 26.4509 25.9332C26.4745 25.941 26.5017 25.9479 26.5327 25.9541C26.5651 25.9603 26.5945 25.968 26.621 25.9773C26.6475 25.985 26.6681 25.9943 26.6828 26.0051C26.7079 26.0252 26.7204 26.0576 26.7204 26.1025C26.7204 26.1565 26.7086 26.199 26.685 26.2299Z" fill="#4F524F"/>
<path d="M32.6678 26.2299C32.6384 26.2222 32.5913 26.2184 32.5265 26.2184H31.822C31.6806 26.2184 31.5901 26.1921 31.5503 26.1395C31.5341 26.1195 31.526 26.0963 31.526 26.07C31.526 26.0051 31.5378 25.9572 31.5614 25.9263C31.5967 25.9387 31.6372 25.9448 31.6828 25.9448C31.7285 25.9448 31.7623 25.9255 31.7844 25.8869C31.8065 25.8483 31.8168 25.7764 31.8153 25.6713V22.7993C31.8153 22.6927 31.805 22.624 31.7844 22.593C31.7535 22.5436 31.699 22.5189 31.621 22.5189H31.5768C31.5636 22.5189 31.5481 22.5212 31.5305 22.5258C31.5143 22.5289 31.5003 22.5274 31.4885 22.5212C31.4767 22.5135 31.4664 22.5034 31.4576 22.4911C31.4267 22.4431 31.462 22.3782 31.5636 22.2963C31.7123 22.1774 31.8639 22.1179 32.0185 22.1179C32.1864 22.1179 32.2806 22.2129 32.3012 22.403C32.3071 22.4601 32.31 22.5204 32.31 22.5838V23.8471C32.5324 23.6508 32.7701 23.5141 33.0234 23.4368C33.1161 23.4074 33.2096 23.3927 33.3039 23.3927C33.3996 23.3927 33.4901 23.4059 33.5755 23.4322C33.6624 23.4584 33.7367 23.5009 33.7986 23.5596C33.934 23.6864 34.0017 23.8795 34.0017 24.1391V25.6945C34.0017 25.8228 34.043 25.9016 34.1254 25.9309C34.149 25.9402 34.1769 25.9479 34.2093 25.9541C34.2417 25.9603 34.2704 25.968 34.2955 25.9773C34.322 25.985 34.3426 25.9943 34.3573 26.0051C34.3823 26.0252 34.3948 26.0576 34.3948 26.1025C34.3948 26.1581 34.3838 26.2006 34.3617 26.2299C34.3308 26.2222 34.2837 26.2184 34.2204 26.2184H33.5159C33.3745 26.2184 33.284 26.1921 33.2442 26.1395C33.228 26.1195 33.2199 26.0963 33.2199 26.07C33.2199 26.0036 33.231 25.9557 33.2531 25.9263C33.2899 25.9387 33.3296 25.9448 33.3723 25.9448C33.415 25.9448 33.4474 25.9286 33.4695 25.8962C33.4931 25.8637 33.5063 25.8042 33.5092 25.7177V24.3037C33.5092 24.041 33.4349 23.8942 33.2862 23.8633C33.2405 23.854 33.1831 23.8494 33.1139 23.8494C33.0462 23.8494 32.9711 23.8602 32.8887 23.8818C32.8077 23.9035 32.7311 23.9313 32.659 23.9653C32.5162 24.0333 32.3999 24.1144 32.31 24.2087V25.6945C32.31 25.8228 32.3513 25.9016 32.4337 25.9309C32.4573 25.9402 32.4852 25.9479 32.5176 25.9541C32.55 25.9603 32.5787 25.968 32.6038 25.9773C32.6303 25.985 32.6509 25.9943 32.6656 26.0051C32.6906 26.0252 32.7032 26.0576 32.7032 26.1025C32.7032 26.1565 32.6914 26.199 32.6678 26.2299Z" fill="#4F524F"/>
<path d="M36.8242 25.924C36.6092 26.1496 36.3493 26.2624 36.0446 26.2624C35.809 26.2624 35.6206 26.1913 35.4792 26.0491C35.3364 25.9054 35.265 25.7192 35.265 25.4905C35.265 25.2062 35.3857 24.9929 35.6272 24.8508C35.8451 24.7209 36.1521 24.656 36.5481 24.656H36.8242C36.8256 24.5973 36.8264 24.5401 36.8264 24.4845V24.3107C36.8264 24.1036 36.7977 23.9576 36.7402 23.8726C36.6755 23.7768 36.565 23.7289 36.409 23.7289C36.0512 23.7289 35.8672 23.8633 35.8569 24.1322C35.8554 24.1739 35.8561 24.2087 35.8591 24.2365C35.8296 24.2612 35.7796 24.2736 35.7089 24.2736C35.6397 24.2736 35.5889 24.2651 35.5565 24.2481C35.5256 24.2311 35.4984 24.2079 35.4748 24.1785C35.4247 24.1183 35.3997 24.0418 35.3997 23.9491C35.3997 23.8548 35.4255 23.7729 35.477 23.7034C35.53 23.6323 35.6014 23.5743 35.6912 23.5295C35.8664 23.4383 36.0733 23.3927 36.3118 23.3927C36.5503 23.3927 36.7292 23.4175 36.8485 23.4669C36.9692 23.5148 37.0649 23.579 37.1356 23.6593C37.2607 23.8015 37.3233 23.9923 37.3233 24.2319L37.3012 25.3445C37.3012 25.5469 37.31 25.6752 37.3277 25.7293C37.3468 25.7834 37.3689 25.8197 37.394 25.8382C37.4205 25.8568 37.4521 25.866 37.4889 25.866C37.5272 25.866 37.5581 25.8598 37.5817 25.8475L37.6435 25.8173C37.6641 25.8096 37.6818 25.8189 37.6965 25.8452C37.7127 25.8699 37.7208 25.8923 37.7208 25.9124C37.7208 25.9309 37.7127 25.9557 37.6965 25.9866C37.6818 26.0175 37.6531 26.0507 37.6104 26.0862C37.5692 26.1202 37.5221 26.1504 37.4691 26.1766C37.1761 26.3219 36.9766 26.2879 36.8706 26.0746C36.8485 26.0329 36.833 25.9827 36.8242 25.924ZM36.8175 25.6203C36.8175 25.3978 36.819 25.1768 36.822 24.9574C36.5157 24.9697 36.3074 24.9906 36.197 25.02C36.088 25.0478 36.0092 25.0748 35.9607 25.1011C35.9121 25.1274 35.8738 25.1583 35.8458 25.1938C35.8002 25.2525 35.7774 25.3414 35.7774 25.4604C35.7774 25.5778 35.8171 25.6721 35.8966 25.7432C35.9761 25.8127 36.0902 25.8475 36.2389 25.8475C36.4495 25.8475 36.6423 25.7718 36.8175 25.6203Z" fill="#4F524F"/>
<path d="M39.7725 26.2299C39.743 26.2222 39.6959 26.2184 39.6311 26.2184H38.9266C38.7853 26.2184 38.6948 26.1921 38.655 26.1395C38.6388 26.1195 38.6307 26.0963 38.6307 26.07C38.6307 26.0051 38.6425 25.9572 38.666 25.9263C38.7014 25.9387 38.7411 25.9448 38.7853 25.9448C38.8309 25.9448 38.8648 25.9255 38.8869 25.8869C38.9104 25.8483 38.9215 25.7764 38.92 25.6713V24.1554C38.92 24.0101 38.8943 23.9197 38.8427 23.8842C38.8221 23.8702 38.7949 23.8633 38.761 23.8633C38.7271 23.8633 38.6999 23.8687 38.6793 23.8795C38.6602 23.8903 38.644 23.8981 38.6307 23.9027C38.6189 23.9073 38.6086 23.9073 38.5998 23.9027C38.591 23.8965 38.5821 23.888 38.5733 23.8772C38.5512 23.8525 38.5402 23.827 38.5402 23.8007C38.5402 23.7729 38.549 23.7443 38.5667 23.7149C38.5858 23.684 38.616 23.6493 38.6572 23.6106C38.6984 23.5705 38.7455 23.5341 38.7986 23.5017C38.9178 23.4291 39.0371 23.3927 39.1563 23.3927C39.2933 23.3927 39.3742 23.4878 39.3993 23.6779C39.4066 23.7335 39.411 23.7907 39.4125 23.8494C39.6319 23.6562 39.8704 23.5187 40.1281 23.4368C40.2208 23.4074 40.3143 23.3927 40.4085 23.3927C40.5042 23.3927 40.5948 23.4059 40.6802 23.4322C40.767 23.4584 40.8421 23.5009 40.9054 23.5596C41.0394 23.6833 41.1064 23.8764 41.1064 24.1391V25.7107C41.1108 25.8313 41.1535 25.9054 41.2345 25.9332C41.2566 25.941 41.2838 25.9479 41.3162 25.9541C41.3486 25.9603 41.3773 25.968 41.4024 25.9773C41.4289 25.985 41.4495 25.9943 41.4642 26.0051C41.4892 26.0252 41.5017 26.0576 41.5017 26.1025C41.5017 26.1565 41.49 26.199 41.4664 26.2299C41.437 26.2222 41.3898 26.2184 41.3251 26.2184H40.6205C40.4792 26.2184 40.3887 26.1921 40.3489 26.1395C40.3327 26.1195 40.3246 26.0963 40.3246 26.07C40.3246 26.0051 40.3364 25.9572 40.3599 25.9263C40.3953 25.9387 40.4277 25.9448 40.4571 25.9448C40.488 25.9448 40.5138 25.941 40.5344 25.9332C40.555 25.924 40.5712 25.9093 40.583 25.8892C40.6036 25.8521 40.6139 25.7795 40.6139 25.6713V24.3037C40.6139 24.041 40.5396 23.8942 40.3909 23.8633C40.3452 23.854 40.2878 23.8494 40.2186 23.8494C40.1509 23.8494 40.0758 23.8602 39.9933 23.8818C39.9109 23.9035 39.8336 23.9313 39.7615 23.9653C39.6231 24.0302 39.5067 24.1121 39.4125 24.211V25.7107C39.4169 25.8313 39.4589 25.9054 39.5384 25.9332C39.562 25.941 39.5892 25.9479 39.6201 25.9541C39.6525 25.9603 39.6819 25.968 39.7084 25.9773C39.7349 25.985 39.7556 25.9943 39.7703 26.0051C39.7953 26.0252 39.8078 26.0576 39.8078 26.1025C39.8078 26.1565 39.7961 26.199 39.7725 26.2299Z" fill="#4F524F"/>
<path d="M44.1917 25.9286C43.9634 26.1527 43.7124 26.2647 43.4386 26.2647C43.1367 26.2647 42.8909 26.1565 42.7009 25.9402C42.4948 25.7022 42.3918 25.3738 42.3918 24.9551C42.3918 24.4837 42.5346 24.1005 42.8202 23.8053C43.0867 23.5303 43.4018 23.3927 43.7654 23.3927C43.9112 23.3927 44.0511 23.4182 44.185 23.4692V22.7993C44.185 22.6912 44.1747 22.6224 44.1541 22.593C44.1203 22.5436 44.065 22.5189 43.9885 22.5189C43.9561 22.5189 43.9237 22.5227 43.8913 22.5305C43.8604 22.5366 43.8383 22.5366 43.8251 22.5305C43.8133 22.5227 43.8037 22.5127 43.7963 22.5003C43.7669 22.4493 43.8037 22.3844 43.9068 22.3056C44.0687 22.1804 44.2285 22.1179 44.386 22.1179C44.5524 22.1179 44.6473 22.2129 44.6709 22.403C44.6768 22.4601 44.6797 22.5204 44.6797 22.5838V25.2749C44.6797 25.5129 44.6886 25.6613 44.7062 25.72C44.7239 25.7787 44.7445 25.8173 44.7681 25.8359C44.7931 25.8529 44.824 25.8614 44.8608 25.8614C44.8976 25.8614 44.9278 25.8552 44.9514 25.8428L45.0176 25.8127C45.0368 25.8081 45.0537 25.8173 45.0684 25.8405C45.0993 25.8884 45.1038 25.9317 45.0817 25.9703C45.0596 26.009 45.0265 26.0461 44.9823 26.0816C44.9381 26.1171 44.8888 26.148 44.8343 26.1743C44.5958 26.2871 44.4177 26.2894 44.2999 26.1813C44.2425 26.1287 44.2064 26.0445 44.1917 25.9286ZM44.185 23.9398C44.0407 23.8239 43.8729 23.7659 43.6815 23.7659C43.4518 23.7659 43.2656 23.8548 43.1228 24.0325C42.9696 24.2226 42.8931 24.4814 42.8931 24.809C42.8931 25.3298 43.0344 25.6512 43.3171 25.7733C43.4054 25.8104 43.4908 25.8289 43.5733 25.8289C43.6572 25.8289 43.7271 25.822 43.7831 25.8081C43.839 25.7942 43.8913 25.7756 43.9399 25.7524C44.0371 25.7061 44.1188 25.6497 44.185 25.5832V23.9398Z" fill="#4F524F"/>
<path d="M47.1974 26.2299C47.168 26.2222 47.1208 26.2184 47.0561 26.2184H46.3516C46.2102 26.2184 46.1197 26.1921 46.0799 26.1395C46.0637 26.1195 46.0556 26.0963 46.0556 26.07C46.0556 26.0051 46.0674 25.9572 46.091 25.9263C46.1263 25.9387 46.166 25.9448 46.2102 25.9448C46.2559 25.9448 46.2897 25.9255 46.3118 25.8869C46.3354 25.8483 46.3464 25.7764 46.3449 25.6713V24.1554C46.3449 24.0101 46.3192 23.9197 46.2676 23.8842C46.247 23.8702 46.2198 23.8633 46.1859 23.8633C46.1521 23.8633 46.1248 23.8687 46.1042 23.8795C46.0851 23.8903 46.0689 23.8981 46.0556 23.9027C46.0438 23.9073 46.0335 23.9073 46.0247 23.9027C46.0159 23.8965 46.007 23.888 45.9982 23.8772C45.9761 23.8525 45.9651 23.827 45.9651 23.8007C45.9651 23.7729 45.9739 23.7443 45.9916 23.7149C46.0107 23.684 46.0409 23.6493 46.0821 23.6106C46.1233 23.5705 46.1705 23.5341 46.2235 23.5017C46.3427 23.4291 46.462 23.3927 46.5812 23.3927C46.7123 23.3927 46.791 23.4801 46.8175 23.6547C46.8264 23.7072 46.8323 23.7613 46.8352 23.8169C47.0561 23.633 47.2872 23.5048 47.5287 23.4322C47.617 23.4059 47.7024 23.3927 47.7849 23.3927C48.1353 23.3927 48.3568 23.538 48.4496 23.8285C48.6793 23.6369 48.9127 23.5048 49.1497 23.4322C49.2395 23.4059 49.3308 23.3927 49.4235 23.3927C49.5163 23.3927 49.6054 23.4059 49.6908 23.4322C49.7776 23.4584 49.852 23.5009 49.9138 23.5596C50.0493 23.6864 50.117 23.8795 50.117 24.1391V25.6945C50.117 25.8212 50.1582 25.9 50.2407 25.9309C50.2642 25.9402 50.2922 25.9479 50.3246 25.9541C50.357 25.9603 50.3864 25.968 50.4129 25.9773C50.4394 25.985 50.4601 25.9943 50.4748 26.0051C50.4998 26.0252 50.5123 26.0576 50.5123 26.1025C50.5123 26.1565 50.5005 26.199 50.477 26.2299C50.4475 26.2222 50.4004 26.2184 50.3356 26.2184H49.6311C49.4898 26.2184 49.3993 26.1921 49.3595 26.1395C49.3433 26.1195 49.3352 26.0963 49.3352 26.07C49.3352 26.0051 49.347 25.9572 49.3705 25.9263C49.4059 25.9387 49.4449 25.9448 49.4876 25.9448C49.5303 25.9448 49.5627 25.9302 49.5848 25.9008C49.6083 25.8699 49.6216 25.8135 49.6245 25.7316V24.3037C49.6245 24.041 49.5502 23.8942 49.4015 23.8633C49.3558 23.854 49.3013 23.8494 49.238 23.8494C49.1762 23.8494 49.1085 23.8579 49.0349 23.8749C48.9627 23.8903 48.8935 23.912 48.8273 23.9398C48.6992 23.9939 48.5873 24.0626 48.4916 24.1461V25.6945C48.4916 25.8228 48.5328 25.9016 48.6152 25.9309C48.6388 25.9402 48.6668 25.9479 48.6992 25.9541C48.7316 25.9603 48.7603 25.968 48.7853 25.9773C48.8118 25.985 48.8324 25.9943 48.8471 26.0051C48.8722 26.0252 48.8847 26.0576 48.8847 26.1025C48.8847 26.1581 48.8736 26.2006 48.8515 26.2299C48.8221 26.2222 48.775 26.2184 48.7102 26.2184H48.0057C47.8644 26.2184 47.7738 26.1921 47.7341 26.1395C47.7179 26.1195 47.7098 26.0963 47.7098 26.07C47.7098 26.0036 47.7208 25.9557 47.7429 25.9263C47.7797 25.9387 47.8195 25.9448 47.8621 25.9448C47.9048 25.9448 47.9372 25.9286 47.9593 25.8962C47.9829 25.8637 47.9961 25.8042 47.9991 25.7177V24.3037C47.9991 24.041 47.9247 23.8942 47.776 23.8633C47.7304 23.854 47.6752 23.8494 47.6104 23.8494C47.5456 23.8494 47.4749 23.8587 47.3984 23.8772C47.3218 23.8957 47.2489 23.9205 47.1797 23.9514C47.0472 24.0086 46.9331 24.0812 46.8374 24.1693V25.6945C46.8374 25.8212 46.8794 25.9 46.9633 25.9309C46.9854 25.9402 47.0126 25.9479 47.045 25.9541C47.0774 25.9603 47.1068 25.968 47.1334 25.9773C47.1599 25.985 47.1805 25.9943 47.1952 26.0051C47.2202 26.0252 47.2327 26.0576 47.2327 26.1025C47.2327 26.1565 47.221 26.199 47.1974 26.2299Z" fill="#4F524F"/>
<path d="M52.9726 25.924C52.7576 26.1496 52.4977 26.2624 52.193 26.2624C51.9574 26.2624 51.7689 26.1913 51.6276 26.0491C51.4848 25.9054 51.4134 25.7192 51.4134 25.4905C51.4134 25.2062 51.5341 24.9929 51.7756 24.8508C51.9935 24.7209 52.3005 24.656 52.6965 24.656H52.9726C52.974 24.5973 52.9748 24.5401 52.9748 24.4845V24.3107C52.9748 24.1036 52.9461 23.9576 52.8886 23.8726C52.8239 23.7768 52.7134 23.7289 52.5574 23.7289C52.1996 23.7289 52.0156 23.8633 52.0053 24.1322C52.0038 24.1739 52.0045 24.2087 52.0075 24.2365C51.978 24.2612 51.928 24.2736 51.8573 24.2736C51.7881 24.2736 51.7373 24.2651 51.7049 24.2481C51.674 24.2311 51.6467 24.2079 51.6232 24.1785C51.5731 24.1183 51.5481 24.0418 51.5481 23.9491C51.5481 23.8548 51.5739 23.7729 51.6254 23.7034C51.6784 23.6323 51.7498 23.5743 51.8396 23.5295C52.0148 23.4383 52.2217 23.3927 52.4602 23.3927C52.6987 23.3927 52.8776 23.4175 52.9969 23.4669C53.1176 23.5148 53.2133 23.579 53.284 23.6593C53.4091 23.8015 53.4717 23.9923 53.4717 24.2319L53.4496 25.3445C53.4496 25.5469 53.4584 25.6752 53.4761 25.7293C53.4952 25.7834 53.5173 25.8197 53.5424 25.8382C53.5689 25.8568 53.6005 25.866 53.6373 25.866C53.6756 25.866 53.7065 25.8598 53.7301 25.8475L53.7919 25.8173C53.8125 25.8096 53.8302 25.8189 53.8449 25.8452C53.8611 25.8699 53.8692 25.8923 53.8692 25.9124C53.8692 25.9309 53.8611 25.9557 53.8449 25.9866C53.8302 26.0175 53.8015 26.0507 53.7588 26.0862C53.7176 26.1202 53.6704 26.1504 53.6174 26.1766C53.3245 26.3219 53.125 26.2879 53.0189 26.0746C52.9969 26.0329 52.9814 25.9827 52.9726 25.924ZM52.9659 25.6203C52.9659 25.3978 52.9674 25.1768 52.9704 24.9574C52.6641 24.9697 52.4558 24.9906 52.3454 25.02C52.2364 25.0478 52.1576 25.0748 52.1091 25.1011C52.0605 25.1274 52.0222 25.1583 51.9942 25.1938C51.9486 25.2525 51.9258 25.3414 51.9258 25.4604C51.9258 25.5778 51.9655 25.6721 52.045 25.7432C52.1245 25.8127 52.2386 25.8475 52.3873 25.8475C52.5979 25.8475 52.7907 25.7718 52.9659 25.6203Z" fill="#4F524F"/>
<path d="M56.5238 25.9286C56.2956 26.1527 56.0446 26.2647 55.7707 26.2647C55.4689 26.2647 55.223 26.1565 55.0331 25.9402C54.827 25.7022 54.7239 25.3738 54.7239 24.9551C54.7239 24.4837 54.8667 24.1005 55.1523 23.8053C55.4188 23.5303 55.7339 23.3927 56.0976 23.3927C56.2433 23.3927 56.3832 23.4182 56.5172 23.4692V22.7993C56.5172 22.6912 56.5069 22.6224 56.4863 22.593C56.4524 22.5436 56.3972 22.5189 56.3206 22.5189C56.2882 22.5189 56.2558 22.5227 56.2234 22.5305C56.1925 22.5366 56.1704 22.5366 56.1572 22.5305C56.1454 22.5227 56.1358 22.5127 56.1285 22.5003C56.099 22.4493 56.1358 22.3844 56.2389 22.3056C56.4009 22.1804 56.5606 22.1179 56.7182 22.1179C56.8845 22.1179 56.9795 22.2129 57.003 22.403C57.0089 22.4601 57.0119 22.5204 57.0119 22.5838V25.2749C57.0119 25.5129 57.0207 25.6613 57.0384 25.72C57.056 25.7787 57.0767 25.8173 57.1002 25.8359C57.1252 25.8529 57.1562 25.8614 57.193 25.8614C57.2298 25.8614 57.26 25.8552 57.2835 25.8428L57.3498 25.8127C57.3689 25.8081 57.3858 25.8173 57.4006 25.8405C57.4315 25.8884 57.4359 25.9317 57.4138 25.9703C57.3917 26.009 57.3586 26.0461 57.3144 26.0816C57.2703 26.1171 57.2209 26.148 57.1665 26.1743C56.928 26.2871 56.7498 26.2894 56.632 26.1813C56.5746 26.1287 56.5385 26.0445 56.5238 25.9286ZM56.5172 23.9398C56.3729 23.8239 56.205 23.7659 56.0136 23.7659C55.784 23.7659 55.5977 23.8548 55.4549 24.0325C55.3018 24.2226 55.2252 24.4814 55.2252 24.809C55.2252 25.3298 55.3666 25.6512 55.6492 25.7733C55.7376 25.8104 55.823 25.8289 55.9054 25.8289C55.9894 25.8289 56.0593 25.822 56.1152 25.8081C56.1712 25.7942 56.2234 25.7756 56.272 25.7524C56.3692 25.7061 56.4509 25.6497 56.5172 25.5832V23.9398Z" fill="#4F524F"/>
<path d="M58.3414 24.9713C58.3414 24.7843 58.3598 24.6182 58.3966 24.4729C58.4334 24.3277 58.4827 24.1979 58.5446 24.0835C58.6079 23.9676 58.6815 23.8664 58.7654 23.7798C58.8508 23.6933 58.9421 23.6215 59.0393 23.5643C59.2307 23.4499 59.4191 23.3927 59.6046 23.3927C59.7901 23.3927 59.9388 23.4275 60.0507 23.4971C60.1626 23.565 60.2539 23.6562 60.3246 23.7706C60.4556 23.9885 60.5211 24.2782 60.5211 24.6398C60.5211 24.7743 60.4674 24.843 60.3599 24.8461L58.8184 24.8809C58.8272 25.2162 58.9097 25.4642 59.0658 25.625C59.1983 25.7609 59.3698 25.8289 59.5803 25.8289C59.8939 25.8289 60.1487 25.7602 60.3445 25.6226C60.3577 25.6226 60.3739 25.6342 60.3931 25.6574C60.4299 25.7038 60.4483 25.7439 60.4483 25.7779C60.4483 25.8521 60.3599 25.9472 60.1833 26.0631C59.9801 26.196 59.743 26.2624 59.4721 26.2624C59.1188 26.2624 58.8412 26.1442 58.6395 25.9077C58.4408 25.676 58.3414 25.3638 58.3414 24.9713ZM58.8317 24.5819C59.2557 24.5602 59.6436 24.5316 59.9955 24.4961C60.0117 24.0047 59.8498 23.759 59.5097 23.759C59.3197 23.759 59.1644 23.8363 59.0437 23.9908C58.9333 24.133 58.8626 24.33 58.8317 24.5819Z" fill="#4F524F"/>
<path d="M65.2495 24.2156C65.2495 23.9776 65.1553 23.82 64.9668 23.7428C64.9065 23.718 64.8409 23.7057 64.7703 23.7057C64.7011 23.7057 64.6363 23.7119 64.5759 23.7242C64.517 23.7366 64.4648 23.7559 64.4191 23.7822C64.3161 23.8409 64.2645 23.9251 64.2645 24.0348C64.2645 24.1399 64.3072 24.2311 64.3926 24.3083C64.4868 24.3902 64.662 24.4915 64.9182 24.612C65.1744 24.731 65.3717 24.8616 65.5101 25.0037C65.65 25.1444 65.7199 25.3066 65.7199 25.4905C65.7199 25.6976 65.6389 25.8722 65.477 26.0144C65.287 26.1797 65.0242 26.2624 64.6886 26.2624C64.2778 26.2624 63.9936 26.1705 63.8361 25.9866C63.7816 25.9217 63.7544 25.839 63.7544 25.7385C63.7544 25.4959 63.811 25.3545 63.9244 25.3143C63.9524 25.3051 63.9789 25.3004 64.0039 25.3004C64.0731 25.3004 64.1107 25.3228 64.1166 25.3677C64.1489 25.754 64.3551 25.9472 64.7349 25.9472C64.9631 25.9472 65.1155 25.8799 65.1921 25.7455C65.2171 25.7022 65.2296 25.6497 65.2296 25.5879C65.2296 25.5261 65.2105 25.4697 65.1722 25.4187C65.1354 25.3677 65.0839 25.3205 65.0176 25.2773C64.9514 25.2324 64.8726 25.1892 64.7813 25.1475L64.4876 25.0084C64.037 24.792 63.8118 24.5046 63.8118 24.1461C63.8118 23.9143 63.9097 23.7289 64.1055 23.5898C64.291 23.4584 64.5303 23.3927 64.8233 23.3927C65.2208 23.3927 65.4681 23.4831 65.5653 23.6639C65.5903 23.7103 65.6029 23.7613 65.6029 23.8169C65.6029 23.8726 65.5999 23.9228 65.594 23.9676C65.5881 24.0109 65.5808 24.0503 65.5719 24.0858C65.5572 24.1538 65.5403 24.2017 65.5211 24.2295C65.4829 24.2589 65.4277 24.2736 65.3555 24.2736C65.2848 24.2736 65.2495 24.2543 65.2495 24.2156Z" fill="#4F524F"/>
<path d="M68.3458 24.2388L68.348 24.1554C68.348 24.126 68.3414 24.0765 68.3281 24.007C68.3149 23.9359 68.2722 23.878 68.2 23.8332C68.1294 23.7883 68.0388 23.7659 67.9284 23.7659C67.8194 23.7659 67.7223 23.7953 67.6369 23.854C67.5529 23.9112 67.4845 23.9885 67.4315 24.0858C67.3314 24.2713 67.2813 24.5193 67.2813 24.8299C67.2813 25.1235 67.349 25.3623 67.4845 25.5461C67.6229 25.7347 67.8055 25.8289 68.0322 25.8289C68.2383 25.8289 68.4356 25.7694 68.6241 25.6505C68.6697 25.6211 68.705 25.5956 68.7301 25.574C68.7448 25.574 68.7617 25.5863 68.7809 25.611C68.8177 25.6559 68.8361 25.6922 68.8361 25.72C68.8361 25.7463 68.8258 25.7772 68.8052 25.8127C68.7845 25.8467 68.7544 25.8838 68.7146 25.924C68.6763 25.9626 68.6299 26.002 68.5755 26.0422C68.521 26.0824 68.4599 26.1187 68.3922 26.1511C68.2376 26.2253 68.0793 26.2624 67.9173 26.2624C67.7554 26.2624 67.6037 26.2338 67.4624 26.1766C67.3225 26.1179 67.2018 26.0321 67.1002 25.9193C66.8823 25.6798 66.7734 25.3507 66.7734 24.9319C66.7734 24.4559 66.9118 24.0735 67.1885 23.7845C67.4403 23.5233 67.7311 23.3927 68.0609 23.3927C68.2773 23.3927 68.4577 23.4414 68.602 23.5388C68.7536 23.6408 68.8294 23.7752 68.8294 23.9421C68.8294 24.0333 68.8103 24.102 68.772 24.1484C68.7058 24.2303 68.6285 24.2713 68.5401 24.2713C68.4533 24.2713 68.3885 24.2604 68.3458 24.2388Z" fill="#4F524F"/>
<path d="M70.3445 22.9616C70.2944 22.9616 70.248 22.9539 70.2053 22.9384C70.1641 22.9214 70.128 22.8975 70.0971 22.8666C70.0323 22.8017 69.9999 22.7144 69.9999 22.6046C69.9999 22.4996 70.0382 22.4107 70.1148 22.3381C70.1884 22.2654 70.2767 22.2291 70.3798 22.2291C70.4829 22.2291 70.5653 22.2616 70.6272 22.3265C70.689 22.3914 70.7199 22.4795 70.7199 22.5907C70.7199 22.6958 70.6831 22.7847 70.6095 22.8573C70.5373 22.9268 70.449 22.9616 70.3445 22.9616ZM70.2097 26.2184C69.983 26.2184 69.8696 26.1643 69.8696 26.0561C69.8696 26.0005 69.8814 25.9572 69.905 25.9263C69.9403 25.9387 69.9727 25.9448 70.0022 25.9448C70.1391 25.9448 70.2061 25.8537 70.2031 25.6713V24.1183C70.2031 24.0101 70.1884 23.9352 70.159 23.8934C70.131 23.8502 70.0802 23.8285 70.0066 23.8285C69.9521 23.8285 69.9028 23.8355 69.8586 23.8494C69.8321 23.8525 69.813 23.8308 69.8012 23.7845C69.7909 23.7428 69.7968 23.7064 69.8188 23.6755C69.8409 23.6431 69.8748 23.6099 69.9204 23.5759C69.9676 23.5403 70.0191 23.5094 70.075 23.4831C70.1958 23.4229 70.2966 23.3927 70.3776 23.3927C70.4586 23.3927 70.5182 23.4051 70.5565 23.4298C70.5962 23.4546 70.6264 23.4878 70.647 23.5295C70.6794 23.5975 70.6956 23.7072 70.6956 23.8587V25.7107C70.7 25.8328 70.742 25.907 70.8215 25.9332C70.8436 25.941 70.8708 25.9479 70.9032 25.9541C70.9356 25.9603 70.9643 25.968 70.9893 25.9773C71.0158 25.985 71.0365 25.9943 71.0512 26.0051C71.0762 26.0252 71.0887 26.0576 71.0887 26.1025C71.0887 26.1581 71.0777 26.2006 71.0556 26.2299C71.0247 26.2222 70.9776 26.2184 70.9143 26.2184H70.2097Z" fill="#4F524F"/>
<path d="M73.496 24.2156C73.496 23.9776 73.4017 23.82 73.2133 23.7428C73.1529 23.718 73.0874 23.7057 73.0167 23.7057C72.9475 23.7057 72.8827 23.7119 72.8224 23.7242C72.7635 23.7366 72.7112 23.7559 72.6656 23.7822C72.5625 23.8409 72.511 23.9251 72.511 24.0348C72.511 24.1399 72.5537 24.2311 72.6391 24.3083C72.7333 24.3902 72.9085 24.4915 73.1647 24.612C73.4209 24.731 73.6182 24.8616 73.7566 25.0037C73.8964 25.1444 73.9664 25.3066 73.9664 25.4905C73.9664 25.6976 73.8854 25.8722 73.7234 26.0144C73.5335 26.1797 73.2707 26.2624 72.935 26.2624C72.5242 26.2624 72.2401 26.1705 72.0825 25.9866C72.0281 25.9217 72.0008 25.839 72.0008 25.7385C72.0008 25.4959 72.0575 25.3545 72.1709 25.3143C72.1989 25.3051 72.2253 25.3004 72.2504 25.3004C72.3196 25.3004 72.3571 25.3228 72.363 25.3677C72.3954 25.754 72.6015 25.9472 72.9814 25.9472C73.2096 25.9472 73.362 25.8799 73.4385 25.7455C73.4636 25.7022 73.4761 25.6497 73.4761 25.5879C73.4761 25.5261 73.4569 25.4697 73.4187 25.4187C73.3819 25.3677 73.3303 25.3205 73.2641 25.2773C73.1978 25.2324 73.119 25.1892 73.0278 25.1475L72.734 25.0084C72.2835 24.792 72.0582 24.5046 72.0582 24.1461C72.0582 23.9143 72.1562 23.7289 72.352 23.5898C72.5375 23.4584 72.7767 23.3927 73.0697 23.3927C73.4673 23.3927 73.7146 23.4831 73.8118 23.6639C73.8368 23.7103 73.8493 23.7613 73.8493 23.8169C73.8493 23.8726 73.8464 23.9228 73.8405 23.9676C73.8346 24.0109 73.8272 24.0503 73.8184 24.0858C73.8037 24.1538 73.7867 24.2017 73.7676 24.2295C73.7293 24.2589 73.6741 24.2736 73.602 24.2736C73.5313 24.2736 73.496 24.2543 73.496 24.2156Z" fill="#4F524F"/>
<path d="M76.5216 24.2156C76.5216 23.9776 76.4274 23.82 76.2389 23.7428C76.1785 23.718 76.113 23.7057 76.0423 23.7057C75.9731 23.7057 75.9084 23.7119 75.848 23.7242C75.7891 23.7366 75.7368 23.7559 75.6912 23.7822C75.5881 23.8409 75.5366 23.9251 75.5366 24.0348C75.5366 24.1399 75.5793 24.2311 75.6647 24.3083C75.7589 24.3902 75.9341 24.4915 76.1903 24.612C76.4465 24.731 76.6438 24.8616 76.7822 25.0037C76.9221 25.1444 76.992 25.3066 76.992 25.4905C76.992 25.6976 76.911 25.8722 76.7491 26.0144C76.5591 26.1797 76.2963 26.2624 75.9606 26.2624C75.5499 26.2624 75.2657 26.1705 75.1082 25.9866C75.0537 25.9217 75.0264 25.839 75.0264 25.7385C75.0264 25.4959 75.0831 25.3545 75.1965 25.3143C75.2245 25.3051 75.251 25.3004 75.276 25.3004C75.3452 25.3004 75.3827 25.3228 75.3886 25.3677C75.421 25.754 75.6271 25.9472 76.007 25.9472C76.2352 25.9472 76.3876 25.8799 76.4642 25.7455C76.4892 25.7022 76.5017 25.6497 76.5017 25.5879C76.5017 25.5261 76.4826 25.4697 76.4443 25.4187C76.4075 25.3677 76.3559 25.3205 76.2897 25.2773C76.2234 25.2324 76.1447 25.1892 76.0534 25.1475L75.7597 25.0084C75.3091 24.792 75.0839 24.5046 75.0839 24.1461C75.0839 23.9143 75.1818 23.7289 75.3776 23.5898C75.5631 23.4584 75.8024 23.3927 76.0953 23.3927C76.4929 23.3927 76.7402 23.4831 76.8374 23.6639C76.8624 23.7103 76.8749 23.7613 76.8749 23.8169C76.8749 23.8726 76.872 23.9228 76.8661 23.9676C76.8602 24.0109 76.8529 24.0503 76.844 24.0858C76.8293 24.1538 76.8124 24.2017 76.7932 24.2295C76.7549 24.2589 76.6997 24.2736 76.6276 24.2736C76.5569 24.2736 76.5216 24.2543 76.5216 24.2156Z" fill="#4F524F"/>
<path d="M78.0123 24.9388C78.0123 24.7503 78.03 24.5811 78.0653 24.4312C78.1006 24.2813 78.1492 24.1492 78.2111 24.0348C78.2729 23.9205 78.3458 23.8231 78.4297 23.7428C78.5136 23.6609 78.6034 23.5944 78.6991 23.5434C78.8861 23.443 79.0915 23.3927 79.3153 23.3927C79.6024 23.3927 79.8461 23.5025 80.0463 23.7219C80.2686 23.963 80.3798 24.2813 80.3798 24.6769C80.3798 25.1961 80.2451 25.6002 79.9756 25.8892C79.7415 26.138 79.4611 26.2624 79.1342 26.2624C78.7926 26.2624 78.5188 26.1365 78.3127 25.8846C78.1124 25.642 78.0123 25.3267 78.0123 24.9388ZM79.2645 25.8846C79.3632 25.8846 79.4515 25.8606 79.5295 25.8127C79.6076 25.7633 79.6738 25.696 79.7283 25.611C79.8372 25.4349 79.8917 25.2062 79.8917 24.9249C79.8917 24.6159 79.8343 24.3532 79.7195 24.1368C79.5899 23.888 79.4036 23.7636 79.1607 23.7636C78.9649 23.7636 78.8081 23.8424 78.6903 24.0001C78.5652 24.1669 78.5026 24.4003 78.5026 24.7001C78.5026 25.0756 78.5814 25.3723 78.7389 25.5902C78.8802 25.7864 79.0554 25.8846 79.2645 25.8846Z" fill="#4F524F"/>
<path d="M82.6236 26.2299C82.5927 26.2222 82.5456 26.2184 82.4823 26.2184H81.7336C81.5922 26.2184 81.5017 26.1921 81.4619 26.1395C81.4457 26.1195 81.4377 26.0963 81.4377 26.07C81.4377 26.0051 81.4494 25.9572 81.473 25.9263C81.5083 25.9387 81.5407 25.9448 81.5702 25.9448C81.6011 25.9448 81.6268 25.941 81.6475 25.9332C81.6681 25.924 81.6843 25.9093 81.696 25.8892C81.7167 25.8521 81.727 25.7795 81.727 25.6713V24.1554C81.727 24.0101 81.7012 23.9197 81.6497 23.8842C81.6291 23.8702 81.6018 23.8633 81.568 23.8633C81.5341 23.8633 81.5069 23.8687 81.4862 23.8795C81.4671 23.8903 81.4509 23.8981 81.4377 23.9027C81.4259 23.9073 81.4156 23.9073 81.4067 23.9027C81.3979 23.8965 81.3891 23.888 81.3802 23.8772C81.3581 23.8494 81.3471 23.8231 81.3471 23.7984C81.3471 23.7721 81.3559 23.7443 81.3736 23.7149C81.3927 23.684 81.4229 23.6493 81.4642 23.6106C81.5054 23.5705 81.5525 23.5341 81.6055 23.5017C81.7248 23.4291 81.844 23.3927 81.9633 23.3927C82.0987 23.3927 82.179 23.4855 82.204 23.6709C82.2114 23.725 82.2158 23.7814 82.2172 23.8401C82.4322 23.6408 82.6538 23.504 82.882 23.4298C82.9586 23.4051 83.0278 23.3927 83.0896 23.3927C83.1529 23.3927 83.2044 23.402 83.2442 23.4206C83.2854 23.4391 83.3178 23.4646 83.3414 23.4971C83.3855 23.5604 83.4076 23.6415 83.4076 23.7404C83.4076 23.8393 83.4032 23.9182 83.3944 23.9769C83.3855 24.0356 83.3745 24.0874 83.3612 24.1322C83.3347 24.2234 83.3097 24.2813 83.2861 24.306C83.2449 24.3508 83.1897 24.3732 83.1205 24.3732C83.0498 24.3732 83.0145 24.3516 83.0145 24.3083C83.0145 24.143 83.0079 24.0371 82.9946 23.9908C82.9696 23.9058 82.9225 23.8633 82.8533 23.8633C82.7841 23.8633 82.7215 23.8718 82.6656 23.8888C82.6096 23.9042 82.5551 23.9259 82.5021 23.9537C82.3947 24.0093 82.3004 24.0812 82.2195 24.1693V25.7107C82.2239 25.8328 82.2747 25.907 82.3718 25.9332C82.3998 25.941 82.4315 25.9479 82.4668 25.9541C82.5021 25.9603 82.5323 25.968 82.5574 25.9773C82.5839 25.985 82.6045 25.9943 82.6192 26.0051C82.6442 26.0252 82.6567 26.0576 82.6567 26.1025C82.6567 26.1581 82.6457 26.2006 82.6236 26.2299Z" fill="#4F524F"/>
<path d="M85.806 24.2156C85.806 23.9776 85.7118 23.82 85.5233 23.7428C85.463 23.718 85.3975 23.7057 85.3268 23.7057C85.2576 23.7057 85.1928 23.7119 85.1324 23.7242C85.0735 23.7366 85.0213 23.7559 84.9756 23.7822C84.8726 23.8409 84.821 23.9251 84.821 24.0348C84.821 24.1399 84.8637 24.2311 84.9491 24.3083C85.0434 24.3902 85.2186 24.4915 85.4748 24.612C85.7309 24.731 85.9282 24.8616 86.0666 25.0037C86.2065 25.1444 86.2764 25.3066 86.2764 25.4905C86.2764 25.6976 86.1954 25.8722 86.0335 26.0144C85.8436 26.1797 85.5808 26.2624 85.2451 26.2624C84.8343 26.2624 84.5501 26.1705 84.3926 25.9866C84.3381 25.9217 84.3109 25.839 84.3109 25.7385C84.3109 25.4959 84.3676 25.3545 84.4809 25.3143C84.5089 25.3051 84.5354 25.3004 84.5604 25.3004C84.6296 25.3004 84.6672 25.3228 84.6731 25.3677C84.7055 25.754 84.9116 25.9472 85.2915 25.9472C85.5197 25.9472 85.672 25.8799 85.7486 25.7455C85.7736 25.7022 85.7861 25.6497 85.7861 25.5879C85.7861 25.5261 85.767 25.4697 85.7287 25.4187C85.6919 25.3677 85.6404 25.3205 85.5741 25.2773C85.5079 25.2324 85.4291 25.1892 85.3378 25.1475L85.0441 25.0084C84.5936 24.792 84.3683 24.5046 84.3683 24.1461C84.3683 23.9143 84.4662 23.7289 84.662 23.5898C84.8475 23.4584 85.0868 23.3927 85.3798 23.3927C85.7773 23.3927 86.0247 23.4831 86.1218 23.6639C86.1469 23.7103 86.1594 23.7613 86.1594 23.8169C86.1594 23.8726 86.1564 23.9228 86.1505 23.9676C86.1447 24.0109 86.1373 24.0503 86.1285 24.0858C86.1137 24.1538 86.0968 24.2017 86.0777 24.2295C86.0394 24.2589 85.9842 24.2736 85.912 24.2736C85.8414 24.2736 85.806 24.2543 85.806 24.2156Z" fill="#4F524F"/>
<path d="M87.4425 25.8776C87.4425 25.7664 87.4771 25.6744 87.5463 25.6018C87.617 25.5276 87.7038 25.4905 87.8069 25.4905C87.9747 25.4905 88.0903 25.5678 88.1536 25.7223C88.1728 25.7702 88.1823 25.822 88.1823 25.8776C88.1823 25.9858 88.147 26.0777 88.0763 26.1535C88.0057 26.2261 87.9159 26.2624 87.8069 26.2624C87.7038 26.2624 87.617 26.2261 87.5463 26.1535C87.4771 26.0793 87.4425 25.9873 87.4425 25.8776Z" fill="#4F524F"/>
<path d="M92.2504 26.1048L91.5414 24.0024C91.4884 23.8448 91.4421 23.7659 91.4023 23.7659C91.3846 23.7659 91.364 23.7683 91.3405 23.7729C91.3169 23.7775 91.2978 23.769 91.2831 23.7474C91.2683 23.7258 91.261 23.6987 91.261 23.6663C91.261 23.6338 91.2735 23.6006 91.2985 23.5666C91.3235 23.5326 91.3552 23.5032 91.3935 23.4785C91.4789 23.4213 91.5532 23.3927 91.6165 23.3927C91.6813 23.3927 91.7292 23.3943 91.7601 23.3974C91.791 23.4005 91.8204 23.4113 91.8484 23.4298C91.9044 23.4685 91.9515 23.5558 91.9898 23.6918L92.5573 25.7084C92.6972 25.2757 92.7878 24.9898 92.829 24.8508C92.9747 24.3346 93.0719 23.9529 93.1205 23.7057C93.1308 23.65 93.1794 23.6029 93.2663 23.5643C93.334 23.5349 93.3914 23.5202 93.4385 23.5202C93.4856 23.5202 93.5166 23.5241 93.5313 23.5318C93.5475 23.538 93.5593 23.5504 93.5666 23.5689C93.5843 23.606 93.5975 23.6508 93.6064 23.7034L94.1938 25.7246C94.3042 25.4418 94.3793 25.2433 94.4191 25.1289L94.5339 24.7905C94.6561 24.4212 94.7172 24.133 94.7172 23.9259C94.7172 23.7791 94.6495 23.6972 94.5141 23.6802C94.4993 23.6554 94.492 23.63 94.492 23.6037C94.492 23.5759 94.5045 23.5488 94.5295 23.5226C94.5545 23.4947 94.5869 23.4708 94.6267 23.4507C94.7062 23.4121 94.7864 23.3927 94.8674 23.3927C94.9499 23.3927 95.0132 23.3974 95.0573 23.4067C95.1015 23.4159 95.1368 23.4322 95.1633 23.4553C95.2134 23.5017 95.2384 23.5712 95.2384 23.6639C95.2384 23.7551 95.2289 23.8478 95.2097 23.9421C95.1906 24.0348 95.1648 24.1368 95.1324 24.2481C95.1 24.3593 95.0625 24.476 95.0198 24.5981C94.8593 25.0462 94.7423 25.3538 94.6686 25.5206L94.5074 25.873C94.475 25.941 94.45 25.9904 94.4323 26.0213L94.3771 26.1117C94.3153 26.2122 94.2424 26.2624 94.1585 26.2624C94.0672 26.2624 93.9921 26.2369 93.9332 26.1859C93.9097 26.1643 93.8927 26.1372 93.8824 26.1048L93.3347 24.4451C93.1875 24.9288 93.094 25.2317 93.0543 25.3538C92.9335 25.7092 92.8606 25.9139 92.8356 25.968C92.8106 26.0206 92.7885 26.0638 92.7694 26.0978C92.7502 26.1303 92.7289 26.1581 92.7053 26.1813C92.6523 26.2354 92.5941 26.2624 92.5308 26.2624C92.4425 26.2624 92.3667 26.2354 92.3034 26.1813C92.2798 26.1612 92.2621 26.1357 92.2504 26.1048Z" fill="#4F524F"/>
<path d="M96.7137 22.9616C96.6636 22.9616 96.6173 22.9539 96.5746 22.9384C96.5333 22.9214 96.4973 22.8975 96.4663 22.8666C96.4016 22.8017 96.3692 22.7144 96.3692 22.6046C96.3692 22.4996 96.4075 22.4107 96.484 22.3381C96.5576 22.2654 96.646 22.2291 96.749 22.2291C96.8521 22.2291 96.9345 22.2616 96.9964 22.3265C97.0582 22.3914 97.0891 22.4795 97.0891 22.5907C97.0891 22.6958 97.0523 22.7847 96.9787 22.8573C96.9066 22.9268 96.8182 22.9616 96.7137 22.9616ZM96.579 26.2184C96.3522 26.2184 96.2389 26.1643 96.2389 26.0561C96.2389 26.0005 96.2507 25.9572 96.2742 25.9263C96.3095 25.9387 96.3419 25.9448 96.3714 25.9448C96.5083 25.9448 96.5753 25.8537 96.5724 25.6713V24.1183C96.5724 24.0101 96.5576 23.9352 96.5282 23.8934C96.5002 23.8502 96.4494 23.8285 96.3758 23.8285C96.3213 23.8285 96.272 23.8355 96.2278 23.8494C96.2013 23.8525 96.1822 23.8308 96.1704 23.7845C96.1601 23.7428 96.166 23.7064 96.1881 23.6755C96.2102 23.6431 96.244 23.6099 96.2897 23.5759C96.3368 23.5403 96.3883 23.5094 96.4443 23.4831C96.565 23.4229 96.6658 23.3927 96.7468 23.3927C96.8278 23.3927 96.8874 23.4051 96.9257 23.4298C96.9655 23.4546 96.9957 23.4878 97.0163 23.5295C97.0487 23.5975 97.0648 23.7072 97.0648 23.8587V25.7107C97.0693 25.8328 97.1112 25.907 97.1907 25.9332C97.2128 25.941 97.2401 25.9479 97.2724 25.9541C97.3048 25.9603 97.3335 25.968 97.3586 25.9773C97.3851 25.985 97.4057 25.9943 97.4204 26.0051C97.4454 26.0252 97.458 26.0576 97.458 26.1025C97.458 26.1581 97.4469 26.2006 97.4248 26.2299C97.3939 26.2222 97.3468 26.2184 97.2835 26.2184H96.579Z" fill="#4F524F"/>
<path d="M99.1099 24.6375L99.1077 25.2471C99.1077 25.5021 99.1202 25.6559 99.1452 25.7084C99.1703 25.7594 99.1997 25.7903 99.2336 25.8011C99.2674 25.8104 99.3109 25.815 99.3639 25.815C99.4169 25.815 99.4647 25.8112 99.5074 25.8034C99.5516 25.7942 99.5928 25.7826 99.6311 25.7687C99.6694 25.7548 99.7062 25.7393 99.7415 25.7223L99.8497 25.6736C99.8748 25.6644 99.9027 25.6914 99.9337 25.7548C99.9425 25.7718 99.9469 25.7919 99.9469 25.815C99.9469 25.8367 99.9381 25.8653 99.9204 25.9008C99.9027 25.9363 99.8681 25.9773 99.8166 26.0236C99.7666 26.0685 99.7077 26.1086 99.6399 26.1442C99.4927 26.223 99.3602 26.2624 99.2424 26.2624C99.1261 26.2624 99.0311 26.2554 98.9575 26.2415C98.8839 26.2276 98.8213 26.1998 98.7698 26.1581C98.6638 26.0716 98.6108 25.9132 98.6108 25.6829V23.8587H98.3921C98.3465 23.8587 98.3134 23.8432 98.2928 23.8123C98.2574 23.7644 98.2398 23.7242 98.2398 23.6918C98.2398 23.6377 98.2523 23.6075 98.2773 23.6014C98.5114 23.5596 98.677 23.3773 98.7742 23.0543C98.8022 22.957 98.8243 22.8418 98.8405 22.7089C98.9111 22.6966 98.9641 22.6904 98.9995 22.6904C99.0363 22.6904 99.0679 22.7097 99.0944 22.7483C99.1209 22.787 99.1335 22.8318 99.132 22.8828C99.132 22.9338 99.1312 22.9817 99.1298 23.0265C99.1283 23.0713 99.1268 23.12 99.1254 23.1725L99.1165 23.4971H99.8807C99.8998 23.5326 99.9094 23.5705 99.9094 23.6106V23.6825C99.9094 23.7474 99.8762 23.8007 99.81 23.8424C99.7437 23.8826 99.6701 23.9027 99.5891 23.9027C99.5096 23.9027 99.4522 23.9019 99.4169 23.9004C99.383 23.8973 99.3499 23.8942 99.3175 23.8911L99.2203 23.8772C99.1865 23.8741 99.1504 23.871 99.1121 23.8679V23.8934L99.1099 24.6375Z" fill="#4F524F"/>
<path d="M102.076 26.2299C102.046 26.2222 101.999 26.2184 101.935 26.2184H101.23C101.089 26.2184 100.998 26.1921 100.958 26.1395C100.942 26.1195 100.934 26.0963 100.934 26.07C100.934 26.0051 100.946 25.9572 100.969 25.9263C101.005 25.9387 101.045 25.9448 101.091 25.9448C101.137 25.9448 101.17 25.9255 101.192 25.8869C101.215 25.8483 101.225 25.7764 101.223 25.6713V22.7993C101.223 22.6927 101.213 22.624 101.192 22.593C101.162 22.5436 101.107 22.5189 101.029 22.5189H100.985C100.972 22.5189 100.956 22.5212 100.939 22.5258C100.922 22.5289 100.908 22.5274 100.897 22.5212C100.885 22.5135 100.874 22.5034 100.866 22.4911C100.835 22.4431 100.87 22.3782 100.972 22.2963C101.12 22.1774 101.272 22.1179 101.427 22.1179C101.594 22.1179 101.689 22.2129 101.709 22.403C101.715 22.4601 101.718 22.5204 101.718 22.5838V23.8471C101.94 23.6508 102.178 23.5141 102.431 23.4368C102.524 23.4074 102.618 23.3927 102.712 23.3927C102.808 23.3927 102.898 23.4059 102.984 23.4322C103.07 23.4584 103.145 23.5009 103.207 23.5596C103.342 23.6864 103.41 23.8795 103.41 24.1391V25.6945C103.41 25.8228 103.451 25.9016 103.533 25.9309C103.557 25.9402 103.585 25.9479 103.617 25.9541C103.65 25.9603 103.679 25.968 103.704 25.9773C103.73 25.985 103.751 25.9943 103.765 26.0051C103.79 26.0252 103.803 26.0576 103.803 26.1025C103.803 26.1581 103.792 26.2006 103.77 26.2299C103.739 26.2222 103.692 26.2184 103.628 26.2184H102.924C102.783 26.2184 102.692 26.1921 102.652 26.1395C102.636 26.1195 102.628 26.0963 102.628 26.07C102.628 26.0036 102.639 25.9557 102.661 25.9263C102.698 25.9387 102.738 25.9448 102.78 25.9448C102.823 25.9448 102.855 25.9286 102.878 25.8962C102.901 25.8637 102.914 25.8042 102.917 25.7177V24.3037C102.917 24.041 102.843 23.8942 102.694 23.8633C102.649 23.854 102.591 23.8494 102.522 23.8494C102.454 23.8494 102.379 23.8602 102.297 23.8818C102.216 23.9035 102.139 23.9313 102.067 23.9653C101.924 24.0333 101.808 24.1144 101.718 24.2087V25.6945C101.718 25.8228 101.759 25.9016 101.842 25.9309C101.865 25.9402 101.893 25.9479 101.926 25.9541C101.958 25.9603 101.987 25.968 102.012 25.9773C102.038 25.985 102.059 25.9943 102.074 26.0051C102.099 26.0252 102.111 26.0576 102.111 26.1025C102.111 26.1565 102.099 26.199 102.076 26.2299Z" fill="#4F524F"/>
<path d="M107.213 26.2184C106.988 26.2184 106.875 26.1643 106.875 26.0561C106.875 25.9989 106.886 25.9557 106.908 25.9263C106.943 25.9387 106.977 25.9448 107.007 25.9448C107.136 25.9448 107.202 25.8637 107.206 25.7014V22.7993C107.206 22.6912 107.196 22.6224 107.175 22.593C107.141 22.5436 107.087 22.5189 107.012 22.5189C106.978 22.5189 106.945 22.5227 106.912 22.5305C106.882 22.5366 106.859 22.5366 106.846 22.5305C106.834 22.5227 106.825 22.5127 106.817 22.5003C106.788 22.4493 106.825 22.3844 106.928 22.3056C107.09 22.1804 107.25 22.1179 107.407 22.1179C107.575 22.1179 107.669 22.2129 107.69 22.403C107.696 22.4601 107.699 22.5204 107.699 22.5838V25.7107C107.703 25.8313 107.745 25.9054 107.825 25.9332C107.848 25.941 107.875 25.9479 107.906 25.9541C107.939 25.9603 107.968 25.968 107.995 25.9773C108.021 25.985 108.042 25.9943 108.056 26.0051C108.081 26.0252 108.094 26.0576 108.094 26.1025C108.094 26.1565 108.082 26.199 108.059 26.2299C108.029 26.2222 107.982 26.2184 107.917 26.2184H107.213Z" fill="#4F524F"/>
<path d="M108.953 24.9388C108.953 24.7503 108.971 24.5811 109.006 24.4312C109.041 24.2813 109.09 24.1492 109.152 24.0348C109.214 23.9205 109.287 23.8231 109.37 23.7428C109.454 23.6609 109.544 23.5944 109.64 23.5434C109.827 23.443 110.032 23.3927 110.256 23.3927C110.543 23.3927 110.787 23.5025 110.987 23.7219C111.209 23.963 111.321 24.2813 111.321 24.6769C111.321 25.1961 111.186 25.6002 110.916 25.8892C110.682 26.138 110.402 26.2624 110.075 26.2624C109.733 26.2624 109.46 26.1365 109.253 25.8846C109.053 25.642 108.953 25.3267 108.953 24.9388ZM110.205 25.8846C110.304 25.8846 110.392 25.8606 110.47 25.8127C110.548 25.7633 110.615 25.696 110.669 25.611C110.778 25.4349 110.833 25.2062 110.833 24.9249C110.833 24.6159 110.775 24.3532 110.66 24.1368C110.531 23.888 110.344 23.7636 110.101 23.7636C109.906 23.7636 109.749 23.8424 109.631 24.0001C109.506 24.1669 109.443 24.4003 109.443 24.7001C109.443 25.0756 109.522 25.3723 109.68 25.5902C109.821 25.7864 109.996 25.8846 110.205 25.8846Z" fill="#4F524F"/>
<path d="M113.158 26.1048C112.666 24.7573 112.413 24.0619 112.398 24.0186C112.384 23.9738 112.368 23.9328 112.352 23.8957C112.315 23.8092 112.282 23.7659 112.253 23.7659C112.233 23.7659 112.212 23.7683 112.189 23.7729C112.165 23.7775 112.146 23.769 112.131 23.7474C112.116 23.7258 112.109 23.6987 112.109 23.6663C112.109 23.6338 112.123 23.6006 112.151 23.5666C112.18 23.5326 112.216 23.5032 112.259 23.4785C112.352 23.4213 112.426 23.3927 112.48 23.3927C112.535 23.3927 112.578 23.3943 112.61 23.3974C112.643 23.4005 112.673 23.4121 112.701 23.4322C112.76 23.4723 112.809 23.5589 112.849 23.6918L113.496 25.7177C113.599 25.4998 113.676 25.3329 113.726 25.217L113.863 24.8786C114.027 24.4521 114.11 24.1523 114.11 23.9792V23.9491C114.11 23.8718 114.093 23.8108 114.059 23.7659C114.027 23.7211 113.969 23.6941 113.885 23.6848C113.87 23.6601 113.863 23.6346 113.863 23.6083C113.863 23.5805 113.877 23.5535 113.904 23.5272C113.934 23.4994 113.971 23.4754 114.015 23.4553C114.106 23.4136 114.206 23.3927 114.313 23.3927C114.422 23.3927 114.506 23.4105 114.565 23.4461C114.625 23.4801 114.655 23.5481 114.655 23.65C114.655 23.8664 114.516 24.2968 114.236 24.9412L114.035 25.3839C113.896 25.6775 113.792 25.8768 113.721 25.9819C113.595 26.1689 113.483 26.2624 113.388 26.2624C113.319 26.2624 113.257 26.2338 113.202 26.1766C113.183 26.1565 113.168 26.1326 113.158 26.1048Z" fill="#4F524F"/>
<path d="M115.629 24.9713C115.629 24.7843 115.648 24.6182 115.685 24.4729C115.721 24.3277 115.771 24.1979 115.832 24.0835C115.896 23.9676 115.969 23.8664 116.053 23.7798C116.139 23.6933 116.23 23.6215 116.327 23.5643C116.519 23.4499 116.707 23.3927 116.893 23.3927C117.078 23.3927 117.227 23.4275 117.339 23.4971C117.451 23.565 117.542 23.6562 117.613 23.7706C117.744 23.9885 117.809 24.2782 117.809 24.6398C117.809 24.7743 117.755 24.843 117.648 24.8461L116.106 24.8809C116.115 25.2162 116.198 25.4642 116.354 25.625C116.486 25.7609 116.658 25.8289 116.868 25.8289C117.182 25.8289 117.437 25.7602 117.632 25.6226C117.646 25.6226 117.662 25.6342 117.681 25.6574C117.718 25.7038 117.736 25.7439 117.736 25.7779C117.736 25.8521 117.648 25.9472 117.471 26.0631C117.268 26.196 117.031 26.2624 116.76 26.2624C116.407 26.2624 116.129 26.1442 115.927 25.9077C115.729 25.676 115.629 25.3638 115.629 24.9713ZM116.12 24.5819C116.544 24.5602 116.932 24.5316 117.283 24.4961C117.3 24.0047 117.138 23.759 116.798 23.759C116.608 23.759 116.452 23.8363 116.332 23.9908C116.221 24.133 116.151 24.33 116.12 24.5819Z" fill="#4F524F"/>
<path d="M118.993 25.8776C118.993 25.7664 119.027 25.6744 119.097 25.6018C119.167 25.5276 119.254 25.4905 119.357 25.4905C119.525 25.4905 119.641 25.5678 119.704 25.7223C119.723 25.7702 119.733 25.822 119.733 25.8776C119.733 25.9858 119.697 26.0777 119.627 26.1535C119.556 26.2261 119.466 26.2624 119.357 26.2624C119.254 26.2624 119.167 26.2261 119.097 26.1535C119.027 26.0793 118.993 25.9873 118.993 25.8776Z" fill="#4F524F"/>
</svg>
