<svg width="163" height="55" viewBox="0 0 163 55" fill="none" xmlns="http://www.w3.org/2000/svg">
<path d="M150.818 30.6292C150.788 30.5165 150.747 30.41 150.698 30.3085L153.753 27.8152L161.827 27.9526L162.522 27.4931L155.537 26.359L161.019 21.8843L160.188 21.8338L153.264 25.99L149.372 25.3582C149.363 25.2458 149.345 25.133 149.315 25.0203C149.051 24.0347 148.04 23.4493 147.056 23.7129C146.072 23.9765 145.489 24.9892 145.753 25.9748C146.017 26.9604 147.029 27.5458 148.012 27.2822C148.616 27.1204 149.068 26.6758 149.267 26.1291L150.94 26.5262C151.394 26.6342 151.778 26.9175 152.021 27.301C152.003 27.755 151.812 28.1921 151.472 28.5128L150.222 29.6932C149.776 29.3191 149.163 29.16 148.559 29.3218C147.575 29.5854 146.992 30.598 147.256 31.5837C147.52 32.5693 148.532 33.1546 149.515 32.8911C150.499 32.6275 151.082 31.6148 150.818 30.6292ZM146.516 25.7703C146.366 25.2071 146.699 24.6284 147.261 24.4778C147.823 24.3272 148.401 24.6617 148.552 25.2249C148.703 25.788 148.369 26.3668 147.807 26.5174C147.245 26.668 146.667 26.3334 146.516 25.7703ZM153.443 27.1934L152.934 27.3298L152.797 26.8199L153.306 26.6835L153.443 27.1934ZM148.019 31.3791C147.868 30.816 148.202 30.2372 148.764 30.0866C149.326 29.936 149.904 30.2705 150.055 30.8337C150.206 31.3969 149.872 31.9756 149.31 32.1262C148.748 32.2768 148.17 31.9423 148.019 31.3791Z" fill="#131B12"/>
<path fill-rule="evenodd" clip-rule="evenodd" d="M35.2307 15.8042C35.323 15.1515 35.3691 14.1958 35.3691 12.9371C35.3691 11.6783 35.1269 10.5361 34.6425 9.51049C34.158 8.46154 33.5006 7.64569 32.6701 7.06294C31.2168 6.06061 29.0253 5.55944 26.0956 5.55944C23.189 5.55944 20.6169 6.09557 18.3793 7.16783C16.1647 8.21678 14.3077 9.69697 12.8083 11.6084C10.1364 15.009 8.64567 19.4939 8.33616 25.0629H0.239056C0.578859 22.3806 1.20454 19.8771 2.11608 17.5524C3.56939 13.8462 5.55327 10.6993 8.06772 8.11189C10.5822 5.50117 13.5119 3.4965 16.8568 2.0979C20.2247 0.699301 23.4889 0 26.6493 0C29.8327 0 32.3818 0.268065 34.2964 0.804196C36.2111 1.34033 37.8028 2.07459 39.0716 3.00699C41.6091 4.91842 42.8779 7.45921 42.8779 10.6294C42.8779 13.0536 41.9897 14.7669 40.2135 15.7692C39.6137 16.1189 38.9678 16.2937 38.2757 16.2937C36.8455 16.2937 35.8305 16.1305 35.2307 15.8042ZM0 32.2238C0.389443 38.7605 2.55964 44.0565 6.5106 48.1119C10.9397 52.704 16.8914 55 24.3655 55C29.579 55 34.0542 53.7646 37.7913 51.2937C39.3599 50.2681 40.548 49.2075 41.3554 48.1119C42.1858 46.993 42.601 46.1538 42.601 45.5944C42.601 45.0117 42.5318 44.5455 42.3934 44.1958C41.9551 43.1702 41.39 42.5524 40.6979 42.3427C39.9597 43.1585 39.1408 43.9161 38.2411 44.6154C35.2653 46.9697 31.113 48.1469 25.7842 48.1469C20.3632 48.1469 16.0609 46.2005 12.8775 42.3077C10.6588 39.6107 9.24239 36.2494 8.62812 32.2238H0ZM52.4624 32.2238C51.0555 34.5944 50.352 37.2331 50.352 40.1399C50.352 44.8718 52.2552 48.6014 56.0614 51.3287C59.4294 53.7296 63.3741 54.9301 67.8955 54.9301C74.7699 54.9301 81.0791 52.7273 86.8231 48.3217L92.6017 52.4476C95.0008 54.1492 97.1231 55 98.9686 55C100.883 55 102.683 54.1725 104.367 52.5175C105.082 51.8182 105.658 51.0606 106.097 50.2448C106.535 49.4056 106.754 48.7413 106.754 48.2517C106.754 47.7389 106.535 47.3193 106.097 46.993C105.912 46.8765 105.716 46.7832 105.508 46.7133C105.324 46.6434 105.151 46.6317 104.989 46.6783C104.851 46.7249 104.47 46.9697 103.848 47.4126C103.225 47.8322 102.452 48.042 101.529 48.042C99.799 48.042 97.6768 47.1329 95.1623 45.3147L92.2557 43.1818C93.4783 41.7599 94.551 40.3147 95.4737 38.8462C96.9919 36.4318 98.1006 34.2243 98.7998 32.2238L90.0243 32.2238C89.1877 34.7026 88.1206 36.9683 86.8231 39.021C84.6974 37.373 81.924 35.1073 78.5029 32.2238H66.9093C67.4942 32.8008 68.1228 33.4115 68.7952 34.0559C71.0328 36.1772 75.3927 39.7319 81.8749 44.7203C78.3455 47.6107 74.0547 49.0559 69.0028 49.0559C66.2115 49.0559 63.8124 48.1119 61.8055 46.2238C59.5909 44.1725 58.4836 41.352 58.4836 37.7622C58.4836 35.7417 59.0312 33.8956 60.1265 32.2238L52.4624 32.2238ZM91.7158 25.0629H99.2647C98.542 23.3193 96.9092 22.4476 94.3664 22.4476C93.559 22.4476 92.7747 22.5175 92.0135 22.6573C91.9316 23.4753 91.8324 24.2772 91.7158 25.0629ZM129.213 32.2238C131.389 33.2495 133.199 34.3031 134.644 35.3846C135.866 36.317 136.847 37.331 137.585 38.4266C138.323 39.5221 138.692 40.7692 138.692 42.1678C138.692 43.5431 138.427 44.7436 137.896 45.7692C136.374 48.7063 133.387 50.1748 128.934 50.1748C125.059 50.1748 122.037 49.2541 119.868 47.4126C117.723 45.5711 116.501 42.634 116.201 38.6014C115.97 37.7156 115.116 37.2727 113.64 37.2727C112.879 37.2727 112.279 37.5408 111.841 38.0769C110.549 40.338 109.903 42.7739 109.903 45.3846C109.903 46.69 110.168 47.7972 110.699 48.7063C111.737 50.5012 113.479 51.8881 115.924 52.8671C119.246 54.2424 123.075 54.9301 127.412 54.9301C132.879 54.9301 137.424 53.648 141.045 51.0839C144.921 48.3333 146.858 44.7086 146.858 40.2098C146.858 37.1999 146.01 34.5379 144.312 32.2238H129.213ZM134.542 25.0629L116.091 25.0629C115.881 24.871 115.675 24.6751 115.474 24.4755C112.614 21.6317 111.183 18.1235 111.183 13.951C111.183 9.68531 112.994 6.2704 116.616 3.70629C120.099 1.23543 124.598 0 130.111 0C137.101 0 141.668 1.45688 143.813 4.37063C144.598 5.41958 144.99 6.79487 144.99 8.4965C144.99 10.1981 144.828 11.6783 144.506 12.9371C144.206 14.1958 143.906 15.0117 143.606 15.3846C143.098 16.014 142.222 16.3287 140.976 16.3287C139.753 16.3287 139.142 16.0256 139.142 15.4196C139.142 10.0816 137.262 6.7366 133.502 5.38462C132.21 4.91841 130.699 4.68531 128.969 4.68531C127.239 4.68531 125.751 4.88345 124.505 5.27972C123.26 5.67599 122.221 6.21212 121.391 6.88811C119.707 8.2634 118.865 10.0816 118.865 12.3427C118.865 15.7692 121.356 18.6946 126.339 21.1189L130.664 23.1818C131.989 23.7996 133.282 24.4266 134.542 25.0629ZM70.7256 25.0629L60.1835 25.0629C60.2627 25.0181 60.342 24.9738 60.4213 24.9301C57.5609 20.9674 56.1306 17.4242 56.1306 14.3007C56.1306 10.1515 57.6531 6.74825 60.6982 4.09091C63.5587 1.62005 66.9151 0.384615 70.7675 0.384615C74.1816 0.384615 77.0075 1.07226 79.2451 2.44755C81.7596 3.98601 83.0168 6.14219 83.0168 8.91608C83.0168 11.9464 81.6442 14.0676 78.8991 15.2797C78.3455 15.4662 77.838 15.5594 77.3766 15.5594C76.9383 15.5594 76.4885 15.3613 76.0271 14.965C76.1886 14.2657 76.2693 13.4266 76.2693 12.4476V11.6434C76.0617 9.91842 75.3581 8.55478 74.1586 7.55245C72.959 6.52681 71.3096 6.01399 69.2104 6.01399C66.4191 6.01399 64.5044 7.01632 63.4664 9.02098C63.0742 9.7669 62.8781 10.7343 62.8781 11.9231C62.8781 13.1119 63.2126 14.4289 63.8816 15.8741C64.5506 17.296 65.4618 18.7762 66.6152 20.3147C67.7917 21.8531 69.1527 23.4266 70.6983 25.035C70.7074 25.0443 70.7165 25.0536 70.7256 25.0629Z" fill="#131B12"/>
<path d="M3.85613 26.8398C3.72492 26.8398 3.65672 26.9827 3.65154 27.2684V28.8959C3.65154 29.4927 3.51083 29.9484 3.22942 30.2631C2.95318 30.5759 2.55867 30.7323 2.0459 30.7323C1.61082 30.7323 1.2543 30.6175 0.976335 30.3878C0.624129 30.1003 0.448026 29.6229 0.448026 28.9556V27.0894C0.4463 27.0116 0.437667 26.9574 0.422129 26.9266C0.408317 26.8959 0.375513 26.8751 0.323718 26.8643C0.271923 26.8534 0.225308 26.8435 0.183872 26.8344C0.144163 26.8236 0.110496 26.8109 0.0828719 26.7964C0.027624 26.7675 0 26.7187 0 26.65C0 26.5867 0.013812 26.5369 0.041436 26.5008C0.0811454 26.5152 0.166607 26.5225 0.297821 26.5225H1.30264C1.49946 26.5225 1.59787 26.5921 1.59787 26.7313C1.59787 26.7928 1.58493 26.8389 1.55903 26.8697C1.49515 26.8516 1.43472 26.8426 1.37775 26.8426C1.3225 26.8426 1.27761 26.8498 1.24308 26.8643C1.21028 26.8769 1.18006 26.9004 1.15244 26.9348C1.09028 27.0125 1.05921 27.1328 1.05921 27.2955V28.7657C1.05921 29.3245 1.16625 29.726 1.38034 29.9701C1.54608 30.1564 1.7757 30.2495 2.06921 30.2495C2.8116 30.2495 3.1828 29.7649 3.1828 28.7956V27.1626C3.1828 27.0198 3.14482 26.9303 3.06885 26.8941C3.04468 26.8814 3.01101 26.8706 2.96785 26.8615C2.92641 26.8525 2.88498 26.8435 2.84354 26.8344C2.80383 26.8236 2.77017 26.8109 2.74254 26.7964C2.68729 26.7675 2.65967 26.7187 2.65967 26.65C2.65967 26.5831 2.67348 26.5333 2.70111 26.5008C2.74082 26.5152 2.82628 26.5225 2.95749 26.5225H3.81729C3.90534 26.5225 3.97613 26.5369 4.02965 26.5659C4.0849 26.5948 4.11252 26.6491 4.11252 26.7286C4.11252 26.7901 4.09957 26.8362 4.07367 26.867C4.00461 26.8489 3.9321 26.8398 3.85613 26.8398Z" fill="#131B12"/>
<path d="M6.4407 30.6943C6.40617 30.6853 6.35092 30.6808 6.27496 30.6808H5.49803C5.33229 30.6808 5.22611 30.65 5.17949 30.5886C5.1605 30.565 5.15101 30.5379 5.15101 30.5072C5.15101 30.4312 5.16482 30.3752 5.19244 30.339C5.23388 30.3535 5.28136 30.3607 5.33488 30.3607C5.3884 30.3607 5.42811 30.3381 5.45401 30.2929C5.47991 30.2477 5.49199 30.1636 5.49026 30.0406V26.6798C5.49026 26.555 5.47818 26.4746 5.45401 26.4384C5.41775 26.3805 5.35387 26.3516 5.26237 26.3516C5.23474 26.3516 5.20626 26.3552 5.17691 26.3624C5.14928 26.3679 5.1277 26.367 5.11216 26.3597C5.09835 26.3507 5.08713 26.3389 5.0785 26.3245C5.05605 26.2883 5.05778 26.2521 5.08367 26.216C5.1113 26.178 5.15014 26.1382 5.20021 26.0966C5.25028 26.055 5.30553 26.0189 5.36596 25.9881C5.49544 25.9176 5.6068 25.8823 5.70003 25.8823C5.79499 25.8823 5.86491 25.8968 5.9098 25.9257C5.95642 25.9547 5.99095 25.9935 6.01339 26.0424C6.05138 26.1219 6.07037 26.2503 6.07037 26.4275V30.0678C6.07037 30.2178 6.11353 30.3101 6.19986 30.3444C6.22403 30.3553 6.25251 30.3643 6.28532 30.3716C6.31985 30.3788 6.35092 30.3878 6.37855 30.3987C6.40617 30.4077 6.42775 30.4186 6.44329 30.4312C6.46919 30.4547 6.48214 30.4927 6.48214 30.5452C6.48214 30.6084 6.46833 30.6582 6.4407 30.6943ZM7.53617 27.3742C7.8055 27.3742 7.94017 27.461 7.94017 27.6346C7.94017 27.8534 7.7304 28.1554 7.31086 28.5406C7.14857 28.6907 6.98541 28.8191 6.82139 28.9258C6.93189 29.0325 7.04498 29.1708 7.16065 29.3408L7.43258 29.7422C7.66047 30.084 7.83226 30.2549 7.94794 30.2549C8.04289 30.2549 8.10505 30.245 8.1344 30.2251C8.16547 30.2052 8.18792 30.1943 8.20173 30.1925C8.21554 30.1907 8.23367 30.197 8.25611 30.2115C8.27856 30.226 8.28978 30.2504 8.28978 30.2848C8.28978 30.3191 8.27597 30.3625 8.24835 30.415C8.22245 30.4656 8.18533 30.5144 8.13699 30.5614C8.01958 30.6754 7.89269 30.7323 7.75629 30.7323C7.6199 30.7323 7.50509 30.6989 7.41186 30.632C7.31863 30.5632 7.23144 30.4755 7.15029 30.3688C7.06915 30.2603 6.99232 30.1401 6.91981 30.0081L6.70486 29.6229C6.53048 29.3082 6.38114 29.1039 6.25683 29.0099C6.18432 28.9574 6.16015 28.924 6.18432 28.9095L6.25942 28.8661L6.67637 28.5542C6.8542 28.4149 6.97678 28.3055 7.04411 28.2259C7.17533 28.0722 7.24093 27.9438 7.24093 27.8408C7.24093 27.7684 7.17187 27.7268 7.03375 27.716C7.01649 27.6871 7.00786 27.6563 7.00786 27.6238C7.00786 27.5912 7.02426 27.5596 7.05706 27.5288C7.09159 27.4963 7.13475 27.4692 7.18655 27.4475C7.29705 27.3986 7.41358 27.3742 7.53617 27.3742Z" fill="#131B12"/>
<path d="M10.6335 30.6943C10.5972 30.6853 10.542 30.6808 10.4678 30.6808H9.58984C9.42409 30.6808 9.31791 30.65 9.2713 30.5886C9.25231 30.565 9.24281 30.5379 9.24281 30.5072C9.24281 30.4312 9.25662 30.3752 9.28424 30.339C9.32568 30.3535 9.36366 30.3607 9.39819 30.3607C9.43445 30.3607 9.46466 30.3562 9.48884 30.3471C9.51301 30.3363 9.532 30.3191 9.54581 30.2956C9.56998 30.2522 9.58207 30.1672 9.58207 30.0406V28.2666C9.58207 28.0966 9.55185 27.9909 9.49142 27.9493C9.46725 27.933 9.43531 27.9249 9.3956 27.9249C9.3559 27.9249 9.32395 27.9312 9.29978 27.9438C9.27734 27.9565 9.25835 27.9655 9.24281 27.971C9.229 27.9764 9.21691 27.9764 9.20655 27.971C9.19619 27.9637 9.18583 27.9538 9.17548 27.9411C9.14958 27.9086 9.13663 27.8778 9.13663 27.8489C9.13663 27.8182 9.14699 27.7856 9.16771 27.7513C9.19015 27.7151 9.22554 27.6744 9.27389 27.6292C9.32223 27.5822 9.37748 27.5397 9.43963 27.5017C9.57948 27.4167 9.71932 27.3742 9.85917 27.3742C10.018 27.3742 10.1121 27.4827 10.1415 27.6997C10.1501 27.763 10.1553 27.829 10.157 27.8977C10.4091 27.6645 10.6689 27.5044 10.9365 27.4176C11.0263 27.3887 11.1074 27.3742 11.1799 27.3742C11.2542 27.3742 11.3146 27.3851 11.3612 27.4068C11.4096 27.4285 11.4475 27.4583 11.4752 27.4963C11.527 27.5704 11.5529 27.6654 11.5529 27.7811C11.5529 27.8968 11.5477 27.9891 11.5373 28.0578C11.527 28.1265 11.514 28.1871 11.4985 28.2395C11.4674 28.3462 11.4381 28.414 11.4104 28.4429C11.3621 28.4954 11.2973 28.5216 11.2162 28.5216C11.1333 28.5216 11.0919 28.4963 11.0919 28.4457C11.0919 28.2522 11.0841 28.1283 11.0686 28.074C11.0392 27.9746 10.984 27.9249 10.9028 27.9249C10.8217 27.9249 10.7483 27.9348 10.6827 27.9547C10.6171 27.9728 10.5532 27.9981 10.4911 28.0306C10.365 28.0957 10.2545 28.1798 10.1596 28.2829V30.0867C10.1648 30.2296 10.2243 30.3164 10.3383 30.3471C10.3711 30.3562 10.4082 30.3643 10.4496 30.3716C10.4911 30.3788 10.5265 30.3878 10.5558 30.3987C10.5869 30.4077 10.6111 30.4186 10.6283 30.4312C10.6577 30.4547 10.6723 30.4927 10.6723 30.5452C10.6723 30.6103 10.6594 30.66 10.6335 30.6943Z" fill="#131B12"/>
<path d="M14.4197 30.3363C14.1676 30.6003 13.8629 30.7323 13.5055 30.7323C13.2293 30.7323 13.0083 30.6491 12.8426 30.4828C12.6751 30.3146 12.5914 30.0967 12.5914 29.829C12.5914 29.4963 12.7329 29.2468 13.0161 29.0804C13.2716 28.9285 13.6316 28.8525 14.096 28.8525H14.4197C14.4214 28.7838 14.4223 28.7169 14.4223 28.6518V28.4484C14.4223 28.2061 14.3886 28.0352 14.3213 27.9357C14.2453 27.8236 14.1159 27.7675 13.9328 27.7675C13.5133 27.7675 13.2975 27.9249 13.2854 28.2395C13.2837 28.2883 13.2845 28.329 13.288 28.3616C13.2535 28.3905 13.1948 28.405 13.1119 28.405C13.0307 28.405 12.9712 28.395 12.9332 28.3751C12.8969 28.3552 12.865 28.3281 12.8374 28.2938C12.7787 28.2232 12.7493 28.1337 12.7493 28.0252C12.7493 27.9149 12.7795 27.8191 12.84 27.7377C12.9021 27.6545 12.9859 27.5867 13.0912 27.5343C13.2966 27.4276 13.5392 27.3742 13.8189 27.3742C14.0986 27.3742 14.3084 27.4031 14.4482 27.461C14.5898 27.5171 14.702 27.5921 14.7849 27.6862C14.9316 27.8525 15.005 28.0759 15.005 28.3561L14.9791 29.6582C14.9791 29.8951 14.9895 30.0451 15.0102 30.1084C15.0326 30.1717 15.0585 30.2142 15.0879 30.2359C15.1189 30.2576 15.1561 30.2685 15.1992 30.2685C15.2441 30.2685 15.2804 30.2612 15.308 30.2468L15.3805 30.2115C15.4047 30.2025 15.4254 30.2133 15.4427 30.2441C15.4617 30.273 15.4712 30.2992 15.4712 30.3227C15.4712 30.3444 15.4617 30.3734 15.4427 30.4095C15.4254 30.4457 15.3917 30.4846 15.3417 30.5262C15.2933 30.566 15.2381 30.6012 15.1759 30.632C14.8323 30.8019 14.5984 30.7622 14.4741 30.5126C14.4482 30.4638 14.4301 30.405 14.4197 30.3363ZM14.4119 29.9809C14.4119 29.7205 14.4137 29.462 14.4171 29.2052C14.058 29.2196 13.8137 29.244 13.6842 29.2784C13.5565 29.311 13.4641 29.3426 13.4071 29.3733C13.3501 29.4041 13.3053 29.4403 13.2725 29.4818C13.2189 29.5506 13.1922 29.6545 13.1922 29.7938C13.1922 29.9312 13.2388 30.0415 13.332 30.1247C13.4253 30.2061 13.5591 30.2468 13.7334 30.2468C13.9803 30.2468 14.2065 30.1582 14.4119 29.9809Z" fill="#131B12"/>
<path d="M17.0872 26.8697C17.0285 26.8697 16.9741 26.8606 16.924 26.8426C16.8757 26.8227 16.8334 26.7946 16.7971 26.7585C16.7211 26.6825 16.6832 26.5803 16.6832 26.452C16.6832 26.329 16.728 26.225 16.8178 26.14C16.9041 26.055 17.0077 26.0125 17.1286 26.0125C17.2494 26.0125 17.3461 26.0505 17.4186 26.1265C17.4912 26.2024 17.5274 26.3055 17.5274 26.4357C17.5274 26.5586 17.4842 26.6626 17.3979 26.7476C17.3133 26.829 17.2097 26.8697 17.0872 26.8697ZM16.9292 30.6808C16.6633 30.6808 16.5304 30.6175 16.5304 30.4909C16.5304 30.4258 16.5442 30.3752 16.5718 30.339C16.6132 30.3535 16.6512 30.3607 16.6857 30.3607C16.8463 30.3607 16.9249 30.254 16.9214 30.0406V28.2232C16.9214 28.0966 16.9041 28.0089 16.8696 27.9601C16.8368 27.9095 16.7772 27.8842 16.6909 27.8842C16.627 27.8842 16.5692 27.8923 16.5174 27.9086C16.4863 27.9122 16.4639 27.8869 16.4501 27.8326C16.438 27.7838 16.4449 27.7413 16.4708 27.7051C16.4967 27.6672 16.5364 27.6283 16.5899 27.5885C16.6452 27.5469 16.7056 27.5107 16.7712 27.48C16.9128 27.4095 17.031 27.3742 17.126 27.3742C17.221 27.3742 17.2909 27.3887 17.3358 27.4176C17.3824 27.4465 17.4178 27.4854 17.4419 27.5343C17.4799 27.6138 17.4989 27.7422 17.4989 27.9194V30.0867C17.5041 30.2296 17.5533 30.3164 17.6465 30.3471C17.6724 30.3562 17.7044 30.3643 17.7424 30.3716C17.7803 30.3788 17.814 30.3878 17.8434 30.3987C17.8744 30.4077 17.8986 30.4186 17.9159 30.4312C17.9452 30.4547 17.9599 30.4927 17.9599 30.5452C17.9599 30.6103 17.947 30.66 17.9211 30.6943C17.8848 30.6853 17.8295 30.6808 17.7553 30.6808H16.9292Z" fill="#131B12"/>
<path d="M20.3994 30.6943C20.3649 30.6853 20.3097 30.6808 20.2337 30.6808H19.4076C19.2418 30.6808 19.1356 30.65 19.089 30.5886C19.07 30.565 19.0605 30.5379 19.0605 30.5072C19.0605 30.4312 19.0744 30.3752 19.102 30.339C19.1434 30.3535 19.19 30.3607 19.2418 30.3607C19.2953 30.3607 19.3351 30.3381 19.361 30.2929C19.3886 30.2477 19.4015 30.1636 19.3998 30.0406V28.2666C19.3998 28.0966 19.3696 27.9909 19.3092 27.9493C19.285 27.933 19.253 27.9249 19.2133 27.9249C19.1736 27.9249 19.1417 27.9312 19.1175 27.9438C19.0951 27.9565 19.0761 27.9655 19.0605 27.971C19.0467 27.9764 19.0346 27.9764 19.0243 27.971C19.0139 27.9637 19.0036 27.9538 18.9932 27.9411C18.9673 27.9122 18.9544 27.8824 18.9544 27.8516C18.9544 27.8191 18.9647 27.7856 18.9854 27.7513C19.0079 27.7151 19.0433 27.6744 19.0916 27.6292C19.14 27.5822 19.1952 27.5397 19.2574 27.5017C19.3972 27.4167 19.5371 27.3742 19.6769 27.3742C19.8375 27.3742 19.9324 27.4854 19.9618 27.7079C19.9704 27.773 19.9756 27.8399 19.9773 27.9086C20.2346 27.6825 20.5143 27.5216 20.8164 27.4258C20.9252 27.3914 21.0348 27.3742 21.1453 27.3742C21.2575 27.3742 21.3637 27.3896 21.4638 27.4203C21.5657 27.4511 21.6537 27.5008 21.728 27.5695C21.8851 27.7142 21.9636 27.9402 21.9636 28.2476V30.0867C21.9688 30.2278 22.0189 30.3146 22.1139 30.3471C22.1398 30.3562 22.1717 30.3643 22.2097 30.3716C22.2477 30.3788 22.2813 30.3878 22.3107 30.3987C22.3418 30.4077 22.3659 30.4186 22.3832 30.4312C22.4125 30.4547 22.4272 30.4927 22.4272 30.5452C22.4272 30.6084 22.4134 30.6582 22.3858 30.6943C22.3512 30.6853 22.296 30.6808 22.22 30.6808H21.3939C21.2282 30.6808 21.122 30.65 21.0754 30.5886C21.0564 30.565 21.0469 30.5379 21.0469 30.5072C21.0469 30.4312 21.0607 30.3752 21.0883 30.339C21.1297 30.3535 21.1677 30.3607 21.2023 30.3607C21.2385 30.3607 21.2687 30.3562 21.2929 30.3471C21.3171 30.3363 21.3361 30.3191 21.3499 30.2956C21.3741 30.2522 21.3861 30.1672 21.3861 30.0406V28.4402C21.3861 28.1328 21.2989 27.961 21.1246 27.9249C21.071 27.914 21.0037 27.9086 20.9226 27.9086C20.8432 27.9086 20.7551 27.9212 20.6584 27.9466C20.5617 27.9719 20.4711 28.0044 20.3865 28.0442C20.2242 28.1202 20.0878 28.216 19.9773 28.3317V30.0867C19.9825 30.2278 20.0317 30.3146 20.1249 30.3471C20.1526 30.3562 20.1845 30.3643 20.2207 30.3716C20.2587 30.3788 20.2933 30.3878 20.3243 30.3987C20.3554 30.4077 20.3796 30.4186 20.3969 30.4312C20.4262 30.4547 20.4409 30.4927 20.4409 30.5452C20.4409 30.6084 20.4271 30.6582 20.3994 30.6943Z" fill="#131B12"/>
<path d="M24.0847 26.8697C24.026 26.8697 23.9716 26.8606 23.9215 26.8426C23.8732 26.8227 23.8309 26.7946 23.7946 26.7585C23.7186 26.6825 23.6807 26.5803 23.6807 26.452C23.6807 26.329 23.7255 26.225 23.8153 26.14C23.9016 26.055 24.0052 26.0125 24.1261 26.0125C24.2469 26.0125 24.3436 26.0505 24.4161 26.1265C24.4887 26.2024 24.5249 26.3055 24.5249 26.4357C24.5249 26.5586 24.4817 26.6626 24.3954 26.7476C24.3108 26.829 24.2072 26.8697 24.0847 26.8697ZM23.9267 30.6808C23.6608 30.6808 23.5279 30.6175 23.5279 30.4909C23.5279 30.4258 23.5417 30.3752 23.5693 30.339C23.6107 30.3535 23.6487 30.3607 23.6832 30.3607C23.8438 30.3607 23.9224 30.254 23.9189 30.0406V28.2232C23.9189 28.0966 23.9016 28.0089 23.8671 27.9601C23.8343 27.9095 23.7747 27.8842 23.6884 27.8842C23.6245 27.8842 23.5667 27.8923 23.5149 27.9086C23.4838 27.9122 23.4614 27.8869 23.4476 27.8326C23.4355 27.7838 23.4424 27.7413 23.4683 27.7051C23.4942 27.6672 23.5339 27.6283 23.5874 27.5885C23.6427 27.5469 23.7031 27.5107 23.7687 27.48C23.9103 27.4095 24.0285 27.3742 24.1235 27.3742C24.2185 27.3742 24.2884 27.3887 24.3333 27.4176C24.3799 27.4465 24.4153 27.4854 24.4394 27.5343C24.4774 27.6138 24.4964 27.7422 24.4964 27.9194V30.0867C24.5016 30.2296 24.5508 30.3164 24.644 30.3471C24.6699 30.3562 24.7019 30.3643 24.7399 30.3716C24.7778 30.3788 24.8115 30.3878 24.8409 30.3987C24.8719 30.4077 24.8961 30.4186 24.9134 30.4312C24.9427 30.4547 24.9574 30.4927 24.9574 30.5452C24.9574 30.6103 24.9444 30.66 24.9186 30.6943C24.8823 30.6853 24.827 30.6808 24.7528 30.6808H23.9267Z" fill="#131B12"/>
<path d="M27.8346 30.3363C27.5825 30.6003 27.2778 30.7323 26.9204 30.7323C26.6442 30.7323 26.4232 30.6491 26.2575 30.4828C26.09 30.3146 26.0062 30.0967 26.0062 29.829C26.0062 29.4963 26.1478 29.2468 26.431 29.0804C26.6865 28.9285 27.0465 28.8525 27.5109 28.8525H27.8346C27.8363 28.7838 27.8372 28.7169 27.8372 28.6518V28.4484C27.8372 28.2061 27.8035 28.0352 27.7362 27.9357C27.6602 27.8236 27.5307 27.7675 27.3477 27.7675C26.9282 27.7675 26.7124 27.9249 26.7003 28.2395C26.6986 28.2883 26.6994 28.329 26.7029 28.3616C26.6684 28.3905 26.6097 28.405 26.5268 28.405C26.4456 28.405 26.3861 28.395 26.3481 28.3751C26.3118 28.3552 26.2799 28.3281 26.2523 28.2938C26.1936 28.2232 26.1642 28.1337 26.1642 28.0252C26.1642 27.9149 26.1944 27.8191 26.2549 27.7377C26.317 27.6545 26.4007 27.5867 26.5061 27.5343C26.7115 27.4276 26.9541 27.3742 27.2338 27.3742C27.5135 27.3742 27.7232 27.4031 27.8631 27.461C28.0047 27.5171 28.1169 27.5921 28.1998 27.6862C28.3465 27.8525 28.4199 28.0759 28.4199 28.3561L28.394 29.6582C28.394 29.8951 28.4044 30.0451 28.4251 30.1084C28.4475 30.1717 28.4734 30.2142 28.5028 30.2359C28.5338 30.2576 28.571 30.2685 28.6141 30.2685C28.659 30.2685 28.6953 30.2612 28.7229 30.2468L28.7954 30.2115C28.8196 30.2025 28.8403 30.2133 28.8576 30.2441C28.8765 30.273 28.886 30.2992 28.886 30.3227C28.886 30.3444 28.8765 30.3734 28.8576 30.4095C28.8403 30.4457 28.8066 30.4846 28.7566 30.5262C28.7082 30.566 28.653 30.6012 28.5908 30.632C28.2472 30.8019 28.0133 30.7622 27.889 30.5126C27.8631 30.4638 27.845 30.405 27.8346 30.3363ZM27.8268 29.9809C27.8268 29.7205 27.8286 29.462 27.832 29.2052C27.4729 29.2196 27.2286 29.244 27.0991 29.2784C26.9714 29.311 26.879 29.3426 26.822 29.3733C26.765 29.4041 26.7202 29.4403 26.6873 29.4818C26.6338 29.5506 26.6071 29.6545 26.6071 29.7938C26.6071 29.9312 26.6537 30.0415 26.7469 30.1247C26.8401 30.2061 26.9739 30.2468 27.1483 30.2468C27.3952 30.2468 27.6214 30.1582 27.8268 29.9809Z" fill="#131B12"/>
<path d="M31.2919 30.6943C31.2574 30.6853 31.2021 30.6808 31.1262 30.6808H30.3C30.1343 30.6808 30.0281 30.65 29.9815 30.5886C29.9625 30.565 29.953 30.5379 29.953 30.5072C29.953 30.4312 29.9668 30.3752 29.9945 30.339C30.0359 30.3535 30.0825 30.3607 30.1343 30.3607C30.1878 30.3607 30.2275 30.3381 30.2534 30.2929C30.2811 30.2477 30.294 30.1636 30.2923 30.0406V28.2666C30.2923 28.0966 30.2621 27.9909 30.2016 27.9493C30.1775 27.933 30.1455 27.9249 30.1058 27.9249C30.0661 27.9249 30.0342 27.9312 30.01 27.9438C29.9876 27.9565 29.9686 27.9655 29.953 27.971C29.9392 27.9764 29.9271 27.9764 29.9168 27.971C29.9064 27.9637 29.896 27.9538 29.8857 27.9411C29.8598 27.9122 29.8468 27.8824 29.8468 27.8516C29.8468 27.8191 29.8572 27.7856 29.8779 27.7513C29.9004 27.7151 29.9358 27.6744 29.9841 27.6292C30.0324 27.5822 30.0877 27.5397 30.1498 27.5017C30.2897 27.4167 30.4295 27.3742 30.5694 27.3742C30.7299 27.3742 30.8249 27.4854 30.8543 27.7079C30.8629 27.773 30.8681 27.8399 30.8698 27.9086C31.127 27.6825 31.4067 27.5216 31.7089 27.4258C31.8176 27.3914 31.9273 27.3742 32.0378 27.3742C32.15 27.3742 32.2562 27.3896 32.3563 27.4203C32.4582 27.4511 32.5462 27.5008 32.6205 27.5695C32.7776 27.7142 32.8561 27.9402 32.8561 28.2476V30.0867C32.8613 30.2278 32.9114 30.3146 33.0063 30.3471C33.0322 30.3562 33.0642 30.3643 33.1022 30.3716C33.1401 30.3788 33.1738 30.3878 33.2032 30.3987C33.2342 30.4077 33.2584 30.4186 33.2757 30.4312C33.305 30.4547 33.3197 30.4927 33.3197 30.5452C33.3197 30.6084 33.3059 30.6582 33.2783 30.6943C33.2437 30.6853 33.1885 30.6808 33.1125 30.6808H32.2864C32.1206 30.6808 32.0145 30.65 31.9678 30.5886C31.9489 30.565 31.9394 30.5379 31.9394 30.5072C31.9394 30.4312 31.9532 30.3752 31.9808 30.339C32.0222 30.3535 32.0602 30.3607 32.0947 30.3607C32.131 30.3607 32.1612 30.3562 32.1854 30.3471C32.2096 30.3363 32.2285 30.3191 32.2424 30.2956C32.2665 30.2522 32.2786 30.1672 32.2786 30.0406V28.4402C32.2786 28.1328 32.1914 27.961 32.017 27.9249C31.9635 27.914 31.8962 27.9086 31.815 27.9086C31.7356 27.9086 31.6476 27.9212 31.5509 27.9466C31.4542 27.9719 31.3636 28.0044 31.279 28.0442C31.1167 28.1202 30.9803 28.216 30.8698 28.3317V30.0867C30.875 30.2278 30.9242 30.3146 31.0174 30.3471C31.045 30.3562 31.077 30.3643 31.1132 30.3716C31.1512 30.3788 31.1857 30.3878 31.2168 30.3987C31.2479 30.4077 31.2721 30.4186 31.2893 30.4312C31.3187 30.4547 31.3334 30.4927 31.3334 30.5452C31.3334 30.6084 31.3195 30.6582 31.2919 30.6943Z" fill="#131B12"/>
<path d="M38.3075 30.6943C38.273 30.6853 38.2178 30.6808 38.1418 30.6808H37.3157C37.1499 30.6808 37.0437 30.65 36.9971 30.5886C36.9781 30.565 36.9686 30.5379 36.9686 30.5072C36.9686 30.4312 36.9825 30.3752 37.0101 30.339C37.0515 30.3535 37.099 30.3607 37.1525 30.3607C37.206 30.3607 37.2458 30.3381 37.2716 30.2929C37.2975 30.2477 37.3096 30.1636 37.3079 30.0406V26.6798C37.3079 26.555 37.2958 26.4746 37.2716 26.4384C37.2354 26.3805 37.1715 26.3516 37.08 26.3516H37.0282C37.0127 26.3516 36.9945 26.3543 36.9738 26.3597C36.9548 26.3633 36.9384 26.3615 36.9246 26.3543C36.9108 26.3453 36.8987 26.3335 36.8884 26.319C36.8521 26.263 36.8935 26.187 37.0127 26.0912C37.187 25.9519 37.3649 25.8823 37.5462 25.8823C37.743 25.8823 37.8535 25.9935 37.8776 26.216C37.8846 26.2829 37.888 26.3534 37.888 26.4275V27.9059C38.1487 27.6762 38.4275 27.5162 38.7245 27.4258C38.8333 27.3914 38.9429 27.3742 39.0534 27.3742C39.1656 27.3742 39.2718 27.3896 39.3719 27.4203C39.4738 27.4511 39.561 27.5008 39.6335 27.5695C39.7923 27.7178 39.8718 27.9438 39.8718 28.2476V30.0678C39.8718 30.2178 39.9201 30.3101 40.0168 30.3444C40.0444 30.3553 40.0772 30.3643 40.1152 30.3716C40.1532 30.3788 40.1868 30.3878 40.2162 30.3987C40.2473 30.4077 40.2714 30.4186 40.2887 30.4312C40.3181 30.4547 40.3327 30.4927 40.3327 30.5452C40.3327 30.6103 40.3198 30.66 40.2939 30.6943C40.2576 30.6853 40.2024 30.6808 40.1281 30.6808H39.302C39.1363 30.6808 39.0301 30.65 38.9835 30.5886C38.9645 30.565 38.955 30.5379 38.955 30.5072C38.955 30.4294 38.9679 30.3734 38.9938 30.339C39.037 30.3535 39.0836 30.3607 39.1337 30.3607C39.1837 30.3607 39.2217 30.3417 39.2476 30.3037C39.2752 30.2658 39.2908 30.1961 39.2942 30.0949V28.4402C39.2942 28.1328 39.2071 27.961 39.0327 27.9249C38.9792 27.914 38.9118 27.9086 38.8307 27.9086C38.7513 27.9086 38.6632 27.9212 38.5665 27.9466C38.4716 27.9719 38.3818 28.0044 38.2972 28.0442C38.1297 28.1238 37.9933 28.2187 37.888 28.329V30.0678C37.888 30.2178 37.9363 30.3101 38.033 30.3444C38.0607 30.3553 38.0935 30.3643 38.1314 30.3716C38.1694 30.3788 38.2031 30.3878 38.2324 30.3987C38.2635 30.4077 38.2877 30.4186 38.305 30.4312C38.3343 30.4547 38.349 30.4927 38.349 30.5452C38.349 30.6084 38.3352 30.6582 38.3075 30.6943Z" fill="#131B12"/>
<path d="M43.1814 30.3363C42.9294 30.6003 42.6247 30.7323 42.2673 30.7323C41.991 30.7323 41.77 30.6491 41.6043 30.4828C41.4368 30.3146 41.3531 30.0967 41.3531 29.829C41.3531 29.4963 41.4947 29.2468 41.7778 29.0804C42.0333 28.9285 42.3933 28.8525 42.8577 28.8525H43.1814C43.1832 28.7838 43.184 28.7169 43.184 28.6518V28.4484C43.184 28.2061 43.1504 28.0352 43.083 27.9357C43.0071 27.8236 42.8776 27.7675 42.6946 27.7675C42.275 27.7675 42.0592 27.9249 42.0471 28.2395C42.0454 28.2883 42.0463 28.329 42.0497 28.3616C42.0152 28.3905 41.9565 28.405 41.8736 28.405C41.7925 28.405 41.7329 28.395 41.6949 28.3751C41.6587 28.3552 41.6267 28.3281 41.5991 28.2938C41.5404 28.2232 41.5111 28.1337 41.5111 28.0252C41.5111 27.9149 41.5413 27.8191 41.6017 27.7377C41.6639 27.6545 41.7476 27.5867 41.8529 27.5343C42.0584 27.4276 42.3009 27.3742 42.5806 27.3742C42.8603 27.3742 43.0701 27.4031 43.2099 27.461C43.3515 27.5171 43.4637 27.5921 43.5466 27.6862C43.6934 27.8525 43.7667 28.0759 43.7667 28.3561L43.7408 29.6582C43.7408 29.8951 43.7512 30.0451 43.7719 30.1084C43.7944 30.1717 43.8203 30.2142 43.8496 30.2359C43.8807 30.2576 43.9178 30.2685 43.961 30.2685C44.0059 30.2685 44.0421 30.2612 44.0697 30.2468L44.1422 30.2115C44.1664 30.2025 44.1871 30.2133 44.2044 30.2441C44.2234 30.273 44.2329 30.2992 44.2329 30.3227C44.2329 30.3444 44.2234 30.3734 44.2044 30.4095C44.1871 30.4457 44.1535 30.4846 44.1034 30.5262C44.0551 30.566 43.9998 30.6012 43.9377 30.632C43.5941 30.8019 43.3601 30.7622 43.2358 30.5126C43.2099 30.4638 43.1918 30.405 43.1814 30.3363ZM43.1737 29.9809C43.1737 29.7205 43.1754 29.462 43.1789 29.2052C42.8197 29.2196 42.5755 29.244 42.446 29.2784C42.3182 29.311 42.2258 29.3426 42.1689 29.3733C42.1119 29.4041 42.067 29.4403 42.0342 29.4818C41.9807 29.5506 41.9539 29.6545 41.9539 29.7938C41.9539 29.9312 42.0005 30.0415 42.0938 30.1247C42.187 30.2061 42.3208 30.2468 42.4952 30.2468C42.7421 30.2468 42.9682 30.1582 43.1737 29.9809Z" fill="#131B12"/>
<path d="M46.6388 30.6943C46.6042 30.6853 46.549 30.6808 46.473 30.6808H45.6469C45.4811 30.6808 45.375 30.65 45.3284 30.5886C45.3094 30.565 45.2999 30.5379 45.2999 30.5072C45.2999 30.4312 45.3137 30.3752 45.3413 30.339C45.3827 30.3535 45.4294 30.3607 45.4811 30.3607C45.5347 30.3607 45.5744 30.3381 45.6003 30.2929C45.6279 30.2477 45.6408 30.1636 45.6391 30.0406V28.2666C45.6391 28.0966 45.6089 27.9909 45.5485 27.9493C45.5243 27.933 45.4924 27.9249 45.4527 27.9249C45.4129 27.9249 45.381 27.9312 45.3568 27.9438C45.3344 27.9565 45.3154 27.9655 45.2999 27.971C45.2861 27.9764 45.274 27.9764 45.2636 27.971C45.2533 27.9637 45.2429 27.9538 45.2325 27.9411C45.2066 27.9122 45.1937 27.8824 45.1937 27.8516C45.1937 27.8191 45.204 27.7856 45.2248 27.7513C45.2472 27.7151 45.2826 27.6744 45.3309 27.6292C45.3793 27.5822 45.4345 27.5397 45.4967 27.5017C45.6365 27.4167 45.7764 27.3742 45.9162 27.3742C46.0768 27.3742 46.1717 27.4854 46.2011 27.7079C46.2097 27.773 46.2149 27.8399 46.2166 27.9086C46.4739 27.6825 46.7536 27.5216 47.0557 27.4258C47.1645 27.3914 47.2741 27.3742 47.3846 27.3742C47.4968 27.3742 47.603 27.3896 47.7031 27.4203C47.805 27.4511 47.8931 27.5008 47.9673 27.5695C48.1244 27.7142 48.203 27.9402 48.203 28.2476V30.0867C48.2081 30.2278 48.2582 30.3146 48.3532 30.3471C48.3791 30.3562 48.411 30.3643 48.449 30.3716C48.487 30.3788 48.5206 30.3878 48.55 30.3987C48.5811 30.4077 48.6052 30.4186 48.6225 30.4312C48.6519 30.4547 48.6665 30.4927 48.6665 30.5452C48.6665 30.6084 48.6527 30.6582 48.6251 30.6943C48.5906 30.6853 48.5353 30.6808 48.4594 30.6808H47.6332C47.4675 30.6808 47.3613 30.65 47.3147 30.5886C47.2957 30.565 47.2862 30.5379 47.2862 30.5072C47.2862 30.4312 47.3 30.3752 47.3276 30.339C47.3691 30.3535 47.4071 30.3607 47.4416 30.3607C47.4778 30.3607 47.5081 30.3562 47.5322 30.3471C47.5564 30.3363 47.5754 30.3191 47.5892 30.2956C47.6134 30.2522 47.6255 30.1672 47.6255 30.0406V28.4402C47.6255 28.1328 47.5383 27.961 47.3639 27.9249C47.3104 27.914 47.243 27.9086 47.1619 27.9086C47.0825 27.9086 46.9944 27.9212 46.8977 27.9466C46.8011 27.9719 46.7104 28.0044 46.6258 28.0442C46.4635 28.1202 46.3271 28.216 46.2166 28.3317V30.0867C46.2218 30.2278 46.271 30.3146 46.3643 30.3471C46.3919 30.3562 46.4238 30.3643 46.4601 30.3716C46.4981 30.3788 46.5326 30.3878 46.5637 30.3987C46.5947 30.4077 46.6189 30.4186 46.6362 30.4312C46.6655 30.4547 46.6802 30.4927 46.6802 30.5452C46.6802 30.6084 46.6664 30.6582 46.6388 30.6943Z" fill="#131B12"/>
<path d="M51.8208 30.3417C51.5532 30.6039 51.2589 30.735 50.9377 30.735C50.5838 30.735 50.2955 30.6084 50.0728 30.3553C49.8311 30.0768 49.7102 29.6925 49.7102 29.2025C49.7102 28.6509 49.8777 28.2024 50.2126 27.857C50.5251 27.5352 50.8946 27.3742 51.321 27.3742C51.492 27.3742 51.656 27.4041 51.8131 27.4637V26.6798C51.8131 26.5532 51.801 26.4728 51.7768 26.4384C51.7371 26.3805 51.6724 26.3516 51.5826 26.3516C51.5446 26.3516 51.5066 26.3561 51.4686 26.3652C51.4324 26.3724 51.4065 26.3724 51.3909 26.3652C51.3771 26.3561 51.3659 26.3444 51.3573 26.3299C51.3228 26.2702 51.3659 26.1943 51.4868 26.102C51.6767 25.9556 51.864 25.8823 52.0487 25.8823C52.2438 25.8823 52.3552 25.9935 52.3828 26.216C52.3897 26.2829 52.3932 26.3534 52.3932 26.4275V29.5768C52.3932 29.8553 52.4035 30.0289 52.4243 30.0976C52.445 30.1663 52.4691 30.2115 52.4968 30.2332C52.5261 30.2531 52.5624 30.2631 52.6055 30.2631C52.6487 30.2631 52.6841 30.2558 52.7117 30.2414L52.7894 30.2061C52.8119 30.2007 52.8317 30.2115 52.849 30.2386C52.8852 30.2947 52.8904 30.3453 52.8645 30.3905C52.8386 30.4357 52.7998 30.4792 52.748 30.5207C52.6962 30.5623 52.6383 30.5985 52.5745 30.6292C52.2948 30.7613 52.0859 30.764 51.9477 30.6374C51.8804 30.5759 51.8381 30.4773 51.8208 30.3417ZM51.8131 28.0144C51.6439 27.8787 51.4471 27.8109 51.2226 27.8109C50.9533 27.8109 50.7349 27.9149 50.5674 28.1229C50.3879 28.3453 50.2981 28.6482 50.2981 29.0316C50.2981 29.641 50.4638 30.0171 50.7953 30.16C50.8989 30.2034 50.999 30.2251 51.0957 30.2251C51.1941 30.2251 51.2761 30.2169 51.3417 30.2007C51.4074 30.1844 51.4686 30.1627 51.5256 30.1356C51.6396 30.0813 51.7354 30.0153 51.8131 29.9375V28.0144Z" fill="#131B12"/>
<path d="M55.3455 30.6943C55.311 30.6853 55.2557 30.6808 55.1798 30.6808H54.3536C54.1879 30.6808 54.0817 30.65 54.0351 30.5886C54.0161 30.565 54.0066 30.5379 54.0066 30.5072C54.0066 30.4312 54.0204 30.3752 54.048 30.339C54.0895 30.3535 54.1361 30.3607 54.1879 30.3607C54.2414 30.3607 54.2811 30.3381 54.307 30.2929C54.3346 30.2477 54.3476 30.1636 54.3459 30.0406V28.2666C54.3459 28.0966 54.3156 27.9909 54.2552 27.9493C54.231 27.933 54.1991 27.9249 54.1594 27.9249C54.1197 27.9249 54.0877 27.9312 54.0636 27.9438C54.0411 27.9565 54.0221 27.9655 54.0066 27.971C53.9928 27.9764 53.9807 27.9764 53.9703 27.971C53.96 27.9637 53.9496 27.9538 53.9393 27.9411C53.9134 27.9122 53.9004 27.8824 53.9004 27.8516C53.9004 27.8191 53.9108 27.7856 53.9315 27.7513C53.9539 27.7151 53.9893 27.6744 54.0377 27.6292C54.086 27.5822 54.1413 27.5397 54.2034 27.5017C54.3433 27.4167 54.4831 27.3742 54.623 27.3742C54.7766 27.3742 54.869 27.4764 54.9001 27.6807C54.9104 27.7422 54.9173 27.8055 54.9208 27.8706C55.1798 27.6554 55.4508 27.5053 55.734 27.4203C55.8375 27.3896 55.9377 27.3742 56.0344 27.3742C56.4453 27.3742 56.7051 27.5442 56.8139 27.8842C57.0832 27.6599 57.3569 27.5053 57.6348 27.4203C57.7401 27.3896 57.8472 27.3742 57.956 27.3742C58.0647 27.3742 58.1692 27.3896 58.2693 27.4203C58.3712 27.4511 58.4584 27.5008 58.5309 27.5695C58.6897 27.7178 58.7691 27.9438 58.7691 28.2476V30.0678C58.7691 30.216 58.8175 30.3083 58.9142 30.3444C58.9418 30.3553 58.9746 30.3643 59.0126 30.3716C59.0506 30.3788 59.0851 30.3878 59.1162 30.3987C59.1472 30.4077 59.1714 30.4186 59.1887 30.4312C59.218 30.4547 59.2327 30.4927 59.2327 30.5452C59.2327 30.6084 59.2189 30.6582 59.1913 30.6943C59.1567 30.6853 59.1015 30.6808 59.0255 30.6808H58.1994C58.0337 30.6808 57.9275 30.65 57.8809 30.5886C57.8619 30.565 57.8524 30.5379 57.8524 30.5072C57.8524 30.4312 57.8662 30.3752 57.8938 30.339C57.9352 30.3535 57.981 30.3607 58.0311 30.3607C58.0811 30.3607 58.1191 30.3435 58.145 30.3092C58.1726 30.273 58.1882 30.207 58.1916 30.1112V28.4402C58.1916 28.1328 58.1044 27.961 57.9301 27.9249C57.8765 27.914 57.8127 27.9086 57.7384 27.9086C57.6659 27.9086 57.5865 27.9185 57.5002 27.9384C57.4156 27.9565 57.3344 27.9818 57.2567 28.0144C57.1065 28.0777 56.9753 28.1581 56.8631 28.2558V30.0678C56.8631 30.2178 56.9114 30.3101 57.0081 30.3444C57.0357 30.3553 57.0685 30.3643 57.1065 30.3716C57.1445 30.3788 57.1782 30.3878 57.2075 30.3987C57.2386 30.4077 57.2628 30.4186 57.28 30.4312C57.3094 30.4547 57.3241 30.4927 57.3241 30.5452C57.3241 30.6103 57.3111 30.66 57.2852 30.6943C57.2507 30.6853 57.1954 30.6808 57.1195 30.6808H56.2933C56.1276 30.6808 56.0214 30.65 55.9748 30.5886C55.9558 30.565 55.9463 30.5379 55.9463 30.5072C55.9463 30.4294 55.9593 30.3734 55.9852 30.339C56.0283 30.3535 56.0749 30.3607 56.125 30.3607C56.1751 30.3607 56.2131 30.3417 56.239 30.3037C56.2666 30.2658 56.2821 30.1961 56.2856 30.0949V28.4402C56.2856 28.1328 56.1984 27.961 56.024 27.9249C55.9705 27.914 55.9057 27.9086 55.8298 27.9086C55.7538 27.9086 55.6709 27.9194 55.5812 27.9411C55.4914 27.9628 55.4059 27.9918 55.3248 28.0279C55.1694 28.0948 55.0356 28.1798 54.9234 28.2829V30.0678C54.9234 30.216 54.9726 30.3083 55.071 30.3444C55.0969 30.3553 55.1288 30.3643 55.1668 30.3716C55.2048 30.3788 55.2393 30.3878 55.2704 30.3987C55.3015 30.4077 55.3256 30.4186 55.3429 30.4312C55.3723 30.4547 55.3869 30.4927 55.3869 30.5452C55.3869 30.6084 55.3731 30.6582 55.3455 30.6943Z" fill="#131B12"/>
<path d="M62.1177 30.3363C61.8656 30.6003 61.5609 30.7323 61.2035 30.7323C60.9273 30.7323 60.7063 30.6491 60.5405 30.4828C60.3731 30.3146 60.2893 30.0967 60.2893 29.829C60.2893 29.4963 60.4309 29.2468 60.714 29.0804C60.9696 28.9285 61.3295 28.8525 61.794 28.8525H62.1177C62.1194 28.7838 62.1203 28.7169 62.1203 28.6518V28.4484C62.1203 28.2061 62.0866 28.0352 62.0193 27.9357C61.9433 27.8236 61.8138 27.7675 61.6308 27.7675C61.2113 27.7675 60.9955 27.9249 60.9834 28.2395C60.9816 28.2883 60.9825 28.329 60.986 28.3616C60.9514 28.3905 60.8927 28.405 60.8099 28.405C60.7287 28.405 60.6692 28.395 60.6312 28.3751C60.5949 28.3552 60.563 28.3281 60.5353 28.2938C60.4766 28.2232 60.4473 28.1337 60.4473 28.0252C60.4473 27.9149 60.4775 27.8191 60.5379 27.7377C60.6001 27.6545 60.6838 27.5867 60.7891 27.5343C60.9946 27.4276 61.2372 27.3742 61.5169 27.3742C61.7966 27.3742 62.0063 27.4031 62.1462 27.461C62.2877 27.5171 62.4 27.5921 62.4828 27.6862C62.6296 27.8525 62.703 28.0759 62.703 28.3561L62.6771 29.6582C62.6771 29.8951 62.6874 30.0451 62.7081 30.1084C62.7306 30.1717 62.7565 30.2142 62.7858 30.2359C62.8169 30.2576 62.854 30.2685 62.8972 30.2685C62.9421 30.2685 62.9783 30.2612 63.006 30.2468L63.0785 30.2115C63.1027 30.2025 63.1234 30.2133 63.1406 30.2441C63.1596 30.273 63.1691 30.2992 63.1691 30.3227C63.1691 30.3444 63.1596 30.3734 63.1406 30.4095C63.1234 30.4457 63.0897 30.4846 63.0396 30.5262C62.9913 30.566 62.936 30.6012 62.8739 30.632C62.5303 30.8019 62.2964 30.7622 62.1721 30.5126C62.1462 30.4638 62.128 30.405 62.1177 30.3363ZM62.1099 29.9809C62.1099 29.7205 62.1116 29.462 62.1151 29.2052C61.756 29.2196 61.5117 29.244 61.3822 29.2784C61.2544 29.311 61.1621 29.3426 61.1051 29.3733C61.0481 29.4041 61.0032 29.4403 60.9704 29.4818C60.9169 29.5506 60.8901 29.6545 60.8901 29.7938C60.8901 29.9312 60.9368 30.0415 61.03 30.1247C61.1232 30.2061 61.257 30.2468 61.4314 30.2468C61.6783 30.2468 61.9045 30.1582 62.1099 29.9809Z" fill="#131B12"/>
<path d="M66.282 30.3417C66.0144 30.6039 65.72 30.735 65.3989 30.735C65.045 30.735 64.7566 30.6084 64.5339 30.3553C64.2922 30.0768 64.1714 29.6925 64.1714 29.2025C64.1714 28.6509 64.3388 28.2024 64.6738 27.857C64.9863 27.5352 65.3557 27.3742 65.7822 27.3742C65.9531 27.3742 66.1171 27.4041 66.2742 27.4637V26.6798C66.2742 26.5532 66.2621 26.4728 66.238 26.4384C66.1983 26.3805 66.1335 26.3516 66.0437 26.3516C66.0058 26.3516 65.9678 26.3561 65.9298 26.3652C65.8935 26.3724 65.8676 26.3724 65.8521 26.3652C65.8383 26.3561 65.8271 26.3444 65.8184 26.3299C65.7839 26.2702 65.8271 26.1943 65.9479 26.102C66.1378 25.9556 66.3252 25.8823 66.5099 25.8823C66.705 25.8823 66.8164 25.9935 66.844 26.216C66.8509 26.2829 66.8543 26.3534 66.8543 26.4275V29.5768C66.8543 29.8553 66.8647 30.0289 66.8854 30.0976C66.9061 30.1663 66.9303 30.2115 66.9579 30.2332C66.9873 30.2531 67.0235 30.2631 67.0667 30.2631C67.1099 30.2631 67.1452 30.2558 67.1729 30.2414L67.2506 30.2061C67.273 30.2007 67.2929 30.2115 67.3101 30.2386C67.3464 30.2947 67.3516 30.3453 67.3257 30.3905C67.2998 30.4357 67.2609 30.4792 67.2091 30.5207C67.1573 30.5623 67.0995 30.5985 67.0356 30.6292C66.7559 30.7613 66.547 30.764 66.4089 30.6374C66.3416 30.5759 66.2993 30.4773 66.282 30.3417ZM66.2742 28.0144C66.105 27.8787 65.9082 27.8109 65.6838 27.8109C65.4144 27.8109 65.196 27.9149 65.0286 28.1229C64.849 28.3453 64.7592 28.6482 64.7592 29.0316C64.7592 29.641 64.925 30.0171 65.2565 30.16C65.36 30.2034 65.4602 30.2251 65.5569 30.2251C65.6553 30.2251 65.7373 30.2169 65.8029 30.2007C65.8685 30.1844 65.9298 30.1627 65.9868 30.1356C66.1007 30.0813 66.1965 30.0153 66.2742 29.9375V28.0144Z" fill="#131B12"/>
<path d="M68.4134 29.2214C68.4134 29.0026 68.4349 28.8082 68.4781 28.6382C68.5213 28.4683 68.5791 28.3164 68.6516 28.1825C68.7259 28.0469 68.8122 27.9285 68.9106 27.8272C69.0107 27.7259 69.1178 27.6418 69.2317 27.5749C69.4562 27.4411 69.6772 27.3742 69.8947 27.3742C70.1122 27.3742 70.2866 27.4149 70.4178 27.4963C70.549 27.5758 70.6561 27.6825 70.739 27.8164C70.8926 28.0713 70.9694 28.4104 70.9694 28.8336C70.9694 28.9909 70.9064 29.0713 70.7804 29.075L68.9727 29.1157C68.9831 29.5081 69.0798 29.7983 69.2628 29.9864C69.4182 30.1455 69.6193 30.2251 69.8662 30.2251C70.234 30.2251 70.5326 30.1446 70.7623 29.9837C70.7778 29.9837 70.7968 29.9972 70.8192 30.0244C70.8624 30.0786 70.884 30.1256 70.884 30.1654C70.884 30.2522 70.7804 30.3634 70.5732 30.499C70.335 30.6546 70.057 30.7323 69.7393 30.7323C69.325 30.7323 68.9995 30.594 68.763 30.3173C68.5299 30.0461 68.4134 29.6808 68.4134 29.2214ZM68.9883 28.7657C69.4855 28.7404 69.9404 28.707 70.3531 28.6654C70.3721 28.0903 70.1822 27.8028 69.7833 27.8028C69.5606 27.8028 69.3785 27.8932 69.2369 28.074C69.1074 28.2404 69.0245 28.471 68.9883 28.7657Z" fill="#131B12"/>
<path d="M76.5141 28.3372C76.5141 28.0587 76.4036 27.8742 76.1826 27.7838C76.1118 27.7549 76.035 27.7404 75.9521 27.7404C75.871 27.7404 75.795 27.7476 75.7242 27.7621C75.6552 27.7766 75.5939 27.7992 75.5403 27.8299C75.4195 27.8986 75.3591 27.9972 75.3591 28.1256C75.3591 28.2486 75.4091 28.3552 75.5093 28.4457C75.6198 28.5415 75.8252 28.66 76.1256 28.801C76.426 28.9402 76.6574 29.093 76.8197 29.2594C76.9837 29.424 77.0657 29.6139 77.0657 29.829C77.0657 30.0714 76.9707 30.2757 76.7808 30.4421C76.5581 30.6356 76.2499 30.7323 75.8563 30.7323C75.3746 30.7323 75.0414 30.6247 74.8567 30.4095C74.7928 30.3336 74.7608 30.2368 74.7608 30.1193C74.7608 29.8354 74.8273 29.6699 74.9602 29.6229C74.993 29.612 75.0241 29.6066 75.0535 29.6066C75.1346 29.6066 75.1786 29.6328 75.1855 29.6853C75.2235 30.1374 75.4652 30.3634 75.9107 30.3634C76.1783 30.3634 76.357 30.2848 76.4468 30.1274C76.4761 30.0768 76.4908 30.0153 76.4908 29.943C76.4908 29.8706 76.4683 29.8046 76.4234 29.745C76.3803 29.6853 76.3199 29.6301 76.2422 29.5795C76.1645 29.5271 76.0721 29.4764 75.9651 29.4276L75.6206 29.2648C75.0923 29.0117 74.8282 28.6753 74.8282 28.2558C74.8282 27.9845 74.943 27.7675 75.1726 27.6048C75.3901 27.4511 75.6707 27.3742 76.0143 27.3742C76.4804 27.3742 76.7705 27.48 76.8844 27.6916C76.9138 27.7458 76.9285 27.8055 76.9285 27.8706C76.9285 27.9357 76.925 27.9945 76.9181 28.0469C76.9112 28.0976 76.9025 28.1437 76.8922 28.1853C76.8749 28.2648 76.8551 28.3209 76.8326 28.3534C76.7877 28.3878 76.723 28.405 76.6384 28.405C76.5555 28.405 76.5141 28.3824 76.5141 28.3372Z" fill="#131B12"/>
<path d="M80.1449 28.3643L80.1475 28.2666C80.1475 28.2323 80.1397 28.1744 80.1242 28.093C80.1087 28.0098 80.0586 27.942 79.974 27.8896C79.8911 27.8372 79.7849 27.8109 79.6555 27.8109C79.5277 27.8109 79.4137 27.8453 79.3136 27.914C79.2152 27.9809 79.1349 28.0713 79.0728 28.1853C78.9554 28.4023 78.8967 28.6925 78.8967 29.056C78.8967 29.3996 78.9761 29.679 79.1349 29.8941C79.2972 30.1148 79.5113 30.2251 79.7772 30.2251C80.0189 30.2251 80.2502 30.1555 80.4712 30.0162C80.5247 29.9819 80.5662 29.952 80.5955 29.9267C80.6128 29.9267 80.6327 29.9412 80.6551 29.9701C80.6983 30.0225 80.7198 30.065 80.7198 30.0976C80.7198 30.1283 80.7078 30.1645 80.6836 30.2061C80.6594 30.2459 80.624 30.2893 80.5774 30.3363C80.5325 30.3815 80.4781 30.4276 80.4143 30.4746C80.3504 30.5216 80.2787 30.5641 80.1993 30.6021C80.018 30.6889 79.8324 30.7323 79.6425 30.7323C79.4526 30.7323 79.2748 30.6989 79.109 30.632C78.945 30.5632 78.8034 30.4629 78.6843 30.3309C78.4288 30.0506 78.301 29.6654 78.301 29.1753C78.301 28.6184 78.4633 28.1708 78.7879 27.8326C79.0831 27.527 79.4241 27.3742 79.8108 27.3742C80.0646 27.3742 80.2761 27.4312 80.4453 27.5451C80.6232 27.6645 80.7121 27.8218 80.7121 28.0171C80.7121 28.1238 80.6896 28.2042 80.6447 28.2585C80.567 28.3543 80.4764 28.4023 80.3728 28.4023C80.271 28.4023 80.195 28.3896 80.1449 28.3643Z" fill="#131B12"/>
<path d="M82.4886 26.8697C82.4299 26.8697 82.3755 26.8606 82.3255 26.8426C82.2771 26.8227 82.2348 26.7946 82.1986 26.7585C82.1226 26.6825 82.0846 26.5803 82.0846 26.452C82.0846 26.329 82.1295 26.225 82.2193 26.14C82.3056 26.055 82.4092 26.0125 82.5301 26.0125C82.6509 26.0125 82.7476 26.0505 82.8201 26.1265C82.8926 26.2024 82.9289 26.3055 82.9289 26.4357C82.9289 26.5586 82.8857 26.6626 82.7994 26.7476C82.7148 26.829 82.6112 26.8697 82.4886 26.8697ZM82.3307 30.6808C82.0648 30.6808 81.9318 30.6175 81.9318 30.4909C81.9318 30.4258 81.9457 30.3752 81.9733 30.339C82.0147 30.3535 82.0527 30.3607 82.0872 30.3607C82.2478 30.3607 82.3263 30.254 82.3229 30.0406V28.2232C82.3229 28.0966 82.3056 28.0089 82.2711 27.9601C82.2383 27.9095 82.1787 27.8842 82.0924 27.8842C82.0285 27.8842 81.9707 27.8923 81.9189 27.9086C81.8878 27.9122 81.8654 27.8869 81.8516 27.8326C81.8395 27.7838 81.8464 27.7413 81.8723 27.7051C81.8982 27.6672 81.9379 27.6283 81.9914 27.5885C82.0467 27.5469 82.1071 27.5107 82.1727 27.48C82.3143 27.4095 82.4325 27.3742 82.5275 27.3742C82.6224 27.3742 82.6924 27.3887 82.7373 27.4176C82.7839 27.4465 82.8193 27.4854 82.8434 27.5343C82.8814 27.6138 82.9004 27.7422 82.9004 27.9194V30.0867C82.9056 30.2296 82.9548 30.3164 83.048 30.3471C83.0739 30.3562 83.1059 30.3643 83.1438 30.3716C83.1818 30.3788 83.2155 30.3878 83.2448 30.3987C83.2759 30.4077 83.3001 30.4186 83.3174 30.4312C83.3467 30.4547 83.3614 30.4927 83.3614 30.5452C83.3614 30.6103 83.3484 30.66 83.3225 30.6943C83.2863 30.6853 83.231 30.6808 83.1568 30.6808H82.3307Z" fill="#131B12"/>
<path d="M86.1842 28.3372C86.1842 28.0587 86.0737 27.8742 85.8527 27.7838C85.7819 27.7549 85.7051 27.7404 85.6222 27.7404C85.5411 27.7404 85.4651 27.7476 85.3943 27.7621C85.3253 27.7766 85.264 27.7992 85.2105 27.8299C85.0896 27.8986 85.0292 27.9972 85.0292 28.1256C85.0292 28.2486 85.0792 28.3552 85.1794 28.4457C85.2899 28.5415 85.4953 28.66 85.7957 28.801C86.0962 28.9402 86.3275 29.093 86.4898 29.2594C86.6538 29.424 86.7358 29.6139 86.7358 29.829C86.7358 30.0714 86.6409 30.2757 86.451 30.4421C86.2282 30.6356 85.9201 30.7323 85.5264 30.7323C85.0447 30.7323 84.7115 30.6247 84.5268 30.4095C84.4629 30.3336 84.4309 30.2368 84.4309 30.1193C84.4309 29.8354 84.4974 29.6699 84.6304 29.6229C84.6632 29.612 84.6942 29.6066 84.7236 29.6066C84.8047 29.6066 84.8488 29.6328 84.8557 29.6853C84.8937 30.1374 85.1354 30.3634 85.5808 30.3634C85.8484 30.3634 86.0271 30.2848 86.1169 30.1274C86.1462 30.0768 86.1609 30.0153 86.1609 29.943C86.1609 29.8706 86.1385 29.8046 86.0936 29.745C86.0504 29.6853 85.99 29.6301 85.9123 29.5795C85.8346 29.5271 85.7422 29.4764 85.6352 29.4276L85.2907 29.2648C84.7624 29.0117 84.4983 28.6753 84.4983 28.2558C84.4983 27.9845 84.6131 27.7675 84.8427 27.6048C85.0603 27.4511 85.3408 27.3742 85.6844 27.3742C86.1505 27.3742 86.4406 27.48 86.5545 27.6916C86.5839 27.7458 86.5986 27.8055 86.5986 27.8706C86.5986 27.9357 86.5951 27.9945 86.5882 28.0469C86.5813 28.0976 86.5727 28.1437 86.5623 28.1853C86.545 28.2648 86.5252 28.3209 86.5027 28.3534C86.4579 28.3878 86.3931 28.405 86.3085 28.405C86.2256 28.405 86.1842 28.3824 86.1842 28.3372Z" fill="#131B12"/>
<path d="M89.7322 28.3372C89.7322 28.0587 89.6217 27.8742 89.4007 27.7838C89.3299 27.7549 89.2531 27.7404 89.1702 27.7404C89.089 27.7404 89.0131 27.7476 88.9423 27.7621C88.8732 27.7766 88.8119 27.7992 88.7584 27.8299C88.6376 27.8986 88.5771 27.9972 88.5771 28.1256C88.5771 28.2486 88.6272 28.3552 88.7273 28.4457C88.8378 28.5415 89.0433 28.66 89.3437 28.801C89.6441 28.9402 89.8755 29.093 90.0378 29.2594C90.2018 29.424 90.2838 29.6139 90.2838 29.829C90.2838 30.0714 90.1888 30.2757 89.9989 30.4421C89.7762 30.6356 89.468 30.7323 89.0744 30.7323C88.5927 30.7323 88.2595 30.6247 88.0747 30.4095C88.0108 30.3336 87.9789 30.2368 87.9789 30.1193C87.9789 29.8354 88.0454 29.6699 88.1783 29.6229C88.2111 29.612 88.2422 29.6066 88.2715 29.6066C88.3527 29.6066 88.3967 29.6328 88.4036 29.6853C88.4416 30.1374 88.6833 30.3634 89.1288 30.3634C89.3964 30.3634 89.5751 30.2848 89.6648 30.1274C89.6942 30.0768 89.7089 30.0153 89.7089 29.943C89.7089 29.8706 89.6864 29.8046 89.6415 29.745C89.5984 29.6853 89.5379 29.6301 89.4602 29.5795C89.3825 29.5271 89.2902 29.4764 89.1831 29.4276L88.8387 29.2648C88.3104 29.0117 88.0462 28.6753 88.0462 28.2558C88.0462 27.9845 88.161 27.7675 88.3907 27.6048C88.6082 27.4511 88.8888 27.3742 89.2323 27.3742C89.6985 27.3742 89.9885 27.48 90.1025 27.6916C90.1318 27.7458 90.1465 27.8055 90.1465 27.8706C90.1465 27.9357 90.1431 27.9945 90.1362 28.0469C90.1293 28.0976 90.1206 28.1437 90.1103 28.1853C90.093 28.2648 90.0731 28.3209 90.0507 28.3534C90.0058 28.3878 89.9411 28.405 89.8565 28.405C89.7736 28.405 89.7322 28.3824 89.7322 28.3372Z" fill="#131B12"/>
<path d="M91.4802 29.1835C91.4802 28.9628 91.501 28.7648 91.5424 28.5894C91.5838 28.414 91.6408 28.2594 91.7133 28.1256C91.7858 27.9918 91.8713 27.8778 91.9697 27.7838C92.0681 27.688 92.1734 27.6102 92.2857 27.5505C92.5049 27.433 92.7458 27.3742 93.0082 27.3742C93.3449 27.3742 93.6306 27.5026 93.8654 27.7594C94.1261 28.0415 94.2565 28.414 94.2565 28.877C94.2565 29.4846 94.0985 29.9574 93.7825 30.2956C93.508 30.5867 93.1791 30.7323 92.7958 30.7323C92.3953 30.7323 92.0742 30.5849 91.8325 30.2902C91.5976 30.0063 91.4802 29.6374 91.4802 29.1835ZM92.9486 30.2902C93.0643 30.2902 93.1679 30.2621 93.2594 30.2061C93.3509 30.1482 93.4286 30.0696 93.4925 29.9701C93.6202 29.7639 93.6841 29.4963 93.6841 29.1672C93.6841 28.8055 93.6168 28.4981 93.4821 28.2449C93.3302 27.9538 93.1118 27.8082 92.8269 27.8082C92.5973 27.8082 92.4134 27.9004 92.2753 28.0849C92.1285 28.2802 92.0552 28.5533 92.0552 28.9041C92.0552 29.3435 92.1475 29.6907 92.3323 29.9457C92.498 30.1753 92.7035 30.2902 92.9486 30.2902Z" fill="#131B12"/>
<path d="M96.8876 30.6943C96.8514 30.6853 96.7961 30.6808 96.7219 30.6808H95.844C95.6782 30.6808 95.572 30.65 95.5254 30.5886C95.5064 30.565 95.4969 30.5379 95.4969 30.5072C95.4969 30.4312 95.5107 30.3752 95.5384 30.339C95.5798 30.3535 95.6178 30.3607 95.6523 30.3607C95.6886 30.3607 95.7188 30.3562 95.743 30.3471C95.7671 30.3363 95.7861 30.3191 95.7999 30.2956C95.8241 30.2522 95.8362 30.1672 95.8362 30.0406V28.2666C95.8362 28.0966 95.806 27.9909 95.7456 27.9493C95.7214 27.933 95.6894 27.9249 95.6497 27.9249C95.61 27.9249 95.5781 27.9312 95.5539 27.9438C95.5315 27.9565 95.5125 27.9655 95.4969 27.971C95.4831 27.9764 95.471 27.9764 95.4607 27.971C95.4503 27.9637 95.44 27.9538 95.4296 27.9411C95.4037 27.9086 95.3908 27.8778 95.3908 27.8489C95.3908 27.8182 95.4011 27.7856 95.4218 27.7513C95.4443 27.7151 95.4797 27.6744 95.528 27.6292C95.5764 27.5822 95.6316 27.5397 95.6938 27.5017C95.8336 27.4167 95.9735 27.3742 96.1133 27.3742C96.2721 27.3742 96.3662 27.4827 96.3956 27.6997C96.4042 27.763 96.4094 27.829 96.4111 27.8977C96.6632 27.6645 96.923 27.5044 97.1906 27.4176C97.2804 27.3887 97.3616 27.3742 97.4341 27.3742C97.5083 27.3742 97.5687 27.3851 97.6154 27.4068C97.6637 27.4285 97.7017 27.4583 97.7293 27.4963C97.7811 27.5704 97.807 27.6654 97.807 27.7811C97.807 27.8968 97.8018 27.9891 97.7915 28.0578C97.7811 28.1265 97.7682 28.1871 97.7526 28.2395C97.7215 28.3462 97.6922 28.414 97.6646 28.4429C97.6162 28.4954 97.5515 28.5216 97.4703 28.5216C97.3875 28.5216 97.346 28.4963 97.346 28.4457C97.346 28.2522 97.3382 28.1283 97.3227 28.074C97.2934 27.9746 97.2381 27.9249 97.157 27.9249C97.0758 27.9249 97.0024 27.9348 96.9368 27.9547C96.8712 27.9728 96.8074 27.9981 96.7452 28.0306C96.6192 28.0957 96.5087 28.1798 96.4137 28.2829V30.0867C96.4189 30.2296 96.4785 30.3164 96.5924 30.3471C96.6252 30.3562 96.6623 30.3643 96.7038 30.3716C96.7452 30.3788 96.7806 30.3878 96.8099 30.3987C96.841 30.4077 96.8652 30.4186 96.8825 30.4312C96.9118 30.4547 96.9265 30.4927 96.9265 30.5452C96.9265 30.6103 96.9135 30.66 96.8876 30.6943Z" fill="#131B12"/>
<path d="M100.619 28.3372C100.619 28.0587 100.509 27.8742 100.288 27.7838C100.217 27.7549 100.14 27.7404 100.057 27.7404C99.9763 27.7404 99.9004 27.7476 99.8296 27.7621C99.7605 27.7766 99.6992 27.7992 99.6457 27.8299C99.5249 27.8986 99.4644 27.9972 99.4644 28.1256C99.4644 28.2486 99.5145 28.3552 99.6146 28.4457C99.7251 28.5415 99.9306 28.66 100.231 28.801C100.531 28.9402 100.763 29.093 100.925 29.2594C101.089 29.424 101.171 29.6139 101.171 29.829C101.171 30.0714 101.076 30.2757 100.886 30.4421C100.663 30.6356 100.355 30.7323 99.9617 30.7323C99.48 30.7323 99.1468 30.6247 98.962 30.4095C98.8981 30.3336 98.8662 30.2368 98.8662 30.1193C98.8662 29.8354 98.9327 29.6699 99.0656 29.6229C99.0984 29.612 99.1295 29.6066 99.1588 29.6066C99.24 29.6066 99.284 29.6328 99.2909 29.6853C99.3289 30.1374 99.5706 30.3634 100.016 30.3634C100.284 30.3634 100.462 30.2848 100.552 30.1274C100.581 30.0768 100.596 30.0153 100.596 29.943C100.596 29.8706 100.574 29.8046 100.529 29.745C100.486 29.6853 100.425 29.6301 100.348 29.5795C100.27 29.5271 100.177 29.4764 100.07 29.4276L99.726 29.2648C99.1977 29.0117 98.9335 28.6753 98.9335 28.2558C98.9335 27.9845 99.0483 27.7675 99.278 27.6048C99.4955 27.4511 99.7761 27.3742 100.12 27.3742C100.586 27.3742 100.876 27.48 100.99 27.6916C101.019 27.7458 101.034 27.8055 101.034 27.8706C101.034 27.9357 101.03 27.9945 101.023 28.0469C101.017 28.0976 101.008 28.1437 100.998 28.1853C100.98 28.2648 100.96 28.3209 100.938 28.3534C100.893 28.3878 100.828 28.405 100.744 28.405C100.661 28.405 100.619 28.3824 100.619 28.3372Z" fill="#131B12"/>
<path d="M102.538 30.282C102.538 30.1518 102.579 30.0442 102.66 29.9592C102.743 29.8724 102.845 29.829 102.966 29.829C103.163 29.829 103.298 29.9195 103.372 30.1003C103.395 30.1564 103.406 30.2169 103.406 30.282C103.406 30.4086 103.365 30.5162 103.282 30.6048C103.199 30.6898 103.094 30.7323 102.966 30.7323C102.845 30.7323 102.743 30.6898 102.66 30.6048C102.579 30.518 102.538 30.4104 102.538 30.282Z" fill="#131B12"/>
<path d="M108.176 30.5479L107.345 28.0876C107.283 27.9032 107.229 27.8109 107.182 27.8109C107.161 27.8109 107.137 27.8136 107.109 27.8191C107.082 27.8245 107.059 27.8145 107.042 27.7892C107.025 27.7639 107.016 27.7323 107.016 27.6943C107.016 27.6563 107.031 27.6174 107.06 27.5777C107.09 27.5379 107.127 27.5035 107.172 27.4746C107.272 27.4077 107.359 27.3742 107.433 27.3742C107.509 27.3742 107.565 27.376 107.601 27.3796C107.638 27.3833 107.672 27.3959 107.705 27.4176C107.771 27.4628 107.826 27.565 107.871 27.7241L108.536 30.084C108.7 29.5777 108.807 29.2431 108.855 29.0804C109.026 28.4764 109.14 28.0297 109.197 27.7404C109.209 27.6753 109.266 27.6201 109.368 27.5749C109.447 27.5406 109.514 27.5234 109.57 27.5234C109.625 27.5234 109.661 27.5279 109.678 27.537C109.697 27.5442 109.711 27.5587 109.72 27.5804C109.741 27.6238 109.756 27.6762 109.766 27.7377L110.455 30.103C110.585 29.7721 110.673 29.5397 110.719 29.4059L110.854 29.0099C110.997 28.5777 111.069 28.2404 111.069 27.9981C111.069 27.8263 110.99 27.7305 110.831 27.7106C110.814 27.6816 110.805 27.6518 110.805 27.6211C110.805 27.5885 110.82 27.5569 110.849 27.5261C110.878 27.4936 110.916 27.4655 110.963 27.442C111.056 27.3968 111.15 27.3742 111.245 27.3742C111.342 27.3742 111.416 27.3796 111.468 27.3905C111.52 27.4013 111.561 27.4203 111.592 27.4475C111.651 27.5017 111.68 27.5831 111.68 27.6916C111.68 27.7983 111.669 27.9068 111.647 28.0171C111.624 28.1256 111.594 28.2449 111.556 28.3751C111.518 28.5053 111.474 28.6419 111.424 28.7847C111.236 29.3091 111.098 29.669 111.012 29.8643L110.823 30.2766C110.785 30.3562 110.756 30.414 110.735 30.4502L110.67 30.556C110.598 30.6735 110.512 30.7323 110.414 30.7323C110.307 30.7323 110.219 30.7025 110.15 30.6428C110.122 30.6175 110.102 30.5858 110.09 30.5479L109.448 28.6057C109.275 29.1717 109.166 29.5261 109.119 29.669C108.977 30.0849 108.892 30.3245 108.863 30.3878C108.833 30.4493 108.807 30.4999 108.785 30.5397C108.762 30.5777 108.737 30.6103 108.71 30.6374C108.648 30.7007 108.579 30.7323 108.505 30.7323C108.402 30.7323 108.313 30.7007 108.238 30.6374C108.211 30.6139 108.19 30.584 108.176 30.5479Z" fill="#131B12"/>
<path d="M113.41 26.8697C113.352 26.8697 113.297 26.8606 113.247 26.8426C113.199 26.8227 113.156 26.7946 113.12 26.7585C113.044 26.6825 113.006 26.5803 113.006 26.452C113.006 26.329 113.051 26.225 113.141 26.14C113.227 26.055 113.331 26.0125 113.452 26.0125C113.573 26.0125 113.669 26.0505 113.742 26.1265C113.814 26.2024 113.85 26.3055 113.85 26.4357C113.85 26.5586 113.807 26.6626 113.721 26.7476C113.636 26.829 113.533 26.8697 113.41 26.8697ZM113.252 30.6808C112.986 30.6808 112.853 30.6175 112.853 30.4909C112.853 30.4258 112.867 30.3752 112.895 30.339C112.936 30.3535 112.974 30.3607 113.009 30.3607C113.169 30.3607 113.248 30.254 113.244 30.0406V28.2232C113.244 28.0966 113.227 28.0089 113.193 27.9601C113.16 27.9095 113.1 27.8842 113.014 27.8842C112.95 27.8842 112.892 27.8923 112.84 27.9086C112.809 27.9122 112.787 27.8869 112.773 27.8326C112.761 27.7838 112.768 27.7413 112.794 27.7051C112.82 27.6672 112.859 27.6283 112.913 27.5885C112.968 27.5469 113.029 27.5107 113.094 27.48C113.236 27.4095 113.354 27.3742 113.449 27.3742C113.544 27.3742 113.614 27.3887 113.659 27.4176C113.705 27.4465 113.741 27.4854 113.765 27.5343C113.803 27.6138 113.822 27.7422 113.822 27.9194V30.0867C113.827 30.2296 113.876 30.3164 113.97 30.3471C113.996 30.3562 114.027 30.3643 114.065 30.3716C114.103 30.3788 114.137 30.3878 114.166 30.3987C114.198 30.4077 114.222 30.4186 114.239 30.4312C114.268 30.4547 114.283 30.4927 114.283 30.5452C114.283 30.6103 114.27 30.66 114.244 30.6943C114.208 30.6853 114.153 30.6808 114.078 30.6808H113.252Z" fill="#131B12"/>
<path d="M116.22 28.8308L116.218 29.5442C116.218 29.8426 116.232 30.0225 116.262 30.084C116.291 30.1437 116.325 30.1799 116.365 30.1925C116.405 30.2034 116.456 30.2088 116.518 30.2088C116.58 30.2088 116.636 30.2043 116.686 30.1952C116.738 30.1844 116.786 30.1708 116.831 30.1546C116.876 30.1383 116.919 30.1202 116.961 30.1003L117.088 30.0433C117.117 30.0325 117.15 30.0641 117.186 30.1383C117.196 30.1582 117.202 30.1817 117.202 30.2088C117.202 30.2341 117.191 30.2676 117.171 30.3092C117.15 30.3508 117.109 30.3987 117.049 30.4529C116.99 30.5054 116.921 30.5524 116.842 30.594C116.669 30.6862 116.514 30.7323 116.375 30.7323C116.239 30.7323 116.128 30.7242 116.041 30.7079C115.955 30.6916 115.882 30.6591 115.821 30.6103C115.697 30.509 115.635 30.3236 115.635 30.0542V27.9194H115.378C115.325 27.9194 115.286 27.9013 115.262 27.8652C115.22 27.8091 115.2 27.7621 115.2 27.7241C115.2 27.6608 115.214 27.6256 115.244 27.6183C115.518 27.5695 115.713 27.3561 115.826 26.9782C115.859 26.8643 115.885 26.7295 115.904 26.574C115.987 26.5596 116.049 26.5523 116.091 26.5523C116.134 26.5523 116.171 26.5749 116.202 26.6201C116.233 26.6653 116.248 26.7178 116.246 26.7775C116.246 26.8371 116.245 26.8932 116.243 26.9456C116.242 26.9981 116.24 27.055 116.238 27.1165L116.228 27.4963H117.124C117.146 27.5379 117.158 27.5822 117.158 27.6292V27.7133C117.158 27.7892 117.119 27.8516 117.041 27.9004C116.963 27.9475 116.877 27.971 116.782 27.971C116.689 27.971 116.622 27.9701 116.58 27.9683C116.54 27.9646 116.502 27.961 116.464 27.9574L116.35 27.9411C116.31 27.9375 116.268 27.9339 116.223 27.9303V27.9601L116.22 28.8308Z" fill="#131B12"/>
<path d="M119.698 30.6943C119.664 30.6853 119.608 30.6808 119.532 30.6808H118.706C118.541 30.6808 118.434 30.65 118.388 30.5886C118.369 30.565 118.359 30.5379 118.359 30.5072C118.359 30.4312 118.373 30.3752 118.401 30.339C118.442 30.3535 118.49 30.3607 118.543 30.3607C118.597 30.3607 118.636 30.3381 118.662 30.2929C118.688 30.2477 118.7 30.1636 118.698 30.0406V26.6798C118.698 26.555 118.686 26.4746 118.662 26.4384C118.626 26.3805 118.562 26.3516 118.471 26.3516H118.419C118.403 26.3516 118.385 26.3543 118.364 26.3597C118.345 26.3633 118.329 26.3615 118.315 26.3543C118.301 26.3453 118.289 26.3335 118.279 26.319C118.243 26.263 118.284 26.187 118.403 26.0912C118.578 25.9519 118.755 25.8823 118.937 25.8823C119.134 25.8823 119.244 25.9935 119.268 26.216C119.275 26.2829 119.279 26.3534 119.279 26.4275V27.9059C119.539 27.6762 119.818 27.5162 120.115 27.4258C120.224 27.3914 120.333 27.3742 120.444 27.3742C120.556 27.3742 120.662 27.3896 120.763 27.4203C120.864 27.4511 120.952 27.5008 121.024 27.5695C121.183 27.7178 121.262 27.9438 121.262 28.2476V30.0678C121.262 30.2178 121.311 30.3101 121.407 30.3444C121.435 30.3553 121.468 30.3643 121.506 30.3716C121.544 30.3788 121.577 30.3878 121.607 30.3987C121.638 30.4077 121.662 30.4186 121.679 30.4312C121.709 30.4547 121.723 30.4927 121.723 30.5452C121.723 30.6103 121.71 30.66 121.684 30.6943C121.648 30.6853 121.593 30.6808 121.519 30.6808H120.693C120.527 30.6808 120.421 30.65 120.374 30.5886C120.355 30.565 120.346 30.5379 120.346 30.5072C120.346 30.4294 120.359 30.3734 120.384 30.339C120.428 30.3535 120.474 30.3607 120.524 30.3607C120.574 30.3607 120.612 30.3417 120.638 30.3037C120.666 30.2658 120.681 30.1961 120.685 30.0949V28.4402C120.685 28.1328 120.598 27.961 120.423 27.9249C120.37 27.914 120.302 27.9086 120.221 27.9086C120.142 27.9086 120.054 27.9212 119.957 27.9466C119.862 27.9719 119.772 28.0044 119.688 28.0442C119.52 28.1238 119.384 28.2187 119.279 28.329V30.0678C119.279 30.2178 119.327 30.3101 119.424 30.3444C119.451 30.3553 119.484 30.3643 119.522 30.3716C119.56 30.3788 119.594 30.3878 119.623 30.3987C119.654 30.4077 119.678 30.4186 119.696 30.4312C119.725 30.4547 119.74 30.4927 119.74 30.5452C119.74 30.6084 119.726 30.6582 119.698 30.6943Z" fill="#131B12"/>
<path d="M125.722 30.6808C125.458 30.6808 125.326 30.6175 125.326 30.4909C125.326 30.424 125.339 30.3734 125.365 30.339C125.406 30.3535 125.445 30.3607 125.481 30.3607C125.631 30.3607 125.709 30.2658 125.714 30.0759V26.6798C125.714 26.5532 125.702 26.4728 125.678 26.4384C125.638 26.3805 125.574 26.3516 125.486 26.3516C125.447 26.3516 125.408 26.3561 125.37 26.3652C125.333 26.3724 125.308 26.3724 125.292 26.3652C125.278 26.3561 125.267 26.3444 125.258 26.3299C125.224 26.2702 125.267 26.1943 125.388 26.102C125.578 25.9556 125.765 25.8823 125.95 25.8823C126.147 25.8823 126.257 25.9935 126.281 26.216C126.288 26.2829 126.292 26.3534 126.292 26.4275V30.0867C126.297 30.2278 126.346 30.3146 126.439 30.3471C126.467 30.3562 126.499 30.3643 126.535 30.3716C126.573 30.3788 126.608 30.3878 126.639 30.3987C126.67 30.4077 126.694 30.4186 126.711 30.4312C126.741 30.4547 126.755 30.4927 126.755 30.5452C126.755 30.6084 126.741 30.6582 126.714 30.6943C126.679 30.6853 126.624 30.6808 126.548 30.6808H125.722Z" fill="#131B12"/>
<path d="M127.763 29.1835C127.763 28.9628 127.783 28.7648 127.825 28.5894C127.866 28.414 127.923 28.2594 127.996 28.1256C128.068 27.9918 128.154 27.8778 128.252 27.7838C128.35 27.688 128.456 27.6102 128.568 27.5505C128.787 27.433 129.028 27.3742 129.291 27.3742C129.627 27.3742 129.913 27.5026 130.148 27.7594C130.408 28.0415 130.539 28.414 130.539 28.877C130.539 29.4846 130.381 29.9574 130.065 30.2956C129.79 30.5867 129.461 30.7323 129.078 30.7323C128.678 30.7323 128.357 30.5849 128.115 30.2902C127.88 30.0063 127.763 29.6374 127.763 29.1835ZM129.231 30.2902C129.347 30.2902 129.45 30.2621 129.542 30.2061C129.633 30.1482 129.711 30.0696 129.775 29.9701C129.903 29.7639 129.966 29.4963 129.966 29.1672C129.966 28.8055 129.899 28.4981 129.764 28.2449C129.613 27.9538 129.394 27.8082 129.109 27.8082C128.88 27.8082 128.696 27.9004 128.558 28.0849C128.411 28.2802 128.338 28.5533 128.338 28.9041C128.338 29.3435 128.43 29.6907 128.615 29.9457C128.78 30.1753 128.986 30.2902 129.231 30.2902Z" fill="#131B12"/>
<path d="M132.693 30.5479C132.117 28.971 131.82 28.1572 131.803 28.1066C131.785 28.0542 131.767 28.0062 131.748 27.9628C131.705 27.8616 131.666 27.8109 131.632 27.8109C131.609 27.8109 131.584 27.8136 131.557 27.8191C131.529 27.8245 131.507 27.8145 131.489 27.7892C131.472 27.7639 131.463 27.7323 131.463 27.6943C131.463 27.6563 131.48 27.6174 131.513 27.5777C131.547 27.5379 131.589 27.5035 131.639 27.4746C131.748 27.4077 131.835 27.3742 131.898 27.3742C131.962 27.3742 132.013 27.376 132.051 27.3796C132.089 27.3833 132.125 27.3968 132.157 27.4203C132.226 27.4673 132.284 27.5686 132.331 27.7241L133.09 30.0949C133.211 29.8399 133.3 29.6446 133.359 29.509L133.52 29.1129C133.713 28.6138 133.81 28.263 133.81 28.0605V28.0252C133.81 27.9348 133.79 27.8634 133.75 27.8109C133.712 27.7585 133.644 27.7268 133.546 27.716C133.528 27.6871 133.52 27.6572 133.52 27.6265C133.52 27.5939 133.536 27.5623 133.569 27.5315C133.603 27.499 133.647 27.471 133.698 27.4475C133.805 27.3986 133.922 27.3742 134.048 27.3742C134.176 27.3742 134.274 27.395 134.343 27.4366C134.414 27.4764 134.449 27.556 134.449 27.6753C134.449 27.9285 134.285 28.4321 133.957 29.1862L133.722 29.7043C133.559 30.0479 133.437 30.2811 133.354 30.4041C133.205 30.6229 133.075 30.7323 132.963 30.7323C132.882 30.7323 132.809 30.6989 132.745 30.632C132.723 30.6084 132.706 30.5804 132.693 30.5479Z" fill="#131B12"/>
<path d="M135.591 29.2214C135.591 29.0026 135.613 28.8082 135.656 28.6382C135.699 28.4683 135.757 28.3164 135.83 28.1825C135.904 28.0469 135.99 27.9285 136.089 27.8272C136.189 27.7259 136.296 27.6418 136.41 27.5749C136.634 27.4411 136.855 27.3742 137.073 27.3742C137.29 27.3742 137.465 27.4149 137.596 27.4963C137.727 27.5758 137.834 27.6825 137.917 27.8164C138.071 28.0713 138.147 28.4104 138.147 28.8336C138.147 28.9909 138.084 29.0713 137.958 29.075L136.151 29.1157C136.161 29.5081 136.258 29.7983 136.441 29.9864C136.596 30.1455 136.797 30.2251 137.044 30.2251C137.412 30.2251 137.711 30.1446 137.94 29.9837C137.956 29.9837 137.975 29.9972 137.997 30.0244C138.04 30.0786 138.062 30.1256 138.062 30.1654C138.062 30.2522 137.958 30.3634 137.751 30.499C137.513 30.6546 137.235 30.7323 136.917 30.7323C136.503 30.7323 136.178 30.594 135.941 30.3173C135.708 30.0461 135.591 29.6808 135.591 29.2214ZM136.166 28.7657C136.664 28.7404 137.118 28.707 137.531 28.6654C137.55 28.0903 137.36 27.8028 136.961 27.8028C136.739 27.8028 136.557 27.8932 136.415 28.074C136.285 28.2404 136.203 28.471 136.166 28.7657Z" fill="#131B12"/>
<path d="M139.536 30.282C139.536 30.1518 139.576 30.0442 139.657 29.9592C139.74 29.8724 139.842 29.829 139.963 29.829C140.16 29.829 140.295 29.9195 140.369 30.1003C140.392 30.1564 140.403 30.2169 140.403 30.282C140.403 30.4086 140.362 30.5162 140.279 30.6048C140.196 30.6898 140.091 30.7323 139.963 30.7323C139.842 30.7323 139.74 30.6898 139.657 30.6048C139.576 30.518 139.536 30.4104 139.536 30.282Z" fill="#131B12"/>
</svg>
